<?xml version="1.0" encoding="utf-8" standalone="no"?>
<!DOCTYPE svg PUBLIC "-//W3C//DTD SVG 1.1//EN"
  "http://www.w3.org/Graphics/SVG/1.1/DTD/svg11.dtd">
<svg xmlns:xlink="http://www.w3.org/1999/xlink" width="223.2pt" height="55.44pt" viewBox="0 0 223.2 55.44" xmlns="http://www.w3.org/2000/svg" version="1.1">
 <metadata>
  <rdf:RDF xmlns:dc="http://purl.org/dc/elements/1.1/" xmlns:cc="http://creativecommons.org/ns#" xmlns:rdf="http://www.w3.org/1999/02/22-rdf-syntax-ns#">
   <cc:Work>
    <dc:type rdf:resource="http://purl.org/dc/dcmitype/StillImage"/>
    <dc:date>2026-06-15T11:13:24.586309</dc:date>
    <dc:format>image/svg+xml</dc:format>
    <dc:creator>
     <cc:Agent>
      <dc:title>Matplotlib v3.10.8, https://matplotlib.org/</dc:title>
     </cc:Agent>
    </dc:creator>
   </cc:Work>
  </rdf:RDF>
 </metadata>
 <defs>
  <style type="text/css">*{stroke-linejoin: round; stroke-linecap: butt}</style>
 </defs>
 <g id="figure_1">
  <g id="patch_1">
   <path d="M 0 55.44 
L 223.2 55.44 
L 223.2 0 
L 0 0 
L 0 55.44 
z
" style="fill: none"/>
  </g>
  <g id="axes_1">
   <g id="line2d_1">
    <path d="M 10.145455 51.365669 
L 10.420866 51.613039 
L 10.902835 52.085953 
L 11.247099 52.376976 
L 13.106123 52.682551 
L 13.863504 52.929921 
L 14.070062 53.024504 
L 14.552031 53.515606 
L 14.896295 53.799354 
L 15.791381 54.337748 
L 16.066792 54.195874 
L 16.342203 54.148583 
L 16.686467 54.126756 
L 17.306142 53.781165 
L 17.856964 53.570173 
L 18.270081 53.642929 
L 18.889755 53.912126 
L 19.9914 53.813905 
L 20.611074 53.300976 
L 20.886485 52.184173 
L 21.437308 46.847527 
L 21.50616 46.887543 
L 21.575013 46.989401 
L 22.263541 51.180142 
L 22.607805 51.092835 
L 23.089774 50.776346 
L 23.296332 50.870929 
L 23.709449 51.754913 
L 24.191418 52.91537 
L 24.466829 53.148189 
L 25.22421 53.075433 
L 25.430768 52.864441 
L 26.463559 49.244834 
L 26.945529 48.429968 
L 27.22094 48.302645 
L 27.358645 48.611858 
L 28.116026 50.747244 
L 28.873406 50.878205 
L 29.630786 49.845071 
L 30.043903 49.979669 
L 30.319314 50.583543 
L 31.007842 52.76622 
L 31.352105 52.842614 
L 32.109486 52.893543 
L 32.866866 53.042693 
L 33.486541 53.319165 
L 33.96851 53.810268 
L 34.312774 54.337748 
L 34.794743 55.108961 
L 35.070155 55.130787 
L 35.414418 54.836126 
L 36.171799 53.87211 
L 36.791474 53.555622 
L 37.893118 53.388283 
L 38.099676 53.446488 
L 38.375087 53.366457 
L 39.132468 52.929921 
L 41.611167 53.017228 
L 42.506253 53.661118 
L 43.057075 54.428693 
L 43.401339 54.486898 
L 43.952161 54.541465 
L 44.571836 54.948898 
L 44.9161 54.683339 
L 45.191511 54.639685 
L 45.811185 54.759732 
L 46.086597 54.723354 
L 47.463652 54.603307 
L 47.945621 54.705165 
L 48.289885 54.817937 
L 48.840707 54.625134 
L 49.253824 54.603307 
L 50.355468 54.705165 
L 50.90629 54.82885 
L 51.181701 54.636047 
L 51.66367 54.315921 
L 52.283345 54.392315 
L 53.591548 54.563291 
L 54.693192 54.370488 
L 55.106308 54.192236 
L 55.381719 54.243165 
L 56.345658 54.414142 
L 56.827627 54.148583 
L 57.722713 53.693858 
L 58.066977 53.759339 
L 58.480094 53.944866 
L 58.824358 53.242772 
L 59.237474 52.457008 
L 59.788296 52.42063 
L 60.407971 53.19548 
L 60.476824 53.140913 
L 60.752235 53.140913 
L 61.027646 53.290063 
L 61.165352 53.366457 
L 61.647321 53.046331 
L 61.922732 53.391921 
L 62.473554 54.112205 
L 62.886671 54.425055 
L 63.093229 54.308646 
L 63.575198 53.592 
L 63.988315 52.798961 
L 64.194873 51.62759 
L 64.814548 46.374614 
L 64.883401 46.403716 
L 65.089959 47.069433 
L 65.778487 49.92874 
L 66.467014 51.398409 
L 66.880131 52.38789 
L 67.430953 53.879386 
L 67.706364 53.912126 
L 69.083419 53.810268 
L 69.634241 53.635653 
L 70.391622 53.093622 
L 70.59818 53.046331 
L 71.149002 51.602126 
L 71.35556 51.31474 
L 71.493266 51.340205 
L 72.181794 49.917827 
L 73.696554 53.017228 
L 74.178524 53.337354 
L 74.660493 53.668394 
L 75.07361 53.664756 
L 76.58837 53.693858 
L 78.103131 53.584724 
L 78.791659 53.351905 
L 79.273628 53.268236 
L 79.549039 52.402441 
L 80.099861 49.146614 
L 80.512978 46.840252 
L 80.650683 46.872992 
L 80.857242 47.178567 
L 81.132653 48.066189 
L 81.270358 47.902488 
L 81.545769 47.545984 
L 81.683475 47.702409 
L 82.372002 50.001496 
L 82.440855 49.943291 
L 82.785119 49.455827 
L 82.991677 48.895606 
L 83.542499 47.164015 
L 83.611352 47.196756 
L 84.162174 48.299008 
L 84.231027 48.240803 
L 84.575291 46.898456 
L 84.988407 45.494267 
L 85.263818 45.323291 
L 85.539229 44.559354 
L 85.883493 43.635354 
L 86.021199 43.831795 
L 86.709726 45.607039 
L 87.398254 45.723449 
L 88.155634 47.174929 
L 88.431045 47.145827 
L 88.637604 47.415023 
L 89.394984 49.019291 
L 90.014659 49.357606 
L 90.29007 48.946535 
L 90.703187 48.131669 
L 90.978598 48.14622 
L 91.322861 48.186236 
L 91.667125 47.989795 
L 91.942536 48.160771 
L 92.149095 48.531827 
L 93.113033 50.594457 
L 93.457297 50.827275 
L 93.801561 50.710866 
L 94.627794 49.990583 
L 94.834352 50.307071 
L 96.073702 53.01359 
L 96.349113 53.206394 
L 96.831082 53.792079 
L 97.106494 54.101291 
L 98.139285 54.112205 
L 99.585193 53.606551 
L 100.273721 52.511575 
L 101.099954 52.446094 
L 101.788481 53.257323 
L 102.270451 53.111811 
L 102.545862 53.340992 
L 102.821273 53.588362 
L 103.234389 53.606551 
L 103.716359 53.453764 
L 104.198328 53.275512 
L 104.818003 53.355543 
L 105.231119 52.831701 
L 105.713089 52.286031 
L 106.057353 52.184173 
L 106.952439 52.242378 
L 107.709819 52.969937 
L 107.98523 52.693464 
L 108.880316 51.754913 
L 109.086874 51.878598 
L 109.98196 52.773496 
L 110.326224 52.682551 
L 110.670488 52.573417 
L 111.152457 52.973575 
L 111.359015 53.075433 
L 111.909837 53.151827 
L 112.391807 53.337354 
L 113.97542 53.31189 
L 114.250831 53.170016 
L 114.663948 52.878992 
L 115.008212 53.122724 
L 115.283623 53.322803 
L 115.696739 53.242772 
L 116.385267 53.522882 
L 116.936089 53.391921 
L 118.175439 53.428299 
L 118.726261 53.089984 
L 118.932819 52.668 
L 119.345936 51.663968 
L 119.552494 51.907701 
L 120.034463 53.351905 
L 120.378727 53.260961 
L 120.585285 53.22822 
L 120.860697 53.461039 
L 121.20496 53.682945 
L 121.549224 53.391921 
L 121.962341 53.06452 
L 123.545954 53.039055 
L 126.162359 53.140913 
L 126.713181 53.180929 
L 127.195151 52.966299 
L 127.814826 52.55159 
L 128.090237 52.475197 
L 128.365648 52.668 
L 128.709911 52.897181 
L 129.054175 52.806236 
L 129.949261 52.446094 
L 130.706642 50.794535 
L 131.188611 50.88548 
L 131.326316 50.48896 
L 132.014844 47.09126 
L 132.083697 47.214945 
L 132.90993 51.573023 
L 133.529605 51.514819 
L 134.14928 51.21652 
L 134.837807 51.220157 
L 135.250924 51.227433 
L 136.214863 51.452976 
L 136.765685 51.198331 
L 137.316507 51.296551 
L 137.936182 50.972787 
L 138.211593 50.863653 
L 138.624709 50.259779 
L 138.831268 50.263417 
L 139.037826 50.598094 
L 139.313237 50.972787 
L 139.657501 50.943685 
L 140.208323 50.947323 
L 140.827998 50.943685 
L 141.034556 50.990976 
L 141.929642 51.576661 
L 142.1362 51.609401 
L 143.650961 50.656299 
L 144.064077 48.968362 
L 144.339489 48.051638 
L 144.477194 48.091653 
L 144.683752 48.448157 
L 144.890311 48.72463 
L 145.028016 48.79011 
L 145.509986 49.248472 
L 145.854249 50.136094 
L 146.060808 50.376189 
L 146.61163 50.270693 
L 146.955894 49.168441 
L 147.437863 47.284063 
L 147.919832 46.814787 
L 147.988685 46.796598 
L 148.195243 47.302252 
L 148.814918 49.554047 
L 148.952624 49.230283 
L 149.503446 46.872992 
L 149.916562 43.468015 
L 150.467384 37.760314 
L 150.742795 36.59622 
L 151.087059 35.988708 
L 151.293618 35.657669 
L 151.706734 34.257117 
L 152.050998 33.176692 
L 152.257556 33.118487 
L 152.464115 33.424062 
L 152.739526 34.311684 
L 153.152642 36.257905 
L 153.772317 39.641055 
L 154.254286 41.128913 
L 154.529697 41.903763 
L 155.631342 46.571055 
L 156.526427 48.670063 
L 157.765777 50.88548 
L 158.041188 51.147401 
L 158.59201 51.656693 
L 159.142832 51.816756 
L 159.487096 52.125968 
L 159.900213 52.366063 
L 160.106771 52.489748 
L 160.58874 52.966299 
L 160.795299 53.122724 
L 160.933004 53.231858 
L 161.346121 53.813905 
L 161.621532 53.944866 
L 162.241207 53.446488 
L 162.654323 53.199118 
L 162.929734 52.493386 
L 163.411704 51.351118 
L 163.755968 51.140126 
L 164.031379 51.285638 
L 164.375642 51.474803 
L 164.582201 51.391134 
L 164.857612 51.438425 
L 165.408434 51.442063 
L 165.683845 51.267449 
L 165.890403 51.438425 
L 166.096961 52.035024 
L 166.785489 54.465071 
L 167.129753 54.603307 
L 167.955986 54.541465 
L 168.231397 54.206787 
L 168.713366 53.653842 
L 169.05763 53.744787 
L 169.401894 53.784803 
L 169.746158 53.628378 
L 170.159274 53.515606 
L 171.123213 53.599276 
L 171.260919 53.388283 
L 172.018299 51.427512 
L 172.569121 51.649417 
L 172.982238 51.707622 
L 173.395354 51.540283 
L 173.670765 50.878205 
L 174.221587 49.528582 
L 174.703557 49.313953 
L 175.047821 48.433606 
L 175.52979 47.065795 
L 175.736348 47.003952 
L 176.011759 47.451401 
L 176.424876 49.415811 
L 177.044551 52.973575 
L 178.352753 54.537827 
L 178.972428 54.603307 
L 180.142925 54.497811 
L 181.038011 54.174047 
L 181.451127 54.075827 
L 182.483919 53.34463 
L 183.172447 52.933559 
L 185.306882 52.929921 
L 185.651146 52.988126 
L 186.270821 53.457402 
L 186.890496 53.464677 
L 188.336404 53.435575 
L 191.159367 52.944472 
L 193.293803 52.76622 
L 193.500361 52.391527 
L 193.844625 51.118299 
L 194.188889 50.085165 
L 194.395447 49.877811 
L 194.808563 49.903275 
L 195.083974 50.285244 
L 195.565944 50.940047 
L 195.772502 50.961874 
L 196.116766 50.678126 
L 196.392177 50.194299 
L 197.080705 48.302645 
L 197.21841 48.309921 
L 197.631527 48.801023 
L 198.320054 50.554441 
L 199.008582 53.028142 
L 199.283993 53.089984 
L 199.765962 53.144551 
L 199.972521 53.089984 
L 200.179079 52.762583 
L 201.005312 50.816362 
L 201.280723 50.921858 
L 201.69384 51.176504 
L 201.969251 51.111023 
L 202.106956 50.576268 
L 202.520073 47.491417 
L 202.657778 47.43685 
L 202.726631 47.61874 
L 202.933189 49.888724 
L 203.277453 52.824425 
L 203.552864 53.450126 
L 203.965981 53.759339 
L 204.241392 53.864835 
L 205.205331 53.912126 
L 205.618447 53.748425 
L 206.169269 53.544709 
L 206.513533 53.701134 
L 207.339766 54.148583 
L 208.028294 54.294094 
L 208.234852 54.355937 
L 208.510263 54.261354 
L 209.198791 53.693858 
L 209.543055 53.402835 
L 210.025024 52.973575 
L 210.300435 52.929921 
L 210.644699 52.835338 
L 211.333226 52.522488 
L 213.054545 52.180535 
L 213.054545 52.180535 
" clip-path="url(#pedfc23610d)" style="fill: none; stroke: #1f77b4; stroke-opacity: 0.9; stroke-width: 2.5; stroke-linecap: square"/>
   </g>
   <g id="line2d_2">
    <path d="M 10.145455 55.44 
L 213.054545 55.44 
L 213.054545 55.44 
" clip-path="url(#pedfc23610d)" style="fill: none; stroke-dasharray: 2,3.3; stroke-dashoffset: 0; stroke: #8d99ae; stroke-opacity: 0.7; stroke-width: 2"/>
   </g>
  </g>
 </g>
 <defs>
  <clipPath id="pedfc23610d">
   <rect x="0" y="-0" width="223.2" height="55.44"/>
  </clipPath>
 </defs>
</svg>
