<?xml version="1.0" encoding="utf-8" standalone="no"?>
<!DOCTYPE svg PUBLIC "-//W3C//DTD SVG 1.1//EN"
  "http://www.w3.org/Graphics/SVG/1.1/DTD/svg11.dtd">
<svg xmlns:xlink="http://www.w3.org/1999/xlink" width="223.2pt" height="55.44pt" viewBox="0 0 223.2 55.44" xmlns="http://www.w3.org/2000/svg" version="1.1">
 <metadata>
  <rdf:RDF xmlns:dc="http://purl.org/dc/elements/1.1/" xmlns:cc="http://creativecommons.org/ns#" xmlns:rdf="http://www.w3.org/1999/02/22-rdf-syntax-ns#">
   <cc:Work>
    <dc:type rdf:resource="http://purl.org/dc/dcmitype/StillImage"/>
    <dc:date>2026-05-06T16:20:33.194001</dc:date>
    <dc:format>image/svg+xml</dc:format>
    <dc:creator>
     <cc:Agent>
      <dc:title>Matplotlib v3.10.8, https://matplotlib.org/</dc:title>
     </cc:Agent>
    </dc:creator>
   </cc:Work>
  </rdf:RDF>
 </metadata>
 <defs>
  <style type="text/css">*{stroke-linejoin: round; stroke-linecap: butt}</style>
 </defs>
 <g id="figure_1">
  <g id="patch_1">
   <path d="M 0 55.44 
L 223.2 55.44 
L 223.2 0 
L 0 0 
L 0 55.44 
z
" style="fill: none"/>
  </g>
  <g id="axes_1">
   <g id="line2d_1">
    <path d="M 10.375771 52.698052 
L 10.606088 52.527891 
L 11.066722 51.743674 
L 11.757672 51.030666 
L 12.218306 50.60508 
L 13.139573 48.831714 
L 13.830523 48.125919 
L 14.291157 47.824069 
L 15.212424 47.983872 
L 15.673057 48.061554 
L 16.364008 47.795216 
L 17.054958 47.167102 
L 18.667176 45.353785 
L 19.358126 44.798915 
L 19.588443 44.681282 
L 19.81876 44.337263 
L 20.740027 41.94688 
L 23.043195 35.359457 
L 24.885729 30.709642 
L 25.346363 29.966116 
L 26.037313 29.253662 
L 26.728263 28.92074 
L 27.188897 29.04947 
L 27.879847 29.577707 
L 29.261748 31.630727 
L 31.334599 36.466979 
L 31.564916 36.793243 
L 32.025549 36.879803 
L 32.255866 36.704464 
L 32.946817 35.608039 
L 33.637767 34.101011 
L 34.328717 32.580666 
L 35.480301 30.638619 
L 35.940935 29.369075 
L 36.862202 24.714821 
L 37.783469 19.916301 
L 38.47442 17.312848 
L 40.316954 12.754032 
L 40.777587 12.438866 
L 41.238221 12.370062 
L 41.698855 13.089174 
L 42.850439 15.452922 
L 43.311072 15.919014 
L 43.771706 16.065499 
L 44.232339 15.852429 
L 44.692973 15.295339 
L 46.30519 13.040345 
L 47.226458 12.065993 
L 47.687091 12.001628 
L 48.147725 12.283502 
L 48.608358 12.769568 
L 55.287545 22.626289 
L 55.978496 23.154525 
L 56.669446 23.554032 
L 57.360396 24.370801 
L 58.281663 26.119753 
L 58.972614 27.449223 
L 59.663564 28.496819 
L 60.354514 28.982885 
L 61.736415 29.266979 
L 62.427366 29.43344 
L 66.342751 31.091393 
L 67.494335 31.763896 
L 68.645919 32.751566 
L 70.258136 34.409519 
L 73.021938 37.66328 
L 75.325106 41.665006 
L 75.785739 41.880296 
L 76.47669 41.951319 
L 77.397957 41.878076 
L 78.088907 42.148853 
L 79.931442 43.003354 
L 81.773976 43.02111 
L 82.464926 42.828015 
L 83.155877 42.215438 
L 83.61651 41.511862 
L 84.537777 38.286954 
L 85.689361 34.325179 
L 86.149995 33.346387 
L 86.610628 32.767102 
L 87.992529 31.539729 
L 89.604747 30.472158 
L 90.986647 29.43344 
L 91.907915 28.805327 
L 93.750449 27.666732 
L 104.805655 21.711862 
L 105.957239 21.352306 
L 107.569456 20.799655 
L 114.248643 17.667965 
L 115.400227 16.855635 
L 116.091177 15.8036 
L 117.703395 13.173514 
L 118.394345 12.67635 
L 119.315612 12.29238 
L 119.776246 11.770801 
L 121.61878 8.812232 
L 122.079414 8.461554 
L 123.000681 8.401628 
L 123.921948 8.361677 
L 125.303849 7.891147 
L 127.146383 6.983379 
L 128.06765 6.486215 
L 130.370818 4.182392 
L 131.752719 3.694106 
L 132.443669 3.585351 
L 133.364937 3.538742 
L 134.977154 2.875117 
L 135.898421 2.744168 
L 137.740956 2.699778 
L 138.431906 2.673144 
L 139.122856 2.637633 
L 139.813807 2.52 
L 140.735074 2.824069 
L 141.195707 3.11926 
L 141.656341 3.6364 
L 142.577608 5.04799 
L 143.959509 7.507176 
L 144.880776 8.472651 
L 145.34141 9.329371 
L 145.571726 9.8909 
L 146.262677 12.942688 
L 147.644577 19.396942 
L 148.105211 20.679803 
L 148.565845 21.310136 
L 149.256795 21.836153 
L 149.717429 21.918274 
L 149.947745 21.869445 
L 150.178062 21.962663 
L 150.869012 22.852676 
L 152.020596 24.919014 
L 152.48123 25.720247 
L 154.323764 27.273884 
L 154.323764 27.273884 
" clip-path="url(#pa6a0e18d30)" style="fill: none; stroke: #1f77b4; stroke-opacity: 0.9; stroke-width: 2.5; stroke-linecap: square"/>
   </g>
   <g id="line2d_2">
    <path d="M 155.245031 27.788804 
L 155.475348 27.868705 
L 155.705665 27.950826 
" clip-path="url(#pa6a0e18d30)" style="fill: none; stroke: #1f77b4; stroke-opacity: 0.9; stroke-width: 2.5; stroke-linecap: square"/>
   </g>
   <g id="line2d_3">
    <path d="M 156.396615 28.203847 
L 158.008833 28.712109 
L 159.160417 28.911862 
L 161.463585 29.116054 
L 161.924218 29.30471 
L 164.227386 30.884982 
L 166.069921 30.778446 
L 166.991188 31.160197 
L 169.064039 32.700518 
L 169.754989 33.33529 
L 170.676256 33.852429 
L 171.13689 33.881282 
L 171.597523 33.610506 
L 172.749107 32.787078 
L 173.209741 32.767102 
L 173.670375 32.929125 
L 174.131008 33.304217 
L 175.052275 34.356252 
L 175.512909 34.560444 
L 176.203859 34.49164 
L 176.664493 34.209766 
L 177.355443 33.690407 
L 177.816077 33.654895 
L 178.507027 33.774747 
L 179.197978 33.563896 
L 179.658611 33.20434 
L 180.579878 32.09016 
L 181.040512 31.735043 
L 181.501145 31.746141 
L 181.961779 31.899285 
L 182.652729 32.764883 
L 183.573996 34.258594 
L 185.186214 37.914081 
L 185.877164 38.69312 
L 186.337798 38.633194 
L 187.489382 38.43566 
L 189.331916 38.200395 
L 190.713817 38.140469 
L 193.247302 38.52 
L 193.707935 38.60656 
L 196.471737 38.753046 
L 199.005221 39.358964 
L 200.156805 39.183625 
L 201.308389 38.64873 
L 201.769023 39.065993 
L 202.229656 39.261307 
L 202.920607 39.374501 
L 203.38124 39.390037 
L 203.611557 39.338989 
L 204.072191 38.715314 
L 204.532824 37.638866 
L 204.763141 37.425795 
L 205.684408 37.649963 
L 206.145042 37.894106 
L 206.375359 38.147127 
L 207.066309 39.520986 
L 207.296626 39.658594 
L 207.296626 39.658594 
" clip-path="url(#pa6a0e18d30)" style="fill: none; stroke: #d2691e; stroke-opacity: 0.9; stroke-width: 2.5; stroke-linecap: square"/>
   </g>
   <g id="line2d_4">
    <path d="M 207.987576 40.442072 
L 208.217893 40.959211 
L 208.44821 41.43418 
L 208.678526 41.969075 
L 208.908843 42.59053 
L 209.13916 43.302984 
L 209.369477 44.033194 
L 209.599794 44.73455 
L 209.83011 45.482515 
L 210.060427 46.281529 
L 210.290744 47.111615 
L 210.521061 47.810752 
L 210.751378 48.474377 
L 210.981694 49.10693 
L 211.212011 49.670678 
L 211.442328 50.145647 
L 211.672645 50.565129 
L 211.902962 50.929125 
L 212.133278 51.20434 
L 212.363595 51.401874 
L 212.593912 51.490654 
" clip-path="url(#pa6a0e18d30)" style="fill: none; stroke: #1f77b4; stroke-opacity: 0.9; stroke-width: 2.5; stroke-linecap: square"/>
   </g>
   <g id="line2d_5">
    <path d="M 10.145455 52.92 
L 213.054545 52.92 
L 213.054545 52.92 
" clip-path="url(#pa6a0e18d30)" style="fill: none; stroke-dasharray: 2,3.3; stroke-dashoffset: 0; stroke: #8d99ae; stroke-opacity: 0.7; stroke-width: 2"/>
   </g>
  </g>
 </g>
 <defs>
  <clipPath id="pa6a0e18d30">
   <rect x="0" y="-0" width="223.2" height="55.44"/>
  </clipPath>
 </defs>
</svg>
