<?xml version="1.0" encoding="utf-8" standalone="no"?>
<!DOCTYPE svg PUBLIC "-//W3C//DTD SVG 1.1//EN"
  "http://www.w3.org/Graphics/SVG/1.1/DTD/svg11.dtd">
<svg xmlns:xlink="http://www.w3.org/1999/xlink" width="223.2pt" height="55.44pt" viewBox="0 0 223.2 55.44" xmlns="http://www.w3.org/2000/svg" version="1.1">
 <metadata>
  <rdf:RDF xmlns:dc="http://purl.org/dc/elements/1.1/" xmlns:cc="http://creativecommons.org/ns#" xmlns:rdf="http://www.w3.org/1999/02/22-rdf-syntax-ns#">
   <cc:Work>
    <dc:type rdf:resource="http://purl.org/dc/dcmitype/StillImage"/>
    <dc:date>2026-06-29T15:38:12.877082</dc:date>
    <dc:format>image/svg+xml</dc:format>
    <dc:creator>
     <cc:Agent>
      <dc:title>Matplotlib v3.10.8, https://matplotlib.org/</dc:title>
     </cc:Agent>
    </dc:creator>
   </cc:Work>
  </rdf:RDF>
 </metadata>
 <defs>
  <style type="text/css">*{stroke-linejoin: round; stroke-linecap: butt}</style>
 </defs>
 <g id="figure_1">
  <g id="patch_1">
   <path d="M 0 55.44 
L 223.2 55.44 
L 223.2 0 
L 0 0 
L 0 55.44 
z
" style="fill: none"/>
  </g>
  <g id="axes_1">
   <g id="line2d_1">
    <path d="M 10.145455 51.256936 
L 10.743345 51.132047 
L 11.565445 50.940381 
L 12.686489 50.514866 
L 13.433852 49.989567 
L 14.106479 50.075588 
L 16.871723 50.594005 
L 17.320141 50.310711 
L 18.067504 49.299109 
L 18.366449 49.519322 
L 19.263285 50.433433 
L 21.281165 52.149256 
L 22.028528 52.347677 
L 22.626419 52.423375 
L 24.121145 52.835126 
L 24.719036 52.539216 
L 24.943245 52.325885 
L 26.437971 50.48734 
L 26.66218 50.392143 
L 27.26007 49.49753 
L 27.559016 49.128215 
L 28.455851 48.14414 
L 29.427423 46.655412 
L 29.875841 45.878933 
L 30.623204 44.664323 
L 31.146359 43.950926 
L 31.295831 43.802971 
L 31.52004 43.050578 
L 32.043194 41.251029 
L 32.267403 41.084722 
L 32.566349 41.010171 
L 33.612657 40.172905 
L 33.76213 40.229105 
L 35.256856 41.544646 
L 35.929483 41.856613 
L 36.901055 42.119263 
L 37.424209 42.453022 
L 38.844199 42.505782 
L 39.741035 42.329153 
L 41.758915 42.620476 
L 42.954696 42.537896 
L 43.403114 42.656031 
L 44.823104 42.508075 
L 46.392567 42.012597 
L 47.73782 41.612315 
L 49.905173 41.481564 
L 50.727273 41.212033 
L 51.848317 41.120278 
L 52.446208 41.053755 
L 53.193571 41.051461 
L 54.015671 40.722289 
L 54.538825 40.597273 
L 55.211452 40.690175 
L 56.033551 41.233825 
L 57.079859 41.159274 
L 57.901959 40.886302 
L 59.546158 39.821941 
L 61.11562 39.289761 
L 62.460874 38.468552 
L 62.909292 38.248339 
L 63.806128 37.670281 
L 64.553491 37.474154 
L 65.898744 36.836455 
L 66.272426 36.581835 
L 67.991361 34.888951 
L 68.439779 34.362505 
L 68.888197 34.154909 
L 69.336615 34.11706 
L 70.382923 34.159497 
L 71.877649 33.970251 
L 72.400804 33.940431 
L 73.297639 33.900288 
L 74.642893 33.306173 
L 75.091311 33.087107 
L 75.689201 32.780874 
L 76.361828 32.814136 
L 77.258664 32.798078 
L 77.781818 32.570984 
L 78.529181 32.178731 
L 79.874435 32.049126 
L 81.219689 31.880526 
L 81.892315 31.583469 
L 83.088096 31.515799 
L 84.134405 30.840251 
L 85.330186 30.841398 
L 86.301758 30.9343 
L 86.824912 31.429779 
L 87.348066 31.917228 
L 87.796484 32.100739 
L 88.170166 32.380592 
L 89.141738 33.219006 
L 89.440683 33.220152 
L 89.963837 32.52396 
L 91.010146 30.8781 
L 92.056454 30.420471 
L 93.252235 30.496169 
L 93.55118 30.49961 
L 95.344852 29.818327 
L 96.092215 29.549943 
L 96.764842 29.20242 
L 97.512205 29.024645 
L 98.483777 28.405297 
L 99.305876 28.308954 
L 100.950075 28.366301 
L 101.772175 28.294044 
L 102.220593 28.027953 
L 103.266901 27.086315 
L 105.284782 26.74338 
L 105.733199 26.569045 
L 106.630035 26.624098 
L 107.302662 26.328188 
L 108.050025 25.732926 
L 110.217378 25.536799 
L 110.964741 25.396872 
L 111.487896 25.508126 
L 112.01105 25.107843 
L 112.309995 24.97021 
L 112.907885 25.03788 
L 113.655249 25.095227 
L 114.85103 24.907129 
L 115.673129 24.951859 
L 116.644701 24.3933 
L 117.018383 24.334806 
L 117.541537 24.191438 
L 118.587845 24.270577 
L 119.110999 23.997605 
L 119.858363 23.226861 
L 120.680462 22.28637 
L 121.12888 21.812684 
L 121.502562 21.756484 
L 122.249925 21.821859 
L 123.445706 21.012119 
L 123.894124 20.879074 
L 125.164641 19.927114 
L 125.98674 18.897161 
L 127.705676 18.524406 
L 128.901457 17.958964 
L 129.64882 17.917674 
L 130.171974 18.143622 
L 130.844601 18.535875 
L 131.143546 18.468206 
L 132.040382 17.887854 
L 133.08669 17.793805 
L 133.684581 17.332735 
L 134.730889 16.197264 
L 135.403516 15.380642 
L 138.691914 12.898663 
L 139.812958 11.667996 
L 140.709794 11.330796 
L 142.129784 10.407509 
L 142.578202 10.417831 
L 143.250829 10.416684 
L 143.62451 10.297403 
L 143.923456 9.920059 
L 145.119237 7.537864 
L 146.090809 5.084559 
L 147.436062 3.256336 
L 147.959216 3.552246 
L 148.631843 3.35956 
L 149.453943 3.148523 
L 149.902361 2.775768 
L 150.276042 2.577347 
L 150.799196 2.564731 
L 151.471823 2.839996 
L 152.293923 3.133613 
L 152.817077 2.923723 
L 153.041286 3.065944 
L 155.133903 5.152228 
L 155.58232 5.375881 
L 156.180211 5.437816 
L 157.077047 4.554672 
L 157.899146 4.575317 
L 158.497037 5.195812 
L 159.2444 6.02505 
L 159.767554 6.483826 
L 160.440181 7.557362 
L 160.963335 8.140008 
L 161.486489 8.976127 
L 161.860171 9.179136 
L 162.08438 9.258275 
L 162.458061 9.515189 
L 163.055952 10.196472 
L 163.280161 10.305431 
L 163.952788 10.299696 
L 164.849623 11.226424 
L 165.148569 10.853669 
L 165.52225 10.493529 
L 165.671723 10.513027 
L 166.34435 10.967216 
L 167.390658 10.807791 
L 168.063285 10.170092 
L 168.36223 10.173533 
L 169.259066 10.249231 
L 169.632747 10.218264 
L 170.155902 10.262994 
L 170.903265 10.264141 
L 171.501155 10.266435 
L 171.874837 9.981994 
L 172.248518 9.758341 
L 172.547464 9.886798 
L 173.22009 10.295109 
L 174.191662 10.32837 
L 174.565344 10.206794 
L 175.088498 10.323782 
L 175.611652 9.822569 
L 175.985334 9.303005 
L 176.583225 8.190473 
L 177.031642 7.936999 
L 177.629533 7.43808 
L 178.003214 6.620312 
L 178.675841 5.079971 
L 179.273732 4.016757 
L 179.72215 3.62221 
L 180.021095 3.473107 
L 180.245304 3.506369 
L 181.291612 4.317256 
L 181.964239 5.185489 
L 182.337921 5.272657 
L 182.56213 5.370147 
L 183.384229 6.092719 
L 184.654746 6.354222 
L 185.327373 6.800381 
L 185.850527 6.564112 
L 186.373682 6.298022 
L 186.597891 6.395511 
L 186.971572 6.769414 
L 187.41999 6.700598 
L 187.718935 6.658161 
L 187.943144 6.574434 
L 188.391562 6.098454 
L 188.989453 5.238249 
L 189.213661 5.272657 
L 190.035761 5.377028 
L 190.25997 5.243983 
L 190.783124 4.832232 
L 191.007333 4.882697 
L 191.605224 5.62018 
L 192.203114 6.908194 
L 192.801005 8.045959 
L 193.09995 8.512763 
L 193.398895 9.491103 
L 194.370467 13.437725 
L 196.014666 18.672361 
L 196.313611 19.86862 
L 197.210447 23.577825 
L 197.584129 24.587132 
L 197.95781 26.218082 
L 198.705173 30.413589 
L 200.424108 36.810076 
L 200.872526 37.934077 
L 201.470417 39.374634 
L 202.143044 40.180933 
L 203.189352 41.524001 
L 203.563034 42.05274 
L 203.787243 42.313096 
L 204.160924 43.411864 
L 204.684078 45.022169 
L 204.983024 45.471769 
L 205.356705 46.365236 
L 205.879859 47.591315 
L 206.253541 47.972099 
L 206.701959 48.207222 
L 209.093521 48.461843 
L 210.065093 48.831158 
L 210.513511 49.037607 
L 212.15771 49.964335 
L 213.054545 50.015947 
L 213.054545 50.015947 
" clip-path="url(#pdc0614f262)" style="fill: none; stroke: #1f77b4; stroke-opacity: 0.9; stroke-width: 2.5; stroke-linecap: square"/>
   </g>
   <g id="line2d_2">
    <path d="M 10.145455 52.92 
L 213.054545 52.92 
L 213.054545 52.92 
" clip-path="url(#pdc0614f262)" style="fill: none; stroke-dasharray: 2,3.3; stroke-dashoffset: 0; stroke: #8d99ae; stroke-opacity: 0.7; stroke-width: 2"/>
   </g>
  </g>
 </g>
 <defs>
  <clipPath id="pdc0614f262">
   <rect x="0" y="-0" width="223.2" height="55.44"/>
  </clipPath>
 </defs>
</svg>
