<?xml version="1.0" encoding="utf-8" standalone="no"?>
<!DOCTYPE svg PUBLIC "-//W3C//DTD SVG 1.1//EN"
  "http://www.w3.org/Graphics/SVG/1.1/DTD/svg11.dtd">
<svg xmlns:xlink="http://www.w3.org/1999/xlink" width="223.2pt" height="55.44pt" viewBox="0 0 223.2 55.44" xmlns="http://www.w3.org/2000/svg" version="1.1">
 <metadata>
  <rdf:RDF xmlns:dc="http://purl.org/dc/elements/1.1/" xmlns:cc="http://creativecommons.org/ns#" xmlns:rdf="http://www.w3.org/1999/02/22-rdf-syntax-ns#">
   <cc:Work>
    <dc:type rdf:resource="http://purl.org/dc/dcmitype/StillImage"/>
    <dc:date>2026-05-06T16:20:44.074076</dc:date>
    <dc:format>image/svg+xml</dc:format>
    <dc:creator>
     <cc:Agent>
      <dc:title>Matplotlib v3.10.8, https://matplotlib.org/</dc:title>
     </cc:Agent>
    </dc:creator>
   </cc:Work>
  </rdf:RDF>
 </metadata>
 <defs>
  <style type="text/css">*{stroke-linejoin: round; stroke-linecap: butt}</style>
 </defs>
 <g id="figure_1">
  <g id="patch_1">
   <path d="M 0 55.44 
L 223.2 55.44 
L 223.2 0 
L 0 0 
L 0 55.44 
z
" style="fill: none"/>
  </g>
  <g id="axes_1">
   <g id="line2d_1">
    <path d="M 10.331269 51.317836 
L 13.304296 51.261906 
L 14.976623 51.264236 
L 15.534066 51.08829 
L 16.277323 50.758535 
L 17.206394 50.675805 
L 18.135465 50.838935 
L 20.365235 50.566275 
L 21.294306 50.561615 
L 22.223377 50.611719 
L 23.895704 49.764611 
L 24.267333 49.872975 
L 25.196404 50.559284 
L 27.611988 52.522663 
L 28.541059 52.80814 
L 29.098501 52.655497 
L 29.841758 52.248839 
L 32.443157 50.483546 
L 33.000599 50.210886 
L 34.487113 49.512926 
L 34.858741 49.454665 
L 35.601998 49.404561 
L 36.902697 48.859243 
L 38.203397 48.079717 
L 40.247353 46.359867 
L 41.362238 46.053417 
L 41.91968 45.527907 
L 42.662937 44.609721 
L 44.149451 42.124328 
L 44.706893 41.422871 
L 45.078521 41.123412 
L 46.379221 40.723745 
L 46.750849 40.872892 
L 49.538062 42.762863 
L 50.095504 42.900358 
L 50.652947 42.697611 
L 51.767832 42.02645 
L 52.325275 42.004311 
L 55.112488 42.740724 
L 55.855744 42.546134 
L 57.713886 41.789913 
L 58.642957 41.807391 
L 59.572028 41.796904 
L 60.315285 41.58367 
L 61.43017 41.242264 
L 62.173427 41.246925 
L 62.730869 41.6664 
L 63.102498 41.969355 
L 63.845754 42.08238 
L 64.217383 41.981007 
L 65.332268 41.236438 
L 65.88971 40.924161 
L 67.004595 39.916255 
L 67.562038 39.524744 
L 69.048551 38.726575 
L 70.906693 37.068481 
L 72.393207 34.444428 
L 72.764835 34.17876 
L 73.693906 34.126325 
L 74.808791 33.897944 
L 75.18042 33.758119 
L 75.923676 33.803562 
L 76.852747 33.40506 
L 77.224376 33.026367 
L 78.153447 31.978843 
L 78.525075 31.734149 
L 79.268332 31.615298 
L 80.569031 31.333317 
L 80.940659 31.277387 
L 81.498102 31.370603 
L 82.427173 32.153625 
L 82.984615 32.70943 
L 83.356244 32.822455 
L 83.727872 32.590578 
L 84.656943 31.447507 
L 85.028571 31.010553 
L 85.4002 30.76819 
L 86.700899 30.537478 
L 87.072527 30.221706 
L 88.187413 28.923662 
L 88.744855 28.521665 
L 89.116484 28.470395 
L 89.673926 28.513508 
L 90.231369 28.285127 
L 90.974625 27.758452 
L 92.275325 26.562946 
L 92.832767 26.546633 
L 93.947652 27.032526 
L 94.505095 27.19216 
L 95.248352 27.121082 
L 96.177423 26.798319 
L 97.663936 26.184253 
L 98.778821 25.75429 
L 100.451149 24.47722 
L 101.194406 23.94705 
L 102.495105 23.637104 
L 103.60999 24.1731 
L 103.981618 24.160283 
L 104.353247 23.871311 
L 104.910689 23.03702 
L 105.83976 21.593325 
L 107.883716 19.745302 
L 108.812787 18.810803 
L 110.113487 18.341223 
L 111.414186 18.162946 
L 112.157443 18.004478 
L 113.086513 17.423038 
L 113.643956 16.867233 
L 114.387213 15.846509 
L 116.05954 13.425202 
L 117.36024 11.818377 
L 118.289311 10.643845 
L 119.032567 10.287291 
L 119.404196 10.279134 
L 119.961638 10.335065 
L 120.519081 9.977345 
L 122.005594 8.503354 
L 122.563037 7.698194 
L 124.606993 4.471727 
L 125.907692 3.216796 
L 126.465135 2.98958 
L 127.022577 3.02104 
L 128.323277 3.410221 
L 128.880719 3.264569 
L 129.80979 2.873059 
L 130.367233 2.956954 
L 131.11049 3.156205 
L 131.853746 3.152709 
L 132.968631 2.778677 
L 134.640959 2.579426 
L 135.384216 2.835772 
L 135.941658 3.276221 
L 136.870729 3.905435 
L 137.613986 4.171103 
L 139.472128 4.371519 
L 140.215385 4.770021 
L 140.958641 5.246592 
L 141.33027 5.297861 
L 141.887712 5.083462 
L 142.816783 4.411136 
L 143.374226 4.077886 
L 143.931668 4.052251 
L 144.489111 4.289954 
L 145.603996 4.934315 
L 146.347253 5.017045 
L 147.090509 4.964611 
L 147.833766 5.374765 
L 148.762837 6.167108 
L 149.691908 7.024702 
L 150.992607 7.843845 
L 152.107493 7.890454 
L 152.850749 8.454415 
L 153.965634 9.426201 
L 154.523077 9.644095 
L 157.681918 9.81305 
L 158.610989 10.270978 
L 159.725874 11.733317 
L 160.840759 13.436854 
L 161.955644 14.610221 
L 163.256344 15.982838 
L 163.813786 16.142472 
L 164.928671 16.21355 
L 165.3003 16.669147 
L 165.857742 17.898444 
L 167.158442 21.385918 
L 167.715884 22.171269 
L 168.644955 23.11975 
L 169.202398 23.500774 
L 169.75984 24.00298 
L 170.317283 24.443429 
L 171.432168 26.354374 
L 172.732867 29.642597 
L 173.29031 30.578261 
L 173.847752 30.915006 
L 175.891708 31.666567 
L 178.493107 33.211635 
L 179.050549 33.40273 
L 179.422178 33.331652 
L 180.351249 32.771186 
L 180.908691 32.32025 
L 181.837762 31.49295 
L 182.395205 31.237769 
L 182.766833 31.286708 
L 183.324276 31.927574 
L 184.996603 34.410637 
L 186.111489 34.923329 
L 188.155445 35.90094 
L 189.27033 36.659492 
L 189.827772 36.965943 
L 190.385215 37.096446 
L 191.685914 36.572102 
L 193.172428 35.693533 
L 193.72987 35.797237 
L 194.287313 36.685127 
L 195.402198 38.979426 
L 195.95964 40.327574 
L 197.631968 43.417711 
L 198.746853 44.621373 
L 199.675924 45.145718 
L 200.790809 45.567524 
L 202.277323 45.413716 
L 202.648951 45.637437 
L 203.392208 46.561448 
L 204.321279 47.713841 
L 204.878721 48.026117 
L 206.179421 48.381506 
L 207.294306 49.129571 
L 208.223377 49.770437 
L 209.338262 50.391494 
L 210.638961 50.798152 
L 212.682917 51.064985 
L 212.682917 51.064985 
" clip-path="url(#pe7c0e341ec)" style="fill: none; stroke: #1f77b4; stroke-opacity: 0.9; stroke-width: 2.5; stroke-linecap: square"/>
   </g>
   <g id="line2d_2">
    <path d="M 10.145455 52.92 
L 213.054545 52.92 
L 213.054545 52.92 
" clip-path="url(#pe7c0e341ec)" style="fill: none; stroke-dasharray: 2,3.3; stroke-dashoffset: 0; stroke: #8d99ae; stroke-opacity: 0.7; stroke-width: 2"/>
   </g>
  </g>
 </g>
 <defs>
  <clipPath id="pe7c0e341ec">
   <rect x="0" y="-0" width="223.2" height="55.44"/>
  </clipPath>
 </defs>
</svg>
