<?xml version="1.0" encoding="utf-8" standalone="no"?>
<!DOCTYPE svg PUBLIC "-//W3C//DTD SVG 1.1//EN"
  "http://www.w3.org/Graphics/SVG/1.1/DTD/svg11.dtd">
<svg xmlns:xlink="http://www.w3.org/1999/xlink" width="223.2pt" height="55.44pt" viewBox="0 0 223.2 55.44" xmlns="http://www.w3.org/2000/svg" version="1.1">
 <metadata>
  <rdf:RDF xmlns:dc="http://purl.org/dc/elements/1.1/" xmlns:cc="http://creativecommons.org/ns#" xmlns:rdf="http://www.w3.org/1999/02/22-rdf-syntax-ns#">
   <cc:Work>
    <dc:type rdf:resource="http://purl.org/dc/dcmitype/StillImage"/>
    <dc:date>2026-05-06T16:20:45.617450</dc:date>
    <dc:format>image/svg+xml</dc:format>
    <dc:creator>
     <cc:Agent>
      <dc:title>Matplotlib v3.10.8, https://matplotlib.org/</dc:title>
     </cc:Agent>
    </dc:creator>
   </cc:Work>
  </rdf:RDF>
 </metadata>
 <defs>
  <style type="text/css">*{stroke-linejoin: round; stroke-linecap: butt}</style>
 </defs>
 <g id="figure_1">
  <g id="patch_1">
   <path d="M 0 55.44 
L 223.2 55.44 
L 223.2 0 
L 0 0 
L 0 55.44 
z
" style="fill: none"/>
  </g>
  <g id="axes_1">
   <g id="line2d_1">
    <path d="M 10.298478 52.505442 
L 13.664994 52.773485 
L 16.572439 52.857532 
L 17.643603 52.573589 
L 18.714768 52.332805 
L 21.316166 52.243078 
L 22.234307 52.375964 
L 23.611518 52.721239 
L 24.835705 52.695117 
L 26.059893 52.486134 
L 26.978034 52.35552 
L 27.896174 52.507714 
L 29.120362 52.7803 
L 30.038503 52.755313 
L 31.874784 52.604255 
L 33.558042 52.573589 
L 34.476183 52.492949 
L 35.088276 52.212412 
L 38.760839 50.033997 
L 39.832003 49.678499 
L 41.821308 48.010046 
L 42.586425 47.282015 
L 43.504566 46.613043 
L 43.657589 46.425641 
L 45.340847 42.439072 
L 46.565035 40.632054 
L 47.024105 40.456009 
L 47.330152 40.627511 
L 47.942246 41.098857 
L 48.401316 41.112487 
L 48.707363 40.995502 
L 49.931551 40.048266 
L 50.696668 39.294112 
L 51.308762 38.651263 
L 52.532949 37.933454 
L 53.45109 37.064586 
L 54.216207 36.188904 
L 55.440395 33.614103 
L 55.746442 33.348331 
L 56.970629 33.314258 
L 57.88877 32.983748 
L 58.806911 32.867899 
L 59.265981 32.427218 
L 60.031098 31.33801 
L 60.490169 30.962069 
L 61.102262 30.83259 
L 62.173427 30.598621 
L 62.632497 30.573634 
L 63.091567 30.79511 
L 63.703661 31.427736 
L 64.162731 31.968365 
L 64.468778 32.04219 
L 64.774825 31.835479 
L 66.152036 30.063671 
L 67.988318 29.611633 
L 68.906458 29.210704 
L 70.74274 27.62062 
L 71.507857 26.92439 
L 72.272974 26.100953 
L 72.732044 25.938537 
L 73.191115 26.052115 
L 74.415302 26.620002 
L 74.874373 26.600694 
L 75.792513 26.269048 
L 76.557631 25.818145 
L 78.087865 24.899304 
L 79.771123 23.359193 
L 80.53624 23.058213 
L 80.995311 23.189963 
L 81.913451 23.670395 
L 82.219498 23.511387 
L 82.525545 23.086607 
L 83.596709 21.184185 
L 84.820897 20.179024 
L 85.892061 18.577582 
L 86.198108 18.378821 
L 88.493459 17.780268 
L 88.799506 17.718936 
L 89.4116 17.212381 
L 90.023694 16.534323 
L 90.788811 15.238405 
L 92.472069 12.433041 
L 94.002304 10.319365 
L 94.461374 10.154677 
L 94.920444 10.218281 
L 95.226491 10.218281 
L 95.532538 10.008162 
L 96.144632 9.288081 
L 97.368819 7.391337 
L 98.74603 4.612097 
L 99.817195 3.322993 
L 100.276265 3.010655 
L 100.735335 3.023148 
L 101.959523 3.437706 
L 102.418593 3.22418 
L 103.18371 2.900485 
L 103.642781 2.986803 
L 104.254875 3.182157 
L 104.866968 3.154898 
L 106.397203 2.572246 
L 107.009297 2.54953 
L 107.62139 2.833474 
L 108.233484 3.374103 
L 108.845578 3.830684 
L 109.610695 4.164602 
L 110.528836 4.210033 
L 111.14093 4.31566 
L 111.6 4.580295 
L 112.365117 5.141368 
L 112.824188 5.073221 
L 113.436281 4.640491 
L 114.201399 4.021494 
L 114.660469 4.08169 
L 115.119539 4.324746 
L 115.884657 4.861967 
L 116.649774 4.951694 
L 117.108844 4.924435 
L 118.026985 5.571826 
L 118.639079 6.256699 
L 119.863266 7.481064 
L 120.169313 7.645751 
L 121.240477 7.896757 
L 121.852571 8.486224 
L 122.617688 9.215392 
L 123.688852 9.505014 
L 124.45397 9.556124 
L 125.066063 9.477755 
L 125.984204 9.779872 
L 127.055368 10.26939 
L 128.585603 10.581728 
L 129.962814 10.514718 
L 130.421884 10.658961 
L 131.033978 10.610123 
L 131.952118 10.276205 
L 132.717236 10.138776 
L 133.329329 10.152406 
L 134.24747 10.209194 
L 136.083752 9.896856 
L 137.001892 10.124011 
L 138.68515 10.285291 
L 139.450267 10.822513 
L 140.521432 11.81518 
L 140.980502 11.992361 
L 141.745619 12.376252 
L 142.969807 13.331439 
L 144.193994 13.935671 
L 145.265158 15.390598 
L 145.877252 16.25038 
L 147.713534 18.749084 
L 148.631674 19.441906 
L 149.090745 20.082483 
L 150.620979 22.634569 
L 151.53912 23.543189 
L 152.45726 24.156507 
L 152.763307 24.540399 
L 154.599589 27.850046 
L 155.058659 28.162384 
L 155.517729 28.436106 
L 156.282847 29.183446 
L 158.119128 31.445909 
L 159.190292 32.262531 
L 159.496339 32.663459 
L 160.567503 34.170632 
L 161.179597 34.68741 
L 162.097738 35.168978 
L 162.556808 35.39954 
L 163.321925 36.855603 
L 164.393089 39.133967 
L 165.005183 39.498551 
L 165.464253 39.603042 
L 165.7703 39.698447 
L 166.841464 40.231126 
L 168.065652 40.595709 
L 168.983793 40.792198 
L 170.820074 40.972786 
L 172.350309 41.691732 
L 172.962402 41.721262 
L 173.880543 41.412331 
L 174.951707 41.043205 
L 175.410777 41.201077 
L 176.634965 41.846197 
L 176.941012 41.765557 
L 177.706129 41.28626 
L 179.542411 39.712077 
L 179.848457 39.791581 
L 180.919622 40.379912 
L 181.990786 41.722398 
L 182.449856 42.52539 
L 182.602879 42.757088 
L 183.52102 45.754398 
L 184.286137 48.368951 
L 185.357302 50.102143 
L 187.193583 52.178339 
L 187.652653 52.396408 
L 188.723817 52.576996 
L 190.407075 52.620155 
L 191.478239 52.675808 
L 193.773591 52.62697 
L 194.844755 52.507714 
L 195.456849 52.64855 
L 196.528013 52.818916 
L 197.29313 52.767806 
L 198.823365 52.513393 
L 201.577787 52.726918 
L 203.414068 52.366878 
L 207.698725 52.865483 
L 209.841053 52.835953 
L 212.748499 52.650821 
L 212.748499 52.650821 
" clip-path="url(#p4f338e6b2b)" style="fill: none; stroke: #1f77b4; stroke-opacity: 0.9; stroke-width: 2.5; stroke-linecap: square"/>
   </g>
   <g id="line2d_2">
    <path d="M 10.145455 52.92 
L 213.054545 52.92 
L 213.054545 52.92 
" clip-path="url(#p4f338e6b2b)" style="fill: none; stroke-dasharray: 2,3.3; stroke-dashoffset: 0; stroke: #8d99ae; stroke-opacity: 0.7; stroke-width: 2"/>
   </g>
  </g>
 </g>
 <defs>
  <clipPath id="p4f338e6b2b">
   <rect x="0" y="-0" width="223.2" height="55.44"/>
  </clipPath>
 </defs>
</svg>
