<?xml version="1.0" encoding="utf-8" standalone="no"?>
<!DOCTYPE svg PUBLIC "-//W3C//DTD SVG 1.1//EN"
  "http://www.w3.org/Graphics/SVG/1.1/DTD/svg11.dtd">
<svg xmlns:xlink="http://www.w3.org/1999/xlink" width="223.2pt" height="55.44pt" viewBox="0 0 223.2 55.44" xmlns="http://www.w3.org/2000/svg" version="1.1">
 <metadata>
  <rdf:RDF xmlns:dc="http://purl.org/dc/elements/1.1/" xmlns:cc="http://creativecommons.org/ns#" xmlns:rdf="http://www.w3.org/1999/02/22-rdf-syntax-ns#">
   <cc:Work>
    <dc:type rdf:resource="http://purl.org/dc/dcmitype/StillImage"/>
    <dc:date>2026-05-06T16:20:48.350743</dc:date>
    <dc:format>image/svg+xml</dc:format>
    <dc:creator>
     <cc:Agent>
      <dc:title>Matplotlib v3.10.8, https://matplotlib.org/</dc:title>
     </cc:Agent>
    </dc:creator>
   </cc:Work>
  </rdf:RDF>
 </metadata>
 <defs>
  <style type="text/css">*{stroke-linejoin: round; stroke-linecap: butt}</style>
 </defs>
 <g id="figure_1">
  <g id="patch_1">
   <path d="M 0 55.44 
L 223.2 55.44 
L 223.2 0 
L 0 0 
L 0 55.44 
z
" style="fill: none"/>
  </g>
  <g id="axes_1">
   <g id="line2d_1">
    <path d="M 10.292704 52.704651 
L 11.765193 52.613541 
L 12.943185 52.235852 
L 14.121177 51.712388 
L 14.710173 51.780306 
L 15.740916 51.843254 
L 16.182663 51.588148 
L 16.771659 51.299911 
L 17.507903 51.246902 
L 18.096899 51.112723 
L 18.685895 50.791356 
L 19.274891 50.685338 
L 19.863887 50.513058 
L 20.600132 50.040947 
L 21.041879 49.621844 
L 21.925373 48.241952 
L 22.514369 47.458412 
L 24.134107 46.345223 
L 24.428605 46.441302 
L 24.723103 46.746104 
L 25.606597 48.132621 
L 26.048344 48.710751 
L 27.226336 50.098925 
L 27.815332 50.652207 
L 28.404328 50.844365 
L 29.435071 50.735034 
L 30.90756 50.532937 
L 32.232801 50.57932 
L 35.914026 50.1685 
L 37.239266 50.564411 
L 38.564507 50.587602 
L 39.153503 50.561098 
L 39.742499 50.264578 
L 40.920491 49.626813 
L 42.392981 49.285568 
L 44.159968 48.412575 
L 45.190711 48.188943 
L 46.368703 48.34797 
L 48.577438 47.82285 
L 49.166434 47.509765 
L 49.60818 47.418656 
L 50.049927 47.508108 
L 50.786172 47.827819 
L 51.227919 47.872546 
L 51.816915 47.73174 
L 52.55316 47.395464 
L 53.142156 47.171832 
L 53.583903 47.261285 
L 54.909144 47.749962 
L 55.49814 47.405403 
L 55.939887 46.883596 
L 56.381633 46.133187 
L 57.117878 43.794163 
L 58.148621 39.641236 
L 58.443119 39.046541 
L 58.737617 38.923957 
L 59.032115 39.092924 
L 59.621111 39.904624 
L 60.357356 40.24587 
L 60.799103 39.704184 
L 62.124344 37.539096 
L 62.271593 37.582166 
L 63.007837 40.799152 
L 63.744082 44.677094 
L 64.480327 45.490452 
L 64.922074 45.14755 
L 65.363821 44.48825 
L 66.100066 43.462856 
L 66.836311 42.909574 
L 68.014303 42.42918 
L 69.339543 42.124378 
L 70.075788 41.85105 
L 71.25378 41.476674 
L 71.990025 41.198376 
L 73.168017 40.365141 
L 73.757013 39.734002 
L 74.493258 38.763274 
L 75.082254 38.097348 
L 75.376752 37.845555 
L 75.818498 37.640145 
L 76.554743 36.919553 
L 77.143739 36.414311 
L 77.732735 35.96539 
L 78.46898 35.584388 
L 79.499723 35.007915 
L 81.561209 33.177446 
L 84.21169 28.810827 
L 84.506188 28.103487 
L 85.831429 20.003044 
L 85.978678 19.527619 
L 86.273176 19.782725 
L 86.567674 20.00967 
L 87.009421 18.725857 
L 87.451168 16.304007 
L 88.040164 13.284148 
L 88.334662 13.087021 
L 88.481911 13.151625 
L 88.776408 13.883813 
L 89.659902 16.655191 
L 89.9544 17.402288 
L 90.248898 17.218412 
L 90.837894 16.050557 
L 90.985143 16.042274 
L 91.42689 15.633111 
L 91.721388 16.095283 
L 92.015886 17.044477 
L 92.310384 18.06987 
L 93.046629 20.049426 
L 94.37187 24.349785 
L 94.666368 24.636365 
L 94.960866 24.578386 
L 95.255364 24.28021 
L 95.549861 23.584467 
L 96.286106 19.194656 
L 96.875102 14.32445 
L 97.1696 12.977689 
L 97.758596 11.092555 
L 97.905845 11.095869 
L 98.200343 10.511113 
L 98.64209 8.963911 
L 99.083837 7.815934 
L 99.378335 7.479658 
L 99.525584 7.685068 
L 100.11458 9.545354 
L 100.556327 11.44374 
L 101.292572 14.634222 
L 102.028816 18.101344 
L 102.617812 22.681657 
L 103.501306 29.213364 
L 105.121045 35.693719 
L 105.85729 37.406574 
L 106.151788 37.686528 
L 106.446286 37.719658 
L 107.32978 37.312151 
L 107.771527 37.562288 
L 108.802269 38.47835 
L 109.096767 38.301101 
L 109.391265 37.716345 
L 111.011004 33.83012 
L 113.07249 29.359139 
L 113.661486 28.454672 
L 113.955984 28.221101 
L 114.54498 28.211162 
L 115.133975 27.109568 
L 116.753714 23.523175 
L 117.784457 21.686081 
L 118.226204 21.295139 
L 118.520702 21.020154 
L 119.256947 19.905308 
L 120.28769 17.634202 
L 120.729437 17.003063 
L 121.465681 16.365298 
L 122.790922 14.914176 
L 123.674416 14.173706 
L 124.410661 13.2974 
L 124.999657 12.245502 
L 126.619396 9.010294 
L 127.061143 8.829732 
L 127.50289 8.775067 
L 127.797388 8.596161 
L 128.680881 7.739734 
L 129.269877 7.166574 
L 130.006122 6.803793 
L 130.447869 6.701088 
L 131.920359 5.713795 
L 132.362106 5.627655 
L 133.392849 4.968355 
L 134.718089 3.482445 
L 135.896081 2.675714 
L 136.485077 2.619392 
L 137.074073 3.484102 
L 138.399314 5.56802 
L 138.98831 5.962274 
L 140.4608 6.149463 
L 142.080538 6.835267 
L 142.669534 6.71931 
L 143.405779 6.507274 
L 143.700277 6.624887 
L 144.436522 7.552546 
L 144.878269 8.087606 
L 145.320016 8.364247 
L 146.20351 8.629292 
L 146.939755 8.919185 
L 147.234253 8.804884 
L 147.675999 8.344368 
L 148.706742 6.976072 
L 149.00124 6.961164 
L 150.179232 7.282531 
L 150.768228 7.314005 
L 151.209975 7.650281 
L 151.94622 8.447073 
L 152.240718 8.561374 
L 153.41871 8.543152 
L 153.860457 9.011951 
L 154.302203 9.383014 
L 154.74395 9.485719 
L 155.185697 9.374731 
L 155.627444 9.3035 
L 156.069191 9.540385 
L 156.952685 10.433256 
L 157.394432 11.447053 
L 158.425175 14.027931 
L 158.719673 14.269785 
L 158.866922 14.208493 
L 159.16142 14.45366 
L 159.455918 15.063264 
L 160.044914 17.791573 
L 160.928407 22.423237 
L 161.517403 23.82632 
L 161.811901 24.164253 
L 162.695395 24.487277 
L 163.137142 25.081972 
L 163.726138 26.566225 
L 164.167885 27.3713 
L 164.90413 28.18797 
L 165.051379 28.297302 
L 165.051379 28.297302 
" clip-path="url(#p0c361cb9ac)" style="fill: none; stroke: #1f77b4; stroke-opacity: 0.9; stroke-width: 2.5; stroke-linecap: square"/>
   </g>
   <g id="line2d_2">
    <path d="M 165.640375 28.573942 
L 165.787624 28.620325 
L 165.934873 28.676647 
" clip-path="url(#p0c361cb9ac)" style="fill: none; stroke: #1f77b4; stroke-opacity: 0.9; stroke-width: 2.5; stroke-linecap: square"/>
   </g>
   <g id="line2d_3">
    <path d="M 166.37662 28.858866 
L 167.996358 29.456874 
L 169.468848 29.677193 
L 169.763346 29.794807 
L 170.499591 30.309988 
L 171.235836 31.025611 
L 171.677583 31.005732 
L 172.561077 30.853331 
L 173.002824 31.081933 
L 174.328064 32.251445 
L 175.064309 32.826261 
L 175.506056 32.907431 
L 175.800554 32.804726 
L 176.684048 32.234879 
L 176.978546 32.317706 
L 177.420293 32.705334 
L 178.156538 33.513722 
L 178.451036 33.533601 
L 179.187281 33.247021 
L 179.776277 33.053206 
L 180.218023 33.076398 
L 180.65977 32.796444 
L 181.985011 31.560671 
L 182.426758 31.621962 
L 182.868505 32.200092 
L 183.457501 33.536914 
L 184.340995 36.129387 
L 184.782742 36.778748 
L 185.07724 36.893048 
L 186.844227 36.798626 
L 187.580472 36.78703 
L 188.316717 36.914583 
L 189.34746 36.743961 
L 189.789207 36.694265 
L 191.261697 36.967592 
L 193.175934 37.44633 
L 193.61768 37.378412 
L 194.501174 36.891392 
L 195.09017 37.539096 
L 195.531917 37.754445 
L 195.826415 37.756102 
L 195.973664 37.668306 
L 197.004407 35.622488 
L 197.446154 35.725193 
L 197.887901 36.242031 
L 198.329648 37.399947 
L 198.329648 37.399947 
" clip-path="url(#p0c361cb9ac)" style="fill: none; stroke: #d2691e; stroke-opacity: 0.9; stroke-width: 2.5; stroke-linecap: square"/>
   </g>
   <g id="line2d_4">
    <path d="M 198.771395 38.14373 
L 198.918644 38.55952 
L 199.065893 38.957088 
L 199.213142 39.384473 
L 199.360391 39.949351 
L 199.50764 40.558955 
L 199.654889 41.188437 
L 199.802137 41.834485 
L 199.949386 42.485502 
L 200.096635 43.143145 
L 200.243884 43.761032 
L 200.391133 44.281183 
L 200.538382 44.763234 
L 200.685631 45.193933 
L 200.83288 45.475543 
L 200.980129 45.699175 
L 201.127378 45.884707 
L 201.274627 45.982442 
L 201.421876 46.053673 
L 201.569125 46.066925 
L 201.716374 46.085147 
L 201.863623 46.146439 
L 202.010872 46.204417 
L 202.158121 46.275648 
L 202.30537 46.384979 
L 202.452619 46.575481 
L 202.599868 46.784204 
L 202.747117 47.026058 
L 202.894366 47.254659 
L 203.041615 47.473321 
L 203.188864 47.685357 
L 203.336113 47.857637 
L 203.483362 48.044825 
L 203.630611 48.213791 
L 203.77786 48.465584 
L 203.925109 48.576572 
L 204.072358 48.488776 
L 204.219607 48.222074 
L 204.366856 47.897394 
L 204.514105 47.6075 
L 204.661354 47.302698 
L 204.808603 46.979675 
L 204.955852 46.633459 
L 205.103101 46.290557 
L 205.25035 45.833354 
L 205.397599 45.432473 
L 205.544848 45.217124 
L 205.692097 45.167428 
L 205.839346 45.19062 
L 205.986595 45.183993 
L 206.133844 45.188963 
L 206.281092 45.220437 
L 206.428341 45.26185 
L 206.57559 45.397686 
L 206.722839 45.55837 
L 206.870088 45.728993 
L 207.017337 45.907898 
L 207.164586 46.091773 
L 207.311835 46.259083 
L 207.459084 46.41811 
L 207.606333 46.575481 
L 207.753582 46.717942 
L 207.900831 46.855435 
L 208.04808 46.918383 
L 208.195329 46.964766 
L 208.342578 47.03931 
L 208.489827 47.12048 
L 208.637076 47.236437 
L 208.784325 47.383869 
L 208.931574 47.559461 
L 209.078823 47.756588 
L 209.226072 47.955372 
L 209.373321 48.27177 
L 209.52057 48.661055 
L 209.667819 49.076845 
L 209.815068 49.464473 
L 209.962317 49.842163 
L 210.109566 50.188378 
L 210.256815 50.509745 
L 210.404064 50.814547 
L 210.551313 51.121006 
L 210.698562 51.43906 
L 210.845811 51.651096 
L 210.99306 51.778649 
L 211.140309 51.873071 
L 211.287558 51.964181 
L 211.434807 52.053634 
L 211.582056 52.148056 
L 211.729305 52.234196 
L 211.876554 52.323648 
L 212.023803 52.388253 
L 212.171052 52.437949 
L 212.318301 52.474393 
L 212.46555 52.510836 
L 212.612799 52.555563 
L 212.760047 52.613541 
" clip-path="url(#p0c361cb9ac)" style="fill: none; stroke: #1f77b4; stroke-opacity: 0.9; stroke-width: 2.5; stroke-linecap: square"/>
   </g>
   <g id="line2d_5">
    <path d="M 10.145455 52.92 
L 213.054545 52.92 
L 213.054545 52.92 
" clip-path="url(#p0c361cb9ac)" style="fill: none; stroke-dasharray: 2,3.3; stroke-dashoffset: 0; stroke: #8d99ae; stroke-opacity: 0.7; stroke-width: 2"/>
   </g>
  </g>
 </g>
 <defs>
  <clipPath id="p0c361cb9ac">
   <rect x="0" y="-0" width="223.2" height="55.44"/>
  </clipPath>
 </defs>
</svg>
