<?xml version="1.0" encoding="utf-8" standalone="no"?>
<!DOCTYPE svg PUBLIC "-//W3C//DTD SVG 1.1//EN"
  "http://www.w3.org/Graphics/SVG/1.1/DTD/svg11.dtd">
<svg xmlns:xlink="http://www.w3.org/1999/xlink" width="223.2pt" height="55.44pt" viewBox="0 0 223.2 55.44" xmlns="http://www.w3.org/2000/svg" version="1.1">
 <metadata>
  <rdf:RDF xmlns:dc="http://purl.org/dc/elements/1.1/" xmlns:cc="http://creativecommons.org/ns#" xmlns:rdf="http://www.w3.org/1999/02/22-rdf-syntax-ns#">
   <cc:Work>
    <dc:type rdf:resource="http://purl.org/dc/dcmitype/StillImage"/>
    <dc:date>2026-06-09T15:31:59.259048</dc:date>
    <dc:format>image/svg+xml</dc:format>
    <dc:creator>
     <cc:Agent>
      <dc:title>Matplotlib v3.10.8, https://matplotlib.org/</dc:title>
     </cc:Agent>
    </dc:creator>
   </cc:Work>
  </rdf:RDF>
 </metadata>
 <defs>
  <style type="text/css">*{stroke-linejoin: round; stroke-linecap: butt}</style>
 </defs>
 <g id="figure_1">
  <g id="patch_1">
   <path d="M 0 55.44 
L 223.2 55.44 
L 223.2 0 
L 0 0 
L 0 55.44 
z
" style="fill: none"/>
  </g>
  <g id="axes_1">
   <g id="line2d_1">
    <path d="M 10.145455 50.019685 
L 10.248141 50.019685 
L 10.350828 50.043937 
" clip-path="url(#p42fa094e3c)" style="fill: none; stroke: #d2691e; stroke-opacity: 0.9; stroke-width: 2.5; stroke-linecap: square"/>
   </g>
   <g id="line2d_2">
    <path d="M 10.453515 50.056063 
" clip-path="url(#p42fa094e3c)" style="fill: none; stroke: #1f77b4; stroke-opacity: 0.9; stroke-width: 2.5; stroke-linecap: square"/>
   </g>
   <g id="line2d_3">
    <path d="M 10.556202 50.07789 
L 10.658888 50.092441 
L 10.761575 50.102834 
L 10.864262 50.11063 
" clip-path="url(#p42fa094e3c)" style="fill: none; stroke: #d2691e; stroke-opacity: 0.9; stroke-width: 2.5; stroke-linecap: square"/>
   </g>
   <g id="line2d_4">
    <path d="M 10.966949 50.120735 
L 11.069636 50.128819 
L 11.172322 50.147008 
L 11.275009 50.165197 
L 11.377696 50.17611 
L 11.480383 50.187023 
L 11.58307 50.194299 
L 11.685756 50.201575 
L 11.788443 50.20885 
L 11.89113 50.216126 
L 11.993817 50.219764 
L 12.096503 50.223401 
L 12.19919 50.227039 
L 12.301877 50.230677 
L 12.404564 50.234315 
L 12.507251 50.237953 
L 12.609937 50.237953 
L 12.712624 50.237953 
L 12.815311 50.24159 
L 12.917998 50.245228 
L 13.020685 50.256142 
L 13.123371 50.267055 
L 13.226058 50.281606 
L 13.328745 50.296157 
" clip-path="url(#p42fa094e3c)" style="fill: none; stroke: #1f77b4; stroke-opacity: 0.9; stroke-width: 2.5; stroke-linecap: square"/>
   </g>
   <g id="line2d_5">
    <path d="M 13.431432 50.310708 
" clip-path="url(#p42fa094e3c)" style="fill: none; stroke: #d2691e; stroke-opacity: 0.9; stroke-width: 2.5; stroke-linecap: square"/>
   </g>
   <g id="line2d_6">
    <path d="M 13.534119 50.336173 
L 13.636805 50.361638 
L 13.739492 50.387102 
L 13.842179 50.408929 
L 13.944866 50.434394 
L 14.047552 50.452583 
L 14.150239 50.470771 
" clip-path="url(#p42fa094e3c)" style="fill: none; stroke: #1f77b4; stroke-opacity: 0.9; stroke-width: 2.5; stroke-linecap: square"/>
   </g>
   <g id="line2d_7">
    <path d="M 14.252926 50.485323 
L 14.355613 50.499874 
L 14.4583 50.518063 
" clip-path="url(#p42fa094e3c)" style="fill: none; stroke: #d2691e; stroke-opacity: 0.9; stroke-width: 2.5; stroke-linecap: square"/>
   </g>
   <g id="line2d_8">
    <path d="M 14.560986 50.525338 
L 14.663673 50.532614 
L 14.76636 50.53989 
L 14.869047 50.547165 
L 14.971734 50.550803 
L 15.07442 50.554441 
L 15.177107 50.561716 
L 15.279794 50.568992 
L 15.382481 50.576268 
L 15.485167 50.579905 
L 15.587854 50.583543 
L 15.690541 50.590819 
L 15.793228 50.598094 
L 15.895915 50.60537 
L 15.998601 50.612646 
L 16.101288 50.623559 
L 16.203975 50.634472 
L 16.306662 50.645386 
L 16.409349 50.659937 
L 16.512035 50.674488 
L 16.614722 50.692677 
L 16.717409 50.710866 
L 16.820096 50.729055 
L 16.922782 50.750882 
L 17.025469 50.772709 
L 17.128156 50.790897 
L 17.230843 50.801811 
L 17.33353 50.812724 
L 17.436216 50.82 
L 17.538903 50.830913 
L 17.64159 50.838189 
L 17.744277 50.841827 
L 17.846964 50.845464 
L 17.94965 50.841827 
L 18.052337 50.838189 
L 18.155024 50.834551 
L 18.257711 50.830913 
L 18.360397 50.827275 
L 18.463084 50.823638 
L 18.565771 50.816362 
L 18.668458 50.805449 
L 18.771145 50.794535 
L 18.873831 50.779984 
L 18.976518 50.769071 
L 19.079205 50.758157 
L 19.181892 50.747244 
L 19.284579 50.739968 
L 19.387265 50.732693 
L 19.489952 50.725417 
L 19.592639 50.718142 
L 19.695326 50.714504 
L 19.798013 50.721779 
L 19.900699 50.743606 
L 20.003386 50.765433 
L 20.106073 50.78726 
L 20.20876 50.809086 
L 20.311446 50.838189 
L 20.414133 50.874567 
L 20.51682 50.910945 
L 20.619507 50.95096 
L 20.722194 50.990976 
L 20.82488 51.020079 
L 20.927567 51.038268 
L 21.030254 51.056457 
L 21.132941 51.074646 
L 21.235628 51.092835 
L 21.338314 51.103748 
L 21.441001 51.107386 
L 21.543688 51.111023 
L 21.646375 51.111023 
L 21.749061 51.111023 
L 21.851748 51.111023 
L 21.954435 51.111023 
L 22.057122 51.114661 
L 22.159809 51.121937 
L 22.262495 51.129212 
L 22.365182 51.136488 
L 22.467869 51.147401 
L 22.570556 51.16559 
L 22.673243 51.183779 
L 22.775929 51.201968 
" clip-path="url(#p42fa094e3c)" style="fill: none; stroke: #1f77b4; stroke-opacity: 0.9; stroke-width: 2.5; stroke-linecap: square"/>
   </g>
   <g id="line2d_9">
    <path d="M 22.878616 51.220157 
L 22.981303 51.238346 
L 23.08399 51.252898 
L 23.186676 51.263811 
" clip-path="url(#p42fa094e3c)" style="fill: none; stroke: #d2691e; stroke-opacity: 0.9; stroke-width: 2.5; stroke-linecap: square"/>
   </g>
   <g id="line2d_10">
    <path d="M 23.289363 51.274724 
L 23.39205 51.285638 
L 23.494737 51.292913 
L 23.597424 51.292913 
L 23.70011 51.292913 
L 23.802797 51.292913 
L 23.905484 51.292913 
L 24.008171 51.292913 
L 24.110858 51.292913 
L 24.213544 51.292913 
L 24.316231 51.292913 
L 24.418918 51.292913 
L 24.521605 51.292913 
L 24.624291 51.292913 
L 24.726978 51.292913 
L 24.829665 51.292913 
L 24.932352 51.296551 
L 25.035039 51.300189 
L 25.137725 51.303827 
L 25.240412 51.307464 
L 25.343099 51.311102 
L 25.445786 51.31474 
L 25.548473 51.31474 
L 25.651159 51.31474 
L 25.753846 51.31474 
L 25.856533 51.31474 
L 25.95922 51.311102 
L 26.061907 51.307464 
L 26.164593 51.303827 
L 26.26728 51.303827 
L 26.369967 51.300189 
L 26.472654 51.300189 
L 26.57534 51.303827 
L 26.678027 51.307464 
L 26.780714 51.311102 
L 26.883401 51.31474 
L 26.986088 51.318378 
L 27.088774 51.322016 
L 27.191461 51.325653 
L 27.294148 51.325653 
L 27.396835 51.329291 
L 27.499522 51.329291 
L 27.602208 51.329291 
L 27.704895 51.329291 
L 27.807582 51.329291 
L 27.910269 51.329291 
L 28.012955 51.329291 
L 28.115642 51.329291 
L 28.218329 51.329291 
L 28.321016 51.329291 
L 28.423703 51.329291 
L 28.526389 51.354756 
L 28.629076 51.387496 
L 28.731763 51.420236 
L 28.83445 51.452976 
L 28.937137 51.503905 
L 29.039823 51.554835 
L 29.14251 51.605764 
L 29.245197 51.656693 
L 29.347884 51.707622 
L 29.45057 51.762189 
L 29.553257 51.791291 
L 29.655944 51.813118 
L 29.758631 51.838583 
L 29.861318 51.867685 
L 29.964004 51.878598 
L 30.066691 51.889512 
L 30.169378 51.900425 
L 30.272065 51.911338 
L 30.374752 51.922252 
L 30.477438 51.933165 
L 30.580125 51.947716 
L 30.682812 51.973181 
L 30.785499 52.009559 
L 30.888185 52.045937 
L 30.990872 52.085953 
L 31.093559 52.129606 
L 31.196246 52.17326 
" clip-path="url(#p42fa094e3c)" style="fill: none; stroke: #1f77b4; stroke-opacity: 0.9; stroke-width: 2.5; stroke-linecap: square"/>
   </g>
   <g id="line2d_11">
    <path d="M 31.298933 52.220551 
L 32.736548 52.835338 
L 34.276849 52.777134 
L 35.098344 52.868079 
L 35.406404 52.737118 
L 36.227898 52.129606 
L 36.535959 52.202362 
L 37.46014 52.668 
L 38.589695 52.726205 
L 39.513876 52.777134 
L 40.746117 52.98085 
L 43.107913 52.711653 
L 43.826721 52.689827 
L 44.853589 52.711653 
L 45.572396 52.678913 
L 47.934192 52.769858 
L 47.934192 52.769858 
" clip-path="url(#p42fa094e3c)" style="fill: none; stroke: #d2691e; stroke-opacity: 0.9; stroke-width: 2.5; stroke-linecap: square"/>
   </g>
   <g id="line2d_12">
    <path d="M 48.036879 52.76622 
L 48.139566 52.762583 
L 48.242252 52.758945 
L 48.344939 52.755307 
L 48.447626 52.744394 
L 48.550313 52.73348 
L 48.653 52.722567 
L 48.755686 52.704378 
L 48.858373 52.678913 
" clip-path="url(#p42fa094e3c)" style="fill: none; stroke: #1f77b4; stroke-opacity: 0.9; stroke-width: 2.5; stroke-linecap: square"/>
   </g>
   <g id="line2d_13">
    <path d="M 48.96106 52.653449 
L 49.063747 52.631622 
L 49.166434 52.609795 
L 49.26912 52.587968 
L 49.371807 52.573417 
L 49.474494 52.562504 
L 49.577181 52.555228 
L 49.679868 52.558866 
L 49.782554 52.569779 
L 49.885241 52.591606 
L 49.987928 52.624346 
L 50.090615 52.660724 
L 50.193301 52.697102 
L 50.295988 52.740756 
L 50.398675 52.780772 
L 50.501362 52.824425 
L 50.604049 52.864441 
L 50.706735 52.900819 
L 50.809422 52.937197 
L 50.912109 52.973575 
L 51.014796 53.009953 
L 51.117483 53.042693 
L 51.220169 53.075433 
L 51.322856 53.108173 
L 51.425543 53.137276 
L 51.52823 53.166378 
L 51.630916 53.19548 
L 51.733603 53.220945 
L 51.83629 53.242772 
L 51.938977 53.250047 
L 52.041664 53.246409 
L 52.14435 53.239134 
L 52.247037 53.235496 
" clip-path="url(#p42fa094e3c)" style="fill: none; stroke: #d2691e; stroke-opacity: 0.9; stroke-width: 2.5; stroke-linecap: square"/>
   </g>
   <g id="line2d_14">
    <path d="M 52.349724 53.231858 
L 52.452411 53.22822 
L 52.555098 53.224583 
L 52.657784 53.224583 
L 52.760471 53.224583 
L 52.863158 53.224583 
L 52.965845 53.239134 
" clip-path="url(#p42fa094e3c)" style="fill: none; stroke: #1f77b4; stroke-opacity: 0.9; stroke-width: 2.5; stroke-linecap: square"/>
   </g>
   <g id="line2d_15">
    <path d="M 53.068531 53.260961 
L 54.506146 53.461039 
L 58.305558 53.490142 
L 60.359293 53.522882 
L 61.078101 53.504693 
L 61.591535 53.082709 
L 62.002282 52.831701 
L 62.310342 52.984488 
L 62.823776 53.490142 
L 63.234523 53.813905 
L 63.850644 54.013984 
L 66.417814 54.006709 
L 69.703791 53.642929 
L 69.703791 53.642929 
" clip-path="url(#p42fa094e3c)" style="fill: none; stroke: #d2691e; stroke-opacity: 0.9; stroke-width: 2.5; stroke-linecap: square"/>
   </g>
   <g id="line2d_16">
    <path d="M 69.806478 53.642929 
L 69.909165 53.642929 
L 70.011851 53.639291 
L 70.114538 53.632016 
L 70.217225 53.62474 
L 70.319912 53.610189 
L 70.422598 53.599276 
L 70.525285 53.588362 
L 70.627972 53.577449 
" clip-path="url(#p42fa094e3c)" style="fill: none; stroke: #1f77b4; stroke-opacity: 0.9; stroke-width: 2.5; stroke-linecap: square"/>
   </g>
   <g id="line2d_17">
    <path d="M 70.730659 53.570173 
L 70.833346 53.566535 
L 70.936032 53.570173 
L 71.038719 53.602913 
L 71.141406 53.635653 
L 71.244093 53.672031 
L 71.34678 53.712047 
L 71.449466 53.730236 
L 71.552153 53.726598 
L 71.65484 53.719323 
L 71.757527 53.712047 
L 71.860213 53.701134 
L 71.9629 53.682945 
L 72.065587 53.639291 
L 72.168274 53.595638 
L 72.270961 53.548346 
" clip-path="url(#p42fa094e3c)" style="fill: none; stroke: #d2691e; stroke-opacity: 0.9; stroke-width: 2.5; stroke-linecap: square"/>
   </g>
   <g id="line2d_18">
    <path d="M 72.373647 53.501055 
L 72.476334 53.47559 
L 72.579021 53.47559 
L 72.681708 53.482866 
L 72.784395 53.486504 
L 72.887081 53.490142 
L 72.989768 53.493779 
L 73.092455 53.504693 
L 73.195142 53.515606 
L 73.297828 53.533795 
L 73.400515 53.551984 
L 73.503202 53.570173 
L 73.605889 53.588362 
" clip-path="url(#p42fa094e3c)" style="fill: none; stroke: #1f77b4; stroke-opacity: 0.9; stroke-width: 2.5; stroke-linecap: square"/>
   </g>
   <g id="line2d_19">
    <path d="M 73.708576 53.606551 
" clip-path="url(#p42fa094e3c)" style="fill: none; stroke: #d2691e; stroke-opacity: 0.9; stroke-width: 2.5; stroke-linecap: square"/>
   </g>
   <g id="line2d_20">
    <path d="M 73.811262 53.62474 
L 73.913949 53.642929 
L 74.016636 53.664756 
L 74.119323 53.679307 
L 74.22201 53.693858 
L 74.324696 53.701134 
L 74.427383 53.708409 
" clip-path="url(#p42fa094e3c)" style="fill: none; stroke: #1f77b4; stroke-opacity: 0.9; stroke-width: 2.5; stroke-linecap: square"/>
   </g>
   <g id="line2d_21">
    <path d="M 74.53007 53.715685 
L 74.632757 53.722961 
L 74.735444 53.748425 
L 74.83813 53.77389 
L 74.940817 53.799354 
L 75.043504 53.821181 
L 75.146191 53.846646 
L 75.248877 53.87211 
L 75.351564 53.897575 
L 75.454251 53.923039 
L 75.556938 53.952142 
L 75.659625 53.981244 
L 75.762311 53.992157 
L 75.864998 54.003071 
L 75.967685 54.013984 
L 76.070372 54.024898 
L 76.173059 54.032173 
L 76.275745 54.039449 
L 76.378432 54.046724 
L 76.481119 54.054 
L 76.583806 54.057638 
L 76.686492 54.057638 
L 76.789179 54.057638 
L 76.891866 54.057638 
L 76.994553 54.057638 
L 77.09724 54.057638 
L 77.199926 54.057638 
L 77.302613 54.057638 
L 77.4053 54.057638 
L 77.507987 54.057638 
L 77.610674 54.057638 
L 77.71336 54.057638 
L 77.816047 54.057638 
L 77.918734 54.057638 
L 78.021421 54.057638 
L 78.124107 54.057638 
L 78.226794 54.057638 
L 78.329481 54.057638 
L 78.432168 54.057638 
L 78.534855 54.057638 
L 78.637541 54.057638 
L 78.740228 54.057638 
L 78.842915 54.057638 
L 78.945602 54.057638 
L 79.048289 54.057638 
L 79.150975 54.057638 
L 79.253662 54.057638 
L 79.356349 54.057638 
L 79.459036 54.057638 
L 79.561722 54.057638 
L 79.664409 54.057638 
L 79.767096 54.057638 
L 79.869783 54.057638 
L 79.97247 54.057638 
L 80.075156 54.057638 
L 80.177843 54.057638 
L 80.28053 54.057638 
L 80.383217 54.061276 
L 80.485904 54.064913 
L 80.58859 54.068551 
L 80.691277 54.072189 
L 80.793964 54.079465 
L 80.896651 54.08674 
L 80.999338 54.108567 
L 81.102024 54.134031 
L 81.204711 54.163134 
L 81.307398 54.195874 
L 81.410085 54.221339 
L 81.512771 54.246803 
L 81.615458 54.254079 
L 81.718145 54.257716 
L 81.820832 54.257716 
L 81.923519 54.254079 
L 82.026205 54.23589 
L 82.128892 54.214063 
L 82.231579 54.188598 
L 82.334266 54.166772 
L 82.436953 54.141307 
L 82.539639 54.112205 
L 82.642326 54.101291 
L 82.745013 54.094016 
L 82.8477 54.08674 
L 82.950386 54.083102 
L 83.053073 54.083102 
L 83.15576 54.083102 
L 83.258447 54.083102 
L 83.361134 54.075827 
L 83.46382 54.079465 
L 83.566507 54.083102 
L 83.669194 54.101291 
L 83.771881 54.123118 
L 83.874568 54.144945 
" clip-path="url(#p42fa094e3c)" style="fill: none; stroke: #d2691e; stroke-opacity: 0.9; stroke-width: 2.5; stroke-linecap: square"/>
   </g>
   <g id="line2d_22">
    <path d="M 83.977254 54.166772 
L 84.079941 54.184961 
" clip-path="url(#p42fa094e3c)" style="fill: none; stroke: #1f77b4; stroke-opacity: 0.9; stroke-width: 2.5; stroke-linecap: square"/>
   </g>
   <g id="line2d_23">
    <path d="M 84.182628 54.20315 
L 84.696062 54.20315 
L 86.03099 54.028535 
L 87.263232 54.046724 
L 87.776665 53.80663 
L 88.290099 53.77389 
L 88.803533 53.959417 
L 89.933088 54.057638 
L 93.013692 54.057638 
L 94.451307 54.217701 
L 95.478174 55.432724 
L 97.737284 55.090772 
L 98.250718 54.941622 
L 98.764152 54.901606 
L 99.996393 54.930709 
L 101.331321 54.068551 
L 102.460876 54.054 
L 125.257343 54.144945 
L 125.66809 54.305008 
L 125.66809 54.305008 
" clip-path="url(#p42fa094e3c)" style="fill: none; stroke: #d2691e; stroke-opacity: 0.9; stroke-width: 2.5; stroke-linecap: square"/>
   </g>
   <g id="line2d_24">
    <path d="M 125.770777 54.341386 
L 125.873463 54.374126 
L 125.97615 54.410504 
L 126.078837 54.443244 
L 126.181524 54.479622 
L 126.284211 54.512362 
L 126.386897 54.526913 
L 126.489584 54.534189 
L 126.592271 54.541465 
L 126.694958 54.552378 
L 126.797644 54.563291 
L 126.900331 54.570567 
L 127.003018 54.577842 
L 127.105705 54.585118 
L 127.208392 54.588756 
L 127.311078 54.592394 
L 127.413765 54.596031 
L 127.516452 54.599669 
L 127.619139 54.603307 
L 127.721826 54.603307 
L 127.824512 54.603307 
L 127.927199 54.603307 
L 128.029886 54.603307 
L 128.132573 54.599669 
L 128.235259 54.596031 
" clip-path="url(#p42fa094e3c)" style="fill: none; stroke: #1f77b4; stroke-opacity: 0.9; stroke-width: 2.5; stroke-linecap: square"/>
   </g>
   <g id="line2d_25">
    <path d="M 128.337946 54.588756 
L 128.440633 54.58148 
L 128.54332 54.570567 
L 128.646007 54.559654 
L 128.748693 54.545102 
L 128.85138 54.530551 
L 128.954067 54.516 
L 129.056754 54.501449 
L 129.159441 54.486898 
L 129.262127 54.472346 
L 129.364814 54.461433 
L 129.467501 54.446882 
L 129.570188 54.435968 
L 129.672874 54.425055 
L 129.775561 54.417779 
L 129.878248 54.406866 
L 129.980935 54.395953 
L 130.083622 54.385039 
L 130.186308 54.377764 
L 130.288995 54.370488 
L 130.391682 54.359575 
L 130.494369 54.348661 
L 130.597056 54.33411 
L 130.699742 54.319559 
L 130.802429 54.305008 
L 130.905116 54.294094 
L 131.007803 54.283181 
L 131.11049 54.272268 
L 131.213176 54.261354 
L 131.315863 54.250441 
L 131.41855 54.243165 
L 131.521237 54.239528 
L 131.623923 54.23589 
L 131.72661 54.23589 
L 131.829297 54.23589 
L 131.931984 54.23589 
L 132.034671 54.23589 
L 132.137357 54.23589 
L 132.240044 54.232252 
L 132.342731 54.228614 
L 132.445418 54.224976 
L 132.548105 54.221339 
L 132.650791 54.221339 
L 132.753478 54.217701 
L 132.856165 54.214063 
L 132.958852 54.210425 
L 133.061538 54.206787 
L 133.164225 54.20315 
L 133.266912 54.20315 
L 133.369599 54.20315 
L 133.472286 54.20315 
L 133.574972 54.20315 
L 133.677659 54.20315 
L 133.780346 54.20315 
L 133.883033 54.20315 
L 133.98572 54.20315 
L 134.088406 54.20315 
L 134.191093 54.20315 
L 134.29378 54.20315 
L 134.396467 54.20315 
L 134.499153 54.20315 
L 134.60184 54.20315 
L 134.704527 54.20315 
L 134.807214 54.20315 
L 134.909901 54.20315 
L 135.012587 54.20315 
L 135.115274 54.206787 
L 135.217961 54.210425 
L 135.320648 54.214063 
L 135.423335 54.221339 
L 135.526021 54.23589 
L 135.628708 54.254079 
L 135.731395 54.275905 
L 135.834082 54.30137 
L 135.936768 54.330472 
L 136.039455 54.359575 
L 136.142142 54.385039 
L 136.244829 54.414142 
L 136.347516 54.443244 
L 136.450202 54.468709 
" clip-path="url(#p42fa094e3c)" style="fill: none; stroke: #d2691e; stroke-opacity: 0.9; stroke-width: 2.5; stroke-linecap: square"/>
   </g>
   <g id="line2d_26">
    <path d="M 136.552889 54.490535 
L 137.579757 54.603307 
L 147.745749 54.534189 
L 148.464556 54.043087 
L 148.875304 53.813905 
L 150.312919 53.464677 
L 151.2371 53.210031 
L 151.750534 52.940835 
L 152.161281 51.944079 
L 152.161281 51.944079 
" clip-path="url(#p42fa094e3c)" style="fill: none; stroke: #1f77b4; stroke-opacity: 0.9; stroke-width: 2.5; stroke-linecap: square"/>
   </g>
   <g id="line2d_27">
    <path d="M 152.263968 51.660331 
L 152.366654 51.358394 
L 152.469341 51.049181 
L 152.572028 50.721779 
L 152.674715 50.376189 
L 152.777402 50.063338 
L 152.880088 49.86326 
L 152.982775 49.732299 
L 153.085462 49.597701 
L 153.188149 49.46674 
L 153.290835 49.346693 
L 153.393522 49.237559 
L 153.496209 49.132063 
L 153.598896 49.048393 
L 153.701583 48.986551 
L 153.804269 48.931984 
L 153.906956 48.899244 
L 154.009643 48.881055 
L 154.11233 48.866504 
L 154.215017 48.862866 
L 154.317703 48.859228 
L 154.42039 48.859228 
L 154.523077 48.866504 
L 154.625764 48.85559 
L 154.72845 48.819212 
L 154.831137 48.775559 
L 154.933824 48.713716 
L 155.036511 48.622771 
L 155.139198 48.528189 
L 155.241884 48.419055 
L 155.344571 48.288094 
L 155.447258 48.14622 
L 155.549945 47.967968 
L 155.652632 47.695134 
L 155.755318 47.291338 
L 155.858005 46.894819 
L 155.960692 46.410992 
L 156.063379 45.934441 
L 156.166066 45.457889 
L 156.268752 45.010441 
L 156.371439 44.624834 
L 156.474126 44.275606 
L 156.576813 43.995496 
L 156.679499 43.853622 
L 156.782186 43.904551 
" clip-path="url(#p42fa094e3c)" style="fill: none; stroke: #d2691e; stroke-opacity: 0.9; stroke-width: 2.5; stroke-linecap: square"/>
   </g>
   <g id="line2d_28">
    <path d="M 156.884873 43.95548 
L 156.98756 43.980945 
L 157.090247 44.02096 
L 157.192933 44.064614 
L 157.29562 44.050063 
L 157.398307 43.959118 
L 157.500994 43.813606 
L 157.603681 43.620803 
L 157.706367 43.366157 
L 157.809054 43.06422 
L 157.911741 42.740456 
L 158.014428 42.518551 
L 158.117114 42.267543 
L 158.219801 41.976519 
L 158.322488 41.718236 
L 158.425175 41.485417 
L 158.527862 41.24896 
L 158.630548 40.987039 
L 158.733235 40.710566 
L 158.835922 40.415905 
L 158.938609 40.088503 
L 159.041296 39.775653 
L 159.143982 39.426425 
" clip-path="url(#p42fa094e3c)" style="fill: none; stroke: #1f77b4; stroke-opacity: 0.9; stroke-width: 2.5; stroke-linecap: square"/>
   </g>
   <g id="line2d_29">
    <path d="M 159.246669 39.102661 
L 159.554729 38.255055 
L 159.760103 38.382377 
L 160.17085 39.950267 
L 160.684284 42.242078 
L 160.889658 42.511275 
L 161.403092 42.791385 
L 161.608465 43.391622 
L 162.019212 46.26548 
L 162.635333 50.710866 
L 162.840707 51.089197 
L 163.04608 51.103748 
L 163.251454 50.961874 
L 163.662201 50.645386 
L 164.278322 50.619921 
L 164.689069 51.234709 
L 165.61325 52.933559 
L 166.023997 53.089984 
L 166.434744 53.039055 
L 166.742805 52.740756 
L 167.564299 51.92589 
L 167.872359 51.689433 
L 168.385793 51.24926 
L 168.79654 51.194693 
L 169.309974 51.209244 
L 169.720721 50.368913 
L 169.926095 49.96148 
L 170.131469 50.147008 
L 170.336842 50.594457 
L 171.158336 53.053606 
L 172.390578 53.122724 
L 172.904012 53.213669 
L 173.314759 53.446488 
L 174.033566 54.174047 
L 174.444314 54.08674 
L 175.060434 53.813905 
L 175.265808 54.006709 
L 175.265808 54.006709 
" clip-path="url(#p42fa094e3c)" style="fill: none; stroke: #d2691e; stroke-opacity: 0.9; stroke-width: 2.5; stroke-linecap: square"/>
   </g>
   <g id="line2d_30">
    <path d="M 175.368495 54.090378 
L 175.471181 54.177685 
L 175.573868 54.264992 
L 175.676555 54.359575 
L 175.779242 54.443244 
" clip-path="url(#p42fa094e3c)" style="fill: none; stroke: #1f77b4; stroke-opacity: 0.9; stroke-width: 2.5; stroke-linecap: square"/>
   </g>
   <g id="line2d_31">
    <path d="M 175.881929 54.501449 
L 175.984615 54.556016 
L 176.087302 54.603307 
L 176.189989 54.603307 
L 176.292676 54.603307 
L 176.395363 54.603307 
L 176.498049 54.603307 
L 176.600736 54.603307 
L 176.703423 54.603307 
L 176.80611 54.603307 
L 176.908796 54.603307 
L 177.011483 54.599669 
L 177.11417 54.592394 
L 177.216857 54.58148 
L 177.319544 54.570567 
L 177.42223 54.559654 
L 177.524917 54.541465 
L 177.627604 54.519638 
L 177.730291 54.494173 
L 177.832978 54.457795 
L 177.935664 54.417779 
L 178.038351 54.374126 
L 178.141038 54.330472 
L 178.243725 54.286819 
L 178.346411 54.243165 
L 178.449098 54.199512 
L 178.551785 54.159496 
L 178.654472 54.123118 
L 178.757159 54.090378 
L 178.859845 54.072189 
L 178.962532 54.054 
L 179.065219 54.046724 
L 179.167906 54.043087 
L 179.270593 54.043087 
L 179.373279 54.043087 
L 179.475966 54.043087 
L 179.578653 54.046724 
L 179.68134 54.046724 
L 179.784026 54.061276 
L 179.886713 54.075827 
L 179.9894 54.097654 
L 180.092087 54.115842 
L 180.194774 54.130394 
L 180.29746 54.137669 
L 180.400147 54.144945 
L 180.502834 54.15222 
L 180.605521 54.163134 
L 180.708208 54.174047 
L 180.810894 54.170409 
L 180.913581 54.159496 
L 181.016268 54.141307 
L 181.118955 54.123118 
L 181.221642 54.108567 
L 181.324328 54.112205 
L 181.427015 54.123118 
L 181.529702 54.15222 
L 181.632389 54.184961 
L 181.735075 54.224976 
L 181.837762 54.264992 
L 181.940449 54.308646 
L 182.043136 54.359575 
L 182.145823 54.406866 
L 182.248509 54.454157 
L 182.351196 54.479622 
L 182.453883 54.497811 
L 182.55657 54.494173 
L 182.659257 54.486898 
L 182.761943 54.472346 
L 182.86463 54.454157 
L 182.967317 54.435968 
L 183.070004 54.410504 
L 183.17269 54.385039 
L 183.275377 54.352299 
L 183.378064 54.330472 
L 183.480751 54.305008 
L 183.583438 54.279543 
L 183.686124 54.254079 
L 183.788811 54.232252 
L 183.891498 54.210425 
L 183.994185 54.181323 
L 184.096872 54.148583 
L 184.199558 54.104929 
L 184.302245 54.057638 
L 184.404932 53.999433 
L 184.507619 53.937591 
L 184.610305 53.879386 
L 184.712992 53.817543 
L 184.815679 53.752063 
L 184.918366 53.69022 
L 185.021053 53.642929 
L 185.123739 53.621102 
L 185.226426 53.628378 
L 185.329113 53.653842 
L 185.4318 53.693858 
L 185.534487 53.737512 
L 185.637173 53.777528 
L 185.73986 53.817543 
" clip-path="url(#p42fa094e3c)" style="fill: none; stroke: #d2691e; stroke-opacity: 0.9; stroke-width: 2.5; stroke-linecap: square"/>
   </g>
   <g id="line2d_32">
    <path d="M 185.842547 53.821181 
L 185.945234 53.817543 
L 186.047921 53.810268 
L 186.150607 53.792079 
L 186.253294 53.762976 
" clip-path="url(#p42fa094e3c)" style="fill: none; stroke: #1f77b4; stroke-opacity: 0.9; stroke-width: 2.5; stroke-linecap: square"/>
   </g>
   <g id="line2d_33">
    <path d="M 186.355981 53.730236 
L 186.458668 53.712047 
L 186.561354 53.704772 
L 186.664041 53.704772 
L 186.766728 53.704772 
L 186.869415 53.752063 
L 186.972102 53.810268 
L 187.074788 53.861197 
L 187.177475 53.893937 
L 187.280162 53.915764 
L 187.382849 53.933953 
L 187.485536 53.926677 
L 187.588222 53.901213 
L 187.690909 53.817543 
L 187.793596 53.697496 
L 187.896283 53.573811 
L 187.998969 53.522882 
L 188.101656 53.493779 
L 188.204343 53.504693 
L 188.30703 53.519244 
L 188.409717 53.515606 
L 188.512403 53.497417 
L 188.61509 53.47559 
L 188.717777 53.508331 
L 188.820464 53.570173 
L 188.923151 53.632016 
L 189.025837 53.621102 
L 189.128524 53.584724 
L 189.231211 53.493779 
L 189.333898 53.402835 
L 189.436584 53.326441 
L 189.539271 53.268236 
L 189.641958 53.220945 
L 189.744645 53.170016 
L 189.847332 53.144551 
L 189.950018 53.122724 
L 190.052705 53.09726 
" clip-path="url(#p42fa094e3c)" style="fill: none; stroke: #d2691e; stroke-opacity: 0.9; stroke-width: 2.5; stroke-linecap: square"/>
   </g>
   <g id="line2d_34">
    <path d="M 190.155392 53.075433 
L 190.258079 53.071795 
L 190.360766 53.053606 
L 190.463452 53.049968 
L 190.566139 53.079071 
L 190.668826 53.111811 
" clip-path="url(#p42fa094e3c)" style="fill: none; stroke: #1f77b4; stroke-opacity: 0.9; stroke-width: 2.5; stroke-linecap: square"/>
   </g>
   <g id="line2d_35">
    <path d="M 190.771513 53.148189 
L 190.874199 53.16274 
L 190.976886 53.151827 
L 191.079573 53.13 
L 191.18226 53.111811 
L 191.284947 53.086346 
L 191.387633 53.06452 
L 191.49032 53.01359 
" clip-path="url(#p42fa094e3c)" style="fill: none; stroke: #d2691e; stroke-opacity: 0.9; stroke-width: 2.5; stroke-linecap: square"/>
   </g>
   <g id="line2d_36">
    <path d="M 191.593007 52.897181 
L 191.695694 52.798961 
L 191.798381 52.715291 
L 191.901067 52.649811 
L 192.003754 52.613433 
L 192.106441 52.591606 
" clip-path="url(#p42fa094e3c)" style="fill: none; stroke: #1f77b4; stroke-opacity: 0.9; stroke-width: 2.5; stroke-linecap: square"/>
   </g>
   <g id="line2d_37">
    <path d="M 192.209128 52.577055 
L 192.311815 52.580693 
L 192.414501 52.598882 
L 192.517188 52.638898 
L 192.619875 52.715291 
L 192.722562 52.773496 
L 192.825248 52.81715 
L 192.927935 52.846252 
L 193.030622 52.860803 
L 193.133309 52.864441 
L 193.235996 52.846252 
L 193.338682 52.824425 
L 193.441369 52.780772 
L 193.544056 52.758945 
L 193.646743 52.740756 
L 193.74943 52.729842 
L 193.852116 52.722567 
L 193.954803 52.715291 
L 194.05749 52.708016 
L 194.160177 52.697102 
L 194.262863 52.675276 
L 194.36555 52.617071 
L 194.468237 52.562504 
L 194.570924 52.489748 
L 194.673611 52.449732 
L 194.776297 52.438819 
L 194.878984 52.449732 
L 194.981671 52.464283 
L 195.084358 52.478835 
L 195.187045 52.489748 
L 195.289731 52.478835 
L 195.392418 52.471559 
L 195.495105 52.577055 
L 195.597792 52.653449 
L 195.700478 52.697102 
L 195.803165 52.715291 
L 195.905852 52.711653 
L 196.008539 52.697102 
L 196.111226 52.682551 
L 196.213912 52.657087 
L 196.316599 52.569779 
L 196.419286 52.504299 
L 196.521973 52.35515 
L 196.62466 52.311496 
L 196.727346 52.322409 
L 196.830033 52.333323 
L 196.93272 52.336961 
L 197.035407 52.326047 
L 197.138093 52.318772 
L 197.24078 52.322409 
L 197.343467 52.435181 
L 197.446154 52.587968 
L 197.548841 52.73348 
L 197.651527 52.788047 
L 197.754214 52.780772 
L 197.856901 52.76622 
L 197.959588 52.758945 
L 198.062275 52.777134 
L 198.164961 52.657087 
L 198.267648 52.504299 
L 198.370335 52.336961 
L 198.473022 52.14052 
" clip-path="url(#p42fa094e3c)" style="fill: none; stroke: #d2691e; stroke-opacity: 0.9; stroke-width: 2.5; stroke-linecap: square"/>
   </g>
   <g id="line2d_38">
    <path d="M 198.575709 51.944079 
L 198.678395 51.845858 
L 198.781082 51.907701 
L 198.883769 51.703984 
L 198.986456 51.492992 
" clip-path="url(#p42fa094e3c)" style="fill: none; stroke: #1f77b4; stroke-opacity: 0.9; stroke-width: 2.5; stroke-linecap: square"/>
   </g>
   <g id="line2d_39">
    <path d="M 199.089142 51.274724 
L 199.191829 51.180142 
L 199.294516 51.129212 
L 199.397203 51.096472 
L 199.49989 51.06737 
L 199.602576 51.041905 
L 199.705263 50.921858 
L 199.80795 50.645386 
L 199.910637 50.630834 
L 200.013324 50.616283 
L 200.11601 50.60537 
L 200.218697 50.609008 
L 200.321384 50.612646 
L 200.424071 50.609008 
L 200.526757 50.609008 
L 200.629444 50.60537 
L 200.732131 50.60537 
L 200.834818 50.60537 
L 200.937505 50.60537 
L 201.040191 50.60537 
L 201.142878 50.598094 
L 201.245565 50.587181 
L 201.348252 50.565354 
L 201.450939 50.53989 
L 201.553625 50.503512 
" clip-path="url(#p42fa094e3c)" style="fill: none; stroke: #d2691e; stroke-opacity: 0.9; stroke-width: 2.5; stroke-linecap: square"/>
   </g>
   <g id="line2d_40">
    <path d="M 201.656312 50.45622 
L 201.758999 50.408929 
L 201.861686 50.365275 
L 201.964372 50.321622 
L 202.067059 50.285244 
L 202.169746 50.259779 
L 202.272433 50.24159 
L 202.37512 50.24159 
L 202.477806 50.248866 
L 202.580493 50.270693 
L 202.68318 50.314346 
L 202.785867 50.361638 
L 202.888554 50.405291 
L 202.99124 50.448945 
L 203.093927 50.478047 
L 203.196614 50.459858 
L 203.299301 50.408929 
L 203.401987 50.343449 
L 203.504674 50.270693 
L 203.607361 50.197937 
L 203.710048 50.114268 
L 203.812735 50.02696 
L 203.915421 49.943291 
L 204.018108 49.855984 
L 204.120795 49.775953 
L 204.223482 49.728661 
L 204.326169 49.721386 
L 204.428855 49.775953 
L 204.531542 49.892362 
L 204.634229 49.99422 
L 204.736916 50.085165 
L 204.839603 50.179748 
L 204.942289 50.274331 
" clip-path="url(#p42fa094e3c)" style="fill: none; stroke: #1f77b4; stroke-opacity: 0.9; stroke-width: 2.5; stroke-linecap: square"/>
   </g>
   <g id="line2d_41">
    <path d="M 205.044976 50.376189 
L 205.147663 50.463496 
L 205.25035 50.499874 
L 205.353036 50.587181 
L 205.455723 50.641748 
L 205.55841 50.63811 
L 205.661097 50.634472 
" clip-path="url(#p42fa094e3c)" style="fill: none; stroke: #d2691e; stroke-opacity: 0.9; stroke-width: 2.5; stroke-linecap: square"/>
   </g>
   <g id="line2d_42">
    <path d="M 205.763784 50.634472 
L 205.86647 50.630834 
L 205.969157 50.612646 
L 206.071844 50.583543 
L 206.174531 50.568992 
L 206.277218 50.612646 
L 206.379904 50.590819 
L 206.482591 50.543527 
L 206.585278 50.499874 
L 206.687965 50.45622 
L 206.790651 50.419842 
L 206.893338 50.379827 
L 206.996025 50.350724 
L 207.098712 50.32526 
L 207.201399 50.307071 
L 207.304085 50.29252 
L 207.406772 50.277968 
L 207.509459 50.270693 
L 207.612146 50.263417 
L 207.714833 50.259779 
L 207.817519 50.245228 
L 207.920206 50.234315 
L 208.022893 50.234315 
L 208.12558 50.237953 
L 208.228266 50.259779 
L 208.330953 50.288882 
L 208.43364 50.321622 
L 208.536327 50.350724 
L 208.639014 50.383464 
L 208.7417 50.412567 
" clip-path="url(#p42fa094e3c)" style="fill: none; stroke: #1f77b4; stroke-opacity: 0.9; stroke-width: 2.5; stroke-linecap: square"/>
   </g>
   <g id="line2d_43">
    <path d="M 208.844387 50.448945 
L 208.947074 50.485323 
L 209.049761 50.510787 
L 209.152448 50.536252 
L 209.255134 50.536252 
L 209.357821 50.528976 
L 209.460508 50.521701 
L 209.563195 50.518063 
L 209.665881 50.507149 
" clip-path="url(#p42fa094e3c)" style="fill: none; stroke: #d2691e; stroke-opacity: 0.9; stroke-width: 2.5; stroke-linecap: square"/>
   </g>
   <g id="line2d_44">
    <path d="M 209.768568 50.499874 
L 209.871255 50.496236 
L 209.973942 50.492598 
L 210.076629 50.492598 
L 210.179315 50.492598 
L 210.282002 50.496236 
L 210.384689 50.499874 
L 210.487376 50.507149 
L 210.590063 50.514425 
L 210.692749 50.532614 
L 210.795436 50.558079 
L 210.898123 50.579905 
L 211.00081 50.601732 
L 211.103497 50.619921 
L 211.206183 50.649023 
L 211.30887 50.678126 
L 211.411557 50.710866 
L 211.514244 50.725417 
L 211.61693 50.736331 
L 211.719617 50.736331 
L 211.822304 50.725417 
L 211.924991 50.710866 
L 212.027678 50.696315 
L 212.130364 50.678126 
L 212.233051 50.649023 
L 212.335738 50.616283 
L 212.438425 50.565354 
L 212.541112 50.521701 
L 212.643798 50.478047 
L 212.746485 50.438031 
L 212.849172 50.401653 
L 212.951859 50.361638 
L 213.054545 50.307071 
" clip-path="url(#p42fa094e3c)" style="fill: none; stroke: #1f77b4; stroke-opacity: 0.9; stroke-width: 2.5; stroke-linecap: square"/>
   </g>
   <g id="line2d_45">
    <path d="M 10.145455 55.44 
L 213.054545 55.44 
L 213.054545 55.44 
" clip-path="url(#p42fa094e3c)" style="fill: none; stroke-dasharray: 2,3.3; stroke-dashoffset: 0; stroke: #8d99ae; stroke-opacity: 0.7; stroke-width: 2"/>
   </g>
  </g>
 </g>
 <defs>
  <clipPath id="p42fa094e3c">
   <rect x="0" y="-0" width="223.2" height="55.44"/>
  </clipPath>
 </defs>
</svg>
