<?xml version="1.0" encoding="utf-8" standalone="no"?>
<!DOCTYPE svg PUBLIC "-//W3C//DTD SVG 1.1//EN"
  "http://www.w3.org/Graphics/SVG/1.1/DTD/svg11.dtd">
<svg xmlns:xlink="http://www.w3.org/1999/xlink" width="223.2pt" height="55.44pt" viewBox="0 0 223.2 55.44" xmlns="http://www.w3.org/2000/svg" version="1.1">
 <metadata>
  <rdf:RDF xmlns:dc="http://purl.org/dc/elements/1.1/" xmlns:cc="http://creativecommons.org/ns#" xmlns:rdf="http://www.w3.org/1999/02/22-rdf-syntax-ns#">
   <cc:Work>
    <dc:type rdf:resource="http://purl.org/dc/dcmitype/StillImage"/>
    <dc:date>2026-06-29T15:38:27.505956</dc:date>
    <dc:format>image/svg+xml</dc:format>
    <dc:creator>
     <cc:Agent>
      <dc:title>Matplotlib v3.10.8, https://matplotlib.org/</dc:title>
     </cc:Agent>
    </dc:creator>
   </cc:Work>
  </rdf:RDF>
 </metadata>
 <defs>
  <style type="text/css">*{stroke-linejoin: round; stroke-linecap: butt}</style>
 </defs>
 <g id="figure_1">
  <g id="patch_1">
   <path d="M 0 55.44 
L 223.2 55.44 
L 223.2 0 
L 0 0 
L 0 55.44 
z
" style="fill: none"/>
  </g>
  <g id="axes_1">
   <g id="line2d_1">
    <path d="M 10.145455 51.725631 
L 10.992232 51.555765 
L 11.944857 51.320739 
L 12.57994 50.956457 
L 14.379343 49.750144 
L 14.908579 49.480216 
L 16.602134 48.171187 
L 17.343064 47.097449 
L 18.189842 45.588961 
L 18.613231 45.314256 
L 19.03662 44.930863 
L 20.518481 42.373718 
L 21.153564 41.670235 
L 21.788647 40.663381 
L 22.42373 39.532313 
L 22.847119 38.539792 
L 23.270508 37.735982 
L 23.482202 37.767035 
L 23.799744 37.063552 
L 24.646522 34.376221 
L 24.858216 34.144513 
L 25.06991 34.050158 
L 25.493299 33.419531 
L 26.340077 32.24666 
L 26.763466 31.957623 
L 26.97516 32.183358 
L 27.186854 32.499866 
L 27.292702 32.38879 
L 27.610243 31.774884 
L 27.821938 31.353272 
L 28.457021 29.55694 
L 28.774563 29.388534 
L 29.303799 29.444669 
L 29.833035 29.450641 
L 30.573965 28.72327 
L 30.891507 28.379292 
L 31.949979 27.858547 
L 33.008451 26.80153 
L 33.43184 26.434859 
L 34.384464 25.709876 
L 35.125395 25.610744 
L 35.972172 25.130607 
L 36.395561 24.965784 
L 36.924797 24.456983 
L 37.55988 23.870547 
L 39.359283 22.776505 
L 40.206061 22.565102 
L 40.629449 21.983444 
L 41.052838 21.443589 
L 41.476227 21.217853 
L 43.063935 20.805796 
L 44.969185 19.275808 
L 46.239351 18.663097 
L 47.086129 18.348978 
L 47.615365 18.167434 
L 48.144601 17.741044 
L 48.885531 17.036366 
L 49.520615 16.789131 
L 49.944003 16.586088 
L 51.743406 15.36186 
L 53.013572 14.054025 
L 53.648656 13.112862 
L 54.283739 12.38788 
L 54.918822 11.759642 
L 55.553905 11.494492 
L 56.188988 10.703819 
L 58.835169 7.686842 
L 59.15271 7.560239 
L 60.105335 7.501715 
L 60.422877 7.26523 
L 62.010585 5.658803 
L 63.069057 3.882775 
L 63.492446 3.802753 
L 64.339223 3.695259 
L 64.656765 3.431304 
L 65.291848 2.709905 
L 65.821084 2.523583 
L 66.138626 2.635854 
L 66.879556 3.757367 
L 67.938028 5.574003 
L 68.361417 6.093553 
L 69.631583 6.795842 
L 69.843278 6.884226 
L 70.266667 7.445579 
L 70.90175 8.381965 
L 71.536833 8.756997 
L 72.171916 9.078282 
L 73.018694 9.01737 
L 73.442083 9.114113 
L 74.077166 9.028119 
L 74.818096 8.811938 
L 75.45318 8.445267 
L 75.770721 8.493041 
L 76.829193 9.003037 
L 77.570124 8.948096 
L 78.205207 8.918237 
L 78.84029 8.943319 
L 79.792915 8.950485 
L 80.216304 9.00662 
L 81.48647 8.919431 
L 82.756637 9.685022 
L 83.39172 9.720853 
L 83.815109 10.081553 
L 84.450192 11.139764 
L 85.614511 12.939679 
L 86.672983 13.773348 
L 87.202219 14.765869 
L 87.837303 15.398885 
L 88.048997 15.464576 
L 88.366539 15.857523 
L 89.636705 17.623995 
L 89.954247 17.842565 
L 90.695177 18.218791 
L 93.97644 20.490482 
L 94.929065 20.920455 
L 95.246607 21.331318 
L 95.669996 21.942835 
L 96.305079 22.400279 
L 96.728468 22.593767 
L 97.681093 23.519403 
L 98.316176 24.343518 
L 98.739565 25.050584 
L 99.374648 25.239295 
L 99.903884 25.228545 
L 100.538967 25.696738 
L 101.279898 26.630735 
L 101.914981 27.563538 
L 105.937175 31.963594 
L 106.889799 32.440148 
L 107.313188 32.723213 
L 108.689202 33.685875 
L 109.006743 33.819645 
L 111.123688 35.491762 
L 111.441229 35.723469 
L 112.18216 36.201217 
L 112.499701 36.149859 
L 113.028937 35.934873 
L 113.558173 35.4201 
L 114.616645 33.243958 
L 115.251729 32.797264 
L 116.416048 31.544371 
L 117.368673 30.912549 
L 118.638839 30.088435 
L 119.273922 29.744456 
L 120.226547 29.47214 
L 120.967478 28.802099 
L 121.602561 28.44976 
L 122.76688 27.728361 
L 123.190269 27.414241 
L 124.248741 26.326171 
L 125.836449 24.68033 
L 126.153991 24.649276 
L 126.471532 24.968173 
L 129.435254 28.691022 
L 130.387879 29.252376 
L 131.552198 29.762372 
L 132.822364 30.745338 
L 133.245753 30.879107 
L 134.198378 31.582591 
L 135.362697 32.565557 
L 135.997781 33.033749 
L 136.844558 34.032242 
L 137.373794 34.591207 
L 137.797183 34.673619 
L 138.220572 34.954295 
L 139.173197 35.983842 
L 139.596586 35.937261 
L 140.019974 35.667334 
L 142.242766 33.476861 
L 142.772002 33.060026 
L 144.148015 31.463154 
L 145.10064 30.186373 
L 145.841571 29.08397 
L 146.476654 28.185804 
L 147.111737 27.636394 
L 147.852668 27.083401 
L 149.440376 24.843958 
L 150.922236 22.500606 
L 151.451472 21.573775 
L 153.250875 17.695658 
L 153.462569 17.265685 
L 154.309347 14.857836 
L 154.626889 14.418308 
L 155.156125 14.307232 
L 155.791208 14.220043 
L 156.320444 13.852177 
L 157.061374 13.097335 
L 158.437388 11.480159 
L 158.966624 11.170818 
L 159.390013 11.41208 
L 159.813402 11.919687 
L 160.23679 12.423711 
L 160.766026 12.617199 
L 161.189415 12.682889 
L 161.612804 13.037617 
L 162.459582 13.928617 
L 162.882971 14.034915 
L 163.835595 14.081496 
L 164.78822 13.780515 
L 164.999915 14.062386 
L 165.423303 15.535043 
L 165.740845 16.699554 
L 165.740845 16.699554 
" clip-path="url(#p7f274f3e57)" style="fill: none; stroke: #1f77b4; stroke-opacity: 0.9; stroke-width: 2.5; stroke-linecap: square"/>
   </g>
   <g id="line2d_2">
    <path d="M 165.846692 17.025616 
L 165.952539 17.281211 
L 166.058387 17.530835 
L 166.164234 17.70999 
L 166.270081 17.87123 
L 166.375928 18.02172 
L 166.481776 18.181766 
L 166.587623 18.369282 
L 166.69347 18.58188 
L 166.799317 18.829114 
L 166.905164 19.108597 
L 167.011012 19.360609 
L 167.116859 19.526626 
L 167.222706 19.686671 
L 167.328553 19.800136 
L 167.4344 19.893297 
L 167.540248 19.972126 
L 167.646095 19.988847 
L 167.751942 19.968543 
L 167.857789 19.877771 
" clip-path="url(#p7f274f3e57)" style="fill: none; stroke: #d2691e; stroke-opacity: 0.9; stroke-width: 2.5; stroke-linecap: square"/>
   </g>
   <g id="line2d_3">
    <path d="M 167.963636 19.786998 
L 168.069484 19.703393 
L 168.175331 19.620981 
L 168.281178 19.523043 
L 168.387025 19.425105 
L 168.492872 19.337916 
L 168.59872 19.297307 
L 168.704567 19.360609 
L 168.810414 19.464519 
L 168.916261 19.63173 
L 169.022108 19.816858 
L 169.127956 20.023484 
L 169.233803 20.27669 
L 169.33965 20.562144 
L 169.445497 20.895373 
L 169.551344 21.21427 
L 169.657192 21.490169 
L 169.763039 21.721877 
L 169.868886 21.967917 
L 169.974733 22.204402 
L 170.08058 22.443276 
L 170.186428 22.698871 
L 170.292275 22.931773 
L 170.398122 23.134816 
L 170.503969 23.280529 
L 170.609816 23.409521 
L 170.715664 23.551651 
L 170.821511 23.642423 
L 170.927358 23.705724 
L 171.033205 23.771415 
L 171.139052 23.716474 
L 171.2449 23.620924 
L 171.350747 23.514625 
L 171.456594 23.405938 
L 171.562441 23.302028 
L 171.668289 23.192146 
L 171.774136 23.038072 
L 171.879983 22.800392 
L 171.98583 22.585406 
L 172.091677 22.366836 
L 172.197525 22.329811 
L 172.303372 22.345338 
L 172.409219 22.379974 
L 172.515066 22.43611 
L 172.620913 22.505383 
L 172.726761 22.592572 
L 172.832608 22.714398 
L 172.938455 22.934162 
L 173.044302 23.118095 
L 173.150149 23.280529 
L 173.255997 23.361746 
L 173.361844 23.378467 
L 173.467691 23.428631 
L 173.573538 23.497904 
L 173.679385 23.5624 
L 173.785233 23.631674 
L 173.89108 23.70453 
L 173.996927 23.841883 
L 174.102774 24.000734 
L 174.208621 24.204971 
L 174.314469 24.433095 
L 174.420316 24.687496 
L 174.526163 24.898899 
L 174.63201 25.060139 
L 174.737857 25.228545 
L 174.843705 25.41009 
L 174.949552 25.602383 
L 175.055399 25.742124 
L 175.161246 25.865144 
L 175.267093 25.969054 
L 175.372941 26.047883 
L 175.478788 26.117156 
L 175.584635 26.188818 
L 175.690482 26.274813 
L 175.796329 26.352447 
L 175.902177 26.427692 
L 176.008024 26.496966 
L 176.113871 26.566239 
L 176.219718 26.648651 
L 176.325566 26.733451 
L 176.431413 26.827806 
L 176.53726 26.929327 
L 176.643107 27.029654 
L 176.748954 27.129982 
L 176.854802 27.225531 
L 176.960649 27.373633 
L 177.066496 27.585036 
L 177.172343 27.851381 
L 177.27819 28.132057 
L 177.384038 28.490368 
L 177.489885 28.933479 
L 177.595732 29.370619 
L 177.701579 29.806563 
L 177.807426 30.242508 
L 177.913274 30.691591 
L 178.019121 31.060651 
L 178.124968 31.368799 
L 178.230815 31.624394 
L 178.336662 31.846546 
L 178.44251 31.979121 
" clip-path="url(#p7f274f3e57)" style="fill: none; stroke: #1f77b4; stroke-opacity: 0.9; stroke-width: 2.5; stroke-linecap: square"/>
   </g>
   <g id="line2d_4">
    <path d="M 178.548357 32.018535 
L 178.760051 31.967178 
L 179.500982 30.934048 
L 179.818523 30.554239 
L 180.136065 30.817 
L 180.347759 31.145451 
L 180.771148 32.436565 
L 180.982843 33.060026 
L 182.253009 34.499241 
L 182.676398 35.356798 
L 183.099787 36.486671 
L 183.629023 37.922303 
L 184.264106 39.007985 
L 185.005036 39.748494 
L 185.322578 40.265656 
L 186.063508 42.358191 
L 186.38105 42.647229 
L 186.910286 42.132456 
L 187.333675 42.514654 
L 188.180452 43.523896 
L 190.720785 45.520882 
L 191.355869 45.777671 
L 191.885105 45.714369 
L 192.308493 45.640318 
L 192.837729 45.721536 
L 193.261118 45.72273 
L 194.002049 45.530437 
L 194.531285 44.862784 
L 195.378062 43.675581 
L 195.589757 43.537034 
L 195.801451 43.606307 
L 197.071618 44.503279 
L 197.495006 44.702739 
L 197.812548 44.970277 
L 198.13009 44.783956 
L 199.188562 43.597947 
L 200.141187 44.263211 
L 200.882117 44.155717 
L 201.940589 44.402952 
L 202.258131 44.316957 
L 202.681519 43.915649 
L 203.316603 43.195444 
L 203.528297 43.247997 
L 204.057533 44.041058 
L 204.586769 44.879505 
L 205.3277 45.529242 
L 205.751088 45.775282 
L 206.174477 46.41427 
L 206.492019 47.102227 
L 206.915408 48.731347 
L 206.915408 48.731347 
" clip-path="url(#p7f274f3e57)" style="fill: none; stroke: #d2691e; stroke-opacity: 0.9; stroke-width: 2.5; stroke-linecap: square"/>
   </g>
   <g id="line2d_5">
    <path d="M 207.021255 49.069353 
L 207.127102 49.370334 
L 207.232949 49.647428 
L 207.338796 49.914967 
L 207.444644 50.141897 
L 207.550491 50.352106 
L 207.656338 50.39152 
L 207.762185 50.348523 
L 207.868032 50.29597 
L 207.97388 50.237446 
L 208.079727 50.22192 
L 208.185574 50.239835 
L 208.291421 50.272083 
L 208.397268 50.31508 
L 208.503116 50.399881 
L 208.608963 50.497819 
L 208.71481 50.600535 
L 208.820657 50.706833 
L 208.926504 50.839409 
L 209.032352 50.973178 
L 209.138199 51.08306 
L 209.244046 51.160694 
L 209.349893 51.226384 
L 209.455741 51.278936 
L 209.561588 51.308796 
L 209.667435 51.335072 
L 209.773282 51.357765 
L 209.879129 51.381652 
L 209.984977 51.392402 
L 210.090824 51.409123 
L 210.196671 51.428233 
L 210.302518 51.447343 
L 210.408365 51.466452 
L 210.514213 51.504672 
L 210.62006 51.55603 
L 210.725907 51.602611 
L 210.831754 51.663523 
L 210.937601 51.722047 
L 211.043449 51.78296 
L 211.149296 51.849845 
L 211.255143 51.917924 
L 211.36099 51.989586 
L 211.466837 52.064832 
L 211.572685 52.125744 
L 211.678532 52.179491 
L 211.784379 52.246376 
L 211.890226 52.319232 
L 211.996073 52.405227 
L 212.101921 52.484055 
L 212.207768 52.554523 
L 212.313615 52.619019 
L 212.419462 52.677543 
L 212.525309 52.727707 
L 212.631157 52.770704 
L 212.737004 52.806535 
L 212.842851 52.829228 
L 212.948698 52.8352 
L 213.054545 52.82445 
" clip-path="url(#p7f274f3e57)" style="fill: none; stroke: #1f77b4; stroke-opacity: 0.9; stroke-width: 2.5; stroke-linecap: square"/>
   </g>
   <g id="line2d_6">
    <path d="M 10.145455 52.92 
L 213.054545 52.92 
L 213.054545 52.92 
" clip-path="url(#p7f274f3e57)" style="fill: none; stroke-dasharray: 2,3.3; stroke-dashoffset: 0; stroke: #8d99ae; stroke-opacity: 0.7; stroke-width: 2"/>
   </g>
  </g>
 </g>
 <defs>
  <clipPath id="p7f274f3e57">
   <rect x="0" y="-0" width="223.2" height="55.44"/>
  </clipPath>
 </defs>
</svg>
