<?xml version="1.0" encoding="utf-8" standalone="no"?>
<!DOCTYPE svg PUBLIC "-//W3C//DTD SVG 1.1//EN"
  "http://www.w3.org/Graphics/SVG/1.1/DTD/svg11.dtd">
<svg xmlns:xlink="http://www.w3.org/1999/xlink" width="223.2pt" height="55.44pt" viewBox="0 0 223.2 55.44" xmlns="http://www.w3.org/2000/svg" version="1.1">
 <metadata>
  <rdf:RDF xmlns:dc="http://purl.org/dc/elements/1.1/" xmlns:cc="http://creativecommons.org/ns#" xmlns:rdf="http://www.w3.org/1999/02/22-rdf-syntax-ns#">
   <cc:Work>
    <dc:type rdf:resource="http://purl.org/dc/dcmitype/StillImage"/>
    <dc:date>2026-05-06T16:20:34.920916</dc:date>
    <dc:format>image/svg+xml</dc:format>
    <dc:creator>
     <cc:Agent>
      <dc:title>Matplotlib v3.10.8, https://matplotlib.org/</dc:title>
     </cc:Agent>
    </dc:creator>
   </cc:Work>
  </rdf:RDF>
 </metadata>
 <defs>
  <style type="text/css">*{stroke-linejoin: round; stroke-linecap: butt}</style>
 </defs>
 <g id="figure_1">
  <g id="patch_1">
   <path d="M 0 55.44 
L 223.2 55.44 
L 223.2 0 
L 0 0 
L 0 55.44 
z
" style="fill: none"/>
  </g>
  <g id="axes_1">
   <g id="line2d_1">
    <path d="M 10.353353 52.852988 
L 10.561252 52.869741 
L 10.769151 52.878117 
L 10.977049 52.879793 
L 11.184948 52.875325 
L 11.392846 52.867347 
L 11.600745 52.861364 
L 11.808644 52.823204 
L 12.016542 52.747443 
L 12.224441 52.653626 
L 12.43234 52.553107 
L 12.640238 52.465991 
L 12.848137 52.387252 
L 13.056036 52.333642 
L 13.263934 52.286733 
L 13.471833 52.248201 
L 13.679732 52.211344 
L 13.88763 52.202968 
L 14.095529 52.236474 
L 14.303428 52.285058 
L 14.511326 52.326941 
L 14.719225 52.35207 
L 14.927124 52.363797 
L 15.135022 52.342018 
L 15.342921 52.286733 
L 15.55082 52.184539 
L 15.758718 52.078995 
L 15.966617 51.980152 
L 16.174516 51.88801 
L 16.382414 51.810945 
L 16.590313 51.757335 
L 16.798212 51.715453 
L 17.00611 51.683622 
L 17.214009 51.666869 
L 17.421908 51.67357 
L 17.629806 51.705401 
L 17.837705 51.708751 
L 18.045604 51.688648 
L 18.253502 51.663518 
L 18.461401 51.626661 
L 18.6693 51.56635 
L 18.877198 51.454105 
L 19.085097 51.37704 
L 19.292996 51.303327 
L 19.500894 51.248041 
L 19.708793 51.206159 
L 19.916692 51.194432 
L 20.12459 51.199458 
L 20.332489 51.18438 
L 20.540387 51.120718 
L 20.748286 51.040303 
L 20.956185 50.990044 
L 21.164083 50.896227 
L 21.371982 50.787331 
L 21.579881 50.656657 
L 21.787779 50.512581 
L 21.995678 50.303167 
L 22.203577 50.07365 
L 22.411475 49.845808 
L 22.619374 49.659848 
L 22.827273 49.483941 
L 23.035171 49.299657 
L 23.24307 49.051711 
L 23.450969 48.783662 
L 23.658867 48.510586 
L 23.866766 48.242537 
L 24.074665 48.002968 
L 24.282563 47.778476 
L 24.490462 47.560686 
L 24.698361 47.334519 
L 24.906259 47.09495 
L 25.114158 46.847004 
L 25.322057 46.681149 
L 25.529955 46.550475 
L 25.737854 46.463359 
L 25.945753 46.396346 
L 26.153651 46.38797 
L 26.36155 46.382944 
L 26.569449 46.36284 
L 26.777347 46.277399 
L 26.985246 46.181907 
L 27.193145 46.044531 
L 27.401043 45.856897 
L 27.608942 45.612302 
L 27.816841 45.230331 
L 28.024739 44.783024 
L 28.232638 44.272054 
L 28.440537 43.742657 
" clip-path="url(#p2de97305f1)" style="fill: none; stroke: #1f77b4; stroke-opacity: 0.9; stroke-width: 2.5; stroke-linecap: square"/>
   </g>
   <g id="line2d_2">
    <path d="M 29.064232 41.878037 
L 30.103726 39.294711 
L 30.727422 38.189007 
L 31.351118 37.450195 
L 31.974814 36.372972 
L 32.390611 36.019481 
L 33.222206 35.779912 
L 33.430104 36.019481 
L 34.0538 37.162042 
L 34.677496 37.885776 
L 35.093294 37.998022 
L 35.71699 37.810387 
L 36.340686 37.371456 
L 36.548584 37.182146 
L 36.964382 37.275963 
L 38.211773 37.714894 
L 38.835469 37.641181 
L 40.706557 37.227379 
L 42.993443 36.989485 
L 45.696125 37.170419 
L 46.735618 36.945927 
L 49.230402 37.141939 
L 50.477794 37.264236 
L 51.309389 36.833682 
L 51.933085 36.250674 
L 54.635768 31.581588 
L 55.883159 30.154224 
L 59.625335 27.088408 
L 60.041133 26.301013 
L 61.288525 22.451153 
L 62.120119 19.651711 
L 63.57541 16.647882 
L 64.614903 15.513698 
L 67.525484 12.792996 
L 68.772876 11.171296 
L 68.772876 11.171296 
" clip-path="url(#p2de97305f1)" style="fill: none; stroke: #d2691e; stroke-opacity: 0.9; stroke-width: 2.5; stroke-linecap: square"/>
   </g>
   <g id="line2d_3">
    <path d="M 69.396572 10.460965 
L 69.604471 10.197942 
L 69.81237 9.918165 
L 70.020268 9.676921 
L 70.228167 9.480909 
L 70.436066 9.296625 
L 70.643964 9.144172 
L 70.851863 8.979992 
L 71.059762 8.795708 
L 71.26766 8.618125 
L 71.475559 8.492477 
L 71.683458 8.403686 
L 71.891356 8.341699 
L 72.099255 8.26296 
L 72.307154 8.195947 
L 72.515052 8.092078 
L 72.722951 7.926223 
L 72.930849 7.753666 
L 73.138748 7.674926 
L 73.346647 7.619641 
L 73.554545 7.539226 
L 73.762444 7.42363 
L 73.970343 7.292956 
L 74.178241 7.145529 
L 74.38614 6.976322 
L 74.594039 6.837272 
L 74.801937 6.718325 
L 75.009836 6.611105 
L 75.217735 6.4486 
L 75.425633 6.307874 
L 75.633532 6.214057 
L 75.841431 6.150395 
L 76.049329 6.133642 
L 76.257228 6.135317 
L 76.465127 6.15207 
L 76.673025 6.172174 
" clip-path="url(#p2de97305f1)" style="fill: none; stroke: #1f77b4; stroke-opacity: 0.9; stroke-width: 2.5; stroke-linecap: square"/>
   </g>
   <g id="line2d_4">
    <path d="M 77.296721 6.162122 
L 77.50462 6.138668 
L 77.712519 6.101811 
" clip-path="url(#p2de97305f1)" style="fill: none; stroke: #d2691e; stroke-opacity: 0.9; stroke-width: 2.5; stroke-linecap: square"/>
   </g>
   <g id="line2d_5">
    <path d="M 78.336215 5.413259 
L 80.415201 2.618843 
L 80.830999 2.52 
L 81.246796 2.731089 
L 82.494188 3.431368 
L 83.325782 3.647483 
L 84.157377 3.60225 
L 84.781073 3.443095 
L 86.028465 3.674288 
L 86.86006 4.019402 
L 87.483756 3.793235 
L 88.107452 3.506757 
L 88.939046 3.406239 
L 89.354844 3.570419 
L 90.186438 4.237192 
L 91.225931 5.059769 
L 92.265425 5.354623 
L 92.889121 5.404882 
L 93.720715 5.44844 
L 94.136513 5.088249 
L 95.799702 2.851711 
L 96.215499 2.742816 
L 96.839195 2.883542 
L 97.462891 2.948879 
L 98.918182 2.910347 
L 100.997168 3.583821 
L 101.828763 3.429693 
L 103.90775 2.652349 
L 104.531446 2.905321 
L 105.36304 3.369382 
L 105.986736 3.68434 
L 107.02623 4.242218 
L 107.649925 4.103167 
L 108.273621 3.702768 
L 108.689419 3.332525 
L 109.105216 2.908672 
L 109.521013 2.81988 
L 109.728912 2.851711 
L 109.728912 2.851711 
" clip-path="url(#p2de97305f1)" style="fill: none; stroke: #1f77b4; stroke-opacity: 0.9; stroke-width: 2.5; stroke-linecap: square"/>
   </g>
   <g id="line2d_6">
    <path d="M 110.352608 2.957256 
L 110.560507 2.963957 
L 110.768405 3.037671 
" clip-path="url(#p2de97305f1)" style="fill: none; stroke: #d2691e; stroke-opacity: 0.9; stroke-width: 2.5; stroke-linecap: square"/>
   </g>
   <g id="line2d_7">
    <path d="M 111.6 3.317447 
L 112.431595 3.721197 
L 112.847392 4.128297 
L 113.678987 5.528855 
L 114.510581 7.063438 
L 115.550075 9.224587 
L 116.381669 10.578237 
L 116.589568 10.775923 
L 117.005365 10.75582 
L 118.668554 10.472692 
L 119.29225 11.172972 
L 120.747541 13.05937 
L 121.579136 13.634001 
L 123.450224 14.915612 
L 124.281818 15.006079 
L 125.113413 15.6628 
L 127.608197 18.256179 
L 128.231893 18.720239 
L 129.063487 19.026821 
L 129.687183 19.20943 
L 130.310879 19.639984 
L 132.597765 21.600096 
L 134.260954 22.751033 
L 135.092548 23.670778 
L 136.132042 24.893753 
L 136.963636 25.418125 
L 138.00313 25.890562 
L 138.211028 26.009509 
L 138.211028 26.009509 
" clip-path="url(#p2de97305f1)" style="fill: none; stroke: #d2691e; stroke-opacity: 0.9; stroke-width: 2.5; stroke-linecap: square"/>
   </g>
   <g id="line2d_8">
    <path d="M 138.834724 26.297663 
L 139.042623 26.352948 
L 139.250522 26.368026 
L 139.45842 26.326143 
L 139.666319 26.240702 
L 139.874218 26.093275 
L 140.082116 25.922393 
L 140.290015 25.736434 
L 140.497914 25.520319 
L 140.705812 25.277399 
L 140.913711 25.031129 
L 141.12161 24.781508 
" clip-path="url(#p2de97305f1)" style="fill: none; stroke: #1f77b4; stroke-opacity: 0.9; stroke-width: 2.5; stroke-linecap: square"/>
   </g>
   <g id="line2d_9">
    <path d="M 141.745306 24.106358 
L 142.369001 23.700933 
L 142.992697 23.551831 
L 143.616393 23.588688 
L 144.447988 23.665752 
L 144.863785 23.731089 
L 145.903279 24.444771 
L 147.150671 25.329334 
L 148.605961 25.625864 
L 149.437556 26.389805 
L 151.100745 28.026582 
L 152.556036 29.264635 
L 153.179732 29.536035 
L 155.466617 30.353586 
L 156.090313 30.772413 
L 156.714009 31.256578 
L 157.129806 31.342018 
L 157.961401 31.236474 
L 158.585097 31.130929 
L 159.000894 31.156059 
L 160.040387 31.697184 
L 162.327273 33.11282 
L 162.74307 33.196586 
L 163.366766 33.065911 
L 164.614158 32.564994 
L 165.445753 32.916809 
L 166.901043 33.792996 
L 168.148435 33.49144 
L 168.772131 33.307156 
L 170.227422 33.181508 
L 172.306408 31.729015 
L 172.930104 31.884819 
L 173.5538 32.452748 
L 174.177496 33.322234 
L 176.048584 37.011264 
L 176.464382 37.317846 
L 178.751267 37.007914 
L 180.622355 37.188847 
L 181.038152 37.282665 
L 181.661848 37.282665 
L 182.701341 37.247483 
L 183.325037 37.14864 
L 184.572429 36.947603 
L 185.819821 37.143614 
L 188.314605 37.651233 
L 189.1462 37.441819 
L 189.769896 37.130211 
L 189.977794 37.088329 
L 191.017288 37.912581 
L 191.640984 38.048281 
L 192.056781 37.874049 
L 192.472578 37.257535 
L 193.096274 35.985975 
L 193.71997 35.957495 
L 194.343666 36.364595 
L 194.759463 36.981109 
L 195.175261 37.822114 
L 195.175261 37.822114 
" clip-path="url(#p2de97305f1)" style="fill: none; stroke: #d2691e; stroke-opacity: 0.9; stroke-width: 2.5; stroke-linecap: square"/>
   </g>
   <g id="line2d_10">
    <path d="M 195.798957 38.492238 
L 196.006855 38.911065 
L 196.214754 39.331568 
L 196.422653 39.7772 
L 196.630551 40.296546 
L 196.83845 40.881229 
L 197.046349 41.504444 
L 197.254247 42.156139 
L 197.462146 42.802808 
L 197.670045 43.486334 
L 197.877943 44.171536 
L 198.085842 44.73444 
L 198.293741 45.206877 
L 198.501639 45.60225 
L 198.709538 45.900455 
L 198.917437 46.123271 
L 199.125335 46.287451 
L 199.333234 46.396346 
L 199.541133 46.491839 
L 199.749031 46.505241 
L 199.95693 46.496865 
L 200.164829 46.486813 
L 200.372727 46.540423 
L 200.580626 46.602409 
L 200.788525 46.694551 
L 200.996423 46.825225 
L 201.204322 47.044691 
L 201.412221 47.279234 
L 201.620119 47.491998 
L 201.828018 47.714815 
L 202.035917 47.949358 
L 202.243815 48.183901 
L 202.451714 48.393315 
L 202.659613 48.663039 
L 202.867511 48.983024 
L 203.07541 49.309709 
L 203.283308 49.576083 
L 203.491207 49.849158 
L 203.699106 50.113857 
L 203.907004 50.368504 
L 204.114903 50.601372 
L 204.322802 50.812461 
L 204.5307 51.001771 
L 204.738599 51.067108 
L 204.946498 51.127419 
L 205.154396 51.157575 
L 205.362295 51.186055 
L 205.570194 51.191081 
L 205.778092 51.239665 
L 205.985991 51.296625 
L 206.19389 51.37704 
L 206.401788 51.450754 
L 206.609687 51.522792 
L 206.817586 51.624986 
L 207.025484 51.660168 
L 207.233383 51.675245 
L 207.441282 51.685297 
L 207.64918 51.693674 
L 207.857079 51.700375 
L 208.064978 51.723829 
L 208.272876 51.733881 
L 208.480775 51.765712 
L 208.688674 51.810945 
L 208.896572 51.88801 
L 209.104471 51.980152 
L 209.31237 52.085696 
L 209.520268 52.189565 
L 209.728167 52.291759 
L 209.936066 52.342018 
L 210.143964 52.362122 
L 210.351863 52.35207 
L 210.559762 52.333642 
L 210.76766 52.286733 
L 210.975559 52.234799 
L 211.183458 52.194591 
L 211.391356 52.214695 
L 211.599255 52.249876 
L 211.807154 52.286733 
L 212.015052 52.338668 
L 212.222951 52.397304 
L 212.430849 52.476043 
L 212.638748 52.559809 
" clip-path="url(#p2de97305f1)" style="fill: none; stroke: #1f77b4; stroke-opacity: 0.9; stroke-width: 2.5; stroke-linecap: square"/>
   </g>
   <g id="line2d_11">
    <path d="M 10.145455 52.92 
L 213.054545 52.92 
L 213.054545 52.92 
" clip-path="url(#p2de97305f1)" style="fill: none; stroke-dasharray: 2,3.3; stroke-dashoffset: 0; stroke: #8d99ae; stroke-opacity: 0.7; stroke-width: 2"/>
   </g>
  </g>
 </g>
 <defs>
  <clipPath id="p2de97305f1">
   <rect x="0" y="-0" width="223.2" height="55.44"/>
  </clipPath>
 </defs>
</svg>
