<?xml version="1.0" encoding="utf-8" standalone="no"?>
<!DOCTYPE svg PUBLIC "-//W3C//DTD SVG 1.1//EN"
  "http://www.w3.org/Graphics/SVG/1.1/DTD/svg11.dtd">
<svg xmlns:xlink="http://www.w3.org/1999/xlink" width="223.2pt" height="55.44pt" viewBox="0 0 223.2 55.44" xmlns="http://www.w3.org/2000/svg" version="1.1">
 <metadata>
  <rdf:RDF xmlns:dc="http://purl.org/dc/elements/1.1/" xmlns:cc="http://creativecommons.org/ns#" xmlns:rdf="http://www.w3.org/1999/02/22-rdf-syntax-ns#">
   <cc:Work>
    <dc:type rdf:resource="http://purl.org/dc/dcmitype/StillImage"/>
    <dc:date>2026-05-06T16:20:42.721095</dc:date>
    <dc:format>image/svg+xml</dc:format>
    <dc:creator>
     <cc:Agent>
      <dc:title>Matplotlib v3.10.8, https://matplotlib.org/</dc:title>
     </cc:Agent>
    </dc:creator>
   </cc:Work>
  </rdf:RDF>
 </metadata>
 <defs>
  <style type="text/css">*{stroke-linejoin: round; stroke-linecap: butt}</style>
 </defs>
 <g id="figure_1">
  <g id="patch_1">
   <path d="M 0 55.44 
L 223.2 55.44 
L 223.2 0 
L 0 0 
L 0 55.44 
z
" style="fill: none"/>
  </g>
  <g id="axes_1">
   <g id="line2d_1">
    <path d="M 10.406263 52.243588 
L 14.318392 52.450587 
L 15.100818 52.279446 
L 15.883244 52.049629 
L 16.404861 51.953465 
L 18.230521 51.382997 
L 20.056181 50.942922 
L 20.838607 50.303998 
L 21.621033 49.283676 
L 22.925076 47.384834 
L 24.229119 45.974964 
L 25.533162 45.116003 
L 27.619631 43.725692 
L 28.923674 42.483702 
L 29.7061 41.895306 
L 30.488525 41.63615 
L 31.53176 40.982557 
L 31.792568 40.671245 
L 32.835803 38.350257 
L 34.139846 35.47184 
L 34.661463 34.749791 
L 35.18308 34.330905 
L 36.747932 33.54366 
L 39.356018 32.384795 
L 41.181678 31.511165 
L 44.050573 30.402828 
L 45.876233 29.693818 
L 47.701893 29.028816 
L 49.788362 28.402931 
L 53.178874 27.18702 
L 57.873428 25.861905 
L 59.959897 25.314257 
L 62.046366 24.632955 
L 64.654452 23.897867 
L 67.262538 22.999788 
L 68.044964 22.61676 
L 69.088198 21.567099 
L 70.65305 19.927412 
L 71.435476 19.568833 
L 72.739519 19.141797 
L 75.086796 16.649668 
L 75.608413 16.44756 
L 76.912456 16.408442 
L 77.955691 16.333466 
L 79.259734 16.049862 
L 83.171863 14.5096 
L 85.258331 13.2725 
L 87.083992 12.863393 
L 88.388035 12.799827 
L 89.952886 12.327153 
L 91.256929 12.299445 
L 92.560972 12.345082 
L 96.212293 12.154383 
L 97.777144 12.351602 
L 98.55957 12.439617 
L 100.124422 12.191871 
L 101.950082 11.427445 
L 102.993316 10.954771 
L 104.036551 10.935212 
L 105.340594 11.272603 
L 106.383828 11.225336 
L 107.166254 10.969441 
L 108.209488 10.663018 
L 110.295957 10.498397 
L 110.817574 10.203384 
L 112.904043 8.656602 
L 113.42566 8.34366 
L 113.947277 7.835128 
L 114.468895 6.858814 
L 115.512129 4.572054 
L 116.294555 3.370812 
L 116.555363 3.064389 
L 117.076981 2.903028 
L 118.120215 2.960075 
L 119.163449 2.709069 
L 119.945875 2.531409 
L 120.728301 2.608015 
L 121.510727 2.948666 
L 124.118813 4.725265 
L 126.205282 5.51251 
L 127.509325 5.999853 
L 128.552559 6.686044 
L 130.117411 7.914994 
L 135.333583 10.185455 
L 136.898434 10.886315 
L 138.202477 11.878929 
L 141.071372 14.359648 
L 144.983501 17.238065 
L 149.156438 19.304788 
L 153.590185 21.177551 
L 157.241505 23.029126 
L 158.023931 23.645231 
L 160.371208 25.886354 
L 165.065763 29.66285 
L 166.369806 31.002634 
L 167.152232 31.42804 
L 168.456275 31.917012 
L 169.238701 32.358717 
L 170.281935 33.069356 
L 170.803552 33.167151 
L 171.585978 33.155742 
L 172.107595 32.937334 
L 172.890021 32.547786 
L 173.411638 32.578754 
L 174.454873 32.890067 
L 175.237298 33.514321 
L 176.019724 34.353724 
L 177.062959 35.568005 
L 180.192662 40.356673 
L 181.235896 41.236823 
L 182.539939 41.846408 
L 184.626408 42.469033 
L 185.408834 42.407097 
L 186.973685 42.182169 
L 190.103389 42.074595 
L 190.103389 42.074595 
" clip-path="url(#p4036431697)" style="fill: none; stroke: #1f77b4; stroke-opacity: 0.9; stroke-width: 2.5; stroke-linecap: square"/>
   </g>
   <g id="line2d_2">
    <path d="M 190.885814 42.033848 
L 191.146623 42.030588 
L 191.407432 42.063186 
" clip-path="url(#p4036431697)" style="fill: none; stroke: #d2691e; stroke-opacity: 0.9; stroke-width: 2.5; stroke-linecap: square"/>
   </g>
   <g id="line2d_3">
    <path d="M 192.189857 42.187059 
L 192.450666 42.211508 
L 192.711475 42.221287 
L 192.972283 42.227807 
L 193.233092 42.237586 
L 193.4939 42.258775 
L 193.754709 42.307672 
L 194.015518 42.381018 
L 194.276326 42.477183 
L 194.537135 42.592906 
L 194.797943 42.716779 
L 195.058752 42.848802 
L 195.319561 42.985714 
L 195.580369 43.101437 
L 195.841178 43.217161 
L 196.101986 43.329624 
L 196.362795 43.416009 
L 196.623604 43.477946 
L 196.884412 43.494245 
L 197.145221 43.455127 
L 197.406029 43.41112 
L 197.666838 43.372002 
L 197.927647 43.378521 
L 198.188455 43.40297 
L 198.449264 43.417639 
L 198.710072 43.425789 
L 198.970881 43.437198 
L 199.23169 43.463277 
L 199.492498 43.513804 
L 199.753307 43.601819 
L 200.014115 43.693094 
L 200.274924 43.782739 
L 200.535733 43.831636 
L 200.796541 43.872383 
L 201.05735 43.919651 
L 201.318158 43.971808 
L 201.578967 44.028855 
L 201.839776 44.076122 
L 202.100584 44.129909 
L 202.361393 44.186956 
L 202.622201 44.240743 
L 202.88301 44.2929 
L 203.143819 44.348316 
L 203.404627 44.405363 
L 203.665436 44.46078 
L 203.926244 44.548795 
L 204.187053 44.627031 
L 204.447862 44.697117 
L 204.70867 44.741124 
L 204.969479 44.781872 
L 205.230287 44.847068 
L 205.491096 44.948122 
L 205.751905 45.054066 
L 206.012713 45.215427 
L 206.273522 45.437095 
L 206.53433 45.622904 
L 206.795139 45.847831 
L 207.055948 46.080908 
L 207.316756 46.335174 
L 207.577565 46.591069 
L 207.838373 46.829036 
L 208.099182 47.034404 
L 208.359991 47.229993 
L 208.620799 47.368535 
L 208.881608 47.436991 
L 209.142416 47.505447 
L 209.403225 47.539675 
L 209.664034 47.582053 
L 209.924842 47.642359 
L 210.185651 47.720595 
L 210.446459 47.8135 
L 210.707268 47.917814 
L 210.968077 48.023758 
L 211.228885 48.139481 
L 211.489694 48.260094 
L 211.750502 48.382337 
L 212.011311 48.52251 
L 212.27212 48.6855 
L 212.532928 48.87457 
" clip-path="url(#p4036431697)" style="fill: none; stroke: #1f77b4; stroke-opacity: 0.9; stroke-width: 2.5; stroke-linecap: square"/>
   </g>
   <g id="line2d_4">
    <path d="M 10.145455 52.92 
L 213.054545 52.92 
L 213.054545 52.92 
" clip-path="url(#p4036431697)" style="fill: none; stroke-dasharray: 2,3.3; stroke-dashoffset: 0; stroke: #8d99ae; stroke-opacity: 0.7; stroke-width: 2"/>
   </g>
  </g>
 </g>
 <defs>
  <clipPath id="p4036431697">
   <rect x="0" y="-0" width="223.2" height="55.44"/>
  </clipPath>
 </defs>
</svg>
