<?xml version="1.0" encoding="utf-8" standalone="no"?>
<!DOCTYPE svg PUBLIC "-//W3C//DTD SVG 1.1//EN"
  "http://www.w3.org/Graphics/SVG/1.1/DTD/svg11.dtd">
<svg xmlns:xlink="http://www.w3.org/1999/xlink" width="223.2pt" height="55.44pt" viewBox="0 0 223.2 55.44" xmlns="http://www.w3.org/2000/svg" version="1.1">
 <metadata>
  <rdf:RDF xmlns:dc="http://purl.org/dc/elements/1.1/" xmlns:cc="http://creativecommons.org/ns#" xmlns:rdf="http://www.w3.org/1999/02/22-rdf-syntax-ns#">
   <cc:Work>
    <dc:type rdf:resource="http://purl.org/dc/dcmitype/StillImage"/>
    <dc:date>2026-06-29T15:38:52.625740</dc:date>
    <dc:format>image/svg+xml</dc:format>
    <dc:creator>
     <cc:Agent>
      <dc:title>Matplotlib v3.10.8, https://matplotlib.org/</dc:title>
     </cc:Agent>
    </dc:creator>
   </cc:Work>
  </rdf:RDF>
 </metadata>
 <defs>
  <style type="text/css">*{stroke-linejoin: round; stroke-linecap: butt}</style>
 </defs>
 <g id="figure_1">
  <g id="patch_1">
   <path d="M 0 55.44 
L 223.2 55.44 
L 223.2 0 
L 0 0 
L 0 55.44 
z
" style="fill: none"/>
  </g>
  <g id="axes_1">
   <g id="line2d_1">
    <path d="M 10.145455 52.326252 
L 11.035841 52.235142 
L 11.926227 51.927007 
L 12.321954 51.789831 
L 13.608067 51.619896 
L 14.201658 51.438701 
L 15.190976 51.561545 
L 16.576021 50.879759 
L 17.862134 49.061661 
L 19.346111 46.821798 
L 19.741838 46.665171 
L 20.038633 46.782897 
L 20.335428 46.785968 
L 20.632224 46.714309 
L 22.511928 44.808173 
L 22.907655 43.638079 
L 24.094836 39.824783 
L 24.490563 39.036532 
L 25.183086 38.158194 
L 25.479881 38.088582 
L 25.677745 38.210403 
L 27.06279 40.25781 
L 27.854244 41.707374 
L 28.151039 41.782105 
L 28.447835 41.513894 
L 28.843562 40.731785 
L 29.338221 39.789977 
L 30.42647 38.396717 
L 30.624334 37.743594 
L 31.712584 32.608697 
L 32.60297 30.870448 
L 32.998697 30.38726 
L 33.295492 30.513175 
L 33.592288 31.17244 
L 33.988015 31.937147 
L 34.28481 32.221737 
L 34.482674 32.12039 
L 34.779469 31.776426 
L 35.669855 30.482464 
L 35.96665 30.450729 
L 36.263446 30.620664 
L 36.758105 31.317806 
L 37.252764 31.889033 
L 37.549559 31.875725 
L 37.945286 31.546092 
L 38.637809 31.007624 
L 39.033536 30.862258 
L 39.033536 30.862258 
" clip-path="url(#p56a8611387)" style="fill: none; stroke: #1f77b4; stroke-opacity: 0.9; stroke-width: 2.5; stroke-linecap: square"/>
   </g>
   <g id="line2d_2">
    <path d="M 39.132468 30.865329 
L 39.231399 30.946202 
L 39.330331 31.044477 
L 39.429263 31.081331 
L 39.528195 31.142753 
L 39.627126 31.199057 
L 39.726058 31.245123 
L 39.82499 31.219531 
L 39.923922 31.185749 
L 40.022854 31.146848 
L 40.121785 31.140706 
L 40.220717 30.99534 
L 40.319649 30.741461 
L 40.418581 30.50908 
L 40.517513 30.24906 
L 40.616444 30.004395 
L 40.715376 29.778156 
L 40.814308 29.652241 
L 40.91324 29.538609 
L 41.012171 29.410647 
L 41.111103 29.217167 
L 41.210035 29.142436 
L 41.308967 29.191574 
L 41.407899 29.269375 
L 41.50683 29.351272 
L 41.605762 29.410647 
L 41.704694 29.446476 
L 41.803626 29.470021 
L 41.902558 29.495614 
L 42.001489 29.524278 
L 42.100421 29.529396 
L 42.199353 29.424978 
L 42.298285 29.269375 
L 42.397216 29.103535 
L 42.496148 28.928482 
L 42.59508 28.749334 
" clip-path="url(#p56a8611387)" style="fill: none; stroke: #d2691e; stroke-opacity: 0.9; stroke-width: 2.5; stroke-linecap: square"/>
   </g>
   <g id="line2d_3">
    <path d="M 42.694012 28.545617 
L 43.287602 27.490179 
L 43.485466 27.489155 
L 43.68333 27.763507 
L 44.177989 28.500574 
L 44.375852 28.589636 
L 44.573716 28.485218 
L 45.266238 27.318196 
L 47.343806 25.162277 
L 47.838465 24.985176 
L 49.619237 23.90005 
L 50.90535 22.551832 
L 51.498941 21.720585 
L 51.894668 21.516868 
L 52.488258 21.381739 
L 53.67544 20.629317 
L 54.466894 19.934222 
L 54.76369 20.001787 
L 55.456212 20.530018 
L 55.753007 20.537184 
L 56.049803 20.26795 
L 56.643393 19.441821 
L 57.632711 18.021944 
L 58.523097 17.096516 
L 58.918825 16.788381 
L 62.381437 14.904766 
L 62.876096 14.216837 
L 63.370755 13.605686 
L 63.964346 13.151162 
L 65.745118 12.002567 
L 66.635504 11.058712 
L 67.229094 10.133284 
L 67.624822 9.731992 
L 68.119481 9.599934 
L 68.812003 9.098319 
L 71.186366 6.986419 
L 71.97782 6.521657 
L 73.461797 5.290142 
L 74.846842 4.175329 
L 75.341501 3.721828 
L 76.034023 3.251948 
L 76.528682 2.761594 
L 76.726546 2.586541 
L 78.210523 2.589612 
L 78.705182 3.195644 
L 79.19984 3.845696 
L 80.090226 4.413852 
L 80.584885 4.842783 
L 81.079544 5.429366 
L 81.772067 6.397789 
L 82.464589 7.214705 
L 83.750703 8.992878 
L 84.443225 10.609306 
L 84.937884 11.79066 
L 85.333611 12.400787 
L 86.026134 12.797984 
L 86.91652 13.097929 
L 87.213315 12.866572 
L 88.796224 10.883659 
L 89.488746 10.394328 
L 89.785541 10.42811 
L 90.379132 10.765933 
L 90.774859 10.895943 
L 91.269518 10.952247 
L 92.159904 10.755696 
L 92.4567 10.976816 
L 93.544949 11.944215 
L 93.841745 12.022017 
L 95.127858 12.010756 
L 95.919312 11.617654 
L 96.512903 11.898149 
L 97.304357 12.155098 
L 97.700084 12.127458 
L 98.59047 11.56135 
L 98.887266 11.572611 
L 99.777652 11.547018 
L 100.470174 11.346373 
L 101.459492 10.789478 
L 102.053083 10.453703 
L 103.042401 9.678759 
L 104.031718 9.179192 
L 104.427446 9.203761 
L 104.724241 9.322511 
L 105.812491 10.230536 
L 106.30715 10.956341 
L 106.801808 11.6801 
L 107.98899 13.085645 
L 108.879376 13.379448 
L 109.176171 13.492055 
L 109.67083 14.152344 
L 110.165489 14.740974 
L 110.75908 15.131005 
L 111.253739 15.342911 
L 112.144125 15.266134 
L 112.737716 15.376694 
L 113.924897 15.114626 
L 114.617419 14.772709 
L 114.914215 14.867913 
L 116.002464 15.28456 
L 118.574691 15.233375 
L 119.06935 15.268181 
L 120.157599 15.206759 
L 121.344781 15.858858 
L 122.927689 15.800507 
L 123.422348 15.575292 
L 123.818075 15.685852 
L 124.411666 16.112737 
L 124.708462 16.004224 
L 125.796711 15.249754 
L 126.489234 15.250778 
L 127.181756 14.825941 
L 127.676415 14.473787 
L 128.270006 14.280307 
L 128.566801 14.211719 
L 129.160392 13.747981 
L 129.951846 12.947445 
L 130.545437 12.515442 
L 131.534755 11.559303 
L 132.326209 11.015716 
L 133.612322 10.13226 
L 134.898435 10.272507 
L 135.887753 10.946104 
L 136.778139 10.869327 
L 137.569594 10.525362 
L 138.657843 9.932638 
L 139.746093 9.02666 
L 140.438615 8.693956 
L 140.933274 8.842394 
L 141.329001 8.907911 
L 143.703364 8.37149 
L 144.296955 8.562922 
L 144.890546 8.895626 
L 145.385205 9.000044 
L 145.879863 9.073751 
L 147.165977 9.138244 
L 147.759567 8.922242 
L 147.957431 9.0543 
L 149.045681 10.331882 
L 149.837135 11.220457 
L 151.22218 13.683488 
L 151.518975 14.008002 
L 152.211498 15.119744 
L 152.508293 15.400239 
L 153.002952 15.484183 
L 153.497611 15.768772 
L 154.289065 16.354331 
L 154.684792 16.641991 
L 155.377315 17.569467 
L 157.158087 20.436861 
L 158.048473 22.689009 
L 158.246337 22.644989 
L 158.4442 22.359376 
L 159.334586 20.09392 
L 159.631382 19.883037 
L 160.126041 19.801141 
L 160.521768 19.711055 
L 161.115358 19.283147 
L 161.906813 18.514345 
L 162.995062 17.345276 
L 163.390789 17.13644 
L 163.786517 17.343228 
L 164.182244 17.778302 
L 164.577971 18.210305 
L 165.07263 18.376145 
L 165.567289 18.44371 
L 166.061948 18.853191 
L 166.75447 19.500172 
L 167.150197 19.591281 
L 168.139515 19.623016 
L 169.029901 19.373233 
L 169.227765 19.614827 
L 169.623492 20.888314 
L 170.316014 22.998167 
L 171.107469 24.570576 
L 171.305332 24.567505 
L 171.898923 24.277797 
L 172.195718 24.546007 
L 172.591445 25.471435 
L 173.185036 26.798155 
L 173.679695 27.626331 
L 173.97649 27.88021 
L 174.174354 27.920134 
L 174.570081 27.491202 
L 174.965808 26.825795 
L 175.163672 26.74697 
L 175.559399 27.030536 
L 175.955126 27.590501 
L 176.350853 27.760436 
L 176.647649 27.999983 
L 177.043376 28.716575 
L 177.636966 29.625624 
L 178.131625 30.008489 
L 179.318807 31.024003 
L 179.615602 31.674055 
L 180.703852 34.952978 
L 180.703852 34.952978 
" clip-path="url(#p56a8611387)" style="fill: none; stroke: #1f77b4; stroke-opacity: 0.9; stroke-width: 2.5; stroke-linecap: square"/>
   </g>
   <g id="line2d_4">
    <path d="M 180.802784 34.925338 
L 181.000647 34.791233 
L 181.891033 33.919037 
L 182.187829 34.33159 
L 182.484624 35.013376 
L 182.781419 35.905022 
L 183.276078 36.484438 
L 183.572874 36.741388 
L 183.770737 36.869351 
L 184.760055 39.125594 
L 185.254714 40.254739 
L 185.749373 40.9959 
L 186.837622 42.365616 
L 187.431213 43.867389 
L 187.728009 44.115125 
L 188.222667 43.673909 
L 188.618395 44.029134 
L 189.607712 45.108118 
L 189.904508 45.339475 
L 190.498098 45.898417 
L 191.289553 46.520829 
L 192.179939 46.802347 
L 192.575666 46.708166 
L 193.070325 46.678479 
L 194.257506 46.716356 
L 194.752165 46.382629 
L 195.246824 45.660918 
L 195.840415 44.945349 
L 196.038278 44.880856 
L 196.532937 45.265768 
L 196.928665 45.514528 
L 197.621187 45.793999 
L 198.115846 46.074494 
L 198.511573 45.724387 
L 199.303027 44.929993 
L 200.193413 45.502244 
L 201.083799 45.374281 
L 201.875254 45.60359 
L 202.468844 45.486888 
L 202.864572 45.073312 
L 203.260299 44.658712 
L 203.557094 44.743679 
L 204.051753 45.483817 
L 204.546412 46.124655 
L 205.238934 46.625246 
L 205.53573 46.796205 
L 205.931457 47.343886 
L 206.327184 48.173086 
L 206.722911 49.457834 
L 206.722911 49.457834 
" clip-path="url(#p56a8611387)" style="fill: none; stroke: #d2691e; stroke-opacity: 0.9; stroke-width: 2.5; stroke-linecap: square"/>
   </g>
   <g id="line2d_5">
    <path d="M 206.821843 49.716831 
L 206.920775 49.956378 
L 207.019707 50.18364 
L 207.118638 50.394523 
L 207.21757 50.562411 
L 207.316502 50.726203 
L 207.415434 50.753843 
L 207.514365 50.713919 
L 207.613297 50.665805 
L 207.712229 50.620762 
L 207.811161 50.607454 
L 207.910093 50.622809 
L 208.009024 50.650449 
L 208.107956 50.685255 
L 208.206888 50.754867 
L 208.30582 50.828574 
L 208.404752 50.906375 
L 208.503683 50.9852 
L 208.602615 51.07631 
L 208.701547 51.175609 
L 208.800479 51.259553 
L 208.89941 51.330188 
L 208.998342 51.386492 
L 209.097274 51.433582 
L 209.196206 51.462246 
L 209.295138 51.49091 
L 209.394069 51.516502 
L 209.493001 51.549261 
L 209.591933 51.580996 
L 209.690865 51.610683 
L 209.789797 51.637299 
L 209.888728 51.649584 
L 209.98766 51.665963 
L 210.086592 51.696674 
L 210.185524 51.736599 
L 210.284455 51.78676 
L 210.383387 51.836922 
L 210.482319 51.886059 
L 210.581251 51.937245 
L 210.680183 51.994572 
L 210.779114 52.052923 
L 210.878046 52.113322 
L 210.976978 52.176791 
L 211.07591 52.229 
L 211.174842 52.277114 
L 211.273773 52.321133 
L 211.372705 52.365153 
L 211.471637 52.411219 
L 211.570569 52.465476 
L 211.6695 52.527922 
L 211.768432 52.586273 
L 211.867364 52.641553 
L 211.966296 52.69069 
L 212.065228 52.732662 
L 212.164159 52.769516 
L 212.263091 52.797156 
L 212.362023 52.823772 
L 212.460955 52.839127 
L 212.559887 52.84527 
L 212.658818 52.83708 
L 212.75775 52.829914 
L 212.856682 52.824796 
L 212.955614 52.821724 
L 213.054545 52.823772 
" clip-path="url(#p56a8611387)" style="fill: none; stroke: #1f77b4; stroke-opacity: 0.9; stroke-width: 2.5; stroke-linecap: square"/>
   </g>
   <g id="line2d_6">
    <path d="M 10.145455 52.92 
L 213.054545 52.92 
L 213.054545 52.92 
" clip-path="url(#p56a8611387)" style="fill: none; stroke-dasharray: 2,3.3; stroke-dashoffset: 0; stroke: #8d99ae; stroke-opacity: 0.7; stroke-width: 2"/>
   </g>
  </g>
 </g>
 <defs>
  <clipPath id="p56a8611387">
   <rect x="0" y="-0" width="223.2" height="55.44"/>
  </clipPath>
 </defs>
</svg>
