<?xml version="1.0" encoding="utf-8" standalone="no"?>
<!DOCTYPE svg PUBLIC "-//W3C//DTD SVG 1.1//EN"
  "http://www.w3.org/Graphics/SVG/1.1/DTD/svg11.dtd">
<svg xmlns:xlink="http://www.w3.org/1999/xlink" width="223.2pt" height="55.44pt" viewBox="0 0 223.2 55.44" xmlns="http://www.w3.org/2000/svg" version="1.1">
 <metadata>
  <rdf:RDF xmlns:dc="http://purl.org/dc/elements/1.1/" xmlns:cc="http://creativecommons.org/ns#" xmlns:rdf="http://www.w3.org/1999/02/22-rdf-syntax-ns#">
   <cc:Work>
    <dc:type rdf:resource="http://purl.org/dc/dcmitype/StillImage"/>
    <dc:date>2026-06-29T15:38:42.165778</dc:date>
    <dc:format>image/svg+xml</dc:format>
    <dc:creator>
     <cc:Agent>
      <dc:title>Matplotlib v3.10.8, https://matplotlib.org/</dc:title>
     </cc:Agent>
    </dc:creator>
   </cc:Work>
  </rdf:RDF>
 </metadata>
 <defs>
  <style type="text/css">*{stroke-linejoin: round; stroke-linecap: butt}</style>
 </defs>
 <g id="figure_1">
  <g id="patch_1">
   <path d="M 0 55.44 
L 223.2 55.44 
L 223.2 0 
L 0 0 
L 0 55.44 
z
" style="fill: none"/>
  </g>
  <g id="axes_1">
   <g id="line2d_1">
    <path d="M 10.145455 52.878598 
L 10.572832 52.786478 
L 11.000208 52.474926 
L 11.23764 52.330018 
L 11.807476 52.164409 
L 12.092394 51.981204 
L 12.567257 52.105411 
L 13.232066 51.416063 
L 13.991847 49.072695 
L 14.561683 47.3131 
L 14.799115 47.164052 
L 14.98906 47.316205 
L 15.273978 46.996372 
L 15.748842 45.987192 
L 15.986273 45.589731 
L 16.176219 44.739949 
L 17.078459 39.297623 
L 17.410863 38.497524 
L 17.553322 38.525471 
L 17.695781 38.909477 
L 18.74048 42.237183 
L 18.882939 42.083995 
L 19.167857 40.930942 
L 19.500262 39.887605 
L 19.78518 39.186872 
L 19.975125 38.13422 
L 20.592447 32.615299 
L 21.114797 30.696305 
L 21.20977 30.743917 
L 21.304742 30.990261 
L 21.684633 32.476602 
L 21.779606 32.529389 
L 22.017037 31.940442 
L 22.444414 30.747022 
L 22.586873 30.790495 
L 22.729332 31.043048 
L 23.251682 32.218873 
L 23.394141 32.073965 
L 23.869004 31.273866 
L 24.011463 31.176571 
L 24.011463 31.176571 
" clip-path="url(#p4e70d47ca7)" style="fill: none; stroke: #1f77b4; stroke-opacity: 0.9; stroke-width: 2.5; stroke-linecap: square"/>
   </g>
   <g id="line2d_2">
    <path d="M 24.058949 31.179676 
L 24.106436 31.261445 
L 24.153922 31.360811 
L 24.201408 31.398073 
L 24.248895 31.460176 
L 24.296381 31.517104 
L 24.343867 31.563682 
L 24.391354 31.537805 
L 24.43884 31.503649 
L 24.486326 31.464316 
L 24.533813 31.458106 
L 24.581299 31.311128 
L 24.628785 31.054434 
L 24.676272 30.819476 
L 24.723758 30.556572 
L 24.771244 30.309194 
L 24.818731 30.080446 
L 24.866217 29.953134 
L 24.913703 29.838243 
L 24.96119 29.708861 
L 25.008676 29.513235 
L 25.056162 29.437676 
L 25.103649 29.487359 
L 25.151135 29.566023 
L 25.198621 29.648828 
L 25.246108 29.708861 
L 25.293594 29.745088 
L 25.34108 29.768894 
L 25.388567 29.794771 
L 25.436053 29.823752 
L 25.483539 29.828927 
L 25.531026 29.723352 
L 25.578512 29.566023 
L 25.625998 29.398344 
L 25.673485 29.221349 
L 25.720971 29.040214 
" clip-path="url(#p4e70d47ca7)" style="fill: none; stroke: #d2691e; stroke-opacity: 0.9; stroke-width: 2.5; stroke-linecap: square"/>
   </g>
   <g id="line2d_3">
    <path d="M 25.768457 28.834238 
L 26.100862 27.740184 
L 26.195834 27.85197 
L 26.528239 28.86115 
L 26.623211 28.846659 
L 26.718184 28.576509 
L 27.098075 27.354108 
L 27.762883 25.675246 
L 28.047801 25.393711 
L 28.380206 25.061458 
L 29.377418 23.554416 
L 29.709823 22.773983 
L 30.089713 21.777224 
L 30.991954 20.916057 
L 31.514303 20.139765 
L 32.036653 20.736992 
L 32.084139 20.682134 
L 32.46403 19.629482 
L 33.128839 17.723943 
L 33.746161 16.758235 
L 34.031079 16.469455 
L 34.41097 15.975733 
L 34.600915 15.885683 
L 35.170751 15.146653 
L 35.550641 14.047423 
L 35.883046 13.390162 
L 36.975231 11.779614 
L 37.972444 9.67845 
L 38.399821 8.998418 
L 38.922171 8.003729 
L 39.444521 7.035951 
L 39.824411 6.566035 
L 40.679165 5.122132 
L 41.106542 4.404838 
L 41.771351 3.260065 
L 42.2937 2.575893 
L 42.863536 2.684574 
L 43.670804 4.374821 
L 44.003208 4.960663 
L 44.478072 6.301061 
L 45.760203 10.408165 
L 46.18758 12.407894 
L 46.519984 12.873669 
L 47.042333 13.17487 
L 47.327251 12.484488 
L 48.182005 10.531336 
L 48.324464 10.485794 
L 48.609382 10.784925 
L 48.846814 10.988831 
L 49.084246 11.045759 
L 49.511623 10.847029 
L 49.701568 11.174106 
L 50.31889 12.127393 
L 50.936213 12.116008 
L 51.316103 11.718546 
L 51.74348 12.172936 
L 52.075885 12.280582 
L 52.170857 12.234004 
L 52.64572 11.637812 
L 53.215556 11.631601 
L 53.452988 11.502219 
L 54.450201 10.128699 
L 54.687633 9.805762 
L 55.352441 9.256147 
L 55.589873 9.469368 
L 56.064736 10.316045 
L 56.634572 12.099447 
L 56.966977 12.955438 
L 57.251895 13.332199 
L 57.821731 13.973934 
L 58.249108 14.989324 
L 58.676484 15.485116 
L 59.151348 15.445784 
L 59.436266 15.504782 
L 59.958615 15.254299 
L 60.29102 14.90859 
L 60.433479 15.00485 
L 60.955828 15.426118 
L 62.190473 15.374365 
L 62.427905 15.409557 
L 62.950254 15.347454 
L 63.567577 16.006785 
L 64.04244 16.019205 
L 64.232385 16.004714 
L 64.564789 15.728354 
L 64.707248 15.83186 
L 65.039653 16.262443 
L 65.277084 15.891893 
L 65.609489 15.382646 
L 65.989379 15.391961 
L 66.36927 14.867187 
L 66.654188 14.511128 
L 67.176538 14.070194 
L 68.838559 11.036444 
L 69.503368 10.225995 
L 69.978231 10.289133 
L 70.595553 11.030234 
L 71.260362 10.667964 
L 71.972657 9.716747 
L 72.495007 8.891807 
L 72.684952 8.762425 
L 72.922384 8.912508 
L 73.112329 8.978752 
L 74.252001 8.436382 
L 74.536919 8.629938 
L 74.91681 9.04189 
L 75.154241 9.087433 
L 75.81905 9.303759 
L 76.19894 8.993243 
L 76.341399 9.259252 
L 77.576044 12.927492 
L 77.908448 13.885954 
L 78.193366 14.841311 
L 78.525771 15.541009 
L 78.810689 15.705583 
L 79.000634 16.005749 
L 79.760415 17.436197 
L 80.757628 20.898461 
L 81.185005 22.912681 
L 81.279978 22.773983 
L 81.564896 21.16033 
L 81.8973 20.075591 
L 82.134732 19.992787 
L 82.324677 19.901702 
L 82.657081 19.386244 
L 83.084458 18.444342 
L 83.559322 17.444478 
L 83.749267 17.330622 
L 84.034185 17.801572 
L 84.366589 18.478499 
L 84.651507 18.553023 
L 84.793966 18.680335 
L 85.031398 19.151286 
L 85.363802 19.737128 
L 85.838666 19.801301 
L 86.076097 19.744373 
L 86.408502 19.560133 
L 86.503474 19.804406 
L 86.930851 22.651846 
L 87.358228 24.707468 
L 87.453201 24.861692 
L 87.500687 24.812009 
L 87.785605 24.519088 
L 87.928064 24.790273 
L 88.307955 26.655445 
L 88.735332 28.106594 
L 88.830304 28.21838 
L 88.877791 28.170767 
L 89.067736 27.737078 
L 89.305168 26.989768 
L 89.495113 27.196779 
L 90.207408 29.007093 
L 90.587299 30.122883 
L 91.299594 31.34011 
L 91.537025 32.691893 
L 91.964402 35.312656 
L 91.964402 35.312656 
" clip-path="url(#p4e70d47ca7)" style="fill: none; stroke: #1f77b4; stroke-opacity: 0.9; stroke-width: 2.5; stroke-linecap: square"/>
   </g>
   <g id="line2d_4">
    <path d="M 92.011889 35.28471 
L 92.106861 35.149117 
L 92.534238 34.267249 
L 92.724184 34.882073 
L 93.341506 37.112619 
L 93.436479 37.130215 
L 93.626424 37.831983 
L 94.623637 41.889404 
L 94.908555 42.512508 
L 95.335932 44.542254 
L 95.383418 44.576411 
L 95.573363 44.104425 
L 95.668336 44.196545 
L 95.905768 44.74616 
L 96.238172 45.529697 
L 96.475604 45.934405 
L 96.808008 46.565789 
L 97.377844 47.284118 
L 98.707461 47.075037 
L 98.992379 46.321516 
L 99.324784 45.415841 
L 99.419756 45.350633 
L 99.467243 45.407561 
L 100.132051 46.233536 
L 100.321996 46.535772 
L 100.416969 46.557508 
L 100.606914 46.203519 
L 100.986805 45.400315 
L 101.461668 45.952 
L 101.746586 45.865056 
L 102.60134 46.524387 
L 102.981231 46.925989 
L 103.12369 46.937374 
L 103.361122 46.594771 
L 103.64604 46.162117 
L 103.930958 46.131065 
L 104.02593 46.201449 
L 104.073417 46.159012 
L 104.263362 46.062752 
L 104.453307 46.237676 
L 104.880684 47.249961 
L 105.213089 47.200278 
L 105.640466 47.392799 
L 106.637678 47.370028 
L 106.922596 47.268592 
L 107.255001 47.011898 
L 107.39746 46.916673 
L 107.539919 46.909428 
L 107.682378 46.76866 
L 107.824837 46.720012 
L 108.157241 47.253066 
L 108.347186 47.41143 
L 109.581831 47.342081 
L 109.581831 47.342081 
" clip-path="url(#p4e70d47ca7)" style="fill: none; stroke: #d2691e; stroke-opacity: 0.9; stroke-width: 2.5; stroke-linecap: square"/>
   </g>
   <g id="line2d_5">
    <path d="M 109.629317 47.337941 
L 109.676804 47.31931 
L 109.72429 47.284118 
L 109.771776 47.243751 
L 109.819263 47.200278 
L 109.866749 47.157841 
L 109.914235 47.131965 
L 109.961722 47.106088 
L 110.009208 47.0533 
L 110.056694 46.996372 
L 110.104181 46.938409 
L 110.151667 46.859745 
L 110.199153 46.789361 
L 110.24664 46.714837 
L 110.294126 46.612366 
L 110.341612 46.499545 
L 110.389099 46.361883 
L 110.436585 46.210765 
L 110.484071 46.076207 
L 110.531558 45.940615 
L 110.579044 45.810198 
L 110.62653 45.709797 
L 110.674017 45.615607 
L 110.721503 45.523487 
L 110.768989 45.446893 
L 110.816476 45.355808 
L 110.863962 45.256443 
L 110.911448 45.136376 
L 110.958935 45.013204 
L 111.006421 44.867261 
L 111.053907 44.705793 
L 111.101394 44.494641 
L 111.14888 44.263824 
L 111.196366 44.02162 
L 111.243853 43.782522 
L 111.291339 43.55481 
L 111.338825 43.331238 
L 111.386312 43.10042 
L 111.433798 42.870638 
L 111.481284 42.662591 
L 111.528771 42.469036 
L 111.576257 42.331373 
L 111.623743 42.221657 
L 111.671229 42.135748 
L 111.718716 42.066399 
L 111.766202 42.008436 
L 111.813688 41.964963 
L 111.861175 41.928736 
L 111.908661 41.892509 
L 111.956147 41.858353 
L 112.003634 41.825231 
L 112.05112 41.789004 
L 112.098606 41.745531 
L 112.146093 41.690673 
L 112.193579 41.569572 
L 112.241065 41.429839 
L 112.288552 41.26216 
L 112.336038 41.114147 
L 112.383524 40.958889 
L 112.431011 40.790174 
L 112.478497 40.61111 
L 112.525983 40.408239 
L 112.57347 40.202262 
L 112.620956 39.994216 
L 112.668442 39.858624 
L 112.715929 39.742697 
L 112.763415 39.651612 
L 112.810901 39.563633 
L 112.858388 39.487038 
L 112.905874 39.424935 
L 112.95336 39.366972 
L 113.000847 39.317289 
L 113.048333 39.257256 
L 113.095819 39.188942 
L 113.143306 39.100962 
L 113.190792 39.015053 
L 113.238278 38.938459 
L 113.285765 38.87118 
L 113.333251 38.808041 
L 113.380737 38.759394 
L 113.428224 38.726272 
" clip-path="url(#p4e70d47ca7)" style="fill: none; stroke: #1f77b4; stroke-opacity: 0.9; stroke-width: 2.5; stroke-linecap: square"/>
   </g>
   <g id="line2d_6">
    <path d="M 113.47571 38.719027 
L 113.523196 38.727307 
L 113.570683 38.750078 
L 113.618169 38.788375 
L 113.665655 38.839093 
L 113.713142 38.913617 
L 113.760628 38.998492 
L 113.808114 39.081296 
L 113.855601 39.154785 
L 113.903087 39.224134 
L 113.950573 39.290378 
L 113.99806 39.382498 
L 114.045546 39.525335 
L 114.093032 39.675419 
L 114.140519 39.813081 
L 114.188005 39.952814 
L 114.235491 40.114283 
L 114.282978 40.293347 
L 114.330464 40.524165 
L 114.37795 40.767403 
L 114.425437 41.029272 
L 114.472923 41.294247 
L 114.520409 41.519889 
L 114.567896 41.739321 
L 114.615382 41.983594 
L 114.662868 42.18543 
L 114.710355 42.319988 
L 114.757841 42.373811 
L 114.805327 42.353109 
L 114.852814 42.286866 
L 114.9003 42.17508 
L 114.947786 42.026032 
L 114.995273 41.849037 
L 115.042759 41.616149 
L 115.090245 41.299422 
L 115.137732 41.034448 
L 115.185218 40.828471 
L 115.232704 40.687704 
L 115.280191 40.605934 
L 115.327677 40.446536 
L 115.375163 40.294382 
L 115.42265 40.153615 
L 115.470136 40.032513 
L 115.517622 39.957989 
L 115.565109 39.927972 
L 115.612595 39.859659 
L 115.660081 39.771679 
L 115.707568 39.69612 
L 115.755054 39.588474 
L 115.80254 39.593649 
L 115.850027 39.619526 
L 115.897513 39.654718 
L 115.944999 39.69612 
L 115.992486 39.740627 
L 116.039972 39.802731 
L 116.087458 39.877255 
L 116.134945 40.004567 
L 116.182431 40.117388 
L 116.229917 40.223999 
L 116.277404 40.316119 
L 116.32489 40.405133 
L 116.372376 40.482763 
L 116.419863 40.550041 
L 116.467349 40.604899 
L 116.514835 40.562462 
L 116.562322 40.509674 
L 116.609808 40.42687 
L 116.657294 40.419624 
L 116.704781 40.421694 
L 116.752267 40.407203 
L 116.799753 40.492078 
L 116.84724 40.574883 
L 116.894726 40.659757 
L 116.942212 40.811911 
L 116.989699 41.124498 
L 117.037185 41.44019 
L 117.084671 41.736216 
L 117.132158 41.962893 
L 117.179644 42.194746 
L 117.22713 42.476281 
L 117.274617 42.672942 
L 117.322103 42.872708 
L 117.369589 43.088 
L 117.417076 43.200821 
L 117.464562 43.255679 
L 117.512048 43.316747 
L 117.559534 43.45855 
L 117.607021 43.610703 
L 117.654507 43.758716 
L 117.701993 43.893273 
L 117.74948 44.006095 
L 117.796966 44.10753 
L 117.844452 44.179984 
L 117.891939 44.306261 
L 117.939425 44.448064 
L 117.986911 44.65818 
L 118.034398 44.780317 
" clip-path="url(#p4e70d47ca7)" style="fill: none; stroke: #d2691e; stroke-opacity: 0.9; stroke-width: 2.5; stroke-linecap: square"/>
   </g>
   <g id="line2d_7">
    <path d="M 118.081884 44.914874 
L 118.12937 45.078413 
L 118.176857 45.242987 
L 118.224343 45.417911 
L 118.271829 45.605257 
L 118.319316 45.812268 
L 118.366802 46.012034 
L 118.414288 46.192134 
L 118.461775 46.307025 
L 118.509261 46.442617 
" clip-path="url(#p4e70d47ca7)" style="fill: none; stroke: #1f77b4; stroke-opacity: 0.9; stroke-width: 2.5; stroke-linecap: square"/>
   </g>
   <g id="line2d_8">
    <path d="M 118.556747 46.552333 
L 118.604234 46.622717 
L 118.65172 46.709662 
L 118.699206 46.794536 
L 118.746693 46.875271 
L 118.794179 46.949795 
L 118.841665 47.024319 
L 118.889152 47.091598 
L 118.936638 47.14542 
L 118.984124 47.175437 
L 119.031611 47.205454 
L 119.079097 47.23547 
L 119.126583 47.242716 
" clip-path="url(#p4e70d47ca7)" style="fill: none; stroke: #d2691e; stroke-opacity: 0.9; stroke-width: 2.5; stroke-linecap: square"/>
   </g>
   <g id="line2d_9">
    <path d="M 119.17407 47.252031 
L 119.411501 47.208559 
L 120.218769 46.86699 
L 120.59866 46.804887 
L 120.97855 46.707592 
L 121.358441 46.468494 
L 121.690845 46.514036 
L 121.833304 46.181783 
L 122.118222 44.907629 
L 122.40314 43.866362 
L 123.305381 41.392577 
L 123.82773 39.996286 
L 125.062375 35.003174 
L 125.442265 33.491992 
L 126.724396 30.388893 
L 126.819369 30.372332 
L 127.104287 29.625021 
L 127.57915 28.003088 
L 127.816582 27.837479 
L 128.481391 27.707062 
L 129.051227 27.868531 
L 129.478603 27.7702 
L 130.143412 27.765025 
L 130.333357 27.500051 
L 130.95068 26.276614 
L 131.283084 26.066497 
L 131.473029 26.088234 
L 131.805434 25.895713 
L 131.947893 25.988868 
L 132.280297 26.75481 
L 133.230024 29.475973 
L 134.037291 31.423949 
L 134.322209 31.349425 
L 134.654614 30.52759 
L 134.892045 30.147725 
L 135.034504 30.171531 
L 135.366908 31.142414 
L 135.936744 33.762142 
L 136.50658 35.265043 
L 136.696526 35.364409 
L 137.02893 35.437898 
L 137.788711 37.300999 
L 138.643465 38.286373 
L 138.880897 38.538927 
L 139.308274 38.872215 
L 139.830624 38.905337 
L 140.827837 39.019193 
L 141.350186 39.613315 
L 141.777563 39.571913 
L 142.20494 39.345236 
L 142.394885 39.15168 
L 142.679803 38.365037 
L 142.964721 37.703636 
L 143.392098 37.237861 
L 143.961934 36.016494 
L 146.431224 32.968253 
L 146.906087 32.409323 
L 147.191005 31.871094 
L 147.760841 30.363016 
L 147.998272 29.804086 
L 148.330677 28.979146 
L 148.473136 29.006058 
L 148.900513 29.824787 
L 149.32789 30.78739 
L 149.660294 31.375302 
L 150.040185 31.844182 
L 150.562534 32.524214 
L 150.704993 32.647386 
L 151.274829 33.357435 
L 151.559747 33.556165 
L 152.461988 34.713358 
L 152.889365 35.345778 
L 153.649146 37.173687 
L 154.029036 38.60517 
L 154.408927 38.981931 
L 154.551386 39.010912 
L 155.121222 38.472683 
L 155.501113 37.998627 
L 155.975976 36.792787 
L 156.118435 36.973922 
L 156.783244 37.723302 
L 156.925703 37.976891 
L 157.495539 39.769609 
L 157.780457 39.762363 
L 158.017888 39.887605 
L 158.825156 39.855518 
L 159.632423 39.742697 
L 159.727396 39.567773 
L 160.012314 39.028508 
L 160.249746 38.919827 
L 160.392205 38.845303 
L 160.724609 38.364002 
L 161.1045 37.837159 
L 161.816795 35.934725 
L 162.671549 33.848051 
L 163.051439 32.735366 
L 163.193898 32.839906 
L 163.526303 34.01159 
L 164.428543 37.908577 
L 164.808434 38.960195 
L 164.998379 39.139259 
L 165.853133 39.497389 
L 166.565428 40.432045 
L 166.897832 41.249739 
L 167.515154 42.043628 
L 168.037504 42.199921 
L 168.749799 42.880988 
L 170.601766 42.17508 
L 171.504006 40.770508 
L 172.216301 38.392984 
L 172.976082 36.960466 
L 173.450946 35.574525 
L 173.78335 34.894493 
L 174.258213 33.63897 
L 174.590618 33.057268 
L 176.347612 29.082652 
L 176.869961 28.035175 
L 177.629743 26.160688 
L 177.867174 25.959887 
L 178.342038 25.133912 
L 178.721928 24.481826 
L 178.95936 24.325533 
L 179.196792 24.08747 
L 180.146518 23.0845 
L 180.336464 22.852647 
L 180.858813 22.078425 
L 181.001272 22.192281 
L 181.001272 22.192281 
" clip-path="url(#p4e70d47ca7)" style="fill: none; stroke: #1f77b4; stroke-opacity: 0.9; stroke-width: 2.5; stroke-linecap: square"/>
   </g>
   <g id="line2d_10">
    <path d="M 181.048759 22.232649 
L 181.238704 22.505904 
L 181.476136 23.426069 
L 181.950999 25.441323 
L 182.473349 26.351138 
L 182.758266 26.620253 
L 183.328102 27.331336 
L 183.802966 27.749499 
L 184.562747 29.22756 
L 185.939851 31.208658 
L 186.272255 31.546086 
L 186.557173 31.959073 
L 186.747118 31.795534 
L 186.937064 31.537805 
L 186.98455 31.568857 
L 187.696845 32.536635 
L 188.219195 33.672092 
L 188.599085 34.539469 
L 188.978976 35.524843 
L 189.406353 35.865376 
L 189.691271 36.765875 
L 189.83373 37.061901 
L 189.881216 37.029815 
L 189.881216 37.029815 
" clip-path="url(#p4e70d47ca7)" style="fill: none; stroke: #d2691e; stroke-opacity: 0.9; stroke-width: 2.5; stroke-linecap: square"/>
   </g>
   <g id="line2d_11">
    <path d="M 189.928702 36.988412 
L 189.976189 36.915958 
L 190.023675 36.767945 
L 190.071161 36.552654 
L 190.118648 36.327011 
L 190.166134 36.098264 
L 190.21362 35.873657 
L 190.261107 35.698732 
L 190.308593 35.616963 
L 190.356079 35.544509 
L 190.403566 35.46895 
L 190.451052 35.402706 
L 190.498538 35.347848 
" clip-path="url(#p4e70d47ca7)" style="fill: none; stroke: #1f77b4; stroke-opacity: 0.9; stroke-width: 2.5; stroke-linecap: square"/>
   </g>
   <g id="line2d_12">
    <path d="M 190.546025 35.325077 
L 191.020888 35.084944 
L 191.305806 35.308516 
L 191.448265 35.369584 
L 191.923128 36.080668 
L 192.303019 35.586946 
L 192.350505 35.649049 
L 192.635423 36.239031 
L 193.490177 38.242901 
L 193.965041 38.726272 
L 194.154986 38.750078 
L 194.249959 38.847374 
L 194.677335 39.572948 
L 195.00974 39.607105 
L 196.006953 39.933148 
L 196.719248 40.806735 
L 196.909193 40.658722 
L 197.431543 40.025268 
L 197.716461 40.344065 
L 198.286297 41.16176 
L 198.523728 41.031342 
L 199.141051 40.449641 
L 199.568428 40.683564 
L 199.615914 40.584198 
L 200.090777 39.734417 
L 200.470668 39.644367 
L 200.850558 40.243665 
L 201.182963 41.411208 
L 201.515367 42.888234 
L 201.657826 43.055913 
L 201.705312 43.032106 
L 201.942744 42.849937 
L 202.370121 43.155278 
L 202.607553 42.968968 
L 203.557279 42.812675 
L 204.079629 43.345729 
L 204.554492 43.129402 
L 204.83941 43.27638 
L 205.409246 43.450269 
L 205.599192 43.373675 
L 205.836623 43.617948 
L 205.88411 43.538249 
L 206.074055 43.230837 
L 206.169028 43.381956 
L 206.216514 43.342623 
L 206.358973 43.302256 
L 206.501432 43.465795 
L 206.548918 43.319852 
L 206.738863 42.594278 
L 206.928809 42.664661 
L 207.118754 41.753812 
L 207.213727 42.111941 
L 207.261213 42.073644 
L 207.356186 42.101591 
L 207.451158 42.751606 
L 207.593617 43.632439 
L 207.641104 43.582756 
L 207.68859 43.562055 
L 207.831049 43.946061 
L 207.878535 43.924325 
L 207.926022 43.890168 
L 207.973508 43.956412 
L 208.163453 45.326826 
L 208.258426 45.680816 
L 208.258426 45.680816 
" clip-path="url(#p4e70d47ca7)" style="fill: none; stroke: #d2691e; stroke-opacity: 0.9; stroke-width: 2.5; stroke-linecap: square"/>
   </g>
   <g id="line2d_13">
    <path d="M 208.305912 45.831934 
L 208.353399 46.041015 
L 208.400885 46.271833 
L 208.448371 46.49023 
L 208.495858 46.618577 
L 208.543344 46.643418 
L 208.59083 46.663084 
L 208.638317 46.740713 
L 208.685803 46.938409 
L 208.733289 47.23547 
L 208.780776 47.535637 
L 208.828262 47.844084 
L 208.875748 48.184617 
L 208.923235 48.586219 
L 208.970721 48.97126 
L 209.018207 49.282812 
L 209.065694 49.492928 
L 209.11318 49.696834 
L 209.160666 49.793095 
L 209.208153 49.864514 
L 209.255639 49.891425 
L 209.303125 49.876934 
L 209.350612 49.837602 
L 209.398098 49.696834 
L 209.445584 49.553997 
L 209.493071 49.460842 
L 209.540557 49.462912 
L 209.588043 49.471192 
L 209.63553 49.544681 
L 209.683016 49.630591 
L 209.730502 49.732026 
L 209.777989 49.845883 
L 209.825475 49.930757 
L 209.872961 50.027017 
L 209.920448 50.161575 
L 209.967934 50.327184 
L 210.01542 50.512459 
L 210.062907 50.645981 
L 210.110393 50.782609 
L 210.157879 50.910956 
L 210.205366 51.042408 
L 210.252852 51.170755 
L 210.300338 51.308417 
L 210.347825 51.447115 
L 210.395311 51.54441 
L 210.442797 51.571322 
L 210.490284 51.613759 
L 210.53777 51.682073 
L 210.585256 51.721405 
L 210.632743 51.759702 
L 210.680229 51.786613 
L 210.727715 51.839401 
L 210.775202 51.875628 
L 210.822688 51.91082 
L 210.870174 51.966713 
L 210.917661 52.064008 
L 210.965147 52.105411 
L 211.012633 52.127147 
L 211.06012 52.139567 
L 211.107606 52.147848 
L 211.155092 52.158199 
L 211.202579 52.140603 
L 211.250065 52.113691 
L 211.297551 52.081604 
L 211.345038 52.044342 
L 211.392524 52.016396 
L 211.44001 52.00294 
L 211.487497 52.011221 
L 211.534983 52.029852 
L 211.582469 52.055728 
L 211.629956 52.08678 
L 211.677442 52.121972 
L 211.724928 52.169584 
L 211.772415 52.213056 
L 211.819901 52.251354 
L 211.867387 52.282405 
L 211.914874 52.298966 
L 211.96236 52.303106 
L 212.009846 52.309317 
L 212.057333 52.308282 
L 212.104819 52.312422 
L 212.152305 52.320702 
L 212.199792 52.324843 
L 212.247278 52.328983 
L 212.294764 52.333123 
L 212.34225 52.336228 
L 212.389737 52.348649 
L 212.437223 52.380736 
L 212.484709 52.420068 
L 212.532196 52.474926 
L 212.579682 52.521503 
L 212.627168 52.55566 
L 212.674655 52.583607 
L 212.722141 52.613623 
L 212.769627 52.642605 
L 212.817114 52.681937 
L 212.8646 52.72955 
L 212.912086 52.763706 
L 212.959573 52.787513 
L 213.007059 52.800969 
L 213.054545 52.809249 
" clip-path="url(#p4e70d47ca7)" style="fill: none; stroke: #1f77b4; stroke-opacity: 0.9; stroke-width: 2.5; stroke-linecap: square"/>
   </g>
   <g id="line2d_14">
    <path d="M 10.145455 52.92 
L 213.054545 52.92 
L 213.054545 52.92 
" clip-path="url(#p4e70d47ca7)" style="fill: none; stroke-dasharray: 2,3.3; stroke-dashoffset: 0; stroke: #8d99ae; stroke-opacity: 0.7; stroke-width: 2"/>
   </g>
  </g>
 </g>
 <defs>
  <clipPath id="p4e70d47ca7">
   <rect x="0" y="-0" width="223.2" height="55.44"/>
  </clipPath>
 </defs>
</svg>
