<?xml version="1.0" encoding="utf-8" standalone="no"?>
<!DOCTYPE svg PUBLIC "-//W3C//DTD SVG 1.1//EN"
  "http://www.w3.org/Graphics/SVG/1.1/DTD/svg11.dtd">
<svg xmlns:xlink="http://www.w3.org/1999/xlink" width="223.2pt" height="55.44pt" viewBox="0 0 223.2 55.44" xmlns="http://www.w3.org/2000/svg" version="1.1">
 <metadata>
  <rdf:RDF xmlns:dc="http://purl.org/dc/elements/1.1/" xmlns:cc="http://creativecommons.org/ns#" xmlns:rdf="http://www.w3.org/1999/02/22-rdf-syntax-ns#">
   <cc:Work>
    <dc:type rdf:resource="http://purl.org/dc/dcmitype/StillImage"/>
    <dc:date>2026-05-06T16:20:46.796324</dc:date>
    <dc:format>image/svg+xml</dc:format>
    <dc:creator>
     <cc:Agent>
      <dc:title>Matplotlib v3.10.8, https://matplotlib.org/</dc:title>
     </cc:Agent>
    </dc:creator>
   </cc:Work>
  </rdf:RDF>
 </metadata>
 <defs>
  <style type="text/css">*{stroke-linejoin: round; stroke-linecap: butt}</style>
 </defs>
 <g id="figure_1">
  <g id="patch_1">
   <path d="M 0 55.44 
L 223.2 55.44 
L 223.2 0 
L 0 0 
L 0 55.44 
z
" style="fill: none"/>
  </g>
  <g id="axes_1">
   <g id="line2d_1">
    <path d="M 10.386153 52.854224 
L 11.348949 52.762536 
L 19.532708 52.226362 
L 23.383889 51.403563 
L 25.309479 50.947914 
L 27.23507 50.360714 
L 29.882756 49.545091 
L 31.808347 49.276007 
L 32.530443 48.930384 
L 34.696732 46.517001 
L 35.17813 46.344787 
L 36.140925 45.963286 
L 37.10372 45.455016 
L 38.307214 44.489902 
L 39.510709 42.922041 
L 40.473504 41.522805 
L 41.1956 40.770566 
L 42.399094 39.762399 
L 43.602588 38.394257 
L 45.28748 35.898355 
L 46.972371 33.873648 
L 47.453769 33.398865 
L 48.657263 32.771003 
L 50.342155 32.713598 
L 50.823552 32.589221 
L 51.30495 32.260341 
L 53.471239 30.540597 
L 54.674733 30.308586 
L 55.39683 30.18421 
L 59.007312 28.872277 
L 60.210806 28.18103 
L 62.136396 27.440751 
L 63.099191 26.872685 
L 63.821288 26.683728 
L 65.506179 26.552176 
L 66.950372 25.749708 
L 68.394565 25.130218 
L 69.35736 24.822864 
L 69.838758 24.699683 
L 70.560854 24.325358 
L 72.245746 23.702279 
L 75.134131 22.856758 
L 76.096927 22.584087 
L 77.781818 21.996886 
L 80.910903 21.086785 
L 81.873698 20.652663 
L 83.077192 20.12765 
L 84.039987 19.656454 
L 85.48418 18.956836 
L 86.206276 18.833656 
L 87.169071 18.815717 
L 88.131867 18.508363 
L 91.50165 17.128262 
L 95.834228 14.314243 
L 97.037722 13.53689 
L 99.204012 12.04796 
L 100.407506 11.197655 
L 101.129602 10.73483 
L 105.462181 8.70534 
L 109.55406 7.005926 
L 110.276157 6.494069 
L 111.479651 5.48949 
L 112.442446 5.033841 
L 114.127337 4.361729 
L 114.849434 4.087862 
L 115.57153 3.907277 
L 116.293627 3.78888 
L 117.256422 3.461195 
L 119.66341 2.54631 
L 120.626205 2.547506 
L 121.589 2.828549 
L 122.311097 3.164605 
L 123.273892 3.926412 
L 125.440181 4.97524 
L 128.328567 5.820762 
L 130.976254 6.040812 
L 131.69835 6.307504 
L 132.420446 6.528751 
L 133.864639 6.495265 
L 135.068133 6.080278 
L 136.271627 6.071907 
L 138.678615 6.624425 
L 139.882109 6.345774 
L 140.844905 5.948726 
L 142.048399 5.111576 
L 142.770495 4.677454 
L 143.492591 4.588956 
L 144.455387 4.695393 
L 145.177483 4.859235 
L 147.82517 4.49089 
L 149.510061 4.64636 
L 150.232158 5.137887 
L 154.083339 8.771116 
L 155.046134 10.221777 
L 156.249628 12.10656 
L 157.693821 13.987755 
L 158.175218 14.674218 
L 158.897315 15.967016 
L 161.7857 19.915971 
L 163.229893 22.575715 
L 165.636881 25.907571 
L 167.562472 30.031131 
L 168.043869 30.797721 
L 170.210159 33.416804 
L 172.617147 36.913698 
L 174.302038 38.695631 
L 175.98693 40.357971 
L 177.190424 41.219039 
L 178.393918 41.968886 
L 180.560207 43.4626 
L 181.763701 43.929012 
L 182.485797 44.378681 
L 183.207894 45.047205 
L 185.133484 47.036034 
L 186.09628 47.702165 
L 187.059075 48.163794 
L 188.262569 48.477127 
L 190.188159 48.99616 
L 195.483533 49.923004 
L 198.13122 50.857024 
L 202.945196 51.950102 
L 206.555678 52.412926 
L 209.684762 52.597099 
L 212.573148 52.754962 
L 212.573148 52.754962 
" clip-path="url(#p6ba4cff9d8)" style="fill: none; stroke: #1f77b4; stroke-opacity: 0.9; stroke-width: 2.5; stroke-linecap: square"/>
   </g>
   <g id="line2d_2">
    <path d="M 10.145455 52.92 
L 213.054545 52.92 
L 213.054545 52.92 
" clip-path="url(#p6ba4cff9d8)" style="fill: none; stroke-dasharray: 2,3.3; stroke-dashoffset: 0; stroke: #8d99ae; stroke-opacity: 0.7; stroke-width: 2"/>
   </g>
  </g>
 </g>
 <defs>
  <clipPath id="p6ba4cff9d8">
   <rect x="0" y="-0" width="223.2" height="55.44"/>
  </clipPath>
 </defs>
</svg>
