<?xml version="1.0" encoding="utf-8" standalone="no"?>
<!DOCTYPE svg PUBLIC "-//W3C//DTD SVG 1.1//EN"
  "http://www.w3.org/Graphics/SVG/1.1/DTD/svg11.dtd">
<svg xmlns:xlink="http://www.w3.org/1999/xlink" width="223.2pt" height="55.44pt" viewBox="0 0 223.2 55.44" xmlns="http://www.w3.org/2000/svg" version="1.1">
 <metadata>
  <rdf:RDF xmlns:dc="http://purl.org/dc/elements/1.1/" xmlns:cc="http://creativecommons.org/ns#" xmlns:rdf="http://www.w3.org/1999/02/22-rdf-syntax-ns#">
   <cc:Work>
    <dc:type rdf:resource="http://purl.org/dc/dcmitype/StillImage"/>
    <dc:date>2026-06-18T12:11:00.698257</dc:date>
    <dc:format>image/svg+xml</dc:format>
    <dc:creator>
     <cc:Agent>
      <dc:title>Matplotlib v3.10.8, https://matplotlib.org/</dc:title>
     </cc:Agent>
    </dc:creator>
   </cc:Work>
  </rdf:RDF>
 </metadata>
 <defs>
  <style type="text/css">*{stroke-linejoin: round; stroke-linecap: butt}</style>
 </defs>
 <g id="figure_1">
  <g id="patch_1">
   <path d="M 0 55.44 
L 223.2 55.44 
L 223.2 0 
L 0 0 
L 0 55.44 
z
" style="fill: none"/>
  </g>
  <g id="axes_1">
   <g id="line2d_1">
    <path d="M 10.145455 52.92 
L 11.889659 52.827112 
L 12.664861 52.753278 
L 13.246262 52.743751 
L 14.602865 52.581793 
L 15.378067 52.49605 
L 16.63777 52.362673 
L 18.285074 52.05781 
L 20.319979 51.848217 
L 21.482782 51.63386 
L 26.812295 49.818975 
L 28.265798 49.366444 
L 30.203803 48.971075 
L 30.882105 48.551889 
L 33.498411 46.677459 
L 34.273613 46.43214 
L 34.855014 46.434522 
L 35.436416 46.424995 
L 35.920917 46.148713 
L 37.665121 44.969752 
L 38.731024 44.438624 
L 41.056629 43.121522 
L 42.122532 42.287913 
L 43.091534 41.65437 
L 44.738838 40.773126 
L 45.61094 40.208654 
L 46.289242 40.137201 
L 46.773743 39.944281 
L 50.940453 37.188607 
L 52.103256 36.762276 
L 53.459859 35.642858 
L 56.173066 33.57789 
L 57.529669 32.637102 
L 58.207971 32.375111 
L 58.692472 32.520397 
L 59.467674 32.799061 
L 60.824277 32.52516 
L 63.052983 31.477195 
L 64.409586 30.703129 
L 65.766189 30.121985 
L 68.673196 28.957314 
L 74.29341 26.770877 
L 76.715916 25.872961 
L 77.588018 25.549044 
L 84.952436 22.536143 
L 86.405939 21.971671 
L 87.181141 21.673953 
L 90.76645 20.204419 
L 91.638552 19.775706 
L 92.898255 19.211234 
L 94.836259 18.482421 
L 110.630998 10.987086 
L 115.379109 8.417188 
L 117.898515 7.254899 
L 120.224121 5.878253 
L 121.096223 5.437631 
L 124.10013 4.442064 
L 127.588539 3.494132 
L 129.526543 2.536672 
L 130.204845 2.562871 
L 131.076947 2.777228 
L 131.755249 3.189269 
L 135.243657 5.311399 
L 137.084762 5.752021 
L 137.763063 5.861581 
L 138.635165 6.040212 
L 141.057671 6.445108 
L 143.092576 6.792842 
L 144.158479 6.485597 
L 144.933681 6.123573 
L 145.321282 6.211697 
L 146.774785 6.850003 
L 147.743787 6.895256 
L 148.61589 6.69519 
L 149.294191 6.302203 
L 150.263194 5.680569 
L 151.232196 5.351889 
L 152.491899 5.294727 
L 153.364001 5.318544 
L 153.945402 5.092279 
L 154.429904 4.923176 
L 154.914405 4.982719 
L 156.464809 5.744876 
L 157.04621 6.326021 
L 157.724512 7.052451 
L 159.371816 8.221886 
L 160.050117 8.56962 
L 160.631519 9.33654 
L 162.763324 12.478055 
L 164.119927 13.971406 
L 165.47653 15.791055 
L 166.542433 17.101012 
L 169.54634 21.414343 
L 170.515343 22.891022 
L 173.325449 26.530321 
L 177.976661 31.208058 
L 179.139463 32.958637 
L 180.399166 34.34481 
L 182.627872 36.197804 
L 183.499974 36.52172 
L 184.856577 37.798333 
L 186.988382 40.003824 
L 187.763584 40.542097 
L 189.604689 41.744876 
L 190.767492 42.683282 
L 191.348893 42.830949 
L 192.027195 42.911929 
L 192.511696 43.37875 
L 193.383798 44.376699 
L 194.740401 45.377029 
L 196.193905 45.977228 
L 197.453608 46.52741 
L 199.779213 47.549176 
L 200.457515 47.832603 
L 201.135817 48.068396 
L 201.814118 48.451856 
L 202.880021 48.832934 
L 204.721125 49.097307 
L 205.980828 49.163996 
L 209.469237 49.947588 
L 210.535139 50.273887 
L 211.601042 50.540642 
L 212.085543 50.704982 
L 212.763845 50.878849 
L 213.054545 50.845504 
L 213.054545 50.845504 
" clip-path="url(#p85d5fcab1f)" style="fill: none; stroke: #1f77b4; stroke-opacity: 0.9; stroke-width: 2.5; stroke-linecap: square"/>
   </g>
   <g id="line2d_2">
    <path d="M 10.145455 52.92 
L 213.054545 52.92 
L 213.054545 52.92 
" clip-path="url(#p85d5fcab1f)" style="fill: none; stroke-dasharray: 2,3.3; stroke-dashoffset: 0; stroke: #8d99ae; stroke-opacity: 0.7; stroke-width: 2"/>
   </g>
  </g>
 </g>
 <defs>
  <clipPath id="p85d5fcab1f">
   <rect x="0" y="-0" width="223.2" height="55.44"/>
  </clipPath>
 </defs>
</svg>
