<?xml version="1.0" encoding="utf-8" standalone="no"?>
<!DOCTYPE svg PUBLIC "-//W3C//DTD SVG 1.1//EN"
  "http://www.w3.org/Graphics/SVG/1.1/DTD/svg11.dtd">
<svg xmlns:xlink="http://www.w3.org/1999/xlink" width="223.2pt" height="55.44pt" viewBox="0 0 223.2 55.44" xmlns="http://www.w3.org/2000/svg" version="1.1">
 <metadata>
  <rdf:RDF xmlns:dc="http://purl.org/dc/elements/1.1/" xmlns:cc="http://creativecommons.org/ns#" xmlns:rdf="http://www.w3.org/1999/02/22-rdf-syntax-ns#">
   <cc:Work>
    <dc:type rdf:resource="http://purl.org/dc/dcmitype/StillImage"/>
    <dc:date>2026-05-06T16:20:39.484547</dc:date>
    <dc:format>image/svg+xml</dc:format>
    <dc:creator>
     <cc:Agent>
      <dc:title>Matplotlib v3.10.8, https://matplotlib.org/</dc:title>
     </cc:Agent>
    </dc:creator>
   </cc:Work>
  </rdf:RDF>
 </metadata>
 <defs>
  <style type="text/css">*{stroke-linejoin: round; stroke-linecap: butt}</style>
 </defs>
 <g id="figure_1">
  <g id="patch_1">
   <path d="M 0 55.44 
L 223.2 55.44 
L 223.2 0 
L 0 0 
L 0 55.44 
z
" style="fill: none"/>
  </g>
  <g id="axes_1">
   <g id="line2d_1">
    <path d="M 10.285973 52.741499 
L 12.253236 52.593774 
L 15.20413 52.258932 
L 19.70073 50.462845 
L 21.386955 49.443544 
L 22.651624 49.112394 
L 23.073181 48.755392 
L 24.618887 45.679024 
L 25.743037 44.75082 
L 26.305112 44.37166 
L 26.867187 43.397907 
L 27.569781 41.463944 
L 28.131856 40.023627 
L 28.83445 39.197599 
L 29.537044 38.324792 
L 30.239637 36.12 
L 31.08275 33.778562 
L 31.785344 32.447808 
L 32.066381 32.238532 
L 32.487938 32.158514 
L 32.768975 32.325935 
L 33.471569 32.833124 
L 33.752606 32.726023 
L 34.314681 32.037872 
L 35.157794 31.012416 
L 36.422463 30.430134 
L 37.406094 29.719824 
L 38.249207 29.471154 
L 38.670763 29.008283 
L 39.232838 28.261042 
L 39.654394 28.142862 
L 40.075951 28.077617 
L 40.638026 27.3353 
L 41.200101 26.560976 
L 41.481138 26.485883 
L 42.324251 26.786256 
L 42.605288 26.666845 
L 43.026845 26.106722 
L 43.869957 24.886762 
L 44.291513 24.592543 
L 45.415664 24.293401 
L 46.118257 23.980717 
L 46.539814 23.752974 
L 47.101889 23.029123 
L 47.945001 21.700831 
L 48.647595 21.192412 
L 50.33382 19.904744 
L 51.036414 19.680695 
L 51.45797 19.87643 
L 51.739008 20.009382 
L 52.160564 19.656074 
L 53.144195 18.608459 
L 54.268346 18.299468 
L 54.689902 18.186212 
L 55.673533 18.313009 
L 55.954571 18.06557 
L 57.359758 16.198083 
L 58.062352 14.942423 
L 58.764946 13.651062 
L 59.327021 13.216505 
L 59.748577 13.12787 
L 60.310652 13.058932 
L 60.732209 12.565285 
L 61.294284 11.509053 
L 61.71584 10.644863 
L 62.137396 10.351875 
L 63.121027 10.302634 
L 63.542584 9.807756 
L 64.385696 8.56933 
L 64.807253 8.360053 
L 65.790884 8.121231 
L 66.493478 7.636201 
L 68.320222 5.724397 
L 68.882297 5.298457 
L 69.58489 4.377639 
L 70.287484 3.216769 
L 70.849559 2.70958 
L 71.692672 2.52 
L 72.395266 2.731739 
L 72.676303 3.118285 
L 74.362528 6.610745 
L 75.627197 7.797468 
L 75.908235 7.711295 
L 76.751347 7.244731 
L 77.172904 7.273045 
L 78.297054 8.112614 
L 79.280685 8.9965 
L 79.84276 9.145456 
L 80.685873 9.128222 
L 81.388466 8.8894 
L 81.950541 9.074056 
L 82.653135 9.555392 
L 83.21521 9.541851 
L 83.917804 9.460602 
L 84.479879 9.499996 
L 85.041954 9.488916 
L 85.744548 9.768362 
L 86.306623 10.024419 
L 87.430773 9.918549 
L 88.835961 9.775749 
L 89.257517 10.079815 
L 89.819592 10.713801 
L 90.803223 12.550512 
L 91.22478 12.9149 
L 91.365298 12.954293 
L 92.208411 14.042532 
L 92.770486 14.889488 
L 93.051524 14.744225 
L 93.47308 14.480783 
L 93.754117 14.527562 
L 93.894636 14.648204 
L 94.316192 16.035586 
L 94.737749 17.421737 
L 95.159305 18.05326 
L 95.299824 18.192368 
L 95.580861 17.924001 
L 96.002418 17.54361 
L 96.564493 18.106195 
L 96.986049 18.720484 
L 97.829161 20.088169 
L 98.391236 20.109097 
L 98.812793 20.20758 
L 99.09383 20.517802 
L 100.077462 22.973726 
L 100.358499 23.06113 
L 100.499018 23.040202 
L 101.34213 22.267109 
L 101.904205 22.299116 
L 102.185243 22.496083 
L 102.747318 22.963878 
L 103.168874 23.288872 
L 103.871468 24.082893 
L 104.574062 24.546995 
L 105.136137 24.975397 
L 105.417175 25.316395 
L 106.260287 26.594214 
L 107.805993 28.758382 
L 108.22755 29.388674 
L 109.492219 30.547083 
L 110.47585 31.370648 
L 112.162075 32.536443 
L 113.707781 33.199974 
L 114.410375 33.613603 
L 116.0966 34.940664 
L 117.080232 35.918109 
L 118.485419 36.561943 
L 119.469051 37.255019 
L 119.890607 37.263636 
L 120.452682 37.075287 
L 121.295795 36.124924 
L 121.717351 35.324748 
L 122.279426 34.26113 
L 122.841501 33.629607 
L 123.263057 33.352623 
L 123.965651 33.049787 
L 124.949282 32.243456 
L 125.370839 32.014482 
L 126.213951 31.565153 
L 127.338101 30.600018 
L 128.181214 30.33042 
L 129.024326 30.414131 
L 129.305364 30.22455 
L 130.570033 28.955348 
L 131.132108 28.74361 
L 131.553664 28.373067 
L 133.801964 26.105491 
L 135.207152 25.357019 
L 135.628708 25.459195 
L 136.612339 26.76656 
L 138.579602 29.424375 
L 139.563233 30.35381 
L 140.827902 31.155217 
L 141.811534 31.592236 
L 142.654646 32.600457 
L 143.216721 33.321847 
L 143.778796 33.449875 
L 144.340871 33.352623 
L 144.621909 33.669 
L 145.60554 35.318593 
L 145.886578 35.505711 
L 146.308134 35.552491 
L 147.572803 36.051062 
L 149.259028 35.461394 
L 149.821103 34.780629 
L 150.945253 33.326771 
L 151.366809 33.108877 
L 152.069403 33.051018 
L 152.490959 32.977155 
L 152.912516 32.727254 
L 154.598741 30.707118 
L 155.441853 29.40714 
L 156.566004 27.86834 
L 158.673785 25.691862 
L 159.23586 24.670099 
L 160.36001 22.187092 
L 160.641048 21.928573 
L 161.48416 21.421385 
L 161.765198 21.113625 
L 162.186754 20.342994 
L 162.60831 19.579749 
L 163.310904 18.785729 
L 163.73246 18.19483 
L 164.154017 17.192763 
L 165.418685 14.067153 
L 165.980761 13.285443 
L 166.261798 13.129101 
L 166.683354 13.312526 
L 167.104911 13.734772 
L 167.807504 14.770077 
L 168.229061 15.655195 
L 171.039436 24.250314 
L 171.601511 26.043939 
L 172.86618 29.733366 
L 173.287736 30.512614 
L 173.709292 30.796984 
L 174.271367 30.846226 
L 174.552405 30.859767 
L 174.973961 31.288169 
L 175.254999 31.797819 
L 175.957593 33.867197 
L 176.660186 35.782695 
L 177.222261 36.502853 
L 177.643818 36.619802 
L 179.61108 36.481926 
L 180.73523 35.682981 
L 181.578343 35.197951 
L 182.140418 34.541807 
L 182.983531 33.618527 
L 183.967162 32.643544 
L 184.810274 31.593467 
L 185.231831 31.386652 
L 185.512868 31.485135 
L 185.934425 32.152359 
L 187.199093 34.724001 
L 188.885319 35.83563 
L 189.166356 36.026441 
L 190.571544 37.385509 
L 190.9931 37.556623 
L 191.555175 37.325188 
L 192.11725 36.847545 
L 192.819844 36.150776 
L 193.100881 36.021517 
L 193.381919 36.075683 
L 193.522438 36.174166 
L 194.084513 37.54062 
L 194.787107 39.916527 
L 195.208663 41.370385 
L 196.332813 44.275639 
L 197.175925 45.523913 
L 198.159557 46.313009 
L 198.581113 46.518593 
L 199.845782 46.335168 
L 200.126819 46.612152 
L 200.829413 47.846885 
L 201.532007 48.933893 
L 201.953563 49.180101 
L 202.656157 49.497709 
L 203.49927 50.289268 
L 204.201864 50.963878 
L 205.326014 51.802216 
L 206.169126 52.182607 
L 207.574314 52.473133 
L 210.525208 52.550688 
L 212.773508 52.805513 
L 212.773508 52.805513 
" clip-path="url(#pa5d0b011fb)" style="fill: none; stroke: #1f77b4; stroke-opacity: 0.9; stroke-width: 2.5; stroke-linecap: square"/>
   </g>
   <g id="line2d_2">
    <path d="M 10.145455 52.92 
L 213.054545 52.92 
L 213.054545 52.92 
" clip-path="url(#pa5d0b011fb)" style="fill: none; stroke-dasharray: 2,3.3; stroke-dashoffset: 0; stroke: #8d99ae; stroke-opacity: 0.7; stroke-width: 2"/>
   </g>
  </g>
 </g>
 <defs>
  <clipPath id="pa5d0b011fb">
   <rect x="0" y="-0" width="223.2" height="55.44"/>
  </clipPath>
 </defs>
</svg>
