<?xml version="1.0" encoding="utf-8" standalone="no"?>
<!DOCTYPE svg PUBLIC "-//W3C//DTD SVG 1.1//EN"
  "http://www.w3.org/Graphics/SVG/1.1/DTD/svg11.dtd">
<svg xmlns:xlink="http://www.w3.org/1999/xlink" width="223.2pt" height="55.44pt" viewBox="0 0 223.2 55.44" xmlns="http://www.w3.org/2000/svg" version="1.1">
 <metadata>
  <rdf:RDF xmlns:dc="http://purl.org/dc/elements/1.1/" xmlns:cc="http://creativecommons.org/ns#" xmlns:rdf="http://www.w3.org/1999/02/22-rdf-syntax-ns#">
   <cc:Work>
    <dc:type rdf:resource="http://purl.org/dc/dcmitype/StillImage"/>
    <dc:date>2026-06-15T11:24:14.021512</dc:date>
    <dc:format>image/svg+xml</dc:format>
    <dc:creator>
     <cc:Agent>
      <dc:title>Matplotlib v3.10.8, https://matplotlib.org/</dc:title>
     </cc:Agent>
    </dc:creator>
   </cc:Work>
  </rdf:RDF>
 </metadata>
 <defs>
  <style type="text/css">*{stroke-linejoin: round; stroke-linecap: butt}</style>
 </defs>
 <g id="figure_1">
  <g id="patch_1">
   <path d="M 0 55.44 
L 223.2 55.44 
L 223.2 0 
L 0 0 
L 0 55.44 
z
" style="fill: none"/>
  </g>
  <g id="axes_1">
   <g id="line2d_1">
    <path d="M 10.145455 52.864068 
L 11.604233 52.769917 
L 12.159958 52.339243 
L 13.063011 51.759418 
L 13.479805 51.598149 
L 13.757667 51.296118 
L 14.104995 50.472059 
L 15.424842 46.313541 
L 15.980567 44.265511 
L 16.188964 44.03992 
L 16.814155 43.804075 
L 17.092017 43.816194 
L 17.508811 43.855346 
L 17.786673 43.994243 
L 18.064536 44.061361 
L 18.272933 43.970006 
L 18.48133 43.668907 
L 18.828658 43.291368 
L 19.037055 43.246623 
L 20.426367 43.280182 
L 20.634764 43.550518 
L 20.912626 44.226359 
L 21.398886 45.680582 
L 21.468351 45.668463 
L 22.024076 44.573135 
L 22.093542 44.574999 
L 22.232473 44.987029 
L 22.510336 45.97329 
L 22.788198 46.041341 
L 23.066061 46.061849 
L 23.274458 46.272525 
L 23.830183 46.991246 
L 24.108045 46.846756 
L 24.455373 46.438455 
L 24.872167 46.310745 
L 25.011098 46.217525 
L 25.427892 45.276009 
L 26.817205 40.277585 
L 27.511861 39.232596 
L 27.720258 39.222342 
L 27.99812 39.622253 
L 29.665295 44.200257 
L 30.290486 46.834638 
L 30.568348 47.083533 
L 30.776745 47.08633 
L 31.193539 46.979128 
L 32.235523 46.901756 
L 32.791248 46.701334 
L 33.208042 46.617436 
L 33.624836 46.647267 
L 33.833233 46.348032 
L 34.180561 45.442872 
L 34.597355 44.387628 
L 35.917201 42.223074 
L 36.403461 41.67308 
L 36.820255 40.921731 
L 37.862239 38.519467 
L 39.321017 34.807471 
L 39.807276 34.002055 
L 40.154605 33.579771 
L 40.363001 33.249775 
L 40.988192 32.108769 
L 41.33552 32.023007 
L 41.682848 31.436657 
L 42.308039 30.056078 
L 42.585901 29.864046 
L 43.488955 29.724217 
L 43.836283 29.754979 
L 44.392008 29.872436 
L 46.198114 29.682268 
L 46.545442 29.184477 
L 46.962236 28.656855 
L 47.448495 28.318469 
L 47.795823 28.250418 
L 48.073686 28.207537 
L 48.421014 28.082623 
L 48.698876 28.16186 
L 49.11567 28.737956 
L 50.71338 31.548521 
L 51.477501 32.944015 
L 51.755364 33.056811 
L 52.172158 32.989693 
L 52.588951 32.363258 
L 52.93628 31.927924 
L 53.214142 31.928856 
L 53.630936 32.59351 
L 54.603455 35.295941 
L 54.881317 35.701445 
L 55.437042 36.566521 
L 55.853836 36.546013 
L 55.992767 36.530165 
L 56.201164 36.794908 
L 57.034751 38.194132 
L 59.466048 39.753692 
L 60.438567 39.804031 
L 61.82788 39.961571 
L 62.45307 40.436058 
L 63.495055 40.280382 
L 64.953833 39.533694 
L 65.509558 38.74599 
L 65.995817 38.226758 
L 66.621008 37.873457 
L 67.454595 37.655323 
L 68.49658 37.324395 
L 69.330167 37.051262 
L 69.885892 36.853637 
L 70.650014 36.778129 
L 70.650014 36.778129 
" clip-path="url(#pf199a96bb6)" style="fill: none; stroke: #1f77b4; stroke-opacity: 0.9; stroke-width: 2.5; stroke-linecap: square"/>
   </g>
   <g id="line2d_2">
    <path d="M 70.71948 36.75296 
L 70.788945 36.726858 
L 70.858411 36.702621 
" clip-path="url(#pf199a96bb6)" style="fill: none; stroke: #d2691e; stroke-opacity: 0.9; stroke-width: 2.5; stroke-linecap: square"/>
   </g>
   <g id="line2d_3">
    <path d="M 70.927877 36.683045 
L 71.691998 36.270083 
L 76.762989 33.709346 
L 77.38818 33.397994 
L 78.49963 33.265622 
L 78.985889 33.117403 
L 79.541614 32.981303 
L 80.653064 32.666221 
L 81.83398 32.437834 
L 82.667567 32.048177 
L 84.195811 31.731231 
L 85.79352 31.121576 
L 86.627108 30.577175 
L 88.155352 29.977774 
L 89.058405 29.467864 
L 91.281305 28.825582 
L 92.740083 27.905507 
L 93.712602 27.341529 
L 94.268327 26.726281 
L 94.754586 26.221964 
L 95.727105 25.96095 
L 96.491227 25.668241 
L 96.699623 25.293499 
L 97.811073 21.8015 
L 98.366798 20.822697 
L 99.061455 19.728301 
L 100.381302 18.752294 
L 100.520233 18.697294 
L 100.798095 18.251706 
L 101.979011 15.856899 
L 102.46527 14.712165 
L 103.785117 12.904641 
L 103.993514 12.963369 
L 104.340842 13.154469 
L 104.68817 13.087351 
L 104.896567 13.009047 
L 105.730155 12.833794 
L 107.050002 12.34346 
L 107.744658 12.580237 
L 108.50878 12.818879 
L 108.995039 12.648288 
L 109.272902 12.829133 
L 111.217939 14.459541 
L 111.704198 14.655301 
L 112.46832 14.656233 
L 113.162977 13.961749 
L 113.788167 13.957088 
L 114.135495 14.222763 
L 115.733205 15.892323 
L 116.080533 16.313674 
L 116.775189 17.007227 
L 117.122517 17.504086 
L 117.469845 17.737135 
L 117.747708 17.796795 
L 118.164502 18.093233 
L 118.650761 18.55933 
L 118.928623 18.645092 
L 119.484348 18.715938 
L 120.179005 19.429999 
L 120.387402 19.354491 
L 120.873661 18.921021 
L 121.151523 18.996529 
L 121.498852 19.203476 
L 122.262973 19.168052 
L 122.47137 19.116782 
L 123.304958 18.520178 
L 123.791217 18.602211 
L 124.208011 18.577974 
L 124.555339 18.574245 
L 125.18053 18.592889 
L 125.597323 18.585431 
L 126.222514 18.631109 
L 126.500377 18.499669 
L 126.986636 18.204164 
L 127.264498 18.318824 
L 127.820223 18.639498 
L 128.792742 18.63577 
L 129.556864 18.511788 
L 130.390452 17.707304 
L 130.876711 16.932651 
L 131.293505 16.762992 
L 131.779764 16.372403 
L 131.988161 16.100202 
L 133.446939 13.500313 
L 134.211061 13.096673 
L 134.69732 13.380992 
L 135.461442 14.068019 
L 135.878236 14.528523 
L 136.29503 14.596573 
L 136.503427 14.700979 
L 137.198083 15.22394 
L 138.378998 15.43648 
L 139.073655 15.827069 
L 139.559914 15.632241 
L 140.185105 15.396396 
L 140.393502 15.550208 
L 140.74083 15.779527 
L 141.574417 15.677918 
L 141.921745 15.479361 
L 142.269073 14.989959 
L 142.685867 14.529455 
L 142.96373 14.573268 
L 143.519455 14.67581 
L 144.005714 14.40827 
L 144.422508 14.184543 
L 144.630905 14.302932 
L 145.395027 15.256566 
L 146.159148 16.657654 
L 146.437011 16.645535 
L 147.340064 16.091812 
L 147.548461 15.812154 
L 148.03472 14.39149 
L 148.590445 12.726592 
L 149.007239 11.975244 
L 149.771361 10.76712 
L 150.049223 10.490259 
L 150.396552 9.975687 
L 150.882811 9.140442 
L 151.438536 8.591379 
L 151.85533 8.133672 
L 152.48052 7.395375 
L 152.48052 7.395375 
" clip-path="url(#pf199a96bb6)" style="fill: none; stroke: #1f77b4; stroke-opacity: 0.9; stroke-width: 2.5; stroke-linecap: square"/>
   </g>
   <g id="line2d_4">
    <path d="M 152.549986 7.331053 
L 152.827848 6.934871 
L 153.730902 5.418191 
L 154.356092 5.123618 
L 154.772886 3.538888 
L 155.050748 2.653304 
L 155.259145 2.532119 
L 155.537008 3.467109 
L 156.578992 7.603254 
L 157.759908 11.454147 
L 157.968305 11.58279 
L 158.176702 11.347877 
L 158.940824 9.844248 
L 159.427083 8.953071 
L 160.26067 8.461804 
L 160.538533 8.176553 
L 160.816395 8.397483 
L 161.094258 9.327813 
L 161.719449 11.409402 
L 162.622502 13.869462 
L 162.96983 15.19877 
L 163.456089 16.855279 
L 163.872883 16.900024 
L 164.011814 17.050108 
L 164.289677 18.201367 
L 164.984333 21.393199 
L 165.678989 24.296984 
L 165.678989 24.296984 
" clip-path="url(#pf199a96bb6)" style="fill: none; stroke: #d2691e; stroke-opacity: 0.9; stroke-width: 2.5; stroke-linecap: square"/>
   </g>
   <g id="line2d_5">
    <path d="M 165.748455 24.428423 
L 165.81792 24.556134 
L 165.887386 24.701556 
L 165.956852 24.835792 
L 166.026317 24.943926 
" clip-path="url(#pf199a96bb6)" style="fill: none; stroke: #1f77b4; stroke-opacity: 0.9; stroke-width: 2.5; stroke-linecap: square"/>
   </g>
   <g id="line2d_6">
    <path d="M 166.095783 25.028756 
L 166.443111 25.535869 
L 167.554561 27.579239 
L 168.52708 28.513297 
L 168.874408 28.730498 
L 169.63853 29.350407 
L 170.333186 29.656167 
L 171.653033 31.211999 
L 172.625552 32.184277 
L 173.042345 32.72961 
L 174.08433 33.258164 
L 174.501124 33.6385 
L 174.70952 33.550873 
L 175.126314 33.159352 
L 175.543108 33.43901 
L 176.168299 34.058919 
L 176.862955 35.017215 
L 177.349214 35.569073 
L 178.04387 36.750163 
L 178.669061 37.056855 
L 178.946924 37.544392 
L 178.946924 37.544392 
" clip-path="url(#pf199a96bb6)" style="fill: none; stroke: #d2691e; stroke-opacity: 0.9; stroke-width: 2.5; stroke-linecap: square"/>
   </g>
   <g id="line2d_7">
    <path d="M 179.016389 37.702865 
L 179.085855 37.867864 
L 179.15532 38.021676 
L 179.224786 38.131675 
L 179.294252 38.134471 
L 179.363717 38.105573 
L 179.433183 38.068285 
L 179.502649 38.02354 
L 179.572114 37.936846 
L 179.64158 37.804475 
L 179.711045 37.632951 
L 179.780511 37.417614 
L 179.849977 37.206938 
L 179.919442 37.034482 
L 179.988908 36.933805 
L 180.058374 36.864823 
L 180.127839 36.816349 
L 180.197305 36.762282 
L 180.26677 36.699825 
" clip-path="url(#pf199a96bb6)" style="fill: none; stroke: #1f77b4; stroke-opacity: 0.9; stroke-width: 2.5; stroke-linecap: square"/>
   </g>
   <g id="line2d_8">
    <path d="M 180.336236 36.640164 
L 180.961427 36.317625 
L 181.169824 36.353981 
L 181.517152 36.544148 
L 181.86448 36.689571 
L 182.48967 37.16965 
L 182.97593 36.806095 
L 183.392724 37.277785 
L 184.295777 38.581924 
L 185.268295 39.584033 
L 185.476692 39.633439 
L 185.685089 39.672591 
L 185.82402 39.675388 
L 186.727074 40.425804 
L 187.143867 40.436058 
L 187.560661 40.529278 
L 187.838524 40.542328 
L 188.324783 40.643005 
L 189.297302 41.26105 
L 189.64463 41.507149 
L 189.922492 41.373845 
L 190.686614 40.803343 
L 191.103408 41.090458 
L 191.86753 41.822231 
L 192.214858 41.742994 
L 192.770583 41.365456 
L 193.187377 41.185542 
L 193.882033 41.306727 
L 194.507224 40.567498 
L 195.062949 40.486397 
L 195.410277 40.703598 
L 196.243864 42.460783 
L 196.730124 43.516027 
L 196.93852 43.464756 
L 197.146917 43.318402 
L 197.911039 43.553315 
L 198.188902 43.454502 
L 199.578214 43.337046 
L 200.342336 43.793821 
L 201.036992 43.598992 
L 201.453786 43.731364 
L 202.287374 43.887972 
L 202.565236 43.81899 
L 202.98203 43.967209 
L 203.259892 43.690347 
L 203.398824 43.826448 
L 203.676686 43.754669 
L 203.954549 43.770516 
L 204.162945 43.215861 
L 204.301877 43.116116 
L 204.579739 43.183234 
L 204.788136 42.428157 
L 204.857602 42.491546 
L 204.996533 42.671459 
L 205.20493 42.673324 
L 205.343861 43.258742 
L 205.552258 44.052039 
L 205.691189 44.054835 
L 205.899586 44.39695 
L 206.038517 44.406272 
L 206.107983 44.559152 
L 206.107983 44.559152 
" clip-path="url(#pf199a96bb6)" style="fill: none; stroke: #d2691e; stroke-opacity: 0.9; stroke-width: 2.5; stroke-linecap: square"/>
   </g>
   <g id="line2d_9">
    <path d="M 206.177449 44.862115 
L 206.246914 45.24245 
L 206.31638 45.57804 
L 206.385845 45.783123 
L 206.455311 45.896851 
L 206.524777 46.032951 
L 206.594242 46.221254 
L 206.663708 46.429133 
L 206.733174 46.625826 
L 206.802639 46.741418 
L 206.872105 46.763791 
L 206.94157 46.781503 
L 207.011036 46.851417 
L 207.080502 47.029466 
L 207.149967 47.297006 
L 207.219433 47.567342 
L 207.288899 47.845136 
L 207.358364 48.151828 
L 207.42783 48.513519 
L 207.497295 48.860295 
L 207.566761 49.140886 
L 207.636227 49.330121 
L 207.705692 49.513763 
L 207.775158 49.600457 
L 207.844624 49.664779 
L 207.914089 49.689016 
L 207.983555 49.675965 
L 208.05302 49.602322 
L 208.122486 49.476475 
L 208.191952 49.347833 
L 208.261417 49.263935 
L 208.330883 49.2658 
L 208.400349 49.273257 
L 208.469814 49.339443 
L 208.53928 49.416815 
L 208.608745 49.50817 
L 208.678211 49.610711 
L 208.747677 49.725371 
L 208.817142 49.811133 
L 208.886608 49.932318 
L 208.956074 50.081469 
L 209.025539 50.235281 
L 209.095005 50.378839 
L 209.16447 50.500024 
L 209.233936 50.595108 
L 209.303402 50.694853 
L 209.372867 50.808581 
L 209.442333 50.909258 
L 209.511799 51.004341 
L 209.581264 51.090103 
L 209.65073 51.161882 
L 209.720195 51.210356 
L 209.789661 51.204763 
L 209.859127 51.242051 
L 209.928592 51.298915 
L 209.998058 51.346457 
L 210.067524 51.374422 
L 210.136989 51.399592 
L 210.206455 51.445269 
L 210.27592 51.476032 
L 210.345386 51.507726 
L 210.414852 51.558065 
L 210.484317 51.645691 
L 210.553783 51.682979 
L 210.623249 51.702555 
L 210.692714 51.713741 
L 210.76218 51.721199 
L 210.831645 51.73052 
L 210.901111 51.714673 
L 210.970577 51.690436 
L 211.040042 51.661538 
L 211.109508 51.627979 
L 211.178974 51.60281 
L 211.248439 51.590691 
L 211.317905 51.600013 
L 211.38737 51.621454 
L 211.456836 51.651284 
L 211.526302 51.691368 
L 211.595767 51.733317 
L 211.665233 51.77713 
L 211.734699 51.818147 
L 211.804164 51.851706 
L 211.87363 51.872214 
L 211.943095 51.878739 
L 212.012561 51.882468 
L 212.082027 51.878739 
L 212.151492 51.847977 
L 212.220958 51.763147 
L 212.290424 51.741707 
L 212.359889 51.721199 
L 212.429355 51.715605 
L 212.49882 51.71747 
L 212.568286 51.731453 
L 212.637752 51.778062 
L 212.707217 51.830265 
L 212.776683 51.895519 
L 212.846149 51.981281 
L 212.915614 52.111788 
L 212.98508 52.177041 
L 213.054545 52.237634 
" clip-path="url(#pf199a96bb6)" style="fill: none; stroke: #1f77b4; stroke-opacity: 0.9; stroke-width: 2.5; stroke-linecap: square"/>
   </g>
   <g id="line2d_10">
    <path d="M 10.145455 52.92 
L 213.054545 52.92 
L 213.054545 52.92 
" clip-path="url(#pf199a96bb6)" style="fill: none; stroke-dasharray: 2,3.3; stroke-dashoffset: 0; stroke: #8d99ae; stroke-opacity: 0.7; stroke-width: 2"/>
   </g>
  </g>
 </g>
 <defs>
  <clipPath id="pf199a96bb6">
   <rect x="0" y="-0" width="223.2" height="55.44"/>
  </clipPath>
 </defs>
</svg>
