<?xml version="1.0" encoding="utf-8" standalone="no"?>
<!DOCTYPE svg PUBLIC "-//W3C//DTD SVG 1.1//EN"
  "http://www.w3.org/Graphics/SVG/1.1/DTD/svg11.dtd">
<svg xmlns:xlink="http://www.w3.org/1999/xlink" width="223.2pt" height="55.44pt" viewBox="0 0 223.2 55.44" xmlns="http://www.w3.org/2000/svg" version="1.1">
 <metadata>
  <rdf:RDF xmlns:dc="http://purl.org/dc/elements/1.1/" xmlns:cc="http://creativecommons.org/ns#" xmlns:rdf="http://www.w3.org/1999/02/22-rdf-syntax-ns#">
   <cc:Work>
    <dc:type rdf:resource="http://purl.org/dc/dcmitype/StillImage"/>
    <dc:date>2026-05-27T12:08:54.373249</dc:date>
    <dc:format>image/svg+xml</dc:format>
    <dc:creator>
     <cc:Agent>
      <dc:title>Matplotlib v3.10.8, https://matplotlib.org/</dc:title>
     </cc:Agent>
    </dc:creator>
   </cc:Work>
  </rdf:RDF>
 </metadata>
 <defs>
  <style type="text/css">*{stroke-linejoin: round; stroke-linecap: butt}</style>
 </defs>
 <g id="figure_1">
  <g id="patch_1">
   <path d="M 0 55.44 
L 223.2 55.44 
L 223.2 0 
L 0 0 
L 0 55.44 
z
" style="fill: none"/>
  </g>
  <g id="axes_1">
   <g id="line2d_1">
    <path d="M 10.145455 46.558634 
L 10.461021 46.927408 
L 11.249936 47.388377 
L 12.512201 48.23195 
L 14.405599 49.843035 
L 15.98343 50.299394 
L 16.930129 50.700436 
L 17.719044 50.914787 
L 18.192394 50.790325 
L 18.823526 50.548317 
L 20.243574 50.320137 
L 20.874707 50.008983 
L 21.663622 50.015898 
L 22.294755 49.926009 
L 23.241453 49.013291 
L 24.661501 44.567249 
L 24.819285 44.214608 
L 24.977068 44.193865 
L 25.6082 45.141155 
L 26.712682 47.906967 
L 26.870465 48.190462 
L 27.028248 47.865479 
L 27.501598 45.417736 
L 28.606079 39.810054 
L 28.763863 39.858455 
L 29.079429 40.390874 
L 29.552778 41.704634 
L 30.183911 43.799737 
L 30.499477 44.173121 
L 30.65726 44.221523 
L 31.288392 43.689104 
L 31.446176 43.737506 
L 31.761742 44.235352 
L 32.235091 45.507625 
L 32.866224 47.754847 
L 33.18179 48.21812 
L 33.812922 48.411727 
L 36.179669 48.715967 
L 46.277789 50.029727 
L 46.435572 50.209505 
L 47.85562 48.688308 
L 48.013403 48.356411 
L 49.117885 48.453214 
L 49.591234 48.792026 
L 50.222367 49.573368 
L 50.853499 50.423855 
L 51.800198 51.212111 
L 52.589114 51.488693 
L 53.220246 51.516351 
L 53.535812 51.198282 
L 54.009162 50.098872 
L 54.482511 48.245779 
L 55.113643 44.601822 
L 56.060342 39.042541 
L 56.375908 38.102165 
L 56.533692 38.115994 
L 57.007041 39.090943 
L 57.795956 42.237053 
L 58.111523 43.37795 
L 59.058221 45.708147 
L 59.531571 45.562941 
L 60.00492 46.551719 
L 60.951619 49.02712 
L 61.267185 49.649428 
L 61.740534 49.787718 
L 63.002799 51.094564 
L 63.160582 50.93553 
L 63.633932 49.186154 
L 64.580631 45.742719 
L 64.896197 45.521454 
L 65.369546 45.673574 
L 65.842896 45.908668 
L 66.158462 46.046958 
L 67.57851 46.489488 
L 67.736293 46.468745 
L 68.998558 45.127326 
L 69.787473 44.795429 
L 70.10304 44.145463 
L 70.891955 41.40731 
L 71.207522 41.096156 
L 71.365305 41.213703 
L 71.680871 41.995045 
L 72.312003 44.304497 
L 72.785353 44.899147 
L 73.100919 44.91989 
L 73.416485 45.07201 
L 73.889835 45.57677 
L 75.467666 47.989941 
L 76.098798 48.390984 
L 77.834413 49.359018 
L 78.465545 49.898351 
L 78.781111 49.995154 
L 79.254461 49.684001 
L 79.570027 49.241471 
L 80.201159 47.865479 
L 80.832292 46.46183 
L 80.990075 46.226736 
L 81.147858 46.205993 
L 81.463424 46.61395 
L 82.410123 48.854257 
L 82.567906 49.089351 
L 82.725689 49.110095 
L 83.514605 48.238864 
L 83.830171 48.743625 
L 84.461304 50.237163 
L 84.934653 51.391889 
L 85.250219 51.626983 
L 86.039135 51.53018 
L 86.512484 51.391889 
L 86.82805 51.053077 
L 87.143617 50.368539 
L 87.932532 47.71336 
L 88.563665 45.749634 
L 89.037014 45.154984 
L 89.510363 44.961377 
L 90.457062 44.733198 
L 90.772628 44.007172 
L 91.245978 42.250882 
L 92.823809 31.886004 
L 93.297158 29.638782 
L 93.928291 26.223005 
L 94.243857 25.220398 
L 94.559423 24.23162 
L 94.874989 24.065672 
L 95.348339 24.390654 
L 95.821688 23.823663 
L 96.452821 24.376825 
L 96.610604 24.390654 
L 97.083953 24.681065 
L 97.399519 24.452885 
L 97.872869 23.49868 
L 98.188435 22.793398 
L 98.504001 22.454586 
L 98.661784 22.55139 
L 98.97735 23.076894 
L 99.608483 25.2688 
L 100.081832 27.405389 
L 100.239615 27.771859 
L 100.555182 27.011261 
L 101.344097 23.872065 
L 101.659664 23.892808 
L 101.817447 24.217791 
L 102.290796 27.460705 
L 103.079712 33.718354 
L 103.237495 33.946533 
L 103.553061 33.801328 
L 103.868627 34.707131 
L 104.184193 35.516131 
L 104.49976 36.41502 
L 104.973109 40.439276 
L 105.288675 43.046053 
L 106.077591 47.298488 
L 106.235374 47.409121 
L 106.393157 47.360719 
L 106.866506 46.420343 
L 107.339856 45.72889 
L 107.813205 44.747027 
L 107.970988 44.747027 
L 109.864386 47.519753 
L 110.495518 47.42295 
L 110.811084 47.616556 
L 111.442217 48.619163 
L 111.915566 49.524966 
L 113.020048 50.693522 
L 113.493397 50.963188 
L 113.651181 50.949359 
L 113.966747 50.56906 
L 114.597879 49.137753 
L 115.386795 47.132539 
L 115.544578 46.952762 
L 115.702361 47.11871 
L 116.17571 48.384069 
L 117.122409 51.129137 
L 117.280192 51.073821 
L 118.226891 49.594112 
L 118.70024 49.068607 
L 118.858023 49.013291 
L 119.17359 49.324445 
L 119.489156 49.690915 
L 120.120288 50.658949 
L 120.435855 50.93553 
L 120.593638 50.914787 
L 120.751421 50.741923 
L 121.540336 48.764368 
L 122.171469 48.169719 
L 122.329252 48.15589 
L 122.802601 49.137753 
L 123.907083 50.340881 
L 124.380433 50.078129 
L 124.538216 49.932924 
L 124.853782 49.082437 
L 126.116047 44.608736 
L 126.27383 44.539591 
L 126.589396 44.892232 
L 127.693878 46.572463 
L 128.325011 47.11871 
L 128.79836 47.768676 
L 129.113926 48.349497 
L 129.587276 49.075522 
L 130.218408 50.216419 
L 130.533974 50.257906 
L 131.007324 49.974411 
L 131.480673 49.199984 
L 131.954022 48.605334 
L 132.427372 48.404813 
L 132.585155 48.432471 
L 134.005203 50.403112 
L 134.162986 50.437684 
L 134.478552 50.292479 
L 134.951902 50.555231 
L 135.425251 50.244077 
L 135.740817 49.497308 
L 135.8986 49.421248 
L 136.056383 49.020206 
L 137.003082 42.326942 
L 137.160865 42.14025 
L 137.949781 37.403798 
L 138.42313 34.803935 
L 139.212046 30.32332 
L 139.685395 28.843611 
L 140.158745 28.138329 
L 140.632094 27.60591 
L 141.105443 27.419218 
L 141.578793 27.481449 
L 142.052142 27.820261 
L 142.525491 28.214389 
L 142.841058 27.626654 
L 144.103322 24.487458 
L 144.576672 25.828876 
L 145.523371 28.719149 
L 145.838937 28.947329 
L 146.943419 29.092534 
L 147.101202 29.092534 
L 147.416768 29.825474 
L 147.732334 30.987115 
L 148.0479 32.985414 
L 148.679033 40.59831 
L 149.467949 48.045257 
L 149.783515 49.365932 
L 150.730213 49.863778 
L 151.519129 49.870693 
L 151.834695 49.739317 
L 152.465828 48.536189 
L 153.09696 46.0193 
L 154.517008 38.261199 
L 154.990358 36.968182 
L 155.937056 34.783191 
L 156.725972 31.415816 
L 159.723851 18.630852 
L 160.67055 16.501177 
L 161.459466 11.564204 
L 162.406164 4.490641 
L 162.879514 2.831154 
L 163.19508 2.52 
L 163.510646 2.568402 
L 164.141779 3.398145 
L 164.930694 4.566701 
L 165.877393 5.424102 
L 166.824092 6.571914 
L 167.928573 7.567606 
L 168.559706 8.618614 
L 169.506405 10.285016 
L 170.137537 10.907323 
L 171.084236 11.799298 
L 172.188718 12.877964 
L 172.504284 13.064656 
L 172.81985 13.52793 
L 173.608766 15.567716 
L 174.082115 18.395758 
L 174.713248 22.060458 
L 175.186597 23.754518 
L 175.34438 23.823663 
L 175.502163 23.623142 
L 175.975513 22.55139 
L 176.291079 22.150347 
L 176.448862 22.10886 
L 176.606645 22.198749 
L 176.922211 22.793398 
L 178.026693 26.160774 
L 179.131175 32.909354 
L 179.604524 34.748618 
L 180.235657 34.990627 
L 180.551223 35.543789 
L 180.866789 36.733088 
L 181.182355 38.82819 
L 182.129054 45.784206 
L 182.602404 47.823992 
L 183.075753 48.404813 
L 184.022452 49.047864 
L 184.653584 48.916488 
L 185.284717 48.805855 
L 185.758066 49.054778 
L 186.862548 50.015898 
L 188.124813 50.548317 
L 189.229295 51.640812 
L 189.860427 52.228547 
L 190.807126 52.138658 
L 192.227174 51.440291 
L 194.278354 47.893138 
L 194.909487 46.703839 
L 195.540619 44.802343 
L 196.487318 41.77378 
L 196.960667 40.861062 
L 197.5918 40.494592 
L 197.749583 40.183438 
L 198.380715 38.03302 
L 198.538499 38.178225 
L 198.854065 39.34678 
L 199.327414 42.589694 
L 200.11633 50.105787 
L 200.431896 50.880214 
L 200.747462 50.997761 
L 201.063028 50.499915 
L 201.536378 48.15589 
L 202.325293 42.340771 
L 202.798643 39.962173 
L 203.114209 39.077113 
L 203.587558 39.616447 
L 204.376474 43.322634 
L 205.323173 48.674479 
L 205.954305 50.036642 
L 206.427654 50.375453 
L 208.794401 51.544009 
L 209.583317 51.481778 
L 210.530016 51.97271 
L 211.161148 52.235462 
L 212.107847 52.332265 
L 213.054545 52.311521 
L 213.054545 52.311521 
" clip-path="url(#p628909ace6)" style="fill: none; stroke: #1f77b4; stroke-opacity: 0.9; stroke-width: 2.5; stroke-linecap: square"/>
   </g>
   <g id="line2d_2">
    <path d="M 10.145455 52.92 
L 213.054545 52.92 
L 213.054545 52.92 
" clip-path="url(#p628909ace6)" style="fill: none; stroke-dasharray: 2,3.3; stroke-dashoffset: 0; stroke: #8d99ae; stroke-opacity: 0.7; stroke-width: 2"/>
   </g>
  </g>
 </g>
 <defs>
  <clipPath id="p628909ace6">
   <rect x="0" y="-0" width="223.2" height="55.44"/>
  </clipPath>
 </defs>
</svg>
