<?xml version="1.0" encoding="utf-8" standalone="no"?>
<!DOCTYPE svg PUBLIC "-//W3C//DTD SVG 1.1//EN"
  "http://www.w3.org/Graphics/SVG/1.1/DTD/svg11.dtd">
<svg xmlns:xlink="http://www.w3.org/1999/xlink" width="223.2pt" height="55.44pt" viewBox="0 0 223.2 55.44" xmlns="http://www.w3.org/2000/svg" version="1.1">
 <metadata>
  <rdf:RDF xmlns:dc="http://purl.org/dc/elements/1.1/" xmlns:cc="http://creativecommons.org/ns#" xmlns:rdf="http://www.w3.org/1999/02/22-rdf-syntax-ns#">
   <cc:Work>
    <dc:type rdf:resource="http://purl.org/dc/dcmitype/StillImage"/>
    <dc:date>2026-06-18T12:11:13.985271</dc:date>
    <dc:format>image/svg+xml</dc:format>
    <dc:creator>
     <cc:Agent>
      <dc:title>Matplotlib v3.10.8, https://matplotlib.org/</dc:title>
     </cc:Agent>
    </dc:creator>
   </cc:Work>
  </rdf:RDF>
 </metadata>
 <defs>
  <style type="text/css">*{stroke-linejoin: round; stroke-linecap: butt}</style>
 </defs>
 <g id="figure_1">
  <g id="patch_1">
   <path d="M 0 55.44 
L 223.2 55.44 
L 223.2 0 
L 0 0 
L 0 55.44 
z
" style="fill: none"/>
  </g>
  <g id="axes_1">
   <g id="line2d_1">
    <path d="M 10.145455 52.868881 
L 10.88681 52.763235 
L 12.147115 51.972593 
L 12.554861 51.071193 
L 12.7402 51.069489 
L 12.999674 51.635207 
L 13.296217 52.141286 
L 13.963437 52.579206 
L 14.222912 52.560463 
L 14.59359 52.252044 
L 14.964267 52.011784 
L 15.965098 52.02712 
L 16.150437 52.296347 
L 16.187505 52.26738 
L 16.409911 51.91125 
L 16.59525 51.751077 
L 16.780589 51.420507 
L 17.002996 51.156392 
L 17.521945 51.79538 
L 17.929691 51.292709 
L 18.44864 50.858197 
L 19.004657 50.934876 
L 19.301199 50.096523 
L 19.523606 49.48991 
L 19.78308 49.234315 
L 20.11669 48.985535 
L 20.264962 48.799803 
L 20.264962 48.799803 
" clip-path="url(#pf1200cbd9b)" style="fill: none; stroke: #1f77b4; stroke-opacity: 0.9; stroke-width: 2.5; stroke-linecap: square"/>
   </g>
   <g id="line2d_2">
    <path d="M 20.302029 48.757203 
L 20.339097 48.718012 
" clip-path="url(#pf1200cbd9b)" style="fill: none; stroke: #d2691e; stroke-opacity: 0.9; stroke-width: 2.5; stroke-linecap: square"/>
   </g>
   <g id="line2d_3">
    <path d="M 20.376165 48.683933 
L 20.672707 48.625998 
L 20.820979 48.525464 
L 21.63647 46.85387 
L 22.044216 47.063458 
L 22.229555 47.688815 
L 22.563165 48.999167 
L 22.896775 49.128669 
L 23.304521 50.130602 
L 24.008809 51.311453 
L 24.564825 51.739149 
L 25.15791 51.437547 
L 25.380317 51.338717 
L 26.307012 51.408579 
L 26.788893 51.323381 
L 27.048367 51.345532 
L 27.419045 51.193879 
L 28.419876 51.872059 
L 28.67935 52.207741 
L 29.198299 51.318269 
L 29.606045 51.440955 
L 30.755147 51.124016 
L 31.162892 50.440725 
L 33.275756 49.96191 
L 33.980045 49.299066 
L 34.461926 49.236019 
L 34.758468 49.050286 
L 36.389451 49.268394 
L 36.723061 49.011095 
L 36.982536 49.033246 
L 37.279078 49.029838 
L 37.612688 48.760611 
L 37.612688 48.760611 
" clip-path="url(#pf1200cbd9b)" style="fill: none; stroke: #1f77b4; stroke-opacity: 0.9; stroke-width: 2.5; stroke-linecap: square"/>
   </g>
   <g id="line2d_4">
    <path d="M 37.649756 48.740164 
L 37.686824 48.72142 
" clip-path="url(#pf1200cbd9b)" style="fill: none; stroke: #d2691e; stroke-opacity: 0.9; stroke-width: 2.5; stroke-linecap: square"/>
   </g>
   <g id="line2d_5">
    <path d="M 37.723891 48.702676 
L 38.094569 48.431745 
L 38.539383 48.133551 
L 38.798857 48.254532 
L 39.058332 48.690749 
L 39.243671 48.864553 
L 39.391942 48.796395 
L 39.725552 48.52376 
L 40.133298 48.309059 
L 40.726383 48.087543 
L 41.09706 47.710966 
L 41.282399 47.929074 
L 41.653077 48.641333 
L 41.690145 48.617478 
L 41.764281 48.467529 
L 41.986687 48.152294 
L 42.431501 48.106287 
L 42.987518 48.533983 
L 43.135789 48.302244 
L 43.395264 47.375284 
L 43.61767 47.017451 
L 43.914213 46.983371 
L 44.433162 46.601682 
L 45.100382 45.966102 
L 45.359857 46.070044 
L 45.47106 45.688355 
L 45.915873 43.858292 
L 46.397755 43.236343 
L 46.953772 40.806483 
L 47.435653 40.685501 
L 48.733026 40.400939 
L 49.214907 39.8693 
L 49.585585 39.905084 
L 50.178669 40.690613 
L 50.660551 41.822049 
L 50.920025 41.682323 
L 51.401907 41.212028 
L 51.772584 40.888274 
L 51.957923 40.603711 
L 52.625144 39.056507 
L 52.884618 38.627107 
L 53.366499 37.875656 
L 53.625974 37.936999 
L 53.848381 37.952335 
L 54.070788 37.476927 
L 54.181991 37.417289 
L 54.293194 37.712075 
L 55.738838 44.337107 
L 56.183652 44.500688 
L 57.443957 46.419358 
L 57.592228 46.368239 
L 58.037041 45.97803 
L 58.407719 45.451503 
L 58.778397 44.623374 
L 59.112007 44.441049 
L 59.445617 44.405266 
L 59.593888 44.371187 
L 60.038702 43.53113 
L 60.631787 43.420372 
L 61.187804 43.420372 
L 61.74382 43.606105 
L 62.225702 43.311318 
L 62.448108 43.16648 
L 63.226532 42.271897 
L 63.745481 41.958366 
L 64.338566 42.323016 
L 64.672176 42.411622 
L 65.4506 42.628026 
L 65.673006 42.559867 
L 66.229023 42.827391 
L 66.414362 42.605875 
L 66.822108 41.854424 
L 68.490158 41.808417 
L 68.897904 41.990742 
L 69.602192 42.046973 
L 69.97287 41.925991 
L 70.714226 41.467623 
L 71.084904 41.552822 
L 71.344378 41.578381 
L 71.640921 41.321082 
L 72.122802 40.951321 
L 72.752954 40.821819 
L 72.938293 40.808187 
L 73.123632 40.73662 
L 73.271904 40.590079 
L 73.568446 40.268029 
L 74.569276 39.659712 
L 74.865819 39.107626 
L 75.088225 38.898038 
L 75.495971 38.681634 
L 76.051988 38.41411 
L 76.645073 38.43967 
L 76.904547 38.192594 
L 77.608835 37.149765 
L 78.424327 37.650732 
L 78.795004 38.040941 
L 79.53636 37.764898 
L 79.86997 37.642212 
L 81.05614 37.326978 
L 81.315614 37.01856 
L 81.686292 36.527817 
L 81.945767 36.289261 
L 82.316445 36.088193 
L 83.539682 35.772958 
L 84.318105 34.723313 
L 84.874122 34.578476 
L 85.2448 34.624483 
L 85.652546 34.711385 
L 86.097359 34.437046 
L 86.616308 33.951415 
L 87.061122 33.651517 
L 87.505935 33.602102 
L 87.950749 32.717742 
L 88.43263 32.773973 
L 88.803308 32.780788 
L 89.062783 32.538825 
L 89.804139 31.715808 
L 90.026545 31.431245 
L 90.471359 30.730914 
L 91.249782 30.454871 
L 91.509257 29.938568 
L 92.213545 28.219263 
L 92.547155 27.660361 
L 93.029036 25.196422 
L 93.214375 24.42282 
L 93.436782 21.952064 
L 93.992799 14.848217 
L 94.14107 14.887408 
L 94.363477 15.594555 
L 95.253104 20.244687 
L 95.512578 21.316484 
L 95.734985 21.476657 
L 95.883256 21.440874 
L 95.99446 21.002954 
L 96.32807 19.334768 
L 96.550477 19.917525 
L 96.809951 20.29751 
L 97.032358 20.309438 
L 97.3289 20.081106 
L 97.551307 19.7778 
L 97.996121 18.159029 
L 98.218527 16.816301 
L 98.51507 15.749617 
L 98.774544 15.042469 
L 99.960713 10.883081 
L 100.18312 10.705868 
L 100.405527 11.249434 
L 100.813273 12.181505 
L 101.146883 12.864797 
L 101.36929 14.37281 
L 101.851171 18.152213 
L 101.925306 17.879578 
L 102.221849 15.872302 
L 102.444255 14.619885 
L 102.481323 14.6693 
L 102.629594 15.76836 
L 103.000272 18.431664 
L 103.222679 18.67874 
L 103.259747 18.685555 
L 103.37095 18.09087 
L 103.630425 15.212866 
L 103.852832 13.897402 
L 104.075238 13.246486 
L 104.445916 12.399613 
L 104.594187 12.506963 
L 104.89073 13.928074 
L 105.261408 15.809256 
L 105.483814 16.724287 
L 105.780357 17.698957 
L 106.188102 17.593311 
L 106.595848 18.019304 
L 106.855323 18.729859 
L 108.189763 23.31524 
L 108.300967 23.241969 
L 108.449238 23.248785 
L 108.819916 25.271396 
L 108.856983 25.169158 
L 109.264729 24.05817 
L 109.820746 23.117579 
L 110.191424 21.774852 
L 110.339695 21.551632 
L 110.525034 21.256845 
L 110.673305 21.468137 
L 110.93278 21.921393 
L 110.969848 21.895833 
L 111.081051 21.684541 
L 111.229322 20.892196 
L 111.525864 18.74349 
L 111.6 18.462336 
L 111.859475 17.354756 
L 111.970678 17.496185 
L 112.118949 18.343058 
L 112.156017 18.181181 
L 112.26722 17.121312 
L 112.749102 8.216369 
L 112.823237 8.480484 
L 113.119779 9.373364 
L 113.379254 8.700296 
L 113.638729 7.998261 
L 113.787 8.628729 
L 114.046474 9.415963 
L 114.157678 9.192743 
L 114.491288 7.178652 
L 114.676627 6.814002 
L 114.78783 6.943504 
L 115.047305 7.742665 
L 115.306779 8.385062 
L 115.45505 8.114131 
L 115.603321 7.838088 
L 115.862796 9.088801 
L 116.048135 9.617032 
L 116.085203 9.588064 
L 116.122271 9.664743 
L 116.381745 10.361666 
L 117.011898 12.990891 
L 117.271372 13.982601 
L 117.382575 13.953633 
L 117.64205 13.565128 
L 117.97566 12.767671 
L 118.235135 12.055411 
L 118.64288 9.944194 
L 118.717016 10.099255 
L 118.976491 10.697348 
L 119.013558 10.659861 
L 119.347168 10.394042 
L 119.532507 10.38893 
L 119.680779 9.806172 
L 120.16266 7.660875 
L 120.533338 7.429135 
L 120.904016 6.962248 
L 121.126422 7.144572 
L 121.460033 7.676211 
L 121.719507 8.04086 
L 121.83071 7.938622 
L 122.423795 7.110493 
L 122.572066 7.37972 
L 123.202219 9.083689 
L 123.721168 9.988497 
L 123.906507 11.005766 
L 124.240117 13.047122 
L 124.314252 12.878429 
L 124.462524 12.496739 
L 124.499591 12.534227 
L 124.610795 12.953403 
L 124.833202 14.108694 
L 124.870269 14.093359 
L 125.018541 13.478226 
L 125.240947 12.554674 
L 125.278015 12.629649 
L 125.463354 13.345316 
L 125.908168 16.567522 
L 126.019371 16.344302 
L 126.315913 15.253762 
L 126.352981 15.270801 
L 126.427117 15.630339 
L 126.946066 24.322285 
L 127.020201 24.342733 
L 127.131405 23.882661 
L 127.279676 22.209364 
L 127.724489 14.394961 
L 127.761557 14.555134 
L 127.87276 16.061443 
L 128.465845 28.897443 
L 128.688252 30.151564 
L 128.836523 30.337297 
L 129.095998 30.95243 
L 129.133065 30.933686 
L 129.170133 30.904718 
L 129.207201 31.000141 
L 129.429608 32.078753 
L 129.985625 35.319702 
L 130.39337 36.381275 
L 130.578709 37.045823 
L 130.986455 38.89463 
L 131.394201 38.719121 
L 131.876082 38.906558 
L 132.951048 37.959151 
L 133.507065 36.848163 
L 133.544133 36.875426 
L 133.951878 37.562126 
L 134.026014 37.502487 
L 134.322556 37.280971 
L 134.544963 37.425808 
L 134.730302 37.821129 
L 135.249251 38.990052 
L 135.471658 39.051395 
L 135.916471 38.872478 
L 136.76903 38.1091 
L 137.065573 37.284379 
L 137.436251 36.485217 
L 138.659488 34.290505 
L 139.178437 33.792946 
L 140.105132 31.439765 
L 140.290471 31.395461 
L 140.549945 30.845079 
L 140.80942 30.461686 
L 140.994759 30.250394 
L 141.47664 29.413745 
L 141.921453 29.253572 
L 142.217996 29.224605 
L 142.736945 28.425443 
L 142.922284 28.280606 
L 143.441233 27.321271 
L 143.737775 26.741922 
L 144.442063 25.227093 
L 144.701538 25.07544 
L 145.442894 24.230271 
L 145.591165 24.032611 
L 145.813572 23.16529 
L 146.110114 22.093494 
L 146.332521 22.004887 
L 146.925605 21.873682 
L 147.18508 21.374419 
L 147.481622 20.933091 
L 147.741097 20.570145 
L 148.18591 19.745424 
L 148.445385 19.898782 
L 148.556588 19.85959 
L 148.816063 19.19845 
L 149.149673 18.148805 
L 149.297944 18.084054 
L 149.483283 18.00908 
L 150.261707 16.833341 
L 150.521181 16.247176 
L 150.780656 15.836519 
L 151.299605 15.548548 
L 152.152164 14.333618 
L 152.522842 13.646919 
L 152.967655 13.577056 
L 153.486604 13.490153 
L 154.005554 12.563194 
L 154.190892 12.166169 
L 155.451197 9.489234 
L 156.118418 8.954188 
L 156.489096 8.465148 
L 156.711502 8.221481 
L 157.119248 7.567157 
L 157.638197 7.26385 
L 158.045943 6.469801 
L 158.898502 6.364154 
L 159.120909 6.244877 
L 159.639858 5.52069 
L 160.158807 5.490018 
L 160.381214 5.386076 
L 160.677756 4.60225 
L 160.863095 4.38755 
L 161.382044 4.382438 
L 161.530315 4.251233 
L 162.197535 3.09935 
L 162.494078 2.52 
L 162.531146 2.560895 
L 162.975959 3.017559 
L 163.12423 3.09935 
L 163.531976 3.489558 
L 163.754383 3.547493 
L 163.754383 3.547493 
" clip-path="url(#pf1200cbd9b)" style="fill: none; stroke: #1f77b4; stroke-opacity: 0.9; stroke-width: 2.5; stroke-linecap: square"/>
   </g>
   <g id="line2d_6">
    <path d="M 163.79145 3.596909 
L 163.939722 3.999045 
L 164.273332 6.071072 
L 164.64401 7.635315 
L 165.051755 8.795718 
L 165.385366 9.155256 
L 166.126721 10.094143 
L 166.534467 10.971687 
L 167.535297 11.733361 
L 167.683569 12.058819 
L 168.313721 13.379395 
L 168.647331 13.781532 
L 169.018009 14.643741 
L 169.49989 14.889112 
L 169.685229 15.396895 
L 170.241246 17.480849 
L 170.463653 17.656358 
L 170.723128 17.753484 
L 170.908466 17.842091 
L 171.242077 18.690667 
L 171.501551 19.264905 
L 171.575687 19.220602 
L 171.983432 18.041455 
L 172.0205 18.073831 
L 172.205839 18.627621 
L 172.465314 19.333064 
L 172.68772 19.411446 
L 172.835992 20.019763 
L 173.20667 21.486881 
L 173.688551 22.689883 
L 174.133364 24.540394 
L 174.392839 24.915267 
L 174.689381 25.131671 
L 175.060059 26.574933 
L 175.430737 27.812014 
L 175.430737 27.812014 
" clip-path="url(#pf1200cbd9b)" style="fill: none; stroke: #d2691e; stroke-opacity: 0.9; stroke-width: 2.5; stroke-linecap: square"/>
   </g>
   <g id="line2d_7">
    <path d="M 175.467805 27.786455 
L 175.504873 27.725112 
L 175.54194 27.571755 
L 175.579008 27.404766 
L 175.616076 27.203697 
L 175.653144 26.994109 
L 175.690212 26.747034 
L 175.727279 26.462471 
L 175.764347 26.177908 
L 175.801415 25.920609 
L 175.838483 25.683757 
L 175.875551 25.458833 
L 175.912618 25.29866 
L 175.949686 25.147007 
L 175.986754 25.024321 
L 176.023822 24.962978 
L 176.060889 24.882891 
L 176.097957 24.790877 
L 176.135025 24.681823 
L 176.172093 24.593217 
" clip-path="url(#pf1200cbd9b)" style="fill: none; stroke: #1f77b4; stroke-opacity: 0.9; stroke-width: 2.5; stroke-linecap: square"/>
   </g>
   <g id="line2d_8">
    <path d="M 176.209161 24.536986 
L 176.542771 24.112697 
L 176.691042 24.214935 
L 176.839313 24.366589 
L 177.098788 24.743166 
L 177.247059 24.550617 
L 177.39533 24.269462 
L 177.432398 24.28991 
L 177.580669 24.554025 
L 177.914279 25.857562 
L 177.951347 25.814962 
L 178.322025 24.804509 
L 178.359093 24.828364 
L 178.544432 25.100999 
L 179.396991 27.95174 
L 180.175414 29.469976 
L 180.397821 29.812474 
L 180.657296 29.723868 
L 180.805567 30.194163 
L 180.990906 30.492358 
L 181.324516 29.977759 
L 181.361584 29.998207 
L 181.769329 30.880863 
L 182.028804 31.666393 
L 182.177075 31.603346 
L 182.43655 31.451692 
L 182.658956 31.623793 
L 182.807228 31.654465 
L 183.140838 31.569266 
L 183.511516 32.112833 
L 183.733922 31.719216 
L 183.882194 31.530075 
L 183.919261 31.550523 
L 184.030465 31.840197 
L 184.289939 32.503041 
L 184.697685 32.978449 
L 185.142498 33.821914 
L 185.216634 33.736715 
L 185.401973 33.307315 
L 185.809719 32.342868 
L 185.95799 32.349684 
L 187.032956 34.368888 
L 187.070024 34.309249 
L 187.62604 33.363546 
L 188.070854 32.947777 
L 188.330328 32.620615 
L 188.441532 32.823388 
L 188.849278 33.692412 
L 188.997549 33.682188 
L 189.14582 33.392513 
L 189.701837 31.814638 
L 190.072515 31.736255 
L 190.331989 31.473844 
L 190.702667 31.492588 
L 191.406955 32.859171 
L 192.074175 36.606199 
L 192.259514 37.415585 
L 192.407786 37.228148 
L 192.556057 36.727181 
L 192.593125 36.791932 
L 192.889667 37.408769 
L 192.926735 37.35765 
L 193.112074 37.158285 
L 193.482752 36.866906 
L 193.742226 36.737405 
L 194.224107 37.713779 
L 194.335311 37.585981 
L 194.594785 37.34913 
L 194.668921 37.47352 
L 194.85426 37.577462 
L 195.002531 37.695035 
L 195.299073 38.037533 
L 195.52148 37.780234 
L 195.632683 38.040941 
L 195.743887 38.342544 
L 195.780955 38.330616 
L 195.966294 37.124206 
L 196.003361 36.851571 
L 196.040429 37.151469 
L 196.374039 39.76195 
L 196.633514 36.585752 
L 196.707649 36.613015 
L 196.855921 36.050705 
L 196.892988 36.118864 
L 197.226598 37.180437 
L 197.37487 35.88542 
L 197.70848 31.979923 
L 197.745548 32.060009 
L 197.856751 32.806348 
L 198.264497 37.870544 
L 198.301564 37.788754 
L 198.449836 37.376393 
L 198.486903 37.463296 
L 198.931717 38.782168 
L 199.228259 42.839318 
L 199.228259 42.839318 
" clip-path="url(#pf1200cbd9b)" style="fill: none; stroke: #d2691e; stroke-opacity: 0.9; stroke-width: 2.5; stroke-linecap: square"/>
   </g>
   <g id="line2d_9">
    <path d="M 199.265327 43.207376 
L 199.339463 43.652112 
L 199.37653 43.63848 
L 199.747208 41.252923 
L 199.784276 41.385833 
L 199.932547 42.20885 
L 200.377361 44.851706 
L 200.710971 47.070274 
L 201.044581 49.769361 
L 201.081649 49.793217 
L 201.823005 47.446851 
L 202.045411 47.358245 
L 202.56436 47.913739 
L 202.749699 47.983601 
L 203.046242 48.465825 
L 203.379852 48.813434 
L 204.380682 49.735282 
L 205.08497 50.905908 
L 205.789258 51.631799 
L 206.048733 51.834572 
L 206.159936 51.739149 
L 206.493546 51.139352 
L 206.567682 51.236478 
L 207.346106 52.2759 
L 207.383173 52.243524 
L 207.679716 51.875467 
L 207.902122 51.887395 
L 208.458139 52.047568 
L 208.717614 52.146398 
L 209.496037 52.591134 
L 209.79258 52.388362 
L 210.4598 51.737445 
L 210.79341 51.050746 
L 211.015817 51.118905 
L 211.349427 51.972593 
L 211.608902 52.308275 
L 212.127851 52.603062 
L 212.869206 52.887625 
L 213.054545 52.887625 
L 213.054545 52.887625 
" clip-path="url(#pf1200cbd9b)" style="fill: none; stroke: #1f77b4; stroke-opacity: 0.9; stroke-width: 2.5; stroke-linecap: square"/>
   </g>
   <g id="line2d_10">
    <path d="M 10.145455 52.92 
L 213.054545 52.92 
L 213.054545 52.92 
" clip-path="url(#pf1200cbd9b)" style="fill: none; stroke-dasharray: 2,3.3; stroke-dashoffset: 0; stroke: #8d99ae; stroke-opacity: 0.7; stroke-width: 2"/>
   </g>
  </g>
 </g>
 <defs>
  <clipPath id="pf1200cbd9b">
   <rect x="0" y="-0" width="223.2" height="55.44"/>
  </clipPath>
 </defs>
</svg>
