<?xml version="1.0" encoding="utf-8" standalone="no"?>
<!DOCTYPE svg PUBLIC "-//W3C//DTD SVG 1.1//EN"
  "http://www.w3.org/Graphics/SVG/1.1/DTD/svg11.dtd">
<svg xmlns:xlink="http://www.w3.org/1999/xlink" width="223.2pt" height="55.44pt" viewBox="0 0 223.2 55.44" xmlns="http://www.w3.org/2000/svg" version="1.1">
 <metadata>
  <rdf:RDF xmlns:dc="http://purl.org/dc/elements/1.1/" xmlns:cc="http://creativecommons.org/ns#" xmlns:rdf="http://www.w3.org/1999/02/22-rdf-syntax-ns#">
   <cc:Work>
    <dc:type rdf:resource="http://purl.org/dc/dcmitype/StillImage"/>
    <dc:date>2026-06-18T12:11:37.812088</dc:date>
    <dc:format>image/svg+xml</dc:format>
    <dc:creator>
     <cc:Agent>
      <dc:title>Matplotlib v3.10.8, https://matplotlib.org/</dc:title>
     </cc:Agent>
    </dc:creator>
   </cc:Work>
  </rdf:RDF>
 </metadata>
 <defs>
  <style type="text/css">*{stroke-linejoin: round; stroke-linecap: butt}</style>
 </defs>
 <g id="figure_1">
  <g id="patch_1">
   <path d="M 0 55.44 
L 223.2 55.44 
L 223.2 0 
L 0 0 
L 0 55.44 
z
" style="fill: none"/>
  </g>
  <g id="axes_1">
   <g id="line2d_1">
    <path d="M 10.145455 50.019685 
L 11.069636 50.128819 
L 12.19919 50.227039 
L 13.739492 50.387102 
L 14.971734 50.550803 
L 16.717409 50.710866 
L 18.052337 50.838189 
L 20.311446 50.838189 
L 21.338314 51.103748 
L 23.39205 51.285638 
L 25.240412 51.307464 
L 28.937137 51.503905 
L 29.861318 51.867685 
L 30.990872 52.085953 
L 32.01774 52.638898 
L 32.120427 52.693464 
L 32.120427 52.693464 
" clip-path="url(#p0f359bae8b)" style="fill: none; stroke: #1f77b4; stroke-opacity: 0.9; stroke-width: 2.5; stroke-linecap: square"/>
   </g>
   <g id="line2d_2">
    <path d="M 32.223114 52.744394 
L 32.325801 52.784409 
L 32.428487 52.81715 
L 32.531174 52.838976 
L 32.633861 52.846252 
L 32.736548 52.835338 
L 32.839234 52.824425 
L 32.941921 52.813512 
L 33.044608 52.791685 
L 33.147295 52.769858 
L 33.249982 52.751669 
L 33.352668 52.740756 
L 33.455355 52.73348 
L 33.558042 52.729842 
L 33.660729 52.722567 
L 33.763416 52.718929 
L 33.866102 52.715291 
L 33.968789 52.722567 
L 34.071476 52.737118 
L 34.174163 52.755307 
L 34.276849 52.777134 
L 34.379536 52.798961 
L 34.482223 52.824425 
L 34.58491 52.84989 
L 34.687597 52.871716 
L 34.790283 52.886268 
L 34.89297 52.897181 
L 34.995657 52.889905 
L 35.098344 52.868079 
L 35.201031 52.842614 
L 35.303717 52.802598 
L 35.406404 52.737118 
L 35.509091 52.649811 
L 35.611778 52.547953 
L 35.714464 52.442457 
L 35.817151 52.347874 
L 35.919838 52.256929 
L 36.022525 52.195087 
L 36.125212 52.151433 
L 36.227898 52.129606 
L 36.330585 52.125968 
L 36.433272 52.151433 
L 36.535959 52.202362 
L 36.638646 52.267842 
L 36.741332 52.344236 
L 36.844019 52.416992 
L 36.946706 52.493386 
L 37.049393 52.547953 
L 37.152079 52.595244 
L 37.254766 52.624346 
L 37.357453 52.646173 
L 37.46014 52.668 
L 37.562827 52.682551 
L 37.665513 52.70074 
L 37.7682 52.711653 
L 37.870887 52.722567 
L 37.973574 52.722567 
L 38.076261 52.722567 
L 38.178947 52.722567 
L 38.281634 52.722567 
L 38.384321 52.726205 
L 38.487008 52.726205 
L 38.589695 52.726205 
L 38.692381 52.722567 
L 38.795068 52.722567 
L 38.897755 52.722567 
L 39.000442 52.726205 
L 39.103128 52.729842 
" clip-path="url(#p0f359bae8b)" style="fill: none; stroke: #d2691e; stroke-opacity: 0.9; stroke-width: 2.5; stroke-linecap: square"/>
   </g>
   <g id="line2d_3">
    <path d="M 39.205815 52.73348 
L 39.308502 52.73348 
L 39.411189 52.755307 
L 39.513876 52.777134 
L 39.616562 52.802598 
L 39.719249 52.824425 
L 39.821936 52.84989 
" clip-path="url(#p0f359bae8b)" style="fill: none; stroke: #1f77b4; stroke-opacity: 0.9; stroke-width: 2.5; stroke-linecap: square"/>
   </g>
   <g id="line2d_4">
    <path d="M 39.924623 52.875354 
L 40.64343 52.98085 
L 41.464925 52.88263 
L 42.90254 52.740756 
L 44.032094 52.711653 
L 44.750902 52.737118 
L 45.469709 52.671638 
L 48.242252 52.758945 
L 49.063747 52.631622 
L 49.782554 52.569779 
L 50.501362 52.824425 
L 51.83629 53.242772 
L 56.765256 53.482866 
L 59.640486 53.486504 
L 61.180788 53.44285 
L 62.104969 52.857165 
L 62.515716 53.16274 
L 63.234523 53.813905 
L 63.850644 54.013984 
L 66.417814 54.006709 
L 71.038719 53.602913 
L 71.449466 53.730236 
L 71.449466 53.730236 
" clip-path="url(#p0f359bae8b)" style="fill: none; stroke: #d2691e; stroke-opacity: 0.9; stroke-width: 2.5; stroke-linecap: square"/>
   </g>
   <g id="line2d_5">
    <path d="M 71.552153 53.726598 
L 71.65484 53.719323 
L 71.757527 53.712047 
L 71.860213 53.701134 
L 71.9629 53.682945 
L 72.065587 53.639291 
L 72.168274 53.595638 
L 72.270961 53.548346 
L 72.373647 53.501055 
L 72.476334 53.47559 
L 72.579021 53.47559 
L 72.681708 53.482866 
L 72.784395 53.486504 
L 72.887081 53.490142 
L 72.989768 53.493779 
L 73.092455 53.504693 
L 73.195142 53.515606 
L 73.297828 53.533795 
L 73.400515 53.551984 
L 73.503202 53.570173 
L 73.605889 53.588362 
L 73.708576 53.606551 
L 73.811262 53.62474 
L 73.913949 53.642929 
L 74.016636 53.664756 
L 74.119323 53.679307 
L 74.22201 53.693858 
L 74.324696 53.701134 
L 74.427383 53.708409 
" clip-path="url(#p0f359bae8b)" style="fill: none; stroke: #1f77b4; stroke-opacity: 0.9; stroke-width: 2.5; stroke-linecap: square"/>
   </g>
   <g id="line2d_6">
    <path d="M 74.53007 53.715685 
L 74.632757 53.722961 
L 74.735444 53.748425 
L 74.83813 53.77389 
L 74.940817 53.799354 
L 75.043504 53.821181 
L 75.146191 53.846646 
L 75.248877 53.87211 
L 75.351564 53.897575 
L 75.454251 53.923039 
L 75.556938 53.952142 
L 75.659625 53.981244 
L 75.762311 53.992157 
L 75.864998 54.003071 
L 75.967685 54.013984 
L 76.070372 54.024898 
L 76.173059 54.032173 
L 76.275745 54.039449 
L 76.378432 54.046724 
L 76.481119 54.054 
L 76.583806 54.057638 
L 76.686492 54.057638 
L 76.789179 54.057638 
L 76.891866 54.057638 
L 76.994553 54.057638 
L 77.09724 54.057638 
L 77.199926 54.057638 
L 77.302613 54.057638 
L 77.4053 54.057638 
L 77.507987 54.057638 
L 77.610674 54.057638 
L 77.71336 54.057638 
L 77.816047 54.057638 
L 77.918734 54.057638 
L 78.021421 54.057638 
L 78.124107 54.057638 
L 78.226794 54.057638 
L 78.329481 54.057638 
L 78.432168 54.057638 
L 78.534855 54.057638 
L 78.637541 54.057638 
L 78.740228 54.057638 
L 78.842915 54.057638 
L 78.945602 54.057638 
L 79.048289 54.057638 
L 79.150975 54.057638 
L 79.253662 54.057638 
L 79.356349 54.057638 
L 79.459036 54.057638 
L 79.561722 54.057638 
L 79.664409 54.057638 
L 79.767096 54.057638 
L 79.869783 54.057638 
L 79.97247 54.057638 
L 80.075156 54.057638 
L 80.177843 54.057638 
L 80.28053 54.057638 
L 80.383217 54.061276 
L 80.485904 54.064913 
L 80.58859 54.068551 
L 80.691277 54.072189 
L 80.793964 54.079465 
L 80.896651 54.08674 
L 80.999338 54.108567 
L 81.102024 54.134031 
L 81.204711 54.163134 
L 81.307398 54.195874 
L 81.410085 54.221339 
L 81.512771 54.246803 
L 81.615458 54.254079 
L 81.718145 54.257716 
L 81.820832 54.257716 
L 81.923519 54.254079 
L 82.026205 54.23589 
L 82.128892 54.214063 
L 82.231579 54.188598 
L 82.334266 54.166772 
L 82.436953 54.141307 
L 82.539639 54.112205 
L 82.642326 54.101291 
L 82.745013 54.094016 
L 82.8477 54.08674 
L 82.950386 54.083102 
L 83.053073 54.083102 
L 83.15576 54.083102 
L 83.258447 54.083102 
L 83.361134 54.075827 
L 83.46382 54.079465 
L 83.566507 54.083102 
L 83.669194 54.101291 
L 83.771881 54.123118 
L 83.874568 54.144945 
" clip-path="url(#p0f359bae8b)" style="fill: none; stroke: #d2691e; stroke-opacity: 0.9; stroke-width: 2.5; stroke-linecap: square"/>
   </g>
   <g id="line2d_7">
    <path d="M 83.977254 54.166772 
L 84.079941 54.184961 
" clip-path="url(#p0f359bae8b)" style="fill: none; stroke: #1f77b4; stroke-opacity: 0.9; stroke-width: 2.5; stroke-linecap: square"/>
   </g>
   <g id="line2d_8">
    <path d="M 84.182628 54.20315 
L 84.696062 54.20315 
L 86.03099 54.028535 
L 87.263232 54.046724 
L 87.776665 53.80663 
L 88.290099 53.77389 
L 88.803533 53.959417 
L 89.933088 54.057638 
L 93.013692 54.057638 
L 94.451307 54.217701 
L 95.478174 55.432724 
L 97.737284 55.090772 
L 98.250718 54.941622 
L 98.764152 54.901606 
L 99.996393 54.930709 
L 101.331321 54.068551 
L 102.460876 54.054 
L 125.257343 54.144945 
L 126.694958 54.552378 
L 127.105705 54.585118 
L 127.105705 54.585118 
" clip-path="url(#p0f359bae8b)" style="fill: none; stroke: #d2691e; stroke-opacity: 0.9; stroke-width: 2.5; stroke-linecap: square"/>
   </g>
   <g id="line2d_9">
    <path d="M 127.208392 54.588756 
L 127.311078 54.592394 
L 127.413765 54.596031 
L 127.516452 54.599669 
L 127.619139 54.603307 
L 127.721826 54.603307 
L 127.824512 54.603307 
L 127.927199 54.603307 
L 128.029886 54.603307 
L 128.132573 54.599669 
L 128.235259 54.596031 
" clip-path="url(#p0f359bae8b)" style="fill: none; stroke: #1f77b4; stroke-opacity: 0.9; stroke-width: 2.5; stroke-linecap: square"/>
   </g>
   <g id="line2d_10">
    <path d="M 128.337946 54.588756 
L 128.440633 54.58148 
L 128.54332 54.570567 
L 128.646007 54.559654 
L 128.748693 54.545102 
L 128.85138 54.530551 
L 128.954067 54.516 
L 129.056754 54.501449 
L 129.159441 54.486898 
L 129.262127 54.472346 
L 129.364814 54.461433 
L 129.467501 54.446882 
L 129.570188 54.435968 
L 129.672874 54.425055 
L 129.775561 54.417779 
L 129.878248 54.406866 
L 129.980935 54.395953 
L 130.083622 54.385039 
L 130.186308 54.377764 
L 130.288995 54.370488 
L 130.391682 54.359575 
L 130.494369 54.348661 
L 130.597056 54.33411 
L 130.699742 54.319559 
L 130.802429 54.305008 
L 130.905116 54.294094 
L 131.007803 54.283181 
L 131.11049 54.272268 
L 131.213176 54.261354 
L 131.315863 54.250441 
L 131.41855 54.243165 
L 131.521237 54.239528 
L 131.623923 54.23589 
L 131.72661 54.23589 
L 131.829297 54.23589 
L 131.931984 54.23589 
L 132.034671 54.23589 
L 132.137357 54.23589 
L 132.240044 54.232252 
L 132.342731 54.228614 
L 132.445418 54.224976 
L 132.548105 54.221339 
L 132.650791 54.221339 
L 132.753478 54.217701 
L 132.856165 54.214063 
L 132.958852 54.210425 
L 133.061538 54.206787 
L 133.164225 54.20315 
L 133.266912 54.20315 
L 133.369599 54.20315 
L 133.472286 54.20315 
L 133.574972 54.20315 
L 133.677659 54.20315 
L 133.780346 54.20315 
L 133.883033 54.20315 
L 133.98572 54.20315 
L 134.088406 54.20315 
L 134.191093 54.20315 
L 134.29378 54.20315 
L 134.396467 54.20315 
L 134.499153 54.20315 
L 134.60184 54.20315 
L 134.704527 54.20315 
L 134.807214 54.20315 
L 134.909901 54.20315 
L 135.012587 54.20315 
L 135.115274 54.206787 
L 135.217961 54.210425 
L 135.320648 54.214063 
L 135.423335 54.221339 
L 135.526021 54.23589 
L 135.628708 54.254079 
L 135.731395 54.275905 
L 135.834082 54.30137 
L 135.936768 54.330472 
L 136.039455 54.359575 
L 136.142142 54.385039 
L 136.244829 54.414142 
L 136.347516 54.443244 
L 136.450202 54.468709 
L 136.552889 54.490535 
" clip-path="url(#p0f359bae8b)" style="fill: none; stroke: #d2691e; stroke-opacity: 0.9; stroke-width: 2.5; stroke-linecap: square"/>
   </g>
   <g id="line2d_11">
    <path d="M 136.655576 54.512362 
L 137.785131 54.603307 
L 147.745749 54.534189 
L 148.464556 54.043087 
L 148.875304 53.813905 
L 150.312919 53.464677 
L 151.2371 53.210031 
L 151.750534 52.940835 
L 152.161281 51.944079 
L 152.161281 51.944079 
" clip-path="url(#p0f359bae8b)" style="fill: none; stroke: #1f77b4; stroke-opacity: 0.9; stroke-width: 2.5; stroke-linecap: square"/>
   </g>
   <g id="line2d_12">
    <path d="M 152.263968 51.660331 
L 152.366654 51.358394 
L 152.469341 51.049181 
L 152.572028 50.721779 
L 152.674715 50.376189 
L 152.777402 50.063338 
L 152.880088 49.86326 
L 152.982775 49.732299 
L 153.085462 49.597701 
L 153.188149 49.46674 
L 153.290835 49.346693 
L 153.393522 49.237559 
L 153.496209 49.132063 
L 153.598896 49.048393 
L 153.701583 48.986551 
L 153.804269 48.931984 
L 153.906956 48.899244 
L 154.009643 48.881055 
L 154.11233 48.866504 
L 154.215017 48.862866 
L 154.317703 48.859228 
L 154.42039 48.859228 
L 154.523077 48.866504 
L 154.625764 48.85559 
L 154.72845 48.819212 
L 154.831137 48.775559 
L 154.933824 48.713716 
L 155.036511 48.622771 
L 155.139198 48.528189 
L 155.241884 48.419055 
L 155.344571 48.288094 
L 155.447258 48.14622 
L 155.549945 47.967968 
L 155.652632 47.695134 
L 155.755318 47.291338 
L 155.858005 46.894819 
L 155.960692 46.410992 
L 156.063379 45.934441 
L 156.166066 45.457889 
L 156.268752 45.010441 
L 156.371439 44.624834 
L 156.474126 44.275606 
L 156.576813 43.995496 
L 156.679499 43.853622 
L 156.782186 43.904551 
L 156.884873 43.95548 
L 156.98756 43.980945 
L 157.090247 44.02096 
L 157.192933 44.064614 
" clip-path="url(#p0f359bae8b)" style="fill: none; stroke: #d2691e; stroke-opacity: 0.9; stroke-width: 2.5; stroke-linecap: square"/>
   </g>
   <g id="line2d_13">
    <path d="M 157.29562 44.050063 
L 157.398307 43.959118 
L 157.500994 43.813606 
L 157.603681 43.620803 
L 157.706367 43.366157 
L 157.809054 43.06422 
L 157.911741 42.740456 
L 158.014428 42.518551 
L 158.117114 42.267543 
L 158.219801 41.976519 
L 158.322488 41.718236 
L 158.425175 41.485417 
L 158.527862 41.24896 
L 158.630548 40.987039 
L 158.733235 40.710566 
L 158.835922 40.415905 
L 158.938609 40.088503 
L 159.041296 39.775653 
L 159.143982 39.426425 
L 159.246669 39.102661 
L 159.349356 38.778897 
" clip-path="url(#p0f359bae8b)" style="fill: none; stroke: #1f77b4; stroke-opacity: 0.9; stroke-width: 2.5; stroke-linecap: square"/>
   </g>
   <g id="line2d_14">
    <path d="M 159.452043 38.498787 
L 159.657416 38.287795 
L 159.760103 38.382377 
L 160.17085 39.950267 
L 160.684284 42.242078 
L 160.889658 42.511275 
L 161.403092 42.791385 
L 161.608465 43.391622 
L 162.019212 46.26548 
L 162.635333 50.710866 
L 162.840707 51.089197 
L 163.04608 51.103748 
L 163.251454 50.961874 
L 163.662201 50.645386 
L 164.278322 50.619921 
L 164.689069 51.234709 
L 165.61325 52.933559 
L 166.023997 53.089984 
L 166.434744 53.039055 
L 166.742805 52.740756 
L 167.564299 51.92589 
L 167.872359 51.689433 
L 168.385793 51.24926 
L 168.79654 51.194693 
L 169.309974 51.209244 
L 169.720721 50.368913 
L 169.926095 49.96148 
L 170.131469 50.147008 
L 170.336842 50.594457 
L 171.158336 53.053606 
L 172.390578 53.122724 
L 172.904012 53.213669 
L 173.314759 53.446488 
L 174.033566 54.174047 
L 174.444314 54.08674 
L 175.060434 53.813905 
L 175.984615 54.556016 
L 176.292676 54.603307 
L 177.730291 54.494173 
L 179.270593 54.043087 
L 180.502834 54.15222 
L 181.118955 54.123118 
L 181.529702 54.15222 
L 182.761943 54.472346 
L 184.199558 54.104929 
L 185.329113 53.653842 
L 185.945234 53.817543 
L 185.945234 53.817543 
" clip-path="url(#p0f359bae8b)" style="fill: none; stroke: #d2691e; stroke-opacity: 0.9; stroke-width: 2.5; stroke-linecap: square"/>
   </g>
   <g id="line2d_15">
    <path d="M 186.047921 53.810268 
L 186.150607 53.792079 
L 186.253294 53.762976 
" clip-path="url(#p0f359bae8b)" style="fill: none; stroke: #1f77b4; stroke-opacity: 0.9; stroke-width: 2.5; stroke-linecap: square"/>
   </g>
   <g id="line2d_16">
    <path d="M 186.355981 53.730236 
L 186.869415 53.752063 
L 187.382849 53.933953 
L 187.690909 53.817543 
L 188.101656 53.493779 
L 189.128524 53.584724 
L 189.744645 53.170016 
L 190.566139 53.079071 
L 191.079573 53.13 
L 191.49032 53.01359 
L 191.901067 52.649811 
L 192.311815 52.580693 
L 192.619875 52.715291 
L 193.030622 52.860803 
L 193.441369 52.780772 
L 195.392418 52.471559 
L 195.700478 52.697102 
L 196.111226 52.682551 
L 196.419286 52.504299 
L 196.62466 52.311496 
L 197.343467 52.435181 
L 197.651527 52.788047 
L 198.164961 52.657087 
L 199.294516 51.129212 
L 199.705263 50.921858 
L 199.910637 50.630834 
L 200.834818 50.60537 
L 201.553625 50.503512 
L 201.964372 50.321622 
L 201.964372 50.321622 
" clip-path="url(#p0f359bae8b)" style="fill: none; stroke: #d2691e; stroke-opacity: 0.9; stroke-width: 2.5; stroke-linecap: square"/>
   </g>
   <g id="line2d_17">
    <path d="M 202.067059 50.285244 
L 202.169746 50.259779 
L 202.272433 50.24159 
L 202.37512 50.24159 
L 202.477806 50.248866 
L 202.580493 50.270693 
L 202.68318 50.314346 
L 202.785867 50.361638 
L 202.888554 50.405291 
L 202.99124 50.448945 
L 203.093927 50.478047 
L 203.196614 50.459858 
L 203.299301 50.408929 
L 203.401987 50.343449 
L 203.504674 50.270693 
L 203.607361 50.197937 
L 203.710048 50.114268 
L 203.812735 50.02696 
L 203.915421 49.943291 
L 204.018108 49.855984 
L 204.120795 49.775953 
L 204.223482 49.728661 
L 204.326169 49.721386 
L 204.428855 49.775953 
L 204.531542 49.892362 
L 204.634229 49.99422 
L 204.736916 50.085165 
L 204.839603 50.179748 
L 204.942289 50.274331 
L 205.044976 50.376189 
" clip-path="url(#p0f359bae8b)" style="fill: none; stroke: #1f77b4; stroke-opacity: 0.9; stroke-width: 2.5; stroke-linecap: square"/>
   </g>
   <g id="line2d_18">
    <path d="M 205.147663 50.463496 
L 205.25035 50.499874 
L 205.353036 50.587181 
L 205.455723 50.641748 
" clip-path="url(#p0f359bae8b)" style="fill: none; stroke: #d2691e; stroke-opacity: 0.9; stroke-width: 2.5; stroke-linecap: square"/>
   </g>
   <g id="line2d_19">
    <path d="M 205.55841 50.63811 
L 205.661097 50.634472 
L 205.763784 50.634472 
L 205.86647 50.630834 
L 205.969157 50.612646 
L 206.071844 50.583543 
L 206.174531 50.568992 
L 206.277218 50.612646 
L 206.379904 50.590819 
L 206.482591 50.543527 
L 206.585278 50.499874 
L 206.687965 50.45622 
L 206.790651 50.419842 
L 206.893338 50.379827 
L 206.996025 50.350724 
L 207.098712 50.32526 
L 207.201399 50.307071 
L 207.304085 50.29252 
L 207.406772 50.277968 
L 207.509459 50.270693 
L 207.612146 50.263417 
L 207.714833 50.259779 
L 207.817519 50.245228 
L 207.920206 50.234315 
L 208.022893 50.234315 
L 208.12558 50.237953 
L 208.228266 50.259779 
L 208.330953 50.288882 
L 208.43364 50.321622 
L 208.536327 50.350724 
L 208.639014 50.383464 
L 208.7417 50.412567 
L 208.844387 50.448945 
L 208.947074 50.485323 
" clip-path="url(#p0f359bae8b)" style="fill: none; stroke: #1f77b4; stroke-opacity: 0.9; stroke-width: 2.5; stroke-linecap: square"/>
   </g>
   <g id="line2d_20">
    <path d="M 209.049761 50.510787 
L 209.152448 50.536252 
L 209.255134 50.536252 
L 209.357821 50.528976 
" clip-path="url(#p0f359bae8b)" style="fill: none; stroke: #d2691e; stroke-opacity: 0.9; stroke-width: 2.5; stroke-linecap: square"/>
   </g>
   <g id="line2d_21">
    <path d="M 209.460508 50.521701 
L 209.563195 50.518063 
L 209.665881 50.507149 
L 209.768568 50.499874 
L 209.871255 50.496236 
L 209.973942 50.492598 
L 210.076629 50.492598 
L 210.179315 50.492598 
L 210.282002 50.496236 
L 210.384689 50.499874 
L 210.487376 50.507149 
L 210.590063 50.514425 
L 210.692749 50.532614 
L 210.795436 50.558079 
L 210.898123 50.579905 
L 211.00081 50.601732 
L 211.103497 50.619921 
L 211.206183 50.649023 
L 211.30887 50.678126 
L 211.411557 50.710866 
L 211.514244 50.725417 
L 211.61693 50.736331 
L 211.719617 50.736331 
L 211.822304 50.725417 
L 211.924991 50.710866 
L 212.027678 50.696315 
L 212.130364 50.678126 
L 212.233051 50.649023 
L 212.335738 50.616283 
L 212.438425 50.565354 
L 212.541112 50.521701 
L 212.643798 50.478047 
L 212.746485 50.438031 
L 212.849172 50.401653 
L 212.951859 50.361638 
L 213.054545 50.307071 
" clip-path="url(#p0f359bae8b)" style="fill: none; stroke: #1f77b4; stroke-opacity: 0.9; stroke-width: 2.5; stroke-linecap: square"/>
   </g>
   <g id="line2d_22">
    <path d="M 10.145455 55.44 
L 213.054545 55.44 
L 213.054545 55.44 
" clip-path="url(#p0f359bae8b)" style="fill: none; stroke-dasharray: 2,3.3; stroke-dashoffset: 0; stroke: #8d99ae; stroke-opacity: 0.7; stroke-width: 2"/>
   </g>
  </g>
 </g>
 <defs>
  <clipPath id="p0f359bae8b">
   <rect x="0" y="-0" width="223.2" height="55.44"/>
  </clipPath>
 </defs>
</svg>
