<?xml version="1.0" encoding="utf-8" standalone="no"?>
<!DOCTYPE svg PUBLIC "-//W3C//DTD SVG 1.1//EN"
  "http://www.w3.org/Graphics/SVG/1.1/DTD/svg11.dtd">
<svg xmlns:xlink="http://www.w3.org/1999/xlink" width="223.2pt" height="55.44pt" viewBox="0 0 223.2 55.44" xmlns="http://www.w3.org/2000/svg" version="1.1">
 <metadata>
  <rdf:RDF xmlns:dc="http://purl.org/dc/elements/1.1/" xmlns:cc="http://creativecommons.org/ns#" xmlns:rdf="http://www.w3.org/1999/02/22-rdf-syntax-ns#">
   <cc:Work>
    <dc:type rdf:resource="http://purl.org/dc/dcmitype/StillImage"/>
    <dc:date>2026-06-25T20:55:34.771336</dc:date>
    <dc:format>image/svg+xml</dc:format>
    <dc:creator>
     <cc:Agent>
      <dc:title>Matplotlib v3.10.8, https://matplotlib.org/</dc:title>
     </cc:Agent>
    </dc:creator>
   </cc:Work>
  </rdf:RDF>
 </metadata>
 <defs>
  <style type="text/css">*{stroke-linejoin: round; stroke-linecap: butt}</style>
 </defs>
 <g id="figure_1">
  <g id="patch_1">
   <path d="M 0 55.44 
L 223.2 55.44 
L 223.2 0 
L 0 0 
L 0 55.44 
z
" style="fill: none"/>
  </g>
  <g id="axes_1">
   <g id="line2d_1">
    <path d="M 10.145455 52.11539 
L 10.31123 52.056516 
L 10.642781 52.458821 
L 10.974332 52.547132 
L 11.803209 52.433309 
L 12.134759 52.333223 
L 12.46631 51.919143 
L 12.797861 51.699347 
L 13.626738 51.440302 
L 13.958289 51.491326 
L 14.28984 51.764109 
L 14.952941 51.80532 
L 15.450267 51.683648 
L 16.610695 51.200882 
L 17.108021 51.350029 
L 17.771123 51.601224 
L 18.434225 51.432452 
L 19.760428 50.786802 
L 20.589305 50.433558 
L 21.252406 49.713334 
L 22.91016 47.640972 
L 23.573262 46.555729 
L 25.231016 43.670907 
L 26.557219 42.202984 
L 27.054545 41.981226 
L 27.386096 42.108786 
L 27.883422 42.28737 
L 28.712299 41.918427 
L 30.204278 40.189496 
L 31.696257 39.082666 
L 32.193583 38.054335 
L 33.685561 32.408326 
L 34.680214 29.213435 
L 35.343316 27.527679 
L 36.006417 26.414961 
L 36.669519 25.68885 
L 37.00107 25.533815 
L 37.33262 25.647638 
L 37.664171 26.055831 
L 38.990374 28.387238 
L 39.487701 29.050551 
L 41.145455 32.427951 
L 41.642781 32.808669 
L 41.974332 32.853806 
L 42.305882 32.728208 
L 42.637433 32.217967 
L 44.460963 28.318552 
L 45.62139 26.89969 
L 46.118717 25.6653 
L 46.450267 23.948144 
L 47.610695 17.040271 
L 48.108021 15.236767 
L 50.428877 10.807485 
L 50.760428 10.740762 
L 51.091979 11.048868 
L 52.583957 14.198623 
L 52.915508 14.408607 
L 53.247059 14.288897 
L 53.57861 14.039664 
L 54.075936 13.238978 
L 55.236364 11.198016 
L 55.73369 10.805523 
L 56.231016 10.854585 
L 56.728342 11.088118 
L 57.557219 12.304845 
L 58.717647 14.479256 
L 59.546524 16.084551 
L 60.375401 17.126619 
L 60.706952 17.422951 
L 61.204278 18.1942 
L 62.19893 19.93883 
L 62.862032 20.694379 
L 63.525134 21.06136 
L 64.685561 22.672543 
L 66.17754 25.675113 
L 66.674866 26.099005 
L 67.172193 26.197128 
L 68.498396 26.307026 
L 69.493048 26.730918 
L 69.990374 26.819229 
L 70.321925 26.785867 
L 70.819251 26.913427 
L 72.145455 27.882885 
L 72.642781 28.406862 
L 73.803209 29.737413 
L 75.460963 30.942366 
L 76.124064 31.709689 
L 76.952941 32.374965 
L 77.284492 32.590836 
L 77.947594 33.57403 
L 79.439572 36.562863 
L 80.102674 36.965168 
L 81.594652 36.951431 
L 83.086631 37.251688 
L 83.915508 37.655955 
L 84.744385 38.036673 
L 85.407487 38.09751 
L 86.070588 37.706979 
L 86.73369 36.98283 
L 87.065241 36.072247 
L 87.894118 33.118738 
L 88.722995 29.815912 
L 89.386096 27.875035 
L 90.049198 26.032281 
L 90.712299 24.397548 
L 91.209626 23.779372 
L 92.038503 23.025786 
L 92.535829 22.42331 
L 93.862032 20.284224 
L 94.525134 19.583624 
L 95.354011 18.716215 
L 96.182888 17.93908 
L 96.680214 17.674147 
L 97.17754 17.395477 
L 98.006417 16.749826 
L 98.835294 15.835318 
L 99.498396 15.21518 
L 99.829947 14.653915 
L 101.15615 11.792642 
L 101.487701 11.561072 
L 102.150802 11.498273 
L 102.979679 11.109705 
L 103.31123 10.654413 
L 104.637433 8.007049 
L 105.134759 7.536058 
L 106.295187 7.685205 
L 106.958289 7.616519 
L 107.28984 7.539983 
L 108.118717 7.524283 
L 109.776471 7.190664 
L 109.942246 7.184777 
L 110.439572 6.541089 
L 111.102674 5.62658 
L 111.6 5.216426 
L 112.594652 5.612843 
L 113.091979 5.245862 
L 114.252406 3.868213 
L 114.749733 3.436471 
L 115.247059 3.167613 
L 116.075936 3.095002 
L 116.739037 3.513007 
L 117.236364 3.685704 
L 117.567914 3.670004 
L 118.396791 3.244149 
L 119.557219 3.306948 
L 119.88877 3.416846 
L 120.386096 3.089115 
L 121.049198 2.735871 
L 121.712299 2.5357 
L 122.04385 2.820257 
L 122.541176 3.72299 
L 123.038503 4.918131 
L 124.033155 7.388873 
L 124.530481 7.950138 
L 125.193583 8.36618 
L 125.690909 10.049974 
L 126.02246 11.614058 
L 127.017112 16.955885 
L 128.011765 19.705297 
L 128.509091 20.394122 
L 128.840642 20.606068 
L 129.337968 20.525607 
L 129.669519 20.800352 
L 130.33262 21.832608 
L 131.327273 23.661624 
L 131.658824 23.873571 
L 131.990374 23.779372 
L 132.321925 23.50659 
L 132.985027 22.16034 
L 133.648128 20.574669 
L 133.979679 20.133114 
L 134.642781 19.622874 
L 134.642781 19.622874 
" clip-path="url(#p14ec606170)" style="fill: none; stroke: #1f77b4; stroke-opacity: 0.9; stroke-width: 2.5; stroke-linecap: square"/>
   </g>
   <g id="line2d_2">
    <path d="M 134.808556 19.579699 
L 135.471658 19.302992 
L 135.968984 19.020397 
L 136.46631 19.067496 
L 136.797861 19.250005 
L 137.129412 19.467839 
L 138.124064 19.664085 
L 139.616043 21.010336 
L 139.947594 20.857263 
L 140.776471 20.160589 
L 141.108021 20.076203 
L 141.605348 20.505982 
L 142.434225 21.553938 
L 144.423529 24.232702 
L 146.081283 25.938083 
L 147.904813 26.257964 
L 148.899465 27.374606 
L 149.396791 27.633652 
L 149.894118 27.663089 
L 150.391444 27.659164 
L 151.054545 27.7043 
L 151.386096 27.755324 
L 152.049198 27.986895 
L 153.209626 27.98297 
L 154.204278 28.571709 
L 155.033155 29.078025 
L 155.364706 29.248759 
L 156.359358 29.972909 
L 156.856684 29.800212 
L 157.354011 29.370432 
L 158.017112 28.716932 
L 158.680214 28.483398 
L 159.011765 28.554047 
L 159.674866 28.964202 
L 161.829947 30.634259 
L 162.327273 30.583235 
L 162.990374 30.298678 
L 163.653476 29.802174 
L 164.150802 29.572566 
L 164.813904 29.262497 
L 165.477005 29.470518 
L 166.140107 29.841424 
L 166.471658 29.739375 
L 167.134759 28.868041 
L 167.632086 28.295002 
L 168.295187 27.943721 
L 169.455615 27.824011 
L 169.952941 28.081093 
L 170.450267 28.3892 
L 171.776471 30.612672 
L 172.771123 33.30321 
L 173.102674 33.919424 
L 173.434225 34.202019 
L 173.931551 34.125482 
L 174.594652 33.683928 
L 175.091979 34.027359 
L 175.589305 34.172582 
L 176.086631 34.492463 
L 176.418182 34.280517 
L 176.749733 34.098008 
L 178.573262 34.005772 
L 179.567914 33.697665 
L 180.065241 33.681966 
L 181.225668 34.429664 
L 181.722995 34.790758 
L 182.054545 34.786833 
L 183.546524 34.319766 
L 185.86738 35.039991 
L 186.696257 34.985042 
L 187.193583 34.794683 
L 187.525134 34.92028 
L 188.02246 35.291186 
L 188.188235 35.302961 
L 188.519786 34.95168 
L 188.851337 34.551337 
L 189.017112 34.568999 
L 189.182888 34.812345 
L 189.348663 34.855519 
L 189.845989 34.684785 
L 190.17754 34.765246 
L 190.509091 35.014479 
L 190.674866 34.737771 
L 190.840642 34.145107 
L 191.006417 33.976335 
L 191.337968 33.362084 
L 191.669519 33.432733 
L 191.835294 33.55833 
L 192.00107 33.495532 
L 192.498396 31.996209 
L 192.664171 31.768563 
L 192.995722 32.447576 
L 193.327273 32.394589 
L 193.493048 32.427951 
L 193.658824 32.775307 
L 194.15615 35.173438 
L 194.321925 35.330435 
L 194.487701 35.218575 
L 194.653476 35.336323 
L 195.150802 36.056547 
L 195.482353 36.076172 
L 195.648128 36.398016 
L 196.477005 39.214152 
L 196.477005 39.214152 
" clip-path="url(#p14ec606170)" style="fill: none; stroke: #d2691e; stroke-opacity: 0.9; stroke-width: 2.5; stroke-linecap: square"/>
   </g>
   <g id="line2d_3">
    <path d="M 196.642781 39.500671 
L 196.808556 39.848027 
L 196.974332 40.218933 
L 197.140107 40.556477 
L 197.305882 40.77431 
L 197.471658 40.786085 
L 197.637433 40.788048 
L 197.803209 40.884208 
L 197.968984 41.131479 
L 198.134759 41.655457 
L 198.300535 42.161772 
L 198.46631 42.730887 
L 198.632086 43.315701 
L 198.797861 43.961352 
L 198.963636 44.722788 
L 199.129412 45.452825 
L 199.295187 46.043526 
L 199.460963 46.441906 
L 199.626738 46.828512 
L 199.792513 47.011021 
L 199.958289 47.146431 
L 200.124064 47.197455 
L 200.28984 47.169981 
L 200.455615 47.097369 
L 200.62139 46.820662 
L 200.787166 46.54003 
L 200.952941 46.386957 
L 201.118717 46.441906 
L 201.284492 46.504705 
L 201.450267 46.65974 
L 201.616043 46.830474 
L 201.781818 47.032608 
L 201.947594 47.273991 
L 202.113369 47.454538 
L 202.279144 47.693958 
L 202.44492 47.982441 
L 202.610695 48.247373 
L 202.776471 48.486794 
L 202.942246 48.736027 
L 203.108021 48.947973 
L 203.273797 49.148144 
L 203.439572 49.387565 
L 203.605348 49.599511 
L 203.771123 49.799682 
L 203.936898 49.995929 
L 204.102674 50.17255 
L 204.268449 50.333472 
L 204.434225 50.384497 
L 204.6 50.435521 
L 204.765775 50.508132 
L 204.931551 50.61803 
L 205.097326 50.680829 
L 205.263102 50.743627 
L 205.428877 50.794652 
L 205.594652 50.794652 
L 205.760428 50.828013 
L 205.926203 50.88885 
L 206.091979 51.055659 
L 206.257754 51.189107 
L 206.423529 51.316667 
L 206.589305 51.395165 
L 206.75508 51.436377 
L 206.920856 51.459927 
L 207.086631 51.475627 
L 207.252406 51.495251 
L 207.418182 51.461889 
L 207.583957 51.410865 
L 207.749733 51.338254 
L 207.915508 51.249943 
L 208.081283 51.185182 
L 208.247059 51.147895 
L 208.412834 51.157707 
L 208.57861 51.196957 
L 208.744385 51.251906 
L 208.91016 51.318629 
L 209.075936 51.403015 
L 209.241711 51.497214 
L 209.407487 51.595337 
L 209.573262 51.683648 
L 209.739037 51.738597 
L 209.904813 51.764109 
L 210.070588 51.781771 
L 210.236364 51.779808 
L 210.402139 51.722897 
L 210.567914 51.560012 
L 210.73369 51.469739 
L 210.899465 51.440302 
L 211.065241 51.428527 
L 211.231016 51.432452 
L 211.396791 51.461889 
L 211.562567 51.520763 
L 211.728342 51.5816 
L 211.894118 51.652248 
L 212.059893 51.773921 
L 212.225668 51.991755 
L 212.391444 52.148752 
L 212.557219 52.272387 
L 212.722995 52.37836 
L 212.88877 52.466671 
L 213.054545 52.509845 
" clip-path="url(#p14ec606170)" style="fill: none; stroke: #1f77b4; stroke-opacity: 0.9; stroke-width: 2.5; stroke-linecap: square"/>
   </g>
   <g id="line2d_4">
    <path d="M 10.145455 52.92 
L 213.054545 52.92 
L 213.054545 52.92 
" clip-path="url(#p14ec606170)" style="fill: none; stroke-dasharray: 2,3.3; stroke-dashoffset: 0; stroke: #8d99ae; stroke-opacity: 0.7; stroke-width: 2"/>
   </g>
  </g>
 </g>
 <defs>
  <clipPath id="p14ec606170">
   <rect x="0" y="-0" width="223.2" height="55.44"/>
  </clipPath>
 </defs>
</svg>
