<?xml version="1.0" encoding="utf-8" standalone="no"?>
<!DOCTYPE svg PUBLIC "-//W3C//DTD SVG 1.1//EN"
  "http://www.w3.org/Graphics/SVG/1.1/DTD/svg11.dtd">
<svg xmlns:xlink="http://www.w3.org/1999/xlink" width="223.2pt" height="55.44pt" viewBox="0 0 223.2 55.44" xmlns="http://www.w3.org/2000/svg" version="1.1">
 <metadata>
  <rdf:RDF xmlns:dc="http://purl.org/dc/elements/1.1/" xmlns:cc="http://creativecommons.org/ns#" xmlns:rdf="http://www.w3.org/1999/02/22-rdf-syntax-ns#">
   <cc:Work>
    <dc:type rdf:resource="http://purl.org/dc/dcmitype/StillImage"/>
    <dc:date>2026-05-06T16:20:35.834341</dc:date>
    <dc:format>image/svg+xml</dc:format>
    <dc:creator>
     <cc:Agent>
      <dc:title>Matplotlib v3.10.8, https://matplotlib.org/</dc:title>
     </cc:Agent>
    </dc:creator>
   </cc:Work>
  </rdf:RDF>
 </metadata>
 <defs>
  <style type="text/css">*{stroke-linejoin: round; stroke-linecap: butt}</style>
 </defs>
 <g id="figure_1">
  <g id="patch_1">
   <path d="M 0 55.44 
L 223.2 55.44 
L 223.2 0 
L 0 0 
L 0 55.44 
z
" style="fill: none"/>
  </g>
  <g id="axes_1">
   <g id="line2d_1">
    <path d="M 10.35616 52.92 
L 10.566865 52.92 
L 10.77757 52.92 
L 10.988275 52.92 
L 11.19898 52.904396 
L 11.409686 52.891022 
L 11.620391 52.87904 
L 11.831096 52.867988 
L 12.041801 52.841981 
L 12.252506 52.754601 
L 12.463212 52.651616 
L 12.673917 52.556433 
L 12.884622 52.472173 
L 13.095327 52.395715 
L 13.306032 52.348904 
L 13.516737 52.305214 
L 13.727443 52.266204 
L 13.938148 52.233437 
L 14.148853 52.219393 
L 14.359558 52.259963 
L 14.570263 52.313015 
L 14.780969 52.353585 
L 14.991674 52.381672 
L 15.202379 52.397276 
L 15.413084 52.387913 
L 15.623789 52.369189 
L 15.834494 52.320817 
L 16.0452 52.227195 
L 16.255905 52.128892 
L 16.46661 52.033709 
L 16.677315 51.947889 
L 16.88802 51.876111 
L 17.098726 51.810576 
L 17.309431 51.773127 
L 17.520136 51.748161 
L 17.730841 51.74192 
L 17.941546 51.74504 
L 18.152251 51.777808 
L 18.362957 51.765325 
L 18.573662 51.746601 
L 18.784367 51.720074 
L 18.995072 51.679505 
L 19.205777 51.612409 
L 19.416483 51.504743 
L 19.627188 51.428285 
L 19.837893 51.348706 
L 20.048598 51.297214 
L 20.259303 51.255084 
L 20.470008 51.259765 
L 20.680714 51.267567 
L 20.891419 51.251963 
L 21.102124 51.200471 
L 21.312829 51.170824 
L 21.523534 51.138056 
L 21.73424 51.049115 
L 21.944945 50.94769 
L 22.15565 50.832223 
L 22.366355 50.69491 
L 22.57706 50.499864 
L 22.787766 50.284533 
L 22.998471 50.072322 
L 23.209176 49.89444 
L 23.419881 49.710316 
L 23.630586 49.523071 
L 23.841291 49.346749 
L 24.051997 49.117375 
L 24.262702 48.869276 
L 24.473407 48.632099 
L 24.684112 48.444854 
L 24.894817 48.237325 
L 25.105523 48.039158 
L 25.316228 47.831628 
L 25.526933 47.608495 
L 25.737638 47.379121 
L 25.948343 47.177833 
L 26.159048 47.04208 
L 26.369754 46.9547 
L 26.580459 46.886043 
L 26.791164 46.843913 
L 27.001869 46.847034 
L 27.212574 46.825189 
L 27.42328 46.74561 
L 27.633985 46.648867 
L 27.84469 46.527158 
L 28.055395 46.347715 
L 28.2661 46.093375 
L 28.476805 45.73917 
L 28.687511 45.306947 
L 28.898216 44.795146 
" clip-path="url(#pbfc14c12f5)" style="fill: none; stroke: #1f77b4; stroke-opacity: 0.9; stroke-width: 2.5; stroke-linecap: square"/>
   </g>
   <g id="line2d_2">
    <path d="M 29.530331 42.921139 
L 30.373152 40.694489 
L 31.215973 39.221498 
L 31.848088 38.525573 
L 32.269499 37.726663 
L 32.901614 37.217981 
L 33.53373 37.021375 
L 33.744435 37.022935 
L 33.95514 37.25387 
L 34.587256 38.333647 
L 35.219371 38.996805 
L 35.640782 39.051418 
L 36.272897 38.878217 
L 36.905013 38.377337 
L 37.115718 38.205697 
L 37.747833 38.450675 
L 38.379949 38.676929 
L 39.22277 38.768991 
L 40.697706 38.360173 
L 43.226168 38.057461 
L 46.386746 38.304 
L 47.650977 38.085548 
L 48.493798 38.054341 
L 49.125913 38.063703 
L 50.811555 38.307121 
L 51.02226 38.255628 
L 51.654376 37.544099 
L 52.286491 36.490848 
L 53.340017 34.317251 
L 54.604248 32.805251 
L 54.814953 32.6773 
L 55.868479 31.224594 
L 56.7113 29.785932 
L 57.343415 28.724879 
L 58.396941 27.479703 
L 60.503993 25.224966 
L 61.768224 23.194923 
L 62.611045 21.277226 
L 64.296686 17.360693 
L 68.721495 8.749003 
L 69.564316 7.213598 
L 70.407137 5.622019 
L 71.039252 5.064966 
L 71.460663 4.840272 
L 73.146304 3.329833 
L 73.567715 2.970947 
L 74.62124 2.52 
L 75.885472 2.783703 
L 76.728292 3.977387 
L 76.728292 3.977387 
" clip-path="url(#pbfc14c12f5)" style="fill: none; stroke: #d2691e; stroke-opacity: 0.9; stroke-width: 2.5; stroke-linecap: square"/>
   </g>
   <g id="line2d_3">
    <path d="M 77.360408 4.757573 
L 78.624639 6.168149 
L 79.678165 6.76265 
L 80.731691 6.951455 
L 81.363806 6.912446 
L 81.995922 6.772012 
L 83.049448 6.960817 
L 84.102974 7.363393 
L 84.945794 7.045077 
L 85.57791 6.814142 
L 86.210025 6.740805 
L 86.842141 7.010749 
L 87.895667 7.817461 
L 88.527782 8.207554 
L 89.370603 8.488421 
L 90.634834 8.655381 
L 91.26695 8.568 
L 91.68836 8.213796 
L 93.374002 6.233684 
L 93.795412 6.163467 
L 94.638233 6.349152 
L 95.270348 6.324186 
L 96.323874 6.235245 
L 97.166695 6.578526 
L 98.009516 6.996706 
L 98.641631 7.007628 
L 99.484452 6.793858 
L 101.591504 6.060483 
L 104.119966 7.149622 
L 105.173492 7.717598 
L 105.594902 7.583406 
L 106.859133 6.494266 
L 107.280544 6.285176 
L 107.491249 6.305461 
L 107.491249 6.305461 
" clip-path="url(#pbfc14c12f5)" style="fill: none; stroke: #1f77b4; stroke-opacity: 0.9; stroke-width: 2.5; stroke-linecap: square"/>
   </g>
   <g id="line2d_4">
    <path d="M 108.123364 6.399084 
L 108.33407 6.413127 
L 108.544775 6.411567 
" clip-path="url(#pbfc14c12f5)" style="fill: none; stroke: #d2691e; stroke-opacity: 0.9; stroke-width: 2.5; stroke-linecap: square"/>
   </g>
   <g id="line2d_5">
    <path d="M 109.387596 6.708037 
L 110.019711 6.985783 
L 110.441121 7.39304 
L 111.073237 8.411963 
L 112.337468 10.70883 
L 113.812404 13.192941 
L 114.44452 13.753115 
L 114.86593 13.746873 
L 116.130161 13.52374 
L 116.551572 13.548706 
L 116.972982 13.927876 
L 118.658624 15.772235 
L 120.765675 17.237424 
L 121.397791 17.51205 
L 122.240612 17.627517 
L 123.083432 18.22982 
L 126.033305 20.980755 
L 126.665421 21.281907 
L 127.508241 21.375529 
L 128.561767 21.993437 
L 129.193883 22.644111 
L 129.615293 23.074774 
L 131.51164 24.170155 
L 132.35446 24.744372 
L 132.986576 25.41065 
L 134.040102 26.699517 
L 134.882923 27.236285 
L 136.357859 27.826105 
L 136.357859 27.826105 
" clip-path="url(#pbfc14c12f5)" style="fill: none; stroke: #d2691e; stroke-opacity: 0.9; stroke-width: 2.5; stroke-linecap: square"/>
   </g>
   <g id="line2d_6">
    <path d="M 136.989975 28.106972 
L 137.20068 28.158464 
L 137.411385 28.172508 
L 137.62209 28.133498 
L 137.832795 28.049238 
L 138.0435 27.907245 
L 138.254206 27.743406 
L 138.464911 27.579567 
L 138.675616 27.401684 
L 138.886321 27.198836 
L 139.097026 26.985065 
" clip-path="url(#pbfc14c12f5)" style="fill: none; stroke: #1f77b4; stroke-opacity: 0.9; stroke-width: 2.5; stroke-linecap: square"/>
   </g>
   <g id="line2d_7">
    <path d="M 139.729142 26.323467 
L 140.571963 25.764854 
L 141.204078 25.608817 
L 142.046899 25.70244 
L 142.679014 25.736768 
L 143.100425 25.741449 
L 144.153951 26.349994 
L 145.418182 27.205077 
L 146.471708 27.270613 
L 147.314528 27.810502 
L 150.685811 30.708111 
L 151.528632 31.152817 
L 152.160748 31.386873 
L 153.003568 31.558514 
L 154.68921 32.588359 
L 155.11062 32.80369 
L 155.532031 32.820854 
L 157.006967 32.614885 
L 157.639082 32.71943 
L 158.481903 33.161015 
L 160.79966 34.484211 
L 161.431776 34.554427 
L 161.853186 34.428037 
L 162.906712 33.860062 
L 163.328122 33.888149 
L 163.960238 34.192421 
L 165.224469 35.078712 
L 165.645879 35.075591 
L 166.699405 34.800966 
L 167.331521 34.593437 
L 167.963636 34.660533 
L 168.595752 34.669895 
L 169.017162 34.504495 
L 170.281393 33.521461 
L 170.913509 33.148533 
L 171.545624 33.246836 
L 171.967035 33.460607 
L 172.59915 34.125325 
L 173.231266 35.089635 
L 174.284792 37.250749 
L 175.127613 38.258749 
L 175.549023 38.269672 
L 176.602549 38.112074 
L 177.86678 38.062142 
L 178.709601 38.049659 
L 179.341716 38.172929 
L 179.973832 38.316483 
L 180.816653 38.325845 
L 181.448768 38.308681 
L 182.291589 38.162006 
L 183.55582 38.074625 
L 186.505692 38.622316 
L 187.137808 38.779913 
L 187.769924 38.678489 
L 189.034155 38.21818 
L 190.087681 38.981201 
L 190.719796 39.065461 
L 191.141206 38.875096 
L 191.562617 38.293077 
L 192.194732 37.135282 
L 192.405438 36.987046 
L 192.826848 37.012012 
L 193.669669 37.511331 
L 194.512489 38.847009 
L 194.512489 38.847009 
" clip-path="url(#pbfc14c12f5)" style="fill: none; stroke: #d2691e; stroke-opacity: 0.9; stroke-width: 2.5; stroke-linecap: square"/>
   </g>
   <g id="line2d_8">
    <path d="M 195.144605 39.483641 
L 195.35531 39.865932 
L 195.566015 40.268508 
L 195.77672 40.688248 
L 195.987426 41.15948 
L 196.198131 41.713412 
L 196.408836 42.298551 
L 196.619541 42.905536 
L 196.830246 43.51408 
L 197.040952 44.146031 
L 197.251657 44.776421 
L 197.462362 45.291344 
L 197.673067 45.728248 
L 197.883772 46.088693 
L 198.094477 46.350836 
L 198.305183 46.53652 
L 198.515888 46.66291 
L 198.726593 46.762774 
L 198.937298 46.843913 
L 199.148003 46.864198 
L 199.358709 46.862638 
L 199.569414 46.879802 
L 199.780119 46.935975 
L 199.990824 47.007752 
L 200.201529 47.118539 
L 200.412234 47.260533 
L 200.62294 47.485226 
L 200.833645 47.706799 
L 201.04435 47.912768 
L 201.255055 48.110935 
L 201.46576 48.315344 
L 201.676466 48.505709 
L 201.887171 48.688272 
L 202.097876 48.863034 
L 202.308581 49.009709 
L 202.519286 49.234402 
L 202.729992 49.473139 
L 202.940697 49.708755 
L 203.151402 49.952173 
L 203.362107 50.19091 
L 203.572812 50.412483 
L 203.783517 50.629375 
L 203.994223 50.8213 
L 204.204928 51.006985 
L 204.415633 51.167703 
L 204.626338 51.266006 
L 204.837043 51.292533 
L 205.047749 51.300334 
L 205.258454 51.297214 
L 205.469159 51.337783 
L 205.679864 51.390836 
L 205.890569 51.454811 
L 206.101274 51.523467 
L 206.31198 51.590563 
L 206.522685 51.667022 
L 206.73339 51.696669 
L 206.944095 51.715393 
L 207.1548 51.729437 
L 207.365506 51.74192 
L 207.576211 51.752842 
L 207.786916 51.774687 
L 207.997621 51.794972 
L 208.208326 51.821498 
L 208.419031 51.858947 
L 208.629737 51.929164 
L 208.840442 52.010303 
L 209.051147 52.100805 
L 209.261852 52.197548 
L 209.472557 52.295851 
L 209.683263 52.350464 
L 209.893968 52.37231 
L 210.104673 52.383232 
L 210.315378 52.37387 
L 210.526083 52.352025 
L 210.736788 52.311455 
L 210.947494 52.263084 
L 211.158199 52.228755 
L 211.368904 52.242799 
L 211.579609 52.275567 
L 211.790314 52.308334 
L 212.00102 52.355146 
L 212.211725 52.409759 
L 212.42243 52.484656 
L 212.633135 52.565796 
" clip-path="url(#pbfc14c12f5)" style="fill: none; stroke: #1f77b4; stroke-opacity: 0.9; stroke-width: 2.5; stroke-linecap: square"/>
   </g>
   <g id="line2d_9">
    <path d="M 10.145455 52.92 
L 213.054545 52.92 
L 213.054545 52.92 
" clip-path="url(#pbfc14c12f5)" style="fill: none; stroke-dasharray: 2,3.3; stroke-dashoffset: 0; stroke: #8d99ae; stroke-opacity: 0.7; stroke-width: 2"/>
   </g>
  </g>
 </g>
 <defs>
  <clipPath id="pbfc14c12f5">
   <rect x="0" y="-0" width="223.2" height="55.44"/>
  </clipPath>
 </defs>
</svg>
