<?xml version="1.0" encoding="utf-8" standalone="no"?>
<!DOCTYPE svg PUBLIC "-//W3C//DTD SVG 1.1//EN"
  "http://www.w3.org/Graphics/SVG/1.1/DTD/svg11.dtd">
<svg xmlns:xlink="http://www.w3.org/1999/xlink" width="223.2pt" height="55.44pt" viewBox="0 0 223.2 55.44" xmlns="http://www.w3.org/2000/svg" version="1.1">
 <metadata>
  <rdf:RDF xmlns:dc="http://purl.org/dc/elements/1.1/" xmlns:cc="http://creativecommons.org/ns#" xmlns:rdf="http://www.w3.org/1999/02/22-rdf-syntax-ns#">
   <cc:Work>
    <dc:type rdf:resource="http://purl.org/dc/dcmitype/StillImage"/>
    <dc:date>2026-06-25T20:28:50.432886</dc:date>
    <dc:format>image/svg+xml</dc:format>
    <dc:creator>
     <cc:Agent>
      <dc:title>Matplotlib v3.10.8, https://matplotlib.org/</dc:title>
     </cc:Agent>
    </dc:creator>
   </cc:Work>
  </rdf:RDF>
 </metadata>
 <defs>
  <style type="text/css">*{stroke-linejoin: round; stroke-linecap: butt}</style>
 </defs>
 <g id="figure_1">
  <g id="patch_1">
   <path d="M 0 55.44 
L 223.2 55.44 
L 223.2 0 
L 0 0 
L 0 55.44 
z
" style="fill: none"/>
  </g>
  <g id="axes_1">
   <g id="line2d_1">
    <path d="M 10.145455 52.877628 
L 10.727273 52.835256 
L 11.890909 52.473682 
L 12.181818 52.199677 
L 13.054545 51.982168 
L 13.345455 52.01889 
L 13.636364 52.215214 
L 14.363636 52.234987 
L 14.945455 52.025952 
L 15.672727 51.809855 
L 16.254545 51.907311 
L 16.836364 52.078211 
L 17.563636 51.893187 
L 18.290909 51.531613 
L 18.727273 51.442632 
L 19.6 51.09377 
L 20.618182 49.961027 
L 23.963636 45.410281 
L 24.690909 45.19136 
L 25.272727 45.398982 
L 26.145455 44.978088 
L 27.018182 44.058617 
L 27.745455 43.53038 
L 28.181818 43.245076 
L 28.618182 42.459783 
L 29.636364 39.130761 
L 30.218182 37.403399 
L 31.381818 34.954301 
L 32.254545 33.683143 
L 32.690909 33.38089 
L 32.981818 33.358292 
L 33.418182 33.567327 
L 33.854545 34.129461 
L 34.727273 35.287627 
L 35.454545 36.353987 
L 36.618182 38.353942 
L 37.054545 38.522018 
L 37.490909 38.428799 
L 37.781818 38.071463 
L 39.236364 35.48395 
L 40.109091 34.587078 
L 40.690909 33.431736 
L 41.127273 31.412008 
L 42 27.218599 
L 42.290909 26.314664 
L 42.872727 25.436153 
L 43.309091 24.865544 
L 44.327273 22.943271 
L 44.618182 22.710225 
L 44.909091 22.796382 
L 45.2 23.205977 
L 45.927273 24.696056 
L 46.509091 25.266665 
L 46.8 25.142374 
L 47.236364 24.576003 
L 48.109091 23.189028 
L 48.545455 22.804856 
L 48.981818 22.864177 
L 49.272727 22.850053 
L 50 22.374075 
L 50.290909 21.792167 
L 51.309091 19.374142 
L 51.6 18.958897 
L 51.890909 18.985733 
L 52.327273 19.217366 
L 54.072727 20.641063 
L 54.509091 20.389656 
L 55.527273 19.184881 
L 55.672727 19.247026 
L 55.818182 19.468773 
L 55.818182 19.468773 
" clip-path="url(#p35786ada1e)" style="fill: none; stroke: #1f77b4; stroke-opacity: 0.9; stroke-width: 2.5; stroke-linecap: square"/>
   </g>
   <g id="line2d_2">
    <path d="M 55.963636 19.689107 
L 56.109091 19.922152 
L 56.254545 20.142486 
L 56.4 20.351521 
L 56.545455 20.566206 
L 56.690909 20.783715 
L 56.836364 21.074669 
L 56.981818 21.348674 
L 57.127273 21.591606 
L 57.272727 21.677763 
L 57.418182 21.81194 
L 57.563636 22.109956 
L 57.709091 22.457406 
L 57.854545 22.81898 
L 58 23.145244 
L 58.145455 23.458796 
L 58.290909 23.642408 
L 58.436364 23.835906 
L 58.581818 24.001157 
L 58.727273 24.059065 
L 58.872727 24.06189 
L 59.018182 23.896639 
L 59.163636 23.70879 
L 59.309091 23.557664 
L 59.454545 23.436198 
L 59.6 23.345804 
L 59.745455 23.220101 
L 59.890909 22.922085 
L 60.036364 22.592996 
L 60.181818 22.37125 
L 60.327273 22.172102 
L 60.472727 21.991315 
L 60.618182 21.827477 
L 60.763636 21.612792 
L 60.909091 21.388221 
L 61.054545 21.121278 
L 61.2 21.018173 
L 61.345455 21.081731 
L 61.490909 21.201785 
L 61.636364 21.330313 
L 61.781818 21.433418 
L 61.927273 21.525224 
L 62.072727 21.547822 
L 62.218182 21.583132 
L 62.363636 21.628329 
L 62.509091 21.679175 
L 62.654545 21.614205 
L 62.8 21.441892 
L 62.945455 21.231445 
L 63.090909 20.985688 
L 63.236364 20.74558 
L 63.381818 20.475812 
" clip-path="url(#p35786ada1e)" style="fill: none; stroke: #d2691e; stroke-opacity: 0.9; stroke-width: 2.5; stroke-linecap: square"/>
   </g>
   <g id="line2d_3">
    <path d="M 63.527273 20.248416 
L 64.254545 18.916525 
L 64.690909 18.932061 
L 64.981818 19.184881 
L 65.709091 20.330335 
L 66.581818 20.648125 
L 66.872727 20.492761 
L 68.036364 20.386831 
L 68.763636 20.26254 
L 69.2 20.104352 
L 69.781818 20.131187 
L 70.363636 19.481484 
L 70.945455 18.885452 
L 71.236364 18.714552 
L 72.109091 19.001269 
L 72.545455 18.754099 
L 73.127273 18.18914 
L 73.563636 17.819092 
L 75.018182 17.191987 
L 75.454545 17.259783 
L 76.181818 17.593108 
L 76.472727 17.509777 
L 76.909091 17.303567 
L 78.072727 17.340289 
L 78.363636 17.419383 
L 79.527273 16.872786 
L 79.818182 16.802166 
L 80.690909 17.153853 
L 81.272727 17.420796 
L 81.854545 17.384074 
L 82.145455 17.368537 
L 82.581818 17.030974 
L 83.309091 16.50415 
L 83.745455 16.361498 
L 87.381818 15.724506 
L 88.4 15.687784 
L 88.836364 15.401067 
L 90.290909 13.762686 
L 91.018182 13.276821 
L 91.309091 12.81073 
L 92.036364 10.645524 
L 92.618182 8.826356 
L 93.054545 8.097559 
L 93.927273 7.117355 
L 94.8 6.34901 
L 95.381818 5.945064 
L 96.545455 4.151319 
L 96.690909 4.130133 
L 96.981818 4.535492 
L 97.563636 6.029808 
L 98 7.066508 
L 98.290909 7.292492 
L 98.581818 7.197861 
L 99.018182 6.543921 
L 99.163636 6.252967 
L 99.163636 6.252967 
" clip-path="url(#p35786ada1e)" style="fill: none; stroke: #1f77b4; stroke-opacity: 0.9; stroke-width: 2.5; stroke-linecap: square"/>
   </g>
   <g id="line2d_4">
    <path d="M 99.309091 6.018509 
L 99.454545 5.778402 
" clip-path="url(#p35786ada1e)" style="fill: none; stroke: #d2691e; stroke-opacity: 0.9; stroke-width: 2.5; stroke-linecap: square"/>
   </g>
   <g id="line2d_5">
    <path d="M 99.6 5.55948 
" clip-path="url(#p35786ada1e)" style="fill: none; stroke: #1f77b4; stroke-opacity: 0.9; stroke-width: 2.5; stroke-linecap: square"/>
   </g>
   <g id="line2d_6">
    <path d="M 99.745455 5.411178 
L 99.890909 5.301011 
L 100.036364 5.161184 
L 100.181818 5.079265 
L 100.327273 5.007232 
L 100.472727 4.923901 
L 100.618182 4.887179 
L 100.763636 4.846219 
L 100.909091 4.86458 
L 101.054545 4.939437 
L 101.2 5.089151 
L 101.345455 5.268526 
L 101.490909 5.525582 
L 101.636364 5.76004 
L 101.781818 5.998736 
L 101.927273 6.261442 
L 102.072727 6.46059 
L 102.218182 6.655501 
L 102.363636 6.812277 
L 102.509091 6.922444 
L 102.654545 6.966228 
L 102.8 6.946454 
L 102.945455 6.892783 
L 103.090909 6.826401 
L 103.236364 6.762843 
L 103.381818 6.700697 
L 103.527273 6.66115 
L 103.672727 6.620191 
L 103.818182 6.538271 
L 103.963636 6.402681 
L 104.109091 6.190822 
L 104.254545 5.963426 
L 104.4 5.740267 
L 104.545455 5.531232 
L 104.690909 5.319372 
L 104.836364 5.120224 
L 104.981818 4.9352 
L 105.127273 4.741702 
L 105.272727 4.615998 
L 105.418182 4.531254 
L 105.563636 4.52843 
L 105.709091 4.577863 
L 105.854545 4.617411 
L 106 4.613173 
L 106.145455 4.614586 
L 106.290909 4.569389 
L 106.436364 4.521368 
L 106.581818 4.467696 
L 106.727273 4.392839 
L 106.872727 4.28691 
L 107.018182 4.151319 
L 107.163636 3.995956 
L 107.309091 3.740312 
L 107.454545 3.514328 
L 107.6 3.318005 
L 107.745455 3.175353 
L 107.890909 3.042587 
L 108.036364 2.909822 
L 108.181818 2.782706 
L 108.327273 2.683838 
L 108.472727 2.601919 
L 108.618182 2.52 
L 108.763636 2.553898 
L 108.909091 2.594857 
L 109.054545 2.608981 
L 109.2 2.601919 
L 109.345455 2.583558 
L 109.490909 2.634404 
L 109.636364 2.695137 
" clip-path="url(#p35786ada1e)" style="fill: none; stroke: #d2691e; stroke-opacity: 0.9; stroke-width: 2.5; stroke-linecap: square"/>
   </g>
   <g id="line2d_7">
    <path d="M 109.781818 2.782706 
L 109.927273 2.887223 
L 110.072727 3.13863 
L 110.218182 3.552463 
L 110.363636 3.964883 
L 110.509091 4.466284 
L 110.654545 5.017119 
L 110.8 5.583491 
L 110.945455 6.099016 
L 111.090909 6.655501 
L 111.236364 7.18515 
L 111.381818 7.699262 
L 111.527273 8.069311 
L 111.672727 8.283995 
L 111.818182 8.500092 
L 111.963636 8.622971 
L 112.109091 8.723251 
" clip-path="url(#p35786ada1e)" style="fill: none; stroke: #1f77b4; stroke-opacity: 0.9; stroke-width: 2.5; stroke-linecap: square"/>
   </g>
   <g id="line2d_8">
    <path d="M 112.254545 8.846129 
L 112.4 8.953472 
L 112.545455 9.007143 
L 112.690909 9.062226 
L 112.836364 9.139908 
L 112.981818 9.214765 
L 113.127273 9.283973 
L 113.272727 9.357417 
L 113.418182 9.444986 
L 113.563636 9.532555 
L 113.709091 9.596113 
L 113.854545 9.666732 
L 114 9.768425 
L 114.145455 9.861643 
L 114.290909 9.864468 
L 114.436364 9.858819 
L 114.581818 9.858819 
L 114.727273 9.83622 
L 114.872727 9.80656 
L 115.018182 9.786786 
L 115.163636 9.774075 
L 115.309091 9.757126 
L 115.454545 9.714754 
L 115.6 9.676619 
L 115.745455 9.689331 
L 115.890909 9.707692 
L 116.036364 9.686506 
L 116.181818 9.682269 
L 116.327273 9.678032 
L 116.472727 9.679444 
L 116.618182 9.682269 
L 116.763636 9.685094 
L 116.909091 9.686506 
L 117.054545 9.699218 
L 117.2 9.738765 
L 117.345455 9.799498 
L 117.490909 9.920964 
L 117.636364 10.041018 
L 117.781818 10.163896 
L 117.927273 10.262764 
L 118.072727 10.358807 
L 118.218182 10.443551 
L 118.363636 10.498635 
L 118.509091 10.508521 
L 118.654545 10.492985 
L 118.8 10.449201 
L 118.945455 10.344683 
L 119.090909 10.238754 
L 119.236364 10.1187 
L 119.381818 9.984522 
L 119.527273 9.748651 
L 119.672727 9.505719 
L 119.818182 9.186517 
L 119.963636 8.827768 
L 120.109091 8.46337 
L 120.254545 8.097559 
L 120.4 7.755758 
L 120.545455 7.425257 
L 120.690909 7.093344 
L 120.836364 6.671037 
L 120.981818 6.28404 
L 121.127273 5.93094 
L 121.272727 5.738854 
L 121.418182 5.631512 
L 121.563636 5.599027 
L 121.709091 5.666822 
L 121.854545 5.853259 
L 122 6.031221 
L 122.145455 6.27839 
L 122.290909 6.63149 
L 122.436364 7.042497 
L 122.581818 7.445031 
L 122.727273 7.822141 
L 122.872727 8.292469 
L 123.018182 8.748674 
L 123.163636 9.134258 
L 123.309091 9.415326 
L 123.454545 9.686506 
L 123.6 9.888479 
L 123.745455 10.090452 
L 123.890909 10.322085 
L 124.036364 10.565017 
L 124.181818 10.798063 
L 124.327273 10.950602 
L 124.472727 11.156812 
" clip-path="url(#p35786ada1e)" style="fill: none; stroke: #d2691e; stroke-opacity: 0.9; stroke-width: 2.5; stroke-linecap: square"/>
   </g>
   <g id="line2d_9">
    <path d="M 124.618182 11.341836 
L 124.763636 11.471777 
L 124.909091 11.555108 
L 125.054545 11.645502 
L 125.2 11.727421 
L 125.345455 11.827701 
L 125.490909 11.913857 
L 125.636364 11.984477 
" clip-path="url(#p35786ada1e)" style="fill: none; stroke: #1f77b4; stroke-opacity: 0.9; stroke-width: 2.5; stroke-linecap: square"/>
   </g>
   <g id="line2d_10">
    <path d="M 125.781818 12.032499 
L 126.072727 11.95058 
L 126.363636 12.161027 
L 127.236364 13.331904 
L 128.109091 14.60165 
L 129.563636 16.124215 
L 130.290909 16.6694 
L 132.036364 17.492828 
L 132.763636 18.008353 
L 134.8 18.714552 
L 136.545455 20.323273 
L 139.018182 21.875498 
L 140.181818 23.132532 
L 140.618182 23.304845 
L 141.636364 23.528004 
L 142.363636 23.895227 
L 143.090909 24.44465 
L 143.527273 24.379679 
L 144.109091 24.002569 
L 144.4 23.883928 
L 144.981818 24.140984 
L 146.436364 25.081641 
L 147.890909 26.621155 
L 148.618182 27.126793 
L 149.2 27.573111 
L 150.945455 29.365443 
L 151.818182 29.537756 
L 152.4 30.090003 
L 153.418182 31.421894 
L 153.563636 31.37811 
L 153.563636 31.37811 
" clip-path="url(#p35786ada1e)" style="fill: none; stroke: #d2691e; stroke-opacity: 0.9; stroke-width: 2.5; stroke-linecap: square"/>
   </g>
   <g id="line2d_11">
    <path d="M 153.709091 31.321614 
L 153.854545 31.219922 
L 154 31.054671 
L 154.145455 30.814563 
L 154.290909 30.501011 
L 154.436364 30.180397 
L 154.581818 29.869669 
L 154.727273 29.612613 
L 154.872727 29.478435 
L 155.018182 29.396516 
L 155.163636 29.306123 
L 155.309091 29.24539 
L 155.454545 29.157821 
L 155.6 29.082964 
" clip-path="url(#p35786ada1e)" style="fill: none; stroke: #1f77b4; stroke-opacity: 0.9; stroke-width: 2.5; stroke-linecap: square"/>
   </g>
   <g id="line2d_12">
    <path d="M 155.745455 29.051891 
L 157.2 28.724215 
L 157.781818 28.995395 
L 158.509091 29.112624 
L 159.672727 29.977012 
L 159.963636 29.953001 
L 160.981818 29.300473 
L 161.418182 29.493972 
L 162 29.972774 
L 162.727273 30.844224 
L 163.454545 31.712848 
L 165.054545 33.205753 
L 165.490909 33.41055 
L 165.781818 33.581451 
L 166.363636 33.642184 
L 166.8 33.772124 
L 167.236364 33.756588 
L 167.672727 34.167596 
L 168.4 34.742441 
L 168.981818 34.893568 
L 169.563636 34.866732 
L 171.163636 35.092716 
L 171.890909 35.085654 
L 172.327273 35.222657 
L 172.909091 35.523497 
L 173.781818 35.927443 
L 174.945455 36.510763 
L 175.527273 36.238171 
L 176.254545 35.628015 
L 176.836364 35.459939 
L 177.272727 35.570106 
L 178 36.017837 
L 178.727273 36.539011 
L 179.6 37.016402 
L 180.327273 36.83844 
L 182.072727 36.020661 
L 182.654545 36.170376 
L 183.236364 36.437319 
L 183.527273 36.363874 
L 184.981818 35.108252 
L 186 34.961363 
L 186.436364 35.098366 
L 187.018182 35.392144 
L 188.181818 36.992391 
L 189.054545 38.928788 
L 189.490909 39.502222 
L 189.781818 39.60109 
L 190.072727 39.497985 
L 190.363636 39.291774 
L 190.654545 39.320022 
L 191.818182 39.784701 
L 193.127273 39.428777 
L 194.290909 39.335559 
L 195.163636 39.173133 
L 195.6 39.346858 
L 196.909091 40.021984 
L 197.781818 39.77199 
L 198.363636 39.66041 
L 200.690909 40.204183 
L 200.981818 40.195709 
L 201.563636 40.002211 
L 202 40.194297 
L 202.436364 40.368022 
L 203.163636 39.839785 
L 203.454545 40.045995 
L 204.036364 39.93724 
L 204.472727 40.160399 
L 204.618182 39.961251 
L 204.909091 39.413241 
L 205.2 38.97116 
L 205.490909 39.022007 
L 205.636364 39.1124 
L 205.781818 39.067203 
L 206.218182 37.988131 
L 206.363636 37.824293 
L 206.654545 38.312983 
L 206.945455 38.274848 
L 207.090909 38.298859 
L 207.236364 38.548853 
L 207.672727 40.274803 
L 207.818182 40.387795 
L 207.963636 40.307288 
L 208.254545 40.565757 
L 208.545455 40.893433 
L 208.981818 40.907557 
L 209.127273 41.199924 
L 209.709091 43.010618 
L 209.854545 43.18293 
L 209.854545 43.18293 
" clip-path="url(#p35786ada1e)" style="fill: none; stroke: #d2691e; stroke-opacity: 0.9; stroke-width: 2.5; stroke-linecap: square"/>
   </g>
   <g id="line2d_13">
    <path d="M 210 43.38914 
L 210.145455 43.674445 
L 210.290909 43.989409 
L 210.436364 44.287425 
L 210.581818 44.462562 
L 210.727273 44.49646 
L 210.872727 44.523296 
L 211.018182 44.629225 
L 211.163636 44.898993 
L 211.309091 45.304352 
L 211.454545 45.713947 
L 211.6 46.134841 
L 211.745455 46.59952 
L 211.890909 47.147531 
L 212.036364 47.672942 
L 212.181818 48.098074 
L 212.327273 48.384791 
L 212.472727 48.663033 
L 212.618182 48.794386 
L 212.763636 48.891842 
L 212.909091 48.928564 
L 213.054545 48.939863 
" clip-path="url(#p35786ada1e)" style="fill: none; stroke: #1f77b4; stroke-opacity: 0.9; stroke-width: 2.5; stroke-linecap: square"/>
   </g>
   <g id="line2d_14">
    <path d="M 10.145455 52.92 
L 213.054545 52.92 
L 213.054545 52.92 
" clip-path="url(#p35786ada1e)" style="fill: none; stroke-dasharray: 2,3.3; stroke-dashoffset: 0; stroke: #8d99ae; stroke-opacity: 0.7; stroke-width: 2"/>
   </g>
  </g>
 </g>
 <defs>
  <clipPath id="p35786ada1e">
   <rect x="0" y="-0" width="223.2" height="55.44"/>
  </clipPath>
 </defs>
</svg>
