<?xml version="1.0" encoding="utf-8" standalone="no"?>
<!DOCTYPE svg PUBLIC "-//W3C//DTD SVG 1.1//EN"
  "http://www.w3.org/Graphics/SVG/1.1/DTD/svg11.dtd">
<svg xmlns:xlink="http://www.w3.org/1999/xlink" width="223.2pt" height="55.44pt" viewBox="0 0 223.2 55.44" xmlns="http://www.w3.org/2000/svg" version="1.1">
 <metadata>
  <rdf:RDF xmlns:dc="http://purl.org/dc/elements/1.1/" xmlns:cc="http://creativecommons.org/ns#" xmlns:rdf="http://www.w3.org/1999/02/22-rdf-syntax-ns#">
   <cc:Work>
    <dc:type rdf:resource="http://purl.org/dc/dcmitype/StillImage"/>
    <dc:date>2026-05-06T16:20:41.512573</dc:date>
    <dc:format>image/svg+xml</dc:format>
    <dc:creator>
     <cc:Agent>
      <dc:title>Matplotlib v3.10.8, https://matplotlib.org/</dc:title>
     </cc:Agent>
    </dc:creator>
   </cc:Work>
  </rdf:RDF>
 </metadata>
 <defs>
  <style type="text/css">*{stroke-linejoin: round; stroke-linecap: butt}</style>
 </defs>
 <g id="figure_1">
  <g id="patch_1">
   <path d="M 0 55.44 
L 223.2 55.44 
L 223.2 0 
L 0 0 
L 0 55.44 
z
" style="fill: none"/>
  </g>
  <g id="axes_1">
   <g id="line2d_1">
    <path d="M 10.267763 52.758327 
L 11.368535 52.668509 
L 14.181621 52.378695 
L 15.52701 51.900863 
L 16.872398 51.34399 
L 18.462403 50.522452 
L 20.052408 49.512895 
L 21.153181 49.15482 
L 21.397797 48.896144 
L 22.743186 45.950106 
L 23.721651 45.030367 
L 24.210883 44.696243 
L 24.577807 44.026798 
L 25.067039 42.60288 
L 25.800888 40.387364 
L 26.412428 39.53948 
L 27.023968 38.671237 
L 27.513201 37.077263 
L 28.247049 34.634207 
L 29.103206 32.854609 
L 29.592438 32.740839 
L 29.837054 32.879758 
L 30.448594 33.407889 
L 30.693211 33.370764 
L 31.304751 32.513299 
L 32.038599 31.554041 
L 32.65014 31.259437 
L 34.240145 30.21515 
L 34.607069 30.009167 
L 35.707842 28.813986 
L 36.319382 28.428366 
L 37.175538 27.331386 
L 37.297846 27.231988 
L 38.276311 27.499047 
L 38.643235 27.105045 
L 39.6217 25.799686 
L 40.110932 25.494304 
L 40.844781 25.188922 
L 41.700937 25.012879 
L 42.067861 24.391337 
L 43.046326 22.563835 
L 43.535558 22.233304 
L 44.02479 21.640504 
L 44.391715 21.180634 
L 45.125563 20.953095 
L 45.859411 20.778249 
L 46.470952 20.726753 
L 46.837876 20.426161 
L 47.571724 19.6166 
L 49.039421 19.066912 
L 49.77327 19.139964 
L 50.017886 18.939969 
L 50.507118 18.190286 
L 51.974815 15.514901 
L 52.586355 14.371215 
L 52.95328 14.104156 
L 53.442512 14.079007 
L 53.809436 14.05745 
L 54.17636 13.644287 
L 54.787901 12.37246 
L 55.154825 11.750918 
L 55.644057 11.534157 
L 56.010981 11.406016 
L 56.377906 10.974889 
L 57.234062 9.800067 
L 57.723294 9.695877 
L 58.334835 9.533007 
L 59.068683 8.956973 
L 60.291764 7.494732 
L 60.903304 7.203721 
L 61.270229 6.703134 
L 62.615617 4.305586 
L 63.10485 4.032539 
L 63.838698 3.857693 
L 64.32793 4.119962 
L 64.572546 4.543904 
L 65.551011 7.076778 
L 66.040243 7.917477 
L 67.018708 8.814461 
L 67.385632 8.831227 
L 67.874864 8.646801 
L 68.608713 8.603688 
L 70.68795 10.319815 
L 71.911031 10.422806 
L 75.335657 10.726991 
L 77.292586 10.906627 
L 78.026434 10.834772 
L 78.637975 11.153328 
L 79.494131 12.047917 
L 80.472596 13.838294 
L 80.717212 13.944878 
L 80.83952 13.935298 
L 81.328752 14.673005 
L 82.062601 16.111294 
L 82.307217 16.071774 
L 82.918757 15.779565 
L 83.163373 16.36997 
L 83.897222 18.202262 
L 84.264146 18.696861 
L 84.63107 18.520817 
L 84.875686 18.538781 
L 85.609535 19.50283 
L 86.465691 20.846511 
L 86.954924 21.317158 
L 87.321848 21.742298 
L 88.42262 23.608122 
L 88.789545 23.512316 
L 89.278777 23.212921 
L 89.768009 23.313518 
L 90.868782 23.800931 
L 91.358014 24.261998 
L 92.458787 25.43203 
L 93.070327 25.982916 
L 94.048792 27.709821 
L 94.904948 28.949312 
L 95.638797 30.084614 
L 96.494953 31.063034 
L 97.228802 31.827088 
L 98.696498 32.968378 
L 100.898044 34.134818 
L 101.998816 35.011444 
L 103.099589 36.252133 
L 103.588821 36.502426 
L 104.444978 36.997025 
L 105.301134 37.690422 
L 105.668059 37.692817 
L 106.279599 37.364681 
L 106.891139 36.582664 
L 107.258063 35.847352 
L 107.747296 34.770731 
L 108.236528 34.139608 
L 108.848068 33.680936 
L 109.581917 33.302502 
L 110.193457 32.649823 
L 110.804998 31.874991 
L 111.171922 31.792358 
L 112.028078 31.843854 
L 112.517311 31.39117 
L 113.128851 30.945672 
L 113.740391 30.672624 
L 114.841164 29.555286 
L 115.941937 29.110985 
L 116.431169 28.528963 
L 117.409633 27.212826 
L 118.510406 26.228419 
L 118.999638 26.087105 
L 119.366563 26.220036 
L 119.978103 27.075105 
L 121.4458 29.621152 
L 122.179648 30.461851 
L 122.791189 30.801963 
L 123.402729 31.161236 
L 125.359658 33.006701 
L 125.84889 33.702493 
L 126.460431 34.004282 
L 126.949663 33.877339 
L 127.071971 33.969552 
L 128.050436 35.861723 
L 128.295052 36.114411 
L 128.661976 36.084472 
L 129.0289 36.220996 
L 129.518133 36.5647 
L 129.885057 36.52997 
L 131.230446 35.896452 
L 132.698142 34.095298 
L 134.532763 33.11089 
L 135.878152 31.475001 
L 138.079698 27.990053 
L 139.669702 26.144588 
L 141.015091 22.924306 
L 141.74894 22.37342 
L 142.115864 22.004567 
L 142.482788 21.276441 
L 142.97202 20.240537 
L 144.195101 18.132803 
L 145.295874 15.11012 
L 147.497419 10.679088 
L 147.864343 10.512624 
L 148.598192 10.392867 
L 149.576656 8.991703 
L 149.94358 8.379741 
L 151.533585 4.451691 
L 152.51205 3.079268 
L 152.756666 2.976277 
L 153.12359 3.06849 
L 153.857439 3.401416 
L 154.224363 3.262497 
L 154.835903 2.930769 
L 155.325136 3.057712 
L 155.69206 3.151123 
L 156.058984 3.081663 
L 157.159757 2.542754 
L 157.648989 2.540359 
L 158.015913 2.697241 
L 158.627454 3.195433 
L 159.238994 3.767875 
L 159.972842 4.098406 
L 160.828999 4.261276 
L 161.318231 4.535521 
L 162.05208 5.215744 
L 162.296696 5.212152 
L 162.66362 4.898387 
L 163.519776 4.025353 
L 164.009009 4.185829 
L 165.476706 4.91156 
L 165.965938 5.178619 
L 166.944402 6.219313 
L 168.167483 7.681554 
L 168.534407 7.797719 
L 169.02364 7.889932 
L 169.63518 8.68153 
L 170.24672 9.509055 
L 171.102877 10.022816 
L 171.469801 10.155747 
L 172.570574 9.89707 
L 172.81519 10.003655 
L 173.42673 10.51502 
L 174.160579 11.935345 
L 175.383659 14.826294 
L 175.872892 15.568792 
L 176.484432 16.076564 
L 176.851356 16.063391 
L 177.21828 16.09812 
L 177.462897 16.368773 
L 177.707513 16.910077 
L 178.074437 18.304056 
L 178.930593 21.78541 
L 179.419826 22.935084 
L 179.909058 23.611714 
L 180.275982 24.096733 
L 181.009831 25.293112 
L 181.865987 28.049932 
L 182.355219 29.952881 
L 182.844452 31.296562 
L 183.333684 31.70254 
L 184.312149 32.423481 
L 186.636002 34.192301 
L 187.002926 34.029431 
L 187.614467 33.38274 
L 188.592931 32.036664 
L 188.837547 31.93487 
L 189.082163 32.027083 
L 189.449088 32.706109 
L 190.54986 35.261737 
L 192.262173 36.631764 
L 192.873714 37.256899 
L 193.485254 37.85928 
L 193.852178 37.929937 
L 194.586027 37.502402 
L 195.686799 36.573083 
L 195.931415 36.619789 
L 196.053723 36.710804 
L 196.542956 38.002989 
L 197.154496 40.266408 
L 197.643728 42.084329 
L 198.622193 44.692651 
L 199.356041 45.855497 
L 200.334506 46.636317 
L 200.70143 46.642305 
L 201.557587 46.617156 
L 201.802203 46.87703 
L 202.413743 48.054247 
L 203.025284 49.066199 
L 203.514516 49.359606 
L 204.003748 49.625468 
L 204.859905 50.515267 
L 205.471445 51.128426 
L 206.327602 51.821823 
L 207.183758 52.219418 
L 208.406839 52.482885 
L 210.486076 52.515219 
L 212.809929 52.811021 
L 212.809929 52.811021 
" clip-path="url(#ped803641b4)" style="fill: none; stroke: #1f77b4; stroke-opacity: 0.9; stroke-width: 2.5; stroke-linecap: square"/>
   </g>
   <g id="line2d_2">
    <path d="M 10.145455 52.92 
L 213.054545 52.92 
L 213.054545 52.92 
" clip-path="url(#ped803641b4)" style="fill: none; stroke-dasharray: 2,3.3; stroke-dashoffset: 0; stroke: #8d99ae; stroke-opacity: 0.7; stroke-width: 2"/>
   </g>
  </g>
 </g>
 <defs>
  <clipPath id="ped803641b4">
   <rect x="0" y="-0" width="223.2" height="55.44"/>
  </clipPath>
 </defs>
</svg>
