<?xml version="1.0" encoding="utf-8" standalone="no"?>
<!DOCTYPE svg PUBLIC "-//W3C//DTD SVG 1.1//EN"
  "http://www.w3.org/Graphics/SVG/1.1/DTD/svg11.dtd">
<svg xmlns:xlink="http://www.w3.org/1999/xlink" width="223.2pt" height="55.44pt" viewBox="0 0 223.2 55.44" xmlns="http://www.w3.org/2000/svg" version="1.1">
 <metadata>
  <rdf:RDF xmlns:dc="http://purl.org/dc/elements/1.1/" xmlns:cc="http://creativecommons.org/ns#" xmlns:rdf="http://www.w3.org/1999/02/22-rdf-syntax-ns#">
   <cc:Work>
    <dc:type rdf:resource="http://purl.org/dc/dcmitype/StillImage"/>
    <dc:date>2026-06-25T20:55:02.335093</dc:date>
    <dc:format>image/svg+xml</dc:format>
    <dc:creator>
     <cc:Agent>
      <dc:title>Matplotlib v3.10.8, https://matplotlib.org/</dc:title>
     </cc:Agent>
    </dc:creator>
   </cc:Work>
  </rdf:RDF>
 </metadata>
 <defs>
  <style type="text/css">*{stroke-linejoin: round; stroke-linecap: butt}</style>
 </defs>
 <g id="figure_1">
  <g id="patch_1">
   <path d="M 0 55.44 
L 223.2 55.44 
L 223.2 0 
L 0 0 
L 0 55.44 
z
" style="fill: none"/>
  </g>
  <g id="axes_1">
   <g id="line2d_1">
    <path d="M 10.145455 51.256936 
L 10.696838 51.132047 
L 11.45499 50.940381 
L 12.488834 50.514866 
L 13.178063 49.989567 
L 13.79837 50.075588 
L 16.348518 50.594005 
L 16.762055 50.310711 
L 17.451285 49.299109 
L 17.726976 49.519322 
L 18.554051 50.433433 
L 20.41497 52.149256 
L 21.173123 52.345383 
L 21.655583 52.423375 
L 23.034042 52.835126 
L 23.654348 52.516277 
L 24.205731 52.286889 
L 24.619269 52.286889 
L 25.032806 51.974921 
L 25.377421 51.760443 
L 26.824802 51.490912 
L 27.376186 51.151418 
L 27.927569 50.689201 
L 28.41003 50.552715 
L 29.650642 50.409348 
L 30.822332 50.347413 
L 31.304792 49.851935 
L 31.649407 49.574375 
L 32.476482 49.225705 
L 33.786018 48.933235 
L 34.130632 48.699259 
L 34.750939 48.257687 
L 35.578014 48.271451 
L 36.19832 48.171667 
L 36.611858 47.931956 
L 37.163241 47.590168 
L 37.783547 47.386013 
L 38.748468 46.734551 
L 39.437698 46.440934 
L 40.747233 45.511912 
L 41.436462 45.003818 
L 41.918923 44.572568 
L 42.814921 44.06562 
L 43.435227 43.965837 
L 43.779842 43.710069 
L 44.882609 42.009156 
L 45.502915 40.992967 
L 45.84753 40.912681 
L 46.467836 41.069812 
L 46.674605 40.941355 
L 47.432757 40.180933 
L 47.708449 40.229105 
L 49.086907 41.544646 
L 49.707213 41.856613 
L 50.603211 42.119263 
L 51.085672 42.453022 
L 52.395208 42.505782 
L 53.222283 42.329153 
L 55.083202 42.620476 
L 56.185968 42.537896 
L 56.599506 42.656031 
L 57.909042 42.508075 
L 59.356423 42.012597 
L 60.597036 41.612315 
L 62.5958 41.481564 
L 63.353953 41.212033 
L 64.387796 41.120278 
L 64.93918 41.053755 
L 65.628409 41.051461 
L 66.386561 40.722289 
L 66.869022 40.597273 
L 67.489328 40.690175 
L 68.24748 41.233825 
L 69.212401 41.159274 
L 69.970553 40.886302 
L 71.486858 39.821941 
L 72.934239 39.289761 
L 74.243775 38.447907 
L 74.588389 38.248339 
L 75.415464 37.670281 
L 76.104694 37.474154 
L 77.345306 36.836455 
L 77.689921 36.581835 
L 79.275148 34.888951 
L 79.688686 34.362505 
L 80.102223 34.154909 
L 80.515761 34.11706 
L 81.480682 34.159497 
L 82.85914 33.970251 
L 83.341601 33.940431 
L 84.168676 33.900288 
L 85.478211 33.286675 
L 85.960672 32.98503 
L 86.374209 32.780874 
L 86.994516 32.814136 
L 87.821591 32.798078 
L 88.304051 32.570984 
L 88.993281 32.178731 
L 90.233893 32.049126 
L 91.474506 31.880526 
L 92.094812 31.583469 
L 93.197579 31.515799 
L 94.1625 30.840251 
L 95.265267 30.841398 
L 96.161265 30.9343 
L 96.643725 31.429779 
L 97.195109 31.969987 
L 97.953261 32.45629 
L 98.780336 33.219006 
L 99.056028 33.220152 
L 99.538488 32.52396 
L 100.503409 30.8781 
L 101.46833 30.420471 
L 102.571097 30.496169 
L 102.846789 30.49961 
L 104.500939 29.818327 
L 105.190168 29.549943 
L 105.810474 29.20242 
L 106.499704 29.024645 
L 107.395702 28.405297 
L 108.153854 28.308954 
L 109.670158 28.366301 
L 110.42831 28.294044 
L 110.841848 28.027953 
L 111.806769 27.086315 
L 113.667688 26.74338 
L 114.081225 26.569045 
L 114.9083 26.624098 
L 115.528607 26.328188 
L 116.217836 25.732926 
L 118.216601 25.536799 
L 118.90583 25.396872 
L 119.388291 25.508126 
L 119.870751 25.107843 
L 120.146443 24.97021 
L 120.697826 25.03788 
L 121.387055 25.095227 
L 122.489822 24.907129 
L 123.247974 24.951859 
L 124.212895 24.397887 
L 124.488587 24.334806 
L 124.971047 24.191438 
L 125.935968 24.270577 
L 126.418429 23.997605 
L 127.38335 22.965359 
L 128.417194 21.758778 
L 128.830731 21.797773 
L 129.313192 21.821859 
L 130.415958 21.012119 
L 130.829496 20.879074 
L 132.001186 19.927114 
L 132.759338 18.897161 
L 134.344565 18.524406 
L 135.447332 17.958964 
L 136.136561 17.917674 
L 136.619022 18.143622 
L 137.239328 18.535875 
L 137.51502 18.468206 
L 138.342095 17.887854 
L 139.307016 17.793805 
L 139.858399 17.332735 
L 140.82332 16.197264 
L 141.443626 15.380642 
L 144.476235 12.898663 
L 145.579002 11.647351 
L 146.268231 11.388143 
L 147.577767 10.431595 
L 147.922381 10.393746 
L 148.611611 10.427007 
L 149.025148 10.297403 
L 149.369763 9.781279 
L 150.47253 7.324533 
L 151.299605 5.084559 
L 152.540217 3.256336 
L 153.022678 3.552246 
L 153.642984 3.35956 
L 154.401136 3.148523 
L 155.503903 2.525735 
L 156.468824 2.962719 
L 156.882362 3.179491 
L 157.158053 3.038417 
L 157.502668 2.923723 
L 157.709437 3.065944 
L 159.639279 5.152228 
L 160.052816 5.375881 
L 160.6042 5.437816 
L 161.500198 4.547791 
L 162.189427 4.575317 
L 162.74081 5.195812 
L 163.43004 6.02505 
L 163.9125 6.483826 
L 164.532806 7.557362 
L 165.015267 8.140008 
L 165.497727 8.976127 
L 165.842342 9.179136 
L 166.049111 9.258275 
L 166.393725 9.515189 
L 166.945109 10.196472 
L 167.151877 10.305431 
L 167.772184 10.299696 
L 168.599259 11.226424 
L 168.874951 10.853669 
L 169.219565 10.493529 
L 169.357411 10.513027 
L 169.977717 10.967216 
L 170.942638 10.807791 
L 171.562945 10.170092 
L 171.838636 10.173533 
L 172.665711 10.249231 
L 173.010326 10.218264 
L 173.492787 10.262994 
L 174.182016 10.264141 
L 174.733399 10.266435 
L 175.078014 9.981994 
L 175.422628 9.758341 
L 175.69832 9.886798 
L 176.318626 10.295109 
L 177.214625 10.32837 
L 177.559239 10.206794 
L 178.0417 10.323782 
L 178.52416 9.822569 
L 178.868775 9.303005 
L 179.420158 8.190473 
L 179.833696 7.936999 
L 180.385079 7.43808 
L 180.729694 6.620312 
L 181.35 5.079971 
L 181.901383 4.016757 
L 182.314921 3.62221 
L 182.590613 3.473107 
L 182.797381 3.506369 
L 183.762302 4.317256 
L 184.382609 5.185489 
L 184.727223 5.272657 
L 184.933992 5.370147 
L 185.692144 6.092719 
L 186.863834 6.354222 
L 187.48414 6.800381 
L 187.966601 6.564112 
L 188.449061 6.298022 
L 188.65583 6.395511 
L 189.000445 6.769414 
L 189.413982 6.700598 
L 189.689674 6.658161 
L 189.896443 6.574434 
L 190.30998 6.098454 
L 190.861364 5.238249 
L 191.068132 5.272657 
L 191.826285 5.377028 
L 192.033053 5.243983 
L 192.515514 4.832232 
L 192.722283 4.882697 
L 193.273666 5.62018 
L 193.893972 7.077941 
L 194.445356 8.142302 
L 194.721047 8.711184 
L 195.065662 10.203353 
L 195.685968 12.96748 
L 197.822579 20.885956 
L 198.511808 23.73725 
L 198.994269 25.417517 
L 201.130879 36.205638 
L 201.820109 37.934077 
L 202.371492 39.374634 
L 203.060721 40.266954 
L 204.025642 41.661633 
L 204.370257 42.113528 
L 204.577026 42.481696 
L 205.059486 44.288127 
L 205.335178 45.022169 
L 205.679792 45.615137 
L 206.09333 46.804514 
L 206.506868 47.697981 
L 206.989328 48.153316 
L 207.333943 48.214104 
L 209.194862 48.360912 
L 211.055781 49.335811 
L 211.607164 49.769355 
L 212.089625 49.94369 
L 213.054545 50.015947 
L 213.054545 50.015947 
" clip-path="url(#p92d92f0633)" style="fill: none; stroke: #1f77b4; stroke-opacity: 0.9; stroke-width: 2.5; stroke-linecap: square"/>
   </g>
   <g id="line2d_2">
    <path d="M 10.145455 52.92 
L 213.054545 52.92 
L 213.054545 52.92 
" clip-path="url(#p92d92f0633)" style="fill: none; stroke-dasharray: 2,3.3; stroke-dashoffset: 0; stroke: #8d99ae; stroke-opacity: 0.7; stroke-width: 2"/>
   </g>
  </g>
 </g>
 <defs>
  <clipPath id="p92d92f0633">
   <rect x="0" y="-0" width="223.2" height="55.44"/>
  </clipPath>
 </defs>
</svg>
