<?xml version="1.0" encoding="utf-8" standalone="no"?>
<!DOCTYPE svg PUBLIC "-//W3C//DTD SVG 1.1//EN"
  "http://www.w3.org/Graphics/SVG/1.1/DTD/svg11.dtd">
<svg xmlns:xlink="http://www.w3.org/1999/xlink" width="223.2pt" height="55.44pt" viewBox="0 0 223.2 55.44" xmlns="http://www.w3.org/2000/svg" version="1.1">
 <metadata>
  <rdf:RDF xmlns:dc="http://purl.org/dc/elements/1.1/" xmlns:cc="http://creativecommons.org/ns#" xmlns:rdf="http://www.w3.org/1999/02/22-rdf-syntax-ns#">
   <cc:Work>
    <dc:type rdf:resource="http://purl.org/dc/dcmitype/StillImage"/>
    <dc:date>2026-06-25T20:54:39.458745</dc:date>
    <dc:format>image/svg+xml</dc:format>
    <dc:creator>
     <cc:Agent>
      <dc:title>Matplotlib v3.10.8, https://matplotlib.org/</dc:title>
     </cc:Agent>
    </dc:creator>
   </cc:Work>
  </rdf:RDF>
 </metadata>
 <defs>
  <style type="text/css">*{stroke-linejoin: round; stroke-linecap: butt}</style>
 </defs>
 <g id="figure_1">
  <g id="patch_1">
   <path d="M 0 55.44 
L 223.2 55.44 
L 223.2 0 
L 0 0 
L 0 55.44 
z
" style="fill: none"/>
  </g>
  <g id="axes_1">
   <g id="line2d_1">
    <path d="M 10.145455 51.318293 
L 11.134183 51.158122 
L 12.452488 50.724375 
L 13.11164 49.977301 
L 13.441217 49.713078 
L 13.770793 49.855712 
L 14.210228 50.094214 
L 14.759522 49.853374 
L 15.089098 49.746983 
L 15.198957 49.803101 
L 16.736979 52.327251 
L 17.066555 52.521327 
L 17.615849 52.475731 
L 19.483447 50.549006 
L 20.362317 50.006529 
L 21.680622 48.705288 
L 23.218644 47.384172 
L 24.427091 45.905224 
L 25.635537 44.516298 
L 26.624265 43.238439 
L 27.612994 40.570486 
L 28.052429 40.155445 
L 28.382005 39.946171 
L 28.711581 40.143754 
L 29.151016 40.708443 
L 29.920028 41.777028 
L 30.359463 42.061126 
L 30.908756 42.265724 
L 33.874942 42.359254 
L 34.753812 41.97461 
L 35.962258 41.517481 
L 36.731269 41.404075 
L 37.170704 41.328082 
L 39.477738 40.588023 
L 39.807314 40.627773 
L 40.246749 40.759885 
L 40.576325 40.577501 
L 41.235478 39.754434 
L 44.311522 36.111426 
L 45.519968 33.825778 
L 47.497426 33.262258 
L 47.936861 32.904504 
L 48.486154 32.572472 
L 50.024177 31.685102 
L 50.793188 31.254863 
L 51.562199 30.631717 
L 51.781917 30.64107 
L 52.001634 30.825792 
L 52.660787 32.159769 
L 52.990363 32.642619 
L 53.21008 32.715105 
L 53.429798 32.537398 
L 53.869233 31.650029 
L 54.418526 30.407244 
L 54.857961 29.977004 
L 55.626972 29.288387 
L 56.505842 27.931028 
L 56.835419 27.791901 
L 57.055136 27.898292 
L 57.494571 27.60601 
L 58.593158 26.530411 
L 59.472028 26.277879 
L 60.021322 25.949353 
L 60.790333 25.330884 
L 61.559344 25.169544 
L 62.767791 24.815298 
L 63.866378 24.508986 
L 64.745248 24.296205 
L 66.173411 23.770096 
L 66.832564 23.618109 
L 67.271999 23.148119 
L 67.601575 22.534326 
L 68.150869 21.603699 
L 68.810021 20.946649 
L 69.249456 20.646182 
L 70.128326 19.18594 
L 70.787478 18.100988 
L 71.446631 17.538636 
L 71.886066 17.364436 
L 72.984653 17.505901 
L 73.314229 17.233494 
L 73.643806 16.965763 
L 74.083241 16.88977 
L 74.412817 16.985638 
L 75.071969 17.604108 
L 75.291687 18.006288 
L 75.621263 18.628265 
L 75.950839 18.851569 
L 76.280415 18.807142 
L 76.609992 18.445881 
L 76.939568 18.413145 
L 77.379003 18.676199 
L 77.928297 19.553046 
L 79.35646 22.547187 
L 81.333917 25.464165 
L 82.432505 26.927915 
L 83.091657 27.492604 
L 84.080386 28.448952 
L 85.618408 30.588459 
L 87.925442 33.220169 
L 90.342334 35.222888 
L 90.891628 35.760688 
L 91.440921 35.911505 
L 91.770498 35.768871 
L 92.209933 35.315249 
L 92.759226 34.699118 
L 93.747955 34.263033 
L 95.06626 32.828511 
L 98.142304 30.769674 
L 98.471881 30.652761 
L 98.911316 30.374508 
L 99.900044 29.53975 
L 100.998632 29.129386 
L 102.316937 28.206942 
L 105.173264 24.766195 
L 105.722557 24.912336 
L 106.931004 26.096664 
L 108.578885 27.689018 
L 109.567613 28.254877 
L 110.995777 29.120032 
L 111.874647 29.745517 
L 112.863375 29.972328 
L 113.961963 30.659776 
L 115.719703 31.645352 
L 117.807019 34.028038 
L 118.57603 35.623899 
L 119.784476 36.110257 
L 120.223911 35.780563 
L 120.443628 35.630914 
L 120.883063 35.495295 
L 122.09151 34.721332 
L 124.288684 33.327729 
L 124.837978 32.919703 
L 125.167554 32.660156 
L 127.145012 31.413864 
L 127.694305 30.689004 
L 129.342186 29.173812 
L 130.990067 27.223705 
L 132.308372 25.632519 
L 132.967525 25.312178 
L 133.516818 25.354267 
L 134.066112 25.10758 
L 135.1647 23.539778 
L 135.933711 22.878051 
L 136.373146 22.622011 
L 136.812581 22.451318 
L 137.581592 21.554596 
L 137.911168 21.152416 
L 138.57032 20.793493 
L 139.119614 20.656705 
L 140.108343 20.128258 
L 141.646365 18.968482 
L 141.975941 18.759208 
L 142.744953 18.261158 
L 143.404105 17.925618 
L 145.161845 15.752207 
L 145.491421 15.652831 
L 145.930856 15.127892 
L 146.370291 14.385494 
L 146.699867 13.865232 
L 147.249161 13.547229 
L 147.908313 12.68558 
L 149.226618 10.542566 
L 149.775912 10.140386 
L 150.105488 10.125187 
L 150.544923 10.132202 
L 150.984358 9.845765 
L 151.753369 9.354731 
L 152.192804 9.357069 
L 155.15899 9.403834 
L 155.708284 9.414356 
L 156.697012 9.471644 
L 157.136447 9.306796 
L 157.7956 8.940859 
L 158.235035 9.01919 
L 159.223763 9.482166 
L 160.651927 9.541791 
L 161.311079 9.392143 
L 162.080091 9.511394 
L 162.739243 9.089338 
L 163.398395 8.481391 
L 164.167407 7.412807 
L 164.496983 7.312261 
L 165.705429 6.638843 
L 166.035005 6.297457 
L 168.23218 3.136131 
L 169.660344 2.530522 
L 170.209637 2.799422 
L 170.86879 3.145484 
L 171.418083 3.510253 
L 172.406812 4.311106 
L 173.615258 4.958804 
L 174.054693 5.177431 
L 176.142009 5.397227 
L 177.130738 5.939704 
L 178.009608 5.678988 
L 178.778619 5.40775 
L 179.108195 5.507126 
L 179.657489 5.888262 
L 180.206782 5.868387 
L 180.646217 5.766672 
L 181.30537 5.67548 
L 181.854664 5.342278 
L 182.733533 4.369563 
L 183.06311 4.335658 
L 184.161697 4.511027 
L 184.82085 4.251481 
L 185.480002 3.913602 
L 185.809578 3.965044 
L 186.688448 4.716794 
L 187.457459 5.834482 
L 188.22647 7.023487 
L 188.665905 7.575316 
L 189.434917 9.55699 
L 189.98421 10.972806 
L 190.313786 11.698835 
L 191.192656 13.915504 
L 193.279972 18.566301 
L 194.817995 23.021853 
L 195.25743 23.779449 
L 195.806723 25.271258 
L 197.234887 30.593136 
L 198.223616 33.525312 
L 198.882768 35.537384 
L 199.651779 36.666763 
L 201.29966 39.341731 
L 201.848954 39.781324 
L 203.277118 40.894335 
L 204.705281 42.973047 
L 205.584151 44.881066 
L 206.353162 45.615279 
L 207.012315 46.072409 
L 207.671467 46.15191 
L 208.220761 46.255962 
L 208.879913 46.645282 
L 210.198218 47.678793 
L 210.857371 48.55564 
L 211.186947 48.754392 
L 211.846099 48.950806 
L 213.054545 49.87208 
L 213.054545 49.87208 
" clip-path="url(#p5d7687940b)" style="fill: none; stroke: #1f77b4; stroke-opacity: 0.9; stroke-width: 2.5; stroke-linecap: square"/>
   </g>
   <g id="line2d_2">
    <path d="M 10.145455 52.92 
L 213.054545 52.92 
L 213.054545 52.92 
" clip-path="url(#p5d7687940b)" style="fill: none; stroke-dasharray: 2,3.3; stroke-dashoffset: 0; stroke: #8d99ae; stroke-opacity: 0.7; stroke-width: 2"/>
   </g>
  </g>
 </g>
 <defs>
  <clipPath id="p5d7687940b">
   <rect x="0" y="-0" width="223.2" height="55.44"/>
  </clipPath>
 </defs>
</svg>
