<?xml version="1.0" encoding="utf-8" standalone="no"?>
<!DOCTYPE svg PUBLIC "-//W3C//DTD SVG 1.1//EN"
  "http://www.w3.org/Graphics/SVG/1.1/DTD/svg11.dtd">
<svg xmlns:xlink="http://www.w3.org/1999/xlink" width="223.2pt" height="55.44pt" viewBox="0 0 223.2 55.44" xmlns="http://www.w3.org/2000/svg" version="1.1">
 <metadata>
  <rdf:RDF xmlns:dc="http://purl.org/dc/elements/1.1/" xmlns:cc="http://creativecommons.org/ns#" xmlns:rdf="http://www.w3.org/1999/02/22-rdf-syntax-ns#">
   <cc:Work>
    <dc:type rdf:resource="http://purl.org/dc/dcmitype/StillImage"/>
    <dc:date>2026-05-06T16:20:34.033813</dc:date>
    <dc:format>image/svg+xml</dc:format>
    <dc:creator>
     <cc:Agent>
      <dc:title>Matplotlib v3.10.8, https://matplotlib.org/</dc:title>
     </cc:Agent>
    </dc:creator>
   </cc:Work>
  </rdf:RDF>
 </metadata>
 <defs>
  <style type="text/css">*{stroke-linejoin: round; stroke-linecap: butt}</style>
 </defs>
 <g id="figure_1">
  <g id="patch_1">
   <path d="M 0 55.44 
L 223.2 55.44 
L 223.2 0 
L 0 0 
L 0 55.44 
z
" style="fill: none"/>
  </g>
  <g id="axes_1">
   <g id="line2d_1">
    <path d="M 10.388751 52.776598 
L 11.361936 52.629655 
L 12.091825 52.425469 
L 13.06501 51.963986 
L 14.038195 51.293714 
L 15.01138 50.434363 
L 16.227861 49.278649 
L 17.201046 48.561638 
L 21.823676 46.481776 
L 22.796861 46.116366 
L 23.283453 45.900732 
L 24.256638 44.813001 
L 25.716416 42.41553 
L 26.689601 41.401093 
L 27.906082 40.83492 
L 30.825638 39.924582 
L 35.204971 38.661581 
L 47.126488 35.854086 
L 49.559451 35.484428 
L 56.615043 33.898507 
L 57.588228 33.536283 
L 58.804709 32.700302 
L 60.02119 31.88769 
L 60.751079 31.648687 
L 61.96756 31.373567 
L 64.400523 29.638933 
L 65.373708 29.206602 
L 66.59019 28.289891 
L 67.563375 27.621743 
L 68.779856 26.904732 
L 70.48293 25.899855 
L 74.862263 24.548689 
L 76.322041 24.143976 
L 77.051929 23.769006 
L 78.9983 22.729075 
L 82.161151 21.814489 
L 83.377632 21.229196 
L 84.350818 20.757562 
L 85.080706 20.663023 
L 85.567299 20.795802 
L 87.027077 21.522373 
L 87.756965 21.538307 
L 88.486854 21.199453 
L 89.216743 20.6524 
L 91.163113 19.005932 
L 92.136298 18.363278 
L 93.109483 17.926698 
L 94.082668 17.611213 
L 97.002224 16.927132 
L 98.705298 16.402387 
L 101.624853 15.814969 
L 102.354742 15.621642 
L 103.571223 14.934374 
L 104.787704 14.169563 
L 106.734075 13.33783 
L 108.193852 12.629318 
L 109.896926 12.055709 
L 110.626815 11.530964 
L 111.843296 10.610004 
L 112.816481 9.953541 
L 114.762852 8.983717 
L 116.952518 8.359122 
L 118.655592 7.608119 
L 120.11537 7.054693 
L 124.494702 4.854799 
L 125.95448 4.006071 
L 126.684369 3.793623 
L 127.90085 3.327301 
L 129.84722 2.563552 
L 131.306998 2.57205 
L 132.280183 2.654904 
L 133.496664 3.121227 
L 134.713146 3.785125 
L 137.389405 4.980143 
L 144.444997 9.819699 
L 145.661478 10.906368 
L 147.121256 12.099261 
L 149.067626 12.977732 
L 151.013996 13.642693 
L 151.500589 13.895505 
L 152.71707 15.237112 
L 154.420144 17.450815 
L 156.123218 19.404271 
L 156.853107 20.496251 
L 157.582995 21.405527 
L 159.529366 23.677654 
L 160.259254 24.776008 
L 161.475736 26.729463 
L 163.908698 29.752592 
L 166.098365 33.815652 
L 166.828254 34.624015 
L 167.558143 35.379266 
L 170.234402 38.966443 
L 172.667364 41.344794 
L 174.613734 42.913719 
L 177.53329 44.553815 
L 178.506475 44.906478 
L 178.993067 45.045631 
L 179.722956 45.622426 
L 181.912623 47.787267 
L 183.3724 48.396991 
L 184.588882 49.300956 
L 185.562067 49.979726 
L 187.021844 50.48004 
L 190.184696 51.313896 
L 191.401177 51.737729 
L 192.617659 51.943803 
L 193.83414 51.857762 
L 197.240288 51.205548 
L 201.133028 50.876254 
L 204.782472 50.410994 
L 206.485546 49.932987 
L 207.945324 49.615378 
L 208.431916 49.551644 
L 209.161805 49.774714 
L 209.891694 50.277152 
L 212.08136 51.961861 
L 212.567953 52.202989 
L 212.567953 52.202989 
" clip-path="url(#p57454dc54b)" style="fill: none; stroke: #1f77b4; stroke-opacity: 0.9; stroke-width: 2.5; stroke-linecap: square"/>
   </g>
   <g id="line2d_2">
    <path d="M 10.145455 52.92 
L 213.054545 52.92 
L 213.054545 52.92 
" clip-path="url(#p57454dc54b)" style="fill: none; stroke-dasharray: 2,3.3; stroke-dashoffset: 0; stroke: #8d99ae; stroke-opacity: 0.7; stroke-width: 2"/>
   </g>
  </g>
 </g>
 <defs>
  <clipPath id="p57454dc54b">
   <rect x="0" y="-0" width="223.2" height="55.44"/>
  </clipPath>
 </defs>
</svg>
