<?xml version="1.0" encoding="utf-8" standalone="no"?>
<!DOCTYPE svg PUBLIC "-//W3C//DTD SVG 1.1//EN"
  "http://www.w3.org/Graphics/SVG/1.1/DTD/svg11.dtd">
<svg xmlns:xlink="http://www.w3.org/1999/xlink" width="223.2pt" height="55.44pt" viewBox="0 0 223.2 55.44" xmlns="http://www.w3.org/2000/svg" version="1.1">
 <metadata>
  <rdf:RDF xmlns:dc="http://purl.org/dc/elements/1.1/" xmlns:cc="http://creativecommons.org/ns#" xmlns:rdf="http://www.w3.org/1999/02/22-rdf-syntax-ns#">
   <cc:Work>
    <dc:type rdf:resource="http://purl.org/dc/dcmitype/StillImage"/>
    <dc:date>2026-06-29T15:38:22.110283</dc:date>
    <dc:format>image/svg+xml</dc:format>
    <dc:creator>
     <cc:Agent>
      <dc:title>Matplotlib v3.10.8, https://matplotlib.org/</dc:title>
     </cc:Agent>
    </dc:creator>
   </cc:Work>
  </rdf:RDF>
 </metadata>
 <defs>
  <style type="text/css">*{stroke-linejoin: round; stroke-linecap: butt}</style>
 </defs>
 <g id="figure_1">
  <g id="patch_1">
   <path d="M 0 55.44 
L 223.2 55.44 
L 223.2 0 
L 0 0 
L 0 55.44 
z
" style="fill: none"/>
  </g>
  <g id="axes_1">
   <g id="line2d_1">
    <path d="M 10.145455 51.821003 
L 10.63676 51.908923 
L 12.233502 52.489193 
L 13.216113 52.801308 
L 14.690029 52.865783 
L 17.760687 52.760279 
L 18.98895 52.313354 
L 20.831345 52.247414 
L 22.919392 52.512638 
L 23.65635 52.621073 
L 29.429188 52.704597 
L 29.920493 52.76321 
L 30.166146 52.647449 
L 30.780277 52.011496 
L 31.394409 51.249525 
L 32.008541 50.742521 
L 32.745499 50.084588 
L 33.35963 49.436912 
L 34.219414 48.676406 
L 34.833546 48.324727 
L 35.324851 47.750318 
L 36.061809 46.808112 
L 37.167246 45.824876 
L 37.904204 45.175735 
L 38.39551 44.671662 
L 39.009641 43.875988 
L 39.746599 42.70812 
L 40.606383 41.540253 
L 41.343341 40.614165 
L 41.71182 40.154051 
L 42.080299 39.179608 
L 43.185736 35.94416 
L 43.922694 35.488443 
L 44.168347 35.618857 
L 44.536826 36.020358 
L 45.887915 37.983899 
L 46.993352 38.423498 
L 48.221616 38.367815 
L 49.941184 38.482111 
L 50.800969 38.080611 
L 51.537926 37.718674 
L 52.274884 37.427074 
L 53.011842 37.276145 
L 53.503148 37.23365 
L 56.45098 36.25481 
L 56.942285 36.448234 
L 57.310764 36.486332 
L 57.679243 36.29877 
L 58.293374 35.482582 
L 59.890117 33.225975 
L 60.749901 32.058107 
L 61.609685 30.906358 
L 62.223817 29.539206 
L 62.715122 28.400645 
L 63.206427 27.786672 
L 63.697733 27.744178 
L 64.311864 27.626952 
L 64.925996 27.391034 
L 68.119481 25.160802 
L 68.487959 25.046507 
L 69.47057 24.287466 
L 69.961875 23.874243 
L 70.453181 23.607553 
L 70.944486 24.293328 
L 72.049923 26.428312 
L 72.295576 26.314017 
L 72.541228 25.902259 
L 73.15536 24.271348 
L 73.523839 23.459555 
L 73.892318 23.077104 
L 74.874928 22.042582 
L 75.734713 20.471749 
L 76.103192 20.225573 
L 76.471671 20.303236 
L 76.717323 20.292979 
L 77.085802 20.095159 
L 78.559718 18.621038 
L 79.17385 18.398308 
L 79.665155 18.20635 
L 80.402113 17.670039 
L 81.139071 17.13959 
L 81.876029 16.954959 
L 82.367334 16.790842 
L 82.612987 16.721971 
L 83.104292 16.648705 
L 83.595598 16.40546 
L 84.086903 16.222294 
L 84.578208 16.109464 
L 85.560819 15.842774 
L 87.034735 15.199494 
L 87.894519 15.048565 
L 88.140172 14.872726 
L 88.631477 14.20307 
L 89.491261 12.46812 
L 90.228219 11.644605 
L 90.596698 11.402826 
L 91.333656 10.495787 
L 92.561919 7.92853 
L 93.667356 7.253014 
L 94.158662 7.093293 
L 95.87823 5.918099 
L 96.860841 5.418421 
L 97.843451 5.453589 
L 98.457583 4.871853 
L 99.808673 2.52 
L 100.545631 2.6299 
L 100.791283 2.531723 
L 101.282589 2.667998 
L 101.773894 3.293694 
L 102.510852 4.972961 
L 103.739115 8.694898 
L 104.721726 10.580776 
L 106.195642 13.650641 
L 107.91521 16.491915 
L 108.652168 17.631941 
L 110.24891 19.572037 
L 111.354347 20.527431 
L 111.845653 21.254235 
L 113.319569 23.581177 
L 114.056527 24.639145 
L 115.161963 26.21877 
L 117.127185 27.952255 
L 118.232622 28.727414 
L 119.583711 30.277732 
L 120.075017 30.40082 
L 120.320669 30.327553 
L 120.811974 29.835203 
L 121.548932 28.881273 
L 122.654369 28.334706 
L 124.005459 26.640785 
L 127.198943 24.050083 
L 128.427207 23.46102 
L 129.532644 22.414775 
L 130.638081 21.986899 
L 132.234823 20.7443 
L 134.32287 17.979224 
L 135.551134 16.477261 
L 135.919613 16.51536 
L 136.410918 17.022364 
L 136.902223 17.561605 
L 137.639181 18.386585 
L 139.113097 19.992586 
L 139.727229 20.377968 
L 140.832666 21.139939 
L 141.446797 21.520925 
L 141.815276 21.772961 
L 142.920713 22.672673 
L 143.903324 22.860235 
L 145.500066 23.978282 
L 147.096808 25.053833 
L 148.570724 26.681814 
L 149.062029 27.238639 
L 149.798987 29.071766 
L 150.167466 29.895281 
L 150.658772 30.323157 
L 151.150077 30.548818 
L 151.887035 30.630877 
L 152.869646 30.110685 
L 154.097909 29.417584 
L 154.466388 28.816799 
L 154.957693 27.832098 
L 155.203346 27.651862 
L 155.448998 27.728059 
L 155.694651 28.179381 
L 156.554435 30.307039 
L 156.922914 30.909289 
L 157.659872 31.829516 
L 158.39683 32.132839 
L 159.502267 31.600925 
L 159.74792 31.681518 
L 160.239225 31.923297 
L 161.099009 31.832447 
L 161.590315 31.810467 
L 164.046841 31.801675 
L 165.275105 31.612647 
L 166.626194 31.093921 
L 169.328373 29.764867 
L 170.065331 29.731164 
L 171.662074 29.970013 
L 172.399031 29.826411 
L 172.644684 29.698927 
L 173.381642 28.695177 
L 174.487079 26.633458 
L 174.855558 26.183602 
L 175.838169 25.489036 
L 176.329474 25.414304 
L 176.820779 25.556441 
L 177.557737 26.381422 
L 179.277306 29.007292 
L 179.645785 29.325268 
L 180.014264 29.282774 
L 180.382743 29.681343 
L 180.874048 30.197139 
L 181.365353 30.840419 
L 181.611006 31.010397 
L 182.47079 31.013328 
L 182.716443 31.268295 
L 183.453401 32.956354 
L 183.944706 33.84874 
L 184.436011 34.398238 
L 184.927317 34.546236 
L 185.541448 34.609246 
L 186.032754 35.415177 
L 186.892538 36.807239 
L 187.261017 36.947911 
L 187.997975 37.013851 
L 188.48928 37.356738 
L 189.226238 37.979503 
L 189.84037 38.108452 
L 190.331675 38.3473 
L 191.682765 39.543009 
L 192.051244 39.743759 
L 193.033854 40.482285 
L 193.52516 40.555552 
L 195.736033 40.817846 
L 196.718644 41.493362 
L 197.332776 41.420096 
L 198.315386 41.10505 
L 199.420823 40.848618 
L 201.508871 39.984073 
L 203.596918 39.963559 
L 205.439313 39.61188 
L 208.387145 39.015491 
L 209.492582 38.763454 
L 211.826282 38.181718 
L 213.054545 38.581753 
L 213.054545 38.581753 
" clip-path="url(#p1409e5d0e0)" style="fill: none; stroke: #1f77b4; stroke-opacity: 0.9; stroke-width: 2.5; stroke-linecap: square"/>
   </g>
   <g id="line2d_2">
    <path d="M 10.145455 52.92 
L 213.054545 52.92 
L 213.054545 52.92 
" clip-path="url(#p1409e5d0e0)" style="fill: none; stroke-dasharray: 2,3.3; stroke-dashoffset: 0; stroke: #8d99ae; stroke-opacity: 0.7; stroke-width: 2"/>
   </g>
  </g>
 </g>
 <defs>
  <clipPath id="p1409e5d0e0">
   <rect x="0" y="-0" width="223.2" height="55.44"/>
  </clipPath>
 </defs>
</svg>
