<?xml version="1.0" encoding="utf-8" standalone="no"?>
<!DOCTYPE svg PUBLIC "-//W3C//DTD SVG 1.1//EN"
  "http://www.w3.org/Graphics/SVG/1.1/DTD/svg11.dtd">
<svg xmlns:xlink="http://www.w3.org/1999/xlink" width="223.2pt" height="55.44pt" viewBox="0 0 223.2 55.44" xmlns="http://www.w3.org/2000/svg" version="1.1">
 <metadata>
  <rdf:RDF xmlns:dc="http://purl.org/dc/elements/1.1/" xmlns:cc="http://creativecommons.org/ns#" xmlns:rdf="http://www.w3.org/1999/02/22-rdf-syntax-ns#">
   <cc:Work>
    <dc:type rdf:resource="http://purl.org/dc/dcmitype/StillImage"/>
    <dc:date>2026-05-06T16:20:37.662546</dc:date>
    <dc:format>image/svg+xml</dc:format>
    <dc:creator>
     <cc:Agent>
      <dc:title>Matplotlib v3.10.8, https://matplotlib.org/</dc:title>
     </cc:Agent>
    </dc:creator>
   </cc:Work>
  </rdf:RDF>
 </metadata>
 <defs>
  <style type="text/css">*{stroke-linejoin: round; stroke-linecap: butt}</style>
 </defs>
 <g id="figure_1">
  <g id="patch_1">
   <path d="M 0 55.44 
L 223.2 55.44 
L 223.2 0 
L 0 0 
L 0 55.44 
z
" style="fill: none"/>
  </g>
  <g id="axes_1">
   <g id="line2d_1">
    <path d="M 10.302262 51.682642 
L 11.243108 51.551456 
L 11.556723 51.417031 
L 11.870339 50.914313 
L 13.281607 48.161029 
L 14.379261 47.737347 
L 15.947337 46.461119 
L 16.731376 44.864862 
L 17.829029 42.001447 
L 18.613067 41.09837 
L 19.397106 40.197884 
L 20.181144 37.881238 
L 20.965182 35.730437 
L 21.906028 34.053849 
L 22.219643 33.823221 
L 22.690066 33.766212 
L 23.003681 33.951492 
L 23.630912 34.429592 
L 23.944527 34.449026 
L 24.258142 34.210624 
L 25.198988 32.965492 
L 25.669411 32.316365 
L 26.296642 32.061119 
L 27.08068 31.89657 
L 28.648756 31.016815 
L 28.962372 30.937779 
L 29.275987 30.70456 
L 30.373641 29.538463 
L 30.844064 29.468497 
L 31.000871 29.506072 
L 31.784909 28.701465 
L 32.568948 27.898154 
L 33.823409 28.161173 
L 34.137024 27.87224 
L 35.234678 26.2112 
L 35.548293 25.870441 
L 36.175523 25.757718 
L 37.116369 25.515429 
L 38.057215 25.20447 
L 38.527638 24.682318 
L 39.782099 23.067922 
L 40.252522 22.79065 
L 41.193368 21.645283 
L 41.663791 21.142566 
L 42.134214 20.878251 
L 43.231867 20.633371 
L 43.859098 20.812172 
L 44.643136 20.293907 
L 45.74079 19.512622 
L 46.995251 18.991765 
L 47.936097 19.143358 
L 48.249712 19.035818 
L 48.876943 18.390578 
L 50.288211 16.685485 
L 50.915442 15.441648 
L 51.69948 13.984027 
L 52.013095 13.678251 
L 52.483518 13.684729 
L 53.267557 13.754695 
L 53.581172 13.463171 
L 54.208402 12.311326 
L 54.835633 11.098586 
L 55.149248 10.94181 
L 56.090094 10.887392 
L 56.560517 10.411884 
L 57.658171 9.019046 
L 58.285401 8.885593 
L 59.069439 8.731409 
L 59.69667 8.373806 
L 60.167093 7.911254 
L 61.578362 6.295562 
L 62.676015 5.69567 
L 63.146438 5.036178 
L 64.244092 3.188562 
L 64.871322 2.772654 
L 65.341745 2.643088 
L 66.439399 2.658636 
L 66.909822 3.038265 
L 67.223437 3.5656 
L 68.634706 6.42772 
L 69.732359 7.702653 
L 70.202782 7.956602 
L 70.516397 7.95142 
L 71.614051 7.481094 
L 72.084474 7.499233 
L 72.868512 7.973446 
L 73.338935 8.403606 
L 74.122973 9.147317 
L 74.750204 9.460867 
L 76.004665 9.565816 
L 77.572741 9.646147 
L 78.670395 9.846975 
L 80.865702 10.064646 
L 81.806548 10.323779 
L 82.276971 10.186439 
L 82.747394 10.032255 
L 83.374624 10.071125 
L 85.256316 10.427432 
L 85.726739 10.860184 
L 86.040354 11.311074 
L 86.9812 13.148325 
L 87.451623 13.616059 
L 87.765238 13.622537 
L 88.078853 13.702868 
L 88.392469 13.949044 
L 89.019699 14.9182 
L 89.490122 15.345769 
L 89.803738 15.337995 
L 90.430968 15.177333 
L 90.587776 15.372978 
L 91.842237 18.75725 
L 92.155852 19.055253 
L 92.469467 18.709311 
L 92.93989 18.215663 
L 93.567121 18.732633 
L 93.880736 19.122627 
L 94.664774 20.410516 
L 95.448813 21.137383 
L 95.919236 21.314889 
L 96.546466 22.365672 
L 97.487312 24.070765 
L 97.800927 24.157574 
L 97.957735 24.135548 
L 98.741773 23.485125 
L 99.055389 23.429412 
L 99.525811 23.604326 
L 100.153042 24.040965 
L 101.250696 24.358402 
L 101.564311 24.677135 
L 102.348349 25.472672 
L 103.446003 26.48329 
L 104.386848 27.876127 
L 105.64131 29.351888 
L 106.26854 30.376757 
L 108.463847 32.313774 
L 111.129577 34.290956 
L 111.756808 34.530653 
L 112.854461 34.870117 
L 113.324884 35.122771 
L 114.108922 35.55941 
L 115.049768 36.102293 
L 115.520191 36.523383 
L 116.774652 37.636358 
L 118.342729 38.395616 
L 119.440382 39.132849 
L 119.753997 39.178197 
L 120.694843 38.858168 
L 121.322074 38.194789 
L 121.949304 37.201015 
L 122.733343 35.707115 
L 123.517381 34.892143 
L 123.830996 34.722411 
L 124.615034 34.484009 
L 125.242265 34.088832 
L 128.378418 32.250286 
L 129.319264 31.093259 
L 129.632879 31.110103 
L 130.26011 31.316113 
L 130.573725 31.259104 
L 131.200955 30.682534 
L 131.828186 30.11892 
L 133.082647 29.58122 
L 133.866685 28.919136 
L 134.493916 28.219478 
L 134.964339 27.745265 
L 135.591569 27.079295 
L 136.689223 26.531229 
L 137.316454 26.646543 
L 137.943684 27.215339 
L 138.570915 28.034198 
L 139.982184 30.103372 
L 141.863875 31.829196 
L 142.491106 32.12072 
L 143.588759 32.640281 
L 144.21599 33.20519 
L 146.254489 35.126658 
L 146.88172 35.064466 
L 147.352143 35.082606 
L 147.665758 35.43373 
L 148.606604 37.094771 
L 149.077027 37.403138 
L 150.17468 37.592305 
L 150.645103 37.811272 
L 151.585949 37.658384 
L 152.683603 37.251546 
L 154.722102 34.977657 
L 155.349333 34.674472 
L 156.446986 34.599323 
L 156.917409 34.316869 
L 158.015063 33.13652 
L 161.935254 28.192269 
L 163.50333 26.785179 
L 163.816945 26.242296 
L 165.228214 23.225992 
L 165.698637 22.88912 
L 166.796291 22.184279 
L 167.266714 21.377081 
L 167.893944 20.264107 
L 168.364367 19.784711 
L 168.83479 19.539831 
L 168.991598 19.478935 
L 169.618828 18.15995 
L 170.873289 15.062019 
L 171.657328 13.956818 
L 171.970943 13.714529 
L 172.284558 13.724895 
L 172.754981 14.024193 
L 173.539019 14.993349 
L 174.16625 16.071341 
L 174.636673 17.27242 
L 176.988787 23.906216 
L 179.340902 30.809509 
L 179.968133 31.904344 
L 180.438556 32.405766 
L 180.752171 33.006953 
L 181.379401 34.636898 
L 181.849824 35.331373 
L 182.16344 35.40393 
L 182.320247 35.315825 
L 182.79067 34.748325 
L 183.104286 34.876595 
L 183.731516 35.554227 
L 184.672362 36.960022 
L 185.4564 37.427756 
L 186.083631 37.344834 
L 186.554054 37.128458 
L 187.338092 36.277207 
L 188.278938 35.26659 
L 189.219784 34.430887 
L 190.317437 33.106719 
L 190.78786 32.883865 
L 191.101475 32.992701 
L 191.571898 33.718272 
L 193.139975 36.60501 
L 194.237628 37.400547 
L 195.021666 37.854029 
L 196.746551 39.323311 
L 197.216973 39.460651 
L 198.157819 38.972186 
L 198.628242 38.543322 
L 199.098665 38.142962 
L 199.569088 37.891603 
L 200.039511 37.999143 
L 200.509934 38.990326 
L 201.293972 41.216275 
L 201.921203 43.405946 
L 203.175664 46.505172 
L 204.11651 47.82027 
L 205.214163 48.588598 
L 205.684586 48.782948 
L 207.095855 48.644312 
L 207.40947 48.937132 
L 208.193509 50.258708 
L 208.820739 51.271917 
L 209.291162 51.65932 
L 210.545623 52.387482 
L 211.172854 52.719172 
L 211.643277 52.703624 
L 212.427315 52.283829 
L 212.74093 52.079115 
L 212.74093 52.079115 
" clip-path="url(#pa3c408133b)" style="fill: none; stroke: #1f77b4; stroke-opacity: 0.9; stroke-width: 2.5; stroke-linecap: square"/>
   </g>
   <g id="line2d_2">
    <path d="M 10.145455 52.92 
L 213.054545 52.92 
L 213.054545 52.92 
" clip-path="url(#pa3c408133b)" style="fill: none; stroke-dasharray: 2,3.3; stroke-dashoffset: 0; stroke: #8d99ae; stroke-opacity: 0.7; stroke-width: 2"/>
   </g>
  </g>
 </g>
 <defs>
  <clipPath id="pa3c408133b">
   <rect x="0" y="-0" width="223.2" height="55.44"/>
  </clipPath>
 </defs>
</svg>
