<?xml version="1.0" encoding="utf-8" standalone="no"?>
<!DOCTYPE svg PUBLIC "-//W3C//DTD SVG 1.1//EN"
  "http://www.w3.org/Graphics/SVG/1.1/DTD/svg11.dtd">
<svg xmlns:xlink="http://www.w3.org/1999/xlink" width="223.2pt" height="55.44pt" viewBox="0 0 223.2 55.44" xmlns="http://www.w3.org/2000/svg" version="1.1">
 <metadata>
  <rdf:RDF xmlns:dc="http://purl.org/dc/elements/1.1/" xmlns:cc="http://creativecommons.org/ns#" xmlns:rdf="http://www.w3.org/1999/02/22-rdf-syntax-ns#">
   <cc:Work>
    <dc:type rdf:resource="http://purl.org/dc/dcmitype/StillImage"/>
    <dc:date>2026-05-06T16:20:50.354049</dc:date>
    <dc:format>image/svg+xml</dc:format>
    <dc:creator>
     <cc:Agent>
      <dc:title>Matplotlib v3.10.8, https://matplotlib.org/</dc:title>
     </cc:Agent>
    </dc:creator>
   </cc:Work>
  </rdf:RDF>
 </metadata>
 <defs>
  <style type="text/css">*{stroke-linejoin: round; stroke-linecap: butt}</style>
 </defs>
 <g id="figure_1">
  <g id="patch_1">
   <path d="M 0 55.44 
L 223.2 55.44 
L 223.2 0 
L 0 0 
L 0 55.44 
z
" style="fill: none"/>
  </g>
  <g id="axes_1">
   <g id="line2d_1">
    <path d="M 10.299407 52.15354 
L 11.531025 52.045334 
L 13.840309 51.701178 
L 14.764023 51.535864 
L 15.841689 50.799461 
L 16.765402 49.993927 
L 17.99702 48.857762 
L 18.612829 47.641947 
L 19.382591 45.975272 
L 20.460257 42.940992 
L 21.691875 39.371694 
L 22.461636 37.993569 
L 22.769541 37.786174 
L 23.539302 37.565253 
L 24.155111 37.64791 
L 24.616968 37.644905 
L 25.078825 37.777156 
L 26.002538 37.68999 
L 27.080204 37.339823 
L 28.465775 36.26678 
L 28.773679 36.253254 
L 29.697393 36.698101 
L 30.313202 36.955091 
L 30.929011 37.082834 
L 31.390868 37.481093 
L 32.314581 39.5325 
L 32.776438 39.890181 
L 33.084343 39.993879 
L 33.392247 40.043473 
L 33.854104 40.429709 
L 34.469913 40.972242 
L 35.701531 41.447147 
L 37.087102 43.122839 
L 37.548958 43.176942 
L 37.856863 43.041684 
L 38.31872 42.61938 
L 39.70429 41.752228 
L 40.474052 40.649127 
L 40.935908 39.57458 
L 42.629383 34.642185 
L 44.476811 31.268259 
L 44.938667 30.808383 
L 45.400524 30.668616 
L 45.708429 30.824914 
L 46.324238 31.513225 
L 47.555856 32.969499 
L 49.86514 35.446217 
L 50.326997 35.688177 
L 50.788854 36.021813 
L 51.096758 36.698101 
L 51.712567 38.612748 
L 52.636281 41.737199 
L 53.098138 42.526202 
L 53.713947 42.931975 
L 54.329756 42.712557 
L 54.945565 42.270716 
L 55.253469 41.938583 
L 56.331135 41.468187 
L 56.792992 41.588416 
L 57.408801 41.962629 
L 58.02461 42.431522 
L 58.332515 42.147481 
L 58.948324 41.112009 
L 59.872038 39.20187 
L 60.487847 38.384313 
L 62.027369 35.079518 
L 63.105035 33.952371 
L 64.490606 31.714609 
L 65.568271 30.45521 
L 67.107794 27.735029 
L 67.569651 27.106832 
L 68.031508 25.848936 
L 68.647317 24.068044 
L 69.263126 22.852228 
L 70.802649 21.090873 
L 71.57241 20.318402 
L 72.342171 19.410673 
L 72.804028 18.979351 
L 73.111933 18.836579 
L 73.573789 18.220406 
L 74.189599 16.81072 
L 74.651455 15.905997 
L 75.267264 15.291326 
L 75.729121 15.157572 
L 76.190978 15.282309 
L 76.806787 15.062891 
L 77.268644 15.202657 
L 77.730501 15.017805 
L 78.500262 15.232715 
L 79.270023 15.358955 
L 80.347689 16.199055 
L 80.809546 16.529685 
L 81.117451 16.444022 
L 81.579307 15.985649 
L 83.11883 13.746384 
L 83.734639 13.445811 
L 85.736019 13.139227 
L 86.197876 13.336102 
L 86.967637 14.147648 
L 87.583446 15.00428 
L 89.276921 16.743092 
L 89.738778 17.477991 
L 90.970396 19.811937 
L 91.586205 20.587414 
L 92.202014 21.160005 
L 92.663871 21.334337 
L 92.971775 21.245668 
L 93.433632 20.851918 
L 94.973155 19.1101 
L 95.435012 19.215301 
L 95.742916 19.487319 
L 96.66663 20.500248 
L 97.282439 21.391446 
L 99.437771 25.579924 
L 99.899628 25.844427 
L 100.669389 26.209623 
L 102.054959 27.254113 
L 102.670768 27.527634 
L 103.44053 27.813177 
L 103.748434 28.085196 
L 104.672148 29.539967 
L 105.287957 30.652085 
L 106.211671 31.259241 
L 106.82748 31.343402 
L 107.289336 31.403516 
L 108.674907 31.024795 
L 110.368382 30.839943 
L 112.215809 31.499699 
L 112.831618 31.878421 
L 113.755332 32.049747 
L 114.832998 31.346407 
L 115.294854 30.984218 
L 115.910664 31.095429 
L 116.37252 30.909074 
L 116.834377 30.863989 
L 117.450186 30.461221 
L 118.681804 30.123077 
L 119.143661 29.805973 
L 119.75947 28.910267 
L 120.683184 27.655377 
L 121.145041 27.320239 
L 122.838516 26.810768 
L 123.454325 26.290778 
L 124.378038 25.26282 
L 125.763609 23.175344 
L 127.457084 20.627991 
L 128.072893 19.645119 
L 129.150559 18.731379 
L 129.458463 18.572075 
L 130.074272 17.665849 
L 130.536129 16.66344 
L 131.767747 13.686269 
L 132.075652 13.379685 
L 132.691461 12.939346 
L 133.30727 12.251035 
L 133.769127 11.289203 
L 134.230984 10.366446 
L 134.846793 9.56542 
L 135.308649 9.219761 
L 135.462602 9.12959 
L 136.232363 7.114251 
L 137.310029 4.180663 
L 138.07979 2.894213 
L 138.387695 2.547052 
L 138.695599 2.571097 
L 139.311408 3.185768 
L 140.235122 4.672099 
L 140.696979 5.739132 
L 143.776024 16.260673 
L 144.391833 18.450344 
L 145.777404 22.930377 
L 146.239261 23.839609 
L 146.701117 24.125153 
L 147.316926 24.14469 
L 147.624831 24.185267 
L 148.086688 24.735315 
L 149.010401 26.543259 
L 149.164354 26.710076 
L 149.472258 26.624413 
L 149.780163 26.313321 
L 151.011781 24.817972 
L 151.473638 24.783406 
L 153.321065 25.74073 
L 153.936874 26.791231 
L 154.552683 27.807166 
L 154.860588 28.077681 
L 155.322444 28.00855 
L 155.784301 27.883812 
L 156.092206 27.898841 
L 157.631729 28.59166 
L 157.939633 28.639752 
L 158.247538 29.083096 
L 158.863347 30.703182 
L 159.78706 33.215969 
L 160.864726 34.258955 
L 162.250297 35.578469 
L 162.712153 36.155568 
L 163.789819 37.52167 
L 164.251676 37.816231 
L 164.713533 38.234027 
L 165.17539 38.748006 
L 165.637247 38.869738 
L 165.945151 38.699914 
L 166.253056 38.396336 
L 166.714912 37.864323 
L 167.022817 37.736579 
L 167.484674 37.786174 
L 168.716292 38.286627 
L 169.486053 38.44593 
L 170.717671 38.555639 
L 171.33348 38.929852 
L 172.411146 39.64822 
L 172.873003 39.691803 
L 173.488812 39.54302 
L 175.336239 38.847195 
L 175.798096 38.959909 
L 177.029714 39.84209 
L 177.337619 39.783478 
L 178.415285 38.868235 
L 179.954808 37.186531 
L 180.262712 37.061794 
L 180.570617 37.15948 
L 181.49433 37.801202 
L 181.802235 38.378302 
L 182.879901 41.038368 
L 183.49571 42.499151 
L 184.573376 44.16282 
L 185.035232 44.442352 
L 185.651042 44.852634 
L 186.728707 46.17365 
L 187.344516 46.813869 
L 189.345896 48.276155 
L 189.807753 48.367829 
L 190.423562 48.458001 
L 191.039371 48.937414 
L 192.117037 49.89624 
L 192.886798 50.280973 
L 194.118416 51.64407 
L 194.580273 52.138511 
L 195.350034 52.696073 
L 195.657939 52.82532 
L 196.119796 52.775725 
L 196.735605 52.407524 
L 197.659319 51.559909 
L 198.583032 50.405711 
L 199.81465 48.976489 
L 200.122555 48.848745 
L 200.430459 48.944928 
L 201.046268 49.421336 
L 201.508125 49.863177 
L 202.123934 49.782023 
L 202.893696 49.735434 
L 203.663457 49.800057 
L 204.587171 49.479948 
L 204.895075 49.422839 
L 205.356932 49.612199 
L 206.126693 50.193807 
L 206.58855 50.456808 
L 207.666216 50.647672 
L 212.746641 50.933216 
L 212.746641 50.933216 
" clip-path="url(#pf807d57a1e)" style="fill: none; stroke: #1f77b4; stroke-opacity: 0.9; stroke-width: 2.5; stroke-linecap: square"/>
   </g>
   <g id="line2d_2">
    <path d="M 10.145455 52.92 
L 213.054545 52.92 
L 213.054545 52.92 
" clip-path="url(#pf807d57a1e)" style="fill: none; stroke-dasharray: 2,3.3; stroke-dashoffset: 0; stroke: #8d99ae; stroke-opacity: 0.7; stroke-width: 2"/>
   </g>
  </g>
 </g>
 <defs>
  <clipPath id="pf807d57a1e">
   <rect x="0" y="-0" width="223.2" height="55.44"/>
  </clipPath>
 </defs>
</svg>
